<?xml version="1.0" encoding="iso-8859-1"?>
<!-- Generator: Adobe Illustrator 19.0.0, SVG Export Plug-In . SVG Version: 6.00 Build 0)  -->
<svg xmlns="http://www.w3.org/2000/svg" xmlns:xlink="http://www.w3.org/1999/xlink" version="1.1" id="Layer_1" x="0px" y="0px" viewBox="0 0 512 512" style="enable-background:new 0 0 512 512;" xml:space="preserve">
<polygon style="fill:#FFC222;" points="446.203,141.068 398.476,141.068 382.803,151.517 361.902,211.943 382.803,282.819   446.203,282.819 "/>
<polygon style="fill:#FEDF77;" points="319.401,141.068 298.502,211.943 319.401,282.819 382.803,282.819 382.803,151.517   367.129,141.068 "/>
<polygon style="fill:#FFC222;" points="319.401,141.068 271.673,141.068 256,151.517 235.101,211.943 256,282.819 319.401,282.819   "/>
<polygon style="fill:#FEDF77;" points="192.599,141.068 171.7,211.943 192.599,282.819 256,282.819 256,151.517 240.327,141.068 "/>
<polygon style="fill:#FFC222;" points="192.599,141.068 144.871,141.068 129.197,151.517 108.298,211.943 129.197,282.819   192.599,282.819 "/>
<polygon style="fill:#FEDF77;" points="65.797,141.068 65.797,282.819 129.197,282.819 129.197,151.517 113.524,141.068 "/>
<path style="fill:#9D9D9D;" d="M462.049,267.87H256l-20.899,51.53L256,370.931h206.049c27.587,0,49.951-22.364,49.951-49.951v-3.16  C512,290.233,489.636,267.87,462.049,267.87z"/>
<path style="fill:#D4D4D4;" d="M49.951,267.87C22.364,267.87,0,290.233,0,317.821v3.16c0,27.587,22.364,49.951,49.951,49.951H256  V267.87H49.951z"/>
<rect id="SVGCleanerId_0" x="120.289" y="303.73" style="fill:#EDEDED;" width="47.963" height="31.347"/>
<g>
	<rect x="194.779" y="303.73" style="fill:#EDEDED;" width="47.963" height="31.347"/>
	<rect x="45.801" y="303.73" style="fill:#EDEDED;" width="47.963" height="31.347"/>
</g>
<g>
	<rect id="SVGCleanerId_0_1_" x="120.289" y="303.73" style="fill:#EDEDED;" width="47.963" height="31.347"/>
</g>
<g>
	<rect x="269.26" y="303.73" style="fill:#D4D4D4;" width="47.963" height="31.347"/>
	<rect x="343.751" y="303.73" style="fill:#D4D4D4;" width="47.963" height="31.347"/>
	<rect x="418.241" y="303.73" style="fill:#D4D4D4;" width="47.963" height="31.347"/>
</g>
<g>
	<rect x="113.528" y="141.071" style="fill:#FF9500;" width="31.347" height="44.022"/>
	<rect x="240.327" y="141.071" style="fill:#FF9500;" width="31.347" height="44.022"/>
	<rect x="367.125" y="141.071" style="fill:#FF9500;" width="31.347" height="44.022"/>
</g>
<g>
</g>
<g>
</g>
<g>
</g>
<g>
</g>
<g>
</g>
<g>
</g>
<g>
</g>
<g>
</g>
<g>
</g>
<g>
</g>
<g>
</g>
<g>
</g>
<g>
</g>
<g>
</g>
<g>
</g>
</svg>
