<?xml version="1.0" encoding="iso-8859-1"?>
<!-- Generator: Adobe Illustrator 19.0.0, SVG Export Plug-In . SVG Version: 6.00 Build 0)  -->
<svg xmlns="http://www.w3.org/2000/svg" xmlns:xlink="http://www.w3.org/1999/xlink" version="1.1" id="Layer_1" x="0px" y="0px" viewBox="0 0 512 512" style="enable-background:new 0 0 512 512;" xml:space="preserve">
<path style="fill:#D61322;" d="M279.771,217.401v73.172h-35.079l-20.899,63.208h116.914c11.357-40.332,48.473-69.983,92.387-69.983  v-50.724L279.771,217.401z"/>
<rect x="235.102" y="201.73" style="fill:#C2000A;" width="197.998" height="31.347"/>
<polygon style="fill:#EC2533;" points="158.099,290.573 158.099,167.35 211.304,167.35 211.304,136.003 113.657,136.003   44.592,332.975 106.446,353.781 244.692,353.781 244.692,290.573 "/>
<path style="fill:#9D9D9D;" d="M433.093,268.124c-45.723,0-86.733,28.242-103.574,69.983h-36.031l-20.899,15.673l20.899,15.673  h59.088l3.217-11.426c9.708-34.477,41.495-58.558,77.301-58.558c21.405,0,41.557,8.362,56.741,23.548L512,300.853  C490.894,279.748,462.871,268.124,433.093,268.124z"/>
<rect x="63.279" y="338.11" style="fill:#D4D4D4;" width="230.212" height="31.347"/>
<path style="fill:#6F6F6F;" d="M52.938,328.142L39.1,383.033l13.838,50.985c29.19,0,52.938-23.747,52.938-52.938  S82.128,328.142,52.938,328.142z"/>
<path style="fill:#9D9D9D;" d="M0,381.08c0,29.19,23.747,52.938,52.938,52.938V328.142C23.747,328.142,0,351.89,0,381.08z"/>
<path style="fill:#D4D4D4;" d="M52.938,355.815L39.1,381.08l13.838,25.265c13.931,0,25.265-11.334,25.265-25.265  C78.202,367.149,66.869,355.815,52.938,355.815z"/>
<path style="fill:#EDEDED;" d="M27.673,381.08c0,13.931,11.334,25.265,25.265,25.265v-50.53  C39.007,355.815,27.673,367.149,27.673,381.08z"/>
<path style="fill:#6F6F6F;" d="M433.093,328.142l-13.838,54.891l13.838,50.985c29.19,0,52.938-23.747,52.938-52.938  S462.284,328.142,433.093,328.142z"/>
<path style="fill:#9D9D9D;" d="M380.156,381.08c0,29.19,23.747,52.938,52.938,52.938V328.142  C403.903,328.142,380.156,351.89,380.156,381.08z"/>
<path style="fill:#D4D4D4;" d="M433.093,355.815l-13.838,25.265l13.838,25.265c13.931,0,25.265-11.334,25.265-25.265  C458.358,367.149,447.024,355.815,433.093,355.815z"/>
<path style="fill:#EDEDED;" d="M407.829,381.08c0,13.931,11.334,25.265,25.265,25.265v-50.53  C419.163,355.815,407.829,367.149,407.829,381.08z"/>
<polygon style="fill:#FFC222;" points="497.584,77.985 430.561,77.985 414.887,88.434 393.987,147.693 414.887,217.401   497.584,217.401 "/>
<polygon style="fill:#FEDF77;" points="332.19,77.985 332.19,217.401 414.887,217.401 414.887,88.434 399.214,77.985 "/>
<rect x="399.214" y="77.982" style="fill:#FF9500;" width="31.347" height="52.726"/>
<g>
</g>
<g>
</g>
<g>
</g>
<g>
</g>
<g>
</g>
<g>
</g>
<g>
</g>
<g>
</g>
<g>
</g>
<g>
</g>
<g>
</g>
<g>
</g>
<g>
</g>
<g>
</g>
<g>
</g>
</svg>
