<?xml version="1.0" encoding="iso-8859-1"?>
<!-- Generator: Adobe Illustrator 19.0.0, SVG Export Plug-In . SVG Version: 6.00 Build 0)  -->
<svg xmlns="http://www.w3.org/2000/svg" xmlns:xlink="http://www.w3.org/1999/xlink" version="1.1" id="Layer_1" x="0px" y="0px" viewBox="0 0 512 512" style="enable-background:new 0 0 512 512;" xml:space="preserve">
<path style="fill:#9D9D9D;" d="M32.19,367.633c-12.021,0-23.681-4.808-32.19-13.319l22.158-22.149  c2.792,2.792,6.512,4.26,10.475,4.131c7.193-0.233,13.176-6.028,13.621-13.194c0.246-3.968-1.104-7.733-3.801-10.604  c-2.702-2.875-6.36-4.458-10.301-4.458H16.486V128.403h31.33v151.106c6.58,2.42,12.594,6.346,17.467,11.53  c8.682,9.238,13.029,21.313,12.242,34.004c-1.435,23.12-20.709,41.816-43.879,42.566C33.159,367.626,32.674,367.633,32.19,367.633z"/>
<rect x="65.832" y="91.699" transform="matrix(-0.7071 -0.7071 0.7071 -0.7071 47.5445 278.7214)" style="fill:#D4D4D4;" width="31.33" height="75.63"/>
<rect x="92.58" y="102.773" style="fill:#9D9D9D;" width="31.33" height="130.887"/>
<rect x="128.695" y="146.457" transform="matrix(-0.7071 -0.7071 0.7071 -0.7071 106.755 439.2997)" style="fill:#D4D4D4;" width="31.33" height="102.166"/>
<rect x="164.817" y="161.423" style="fill:#9D9D9D;" width="31.33" height="176.806"/>
<rect x="213.646" y="220.365" transform="matrix(-0.7071 -0.7071 0.7071 -0.7071 186.8183 656.194)" style="fill:#D4D4D4;" width="31.33" height="138.081"/>
<path style="fill:#6F6F6F;" d="M228.496,435.292L16.485,128.404V8.169l298.843,242.433L228.496,435.292z M47.815,118.634  l189.273,273.974l39.449-133.134L47.815,73.927V118.634z"/>
<polygon style="fill:#FFC222;" points="447.994,196.221 336.951,196.221 316.062,424.871 447.994,403.982 "/>
<polygon style="fill:#FEDF77;" points="279.914,196.221 225.906,403.982 336.951,424.871 336.951,196.221 "/>
<path style="fill:#9D9D9D;" d="M462.076,403.982H312.342l-20.888,49.924l20.888,49.924h149.735  c27.573,0,49.923-22.352,49.923-49.923l0,0C512,426.334,489.648,403.982,462.076,403.982z"/>
<path style="fill:#D4D4D4;" d="M162.607,403.982c-27.573,0-49.924,22.352-49.924,49.924l0,0c0,27.573,22.352,49.923,49.924,49.923  h149.735v-99.848L162.607,403.982L162.607,403.982z"/>
<g>
	<rect x="154.645" y="438.245" style="fill:#EDEDED;" width="43.732" height="31.33"/>
	<rect x="222.558" y="438.245" style="fill:#EDEDED;" width="43.732" height="31.33"/>
</g>
<g>
	<rect x="358.395" y="438.245" style="fill:#D4D4D4;" width="43.733" height="31.33"/>
	<rect x="426.308" y="438.245" style="fill:#D4D4D4;" width="43.732" height="31.33"/>
	<polygon style="fill:#D4D4D4;" points="334.208,438.242 312.342,438.242 301.897,453.907 312.342,469.572 334.208,469.572  "/>
</g>
<rect x="290.471" y="438.245" style="fill:#EDEDED;" width="21.866" height="31.33"/>
<polygon style="fill:#027ACD;" points="395.777,248.438 355.049,248.438 334.16,300.102 355.049,351.767 395.777,351.767 "/>
<polygon style="fill:#3EAFF5;" points="320.292,248.438 293.432,351.767 355.049,351.767 355.049,248.438 "/>
<g>
</g>
<g>
</g>
<g>
</g>
<g>
</g>
<g>
</g>
<g>
</g>
<g>
</g>
<g>
</g>
<g>
</g>
<g>
</g>
<g>
</g>
<g>
</g>
<g>
</g>
<g>
</g>
<g>
</g>
</svg>
