<?xml version="1.0" encoding="iso-8859-1"?>
<!-- Generator: Adobe Illustrator 19.0.0, SVG Export Plug-In . SVG Version: 6.00 Build 0)  -->
<svg xmlns="http://www.w3.org/2000/svg" xmlns:xlink="http://www.w3.org/1999/xlink" version="1.1" id="Layer_1" x="0px" y="0px" viewBox="0 0 512 512" style="enable-background:new 0 0 512 512;" xml:space="preserve">
<polygon style="fill:#D61322;" points="455.337,21.712 319.798,21.712 297.961,32.229 276.928,117.544 297.961,202.859   319.798,213.376 455.337,213.376 455.337,139.381 444.821,117.544 455.337,95.708 "/>
<polygon style="fill:#EC2533;" points="140.586,21.712 140.586,95.708 151.103,117.544 140.586,139.381 140.586,213.376   276.124,213.376 297.961,202.859 297.961,32.229 276.124,21.712 "/>
<polygon style="fill:#FEE3B5;" points="512,375.626 501.153,334.237 366.952,366.781 366.952,312.134 296.127,294.397   275.093,386.027 296.127,469.024 326.876,477.657 "/>
<polygon style="fill:#FFF3D8;" points="232.644,278.5 80.254,302.141 48.706,456.938 176.969,435.575 296.127,469.024   296.127,294.397 "/>
<polygon style="fill:#027ACD;" points="80.254,302.076 40.127,302.076 19.094,396.182 40.127,490.288 80.254,490.288 "/>
<rect y="302.071" style="fill:#3EAFF5;" width="40.129" height="188.215"/>
<rect x="140.588" y="95.706" style="fill:#FEDF77;" width="146.855" height="43.673"/>
<rect x="308.475" y="95.706" style="fill:#FFC222;" width="146.855" height="43.673"/>
<polygon style="fill:#FF9500;" points="319.798,21.712 297.961,21.712 287.444,117.544 297.961,213.376 319.798,213.376 "/>
<rect x="276.128" y="21.712" style="fill:#FFC222;" width="21.836" height="191.664"/>
<g>
</g>
<g>
</g>
<g>
</g>
<g>
</g>
<g>
</g>
<g>
</g>
<g>
</g>
<g>
</g>
<g>
</g>
<g>
</g>
<g>
</g>
<g>
</g>
<g>
</g>
<g>
</g>
<g>
</g>
</svg>
