<?xml version="1.0" encoding="iso-8859-1"?>
<!-- Generator: Adobe Illustrator 19.0.0, SVG Export Plug-In . SVG Version: 6.00 Build 0)  -->
<svg xmlns="http://www.w3.org/2000/svg" xmlns:xlink="http://www.w3.org/1999/xlink" version="1.1" id="Layer_1" x="0px" y="0px" viewBox="0 0 512 512" style="enable-background:new 0 0 512 512;" xml:space="preserve">
<polygon style="fill:#FF9500;" points="401.479,271.4 282.424,250.491 303.333,428.427 401.479,428.427 "/>
<polygon style="fill:#FFC222;" points="205.187,271.4 205.187,428.427 303.333,428.427 303.333,250.491 247.62,271.4 "/>
<polygon style="fill:#027ACD;" points="435.758,428.427 303.718,428.427 282.808,451.368 303.718,474.307 435.758,474.307 "/>
<polygon style="fill:#D4D4D4;" points="160.237,451.368 128.874,451.368 128.874,74.807 76.242,22.176 98.419,0 160.237,61.817 "/>
<rect x="171.677" y="428.428" style="fill:#3EAFF5;" width="132.045" height="45.88"/>
<rect x="287.654" y="263.191" style="fill:#F17A00;" width="31.362" height="74.966"/>
<polygon style="fill:#FFC222;" points="424.38,146.056 351.682,146.056 336.001,156.511 315.091,216.605 336.001,271.4   424.38,271.4 "/>
<polygon style="fill:#FEDF77;" points="247.62,146.056 247.62,271.4 336.001,271.4 336.001,156.511 320.32,146.056 "/>
<rect x="320.323" y="146.054" style="fill:#FF9500;" width="31.362" height="44.012"/>
<path style="fill:#6F6F6F;" d="M144.555,390.735l-15.848,62.869l15.848,58.395c33.433,0,60.632-27.199,60.632-60.633  S177.988,390.735,144.555,390.735z"/>
<path style="fill:#9D9D9D;" d="M83.922,451.368c0,33.433,27.199,60.632,60.632,60.632V390.735  C111.121,390.735,83.922,417.934,83.922,451.368z"/>
<path style="fill:#D4D4D4;" d="M144.555,428.427l-12.564,22.939l12.564,22.939c12.649,0,22.939-10.291,22.939-22.939  C167.494,438.718,157.204,428.427,144.555,428.427z"/>
<path style="fill:#EDEDED;" d="M121.615,451.368c0,12.649,10.291,22.939,22.939,22.939v-45.88  C131.906,428.427,121.615,438.718,121.615,451.368z"/>
<g>
</g>
<g>
</g>
<g>
</g>
<g>
</g>
<g>
</g>
<g>
</g>
<g>
</g>
<g>
</g>
<g>
</g>
<g>
</g>
<g>
</g>
<g>
</g>
<g>
</g>
<g>
</g>
<g>
</g>
</svg>
