<?xml version="1.0" encoding="iso-8859-1"?>
<!-- Generator: Adobe Illustrator 19.0.0, SVG Export Plug-In . SVG Version: 6.00 Build 0)  -->
<svg xmlns="http://www.w3.org/2000/svg" xmlns:xlink="http://www.w3.org/1999/xlink" version="1.1" id="Layer_1" x="0px" y="0px" viewBox="0 0 512 512" style="enable-background:new 0 0 512 512;" xml:space="preserve">
<polygon style="fill:#027ACD;" points="277.255,252.865 256,252.865 245.55,371.805 256,490.745 277.255,490.745 "/>
<g>
	<rect x="234.747" y="252.865" style="fill:#3EAFF5;" width="21.255" height="237.881"/>
	<path style="fill:#3EAFF5;" d="M398.817,512v-9.023c0-18.495-14.993-33.489-33.489-33.489H256l-20.899,21.255L256,512H398.817z"/>
</g>
<path style="fill:#7ACDFF;" d="M113.183,502.977V512H256v-42.512H146.671C128.177,469.488,113.183,484.482,113.183,502.977z"/>
<path style="fill:#3EAFF5;" d="M412.026,156.027V0H278.18L256,10.45l-20.899,135.341L256,312.054l0,0  C342.172,312.054,412.026,242.198,412.026,156.027z"/>
<path style="fill:#7ACDFF;" d="M342.456,156.027c0,47.672-38.784,86.456-86.456,86.456V10.45L241.733,0H99.974v156.027  c0,86.171,69.856,156.026,156.026,156.026l0,0V273.83c64.957,0,117.803-52.846,117.803-117.803L342.456,156.027L342.456,156.027z"/>
<polygon style="fill:#FFF3D8;" points="256.195,76.745 217.427,124.734 272.712,178.04 294.47,155.473 259.855,122.098   310.987,58.806 252.475,43.337 278.18,0 256,0 241.733,0 204.342,63.037 "/>
<g>
</g>
<g>
</g>
<g>
</g>
<g>
</g>
<g>
</g>
<g>
</g>
<g>
</g>
<g>
</g>
<g>
</g>
<g>
</g>
<g>
</g>
<g>
</g>
<g>
</g>
<g>
</g>
<g>
</g>
</svg>
