<?xml version="1.0" encoding="iso-8859-1"?>
<!-- Generator: Adobe Illustrator 19.0.0, SVG Export Plug-In . SVG Version: 6.00 Build 0)  -->
<svg xmlns="http://www.w3.org/2000/svg" xmlns:xlink="http://www.w3.org/1999/xlink" version="1.1" id="Layer_1" x="0px" y="0px" viewBox="0 0 512 512" style="enable-background:new 0 0 512 512;" xml:space="preserve">
<g>
	
		<rect x="115.96" y="73.965" transform="matrix(-0.8257 -0.5641 0.5641 -0.8257 165.0827 317.5566)" style="fill:#F17A00;" width="31.281" height="118.619"/>
	
		<rect x="115.963" y="171.91" transform="matrix(-0.8257 -0.5641 0.5641 -0.8257 109.8386 496.3763)" style="fill:#F17A00;" width="31.281" height="118.619"/>
	
		<rect x="115.968" y="269.858" transform="matrix(-0.8257 -0.5641 0.5641 -0.8257 54.5938 675.2025)" style="fill:#F17A00;" width="31.281" height="118.619"/>
	
		<rect x="115.966" y="367.805" transform="matrix(-0.8257 -0.5641 0.5641 -0.8257 -0.6614 854.0239)" style="fill:#F17A00;" width="31.281" height="118.619"/>
</g>
<g>
	<rect x="98.151" y="166.616" style="fill:#FEDF77;" width="66.911" height="31.282"/>
	<rect x="98.151" y="264.558" style="fill:#FEDF77;" width="66.911" height="31.282"/>
	<rect x="98.151" y="362.501" style="fill:#FEDF77;" width="66.911" height="31.282"/>
</g>
<polygon style="fill:#FF9500;" points="180.704,79.094 117.127,79.094 149.423,99.947 149.423,460.446 131.606,460.446   121.177,473.865 131.606,491.728 180.704,491.728 "/>
<g>
	<polygon style="fill:#FFC222;" points="113.789,460.446 113.789,99.947 137.618,79.094 82.507,79.094 82.507,491.728    131.606,491.728 131.606,460.446  "/>
	<rect x="58.559" y="35.913" style="fill:#FFC222;" width="31.282" height="48.393"/>
	<rect x="117.129" y="35.913" style="fill:#FFC222;" width="31.282" height="48.393"/>
	<rect x="175.688" y="35.913" style="fill:#FFC222;" width="31.282" height="48.393"/>
</g>
<g>
	<rect x="292.816" y="35.913" style="fill:#FF9500;" width="31.282" height="48.393"/>
	<rect x="351.386" y="35.913" style="fill:#FF9500;" width="31.282" height="48.393"/>
	<rect x="409.945" y="35.913" style="fill:#FF9500;" width="31.282" height="48.393"/>
</g>
<polygon style="fill:#9D9D9D;" points="411.945,167.178 411.945,84.306 380.663,84.306 380.663,167.178 323.743,243.99   348.877,262.614 396.304,198.611 443.732,262.614 468.865,243.99 "/>
<polygon style="fill:#D4D4D4;" points="511.433,236.188 488.407,236.188 470.744,309.692 488.407,383.197 511.433,383.197 "/>
<polygon style="fill:#EDEDED;" points="465.382,236.188 447.717,309.692 465.382,383.197 488.407,383.197 488.407,236.188 "/>
<polygon style="fill:#D4D4D4;" points="465.382,236.188 442.356,236.188 424.692,309.692 442.356,383.197 465.382,383.197 "/>
<polygon style="fill:#EDEDED;" points="419.33,236.188 401.666,309.692 419.33,383.197 442.356,383.197 442.356,236.188 "/>
<polygon style="fill:#D4D4D4;" points="419.33,236.188 396.304,236.188 378.64,309.692 396.304,383.197 419.33,383.197 "/>
<polygon style="fill:#EDEDED;" points="373.279,236.188 355.615,309.692 373.279,383.197 396.304,383.197 396.304,236.188 "/>
<polygon style="fill:#D4D4D4;" points="373.279,236.188 350.252,236.188 332.589,309.692 350.252,383.197 373.279,383.197 "/>
<polygon style="fill:#EDEDED;" points="327.227,236.188 309.563,309.692 327.227,383.197 350.252,383.197 350.252,236.188 "/>
<polygon style="fill:#D4D4D4;" points="327.227,236.188 304.201,236.188 286.537,309.692 304.201,383.197 327.227,383.197 "/>
<rect x="281.18" y="236.186" style="fill:#EDEDED;" width="23.023" height="147.013"/>
<polygon style="fill:#FF9500;" points="265.536,35.913 248.948,35.913 238.854,60.109 249.613,84.306 265.536,84.306 "/>
<g>
	<polygon style="fill:#FFC222;" points="234.254,35.913 234.254,84.306 249.613,84.306 248.948,35.913  "/>
	<polygon style="fill:#FFC222;" points="470.345,20.272 249.613,20.272 239.185,35.913 249.613,51.554 451.401,51.554    460.347,68.666 249.613,68.666 239.185,84.306 249.613,99.947 512,99.947  "/>
</g>
<polygon style="fill:#FEDF77;" points="31.282,68.666 31.282,51.554 249.613,51.554 249.613,20.272 0,20.272 0,99.947   249.613,99.947 249.613,68.666 "/>
<g>
</g>
<g>
</g>
<g>
</g>
<g>
</g>
<g>
</g>
<g>
</g>
<g>
</g>
<g>
</g>
<g>
</g>
<g>
</g>
<g>
</g>
<g>
</g>
<g>
</g>
<g>
</g>
<g>
</g>
</svg>
