<?xml version="1.0" encoding="iso-8859-1"?>
<!-- Generator: Adobe Illustrator 19.0.0, SVG Export Plug-In . SVG Version: 6.00 Build 0)  -->
<svg xmlns="http://www.w3.org/2000/svg" xmlns:xlink="http://www.w3.org/1999/xlink" version="1.1" id="Layer_1" x="0px" y="0px" viewBox="0 0 512.001 512.001" style="enable-background:new 0 0 512.001 512.001;" xml:space="preserve">
<polygon style="fill:#6F6F6F;" points="31.348,49.46 15.674,49.46 5.224,186.621 15.674,323.781 31.348,323.781 "/>
<rect y="49.458" style="fill:#9D9D9D;" width="15.674" height="274.319"/>
<polygon style="fill:#6F6F6F;" points="74.213,49.46 58.539,49.46 48.09,186.621 58.539,323.781 74.213,323.781 "/>
<rect x="42.864" y="49.458" style="fill:#9D9D9D;" width="15.674" height="274.319"/>
<polygon style="fill:#6F6F6F;" points="117.079,49.46 101.405,49.46 90.954,186.621 101.405,323.781 117.079,323.781 "/>
<rect x="85.727" y="49.458" style="fill:#9D9D9D;" width="15.674" height="274.319"/>
<polygon style="fill:#6F6F6F;" points="181.377,49.46 165.702,49.46 155.253,186.621 165.702,323.781 181.377,323.781 "/>
<rect x="150.023" y="49.458" style="fill:#9D9D9D;" width="15.674" height="274.319"/>
<polygon style="fill:#6F6F6F;" points="224.242,49.46 208.568,49.46 198.118,186.621 208.568,323.781 224.242,323.781 "/>
<rect x="192.897" y="49.458" style="fill:#9D9D9D;" width="15.674" height="274.319"/>
<polygon style="fill:#6F6F6F;" points="288.421,49.46 272.747,49.46 262.297,186.621 272.747,323.781 288.421,323.781 "/>
<rect x="257.067" y="49.458" style="fill:#9D9D9D;" width="15.674" height="274.319"/>
<polygon style="fill:#6F6F6F;" points="331.317,49.46 315.643,49.46 305.194,186.621 315.643,323.781 331.317,323.781 "/>
<rect x="299.973" y="49.458" style="fill:#9D9D9D;" width="15.674" height="274.319"/>
<polygon style="fill:#6F6F6F;" points="374.213,49.46 358.539,49.46 348.09,186.621 358.539,323.781 374.213,323.781 "/>
<rect x="342.868" y="49.458" style="fill:#9D9D9D;" width="15.674" height="274.319"/>
<path style="fill:#C24D00;" d="M434.456,384.997l-0.827,0.23l-5.46,22.41l48.915,48.915c7.988,7.988,20.938,7.988,28.925,0  l-30.93-42.762L434.456,384.997z"/>
<path style="fill:#EA862E;" d="M506.01,456.551c7.988-7.988,7.988-20.938,0-28.925l-48.915-48.915l-22.64,6.286L506.01,456.551  L506.01,456.551z"/>
<path style="fill:#027ACD;" d="M444.112,252.788c-4.287-4.287-8.867-8.106-13.674-11.456l-22.671-1.268l-7.465-12.942  c-8.858-2.479-17.99-3.718-27.123-3.718l-20.9,100.374l20.9,100.253c25.672,0,51.345-9.793,70.932-29.381  c26.555-26.555,35.11-64.296,25.663-98.056l-13.941-8.203l-0.263-21.926C452.222,261.659,448.401,257.078,444.112,252.788z"/>
<path style="fill:#3EAFF5;" d="M302.247,252.788c-26.555,26.555-35.11,64.296-25.663,98.057l14.149,8.606l0.054,21.522  c3.35,4.809,7.17,9.391,11.46,13.68c19.588,19.588,45.26,29.381,70.932,29.381V223.407  C347.508,223.407,321.834,233.201,302.247,252.788z"/>
<g>
	<path style="fill:#7ACDFF;" d="M400.297,227.15L276.608,350.838c2.963,10.592,7.702,20.783,14.209,30.124L430.42,241.36   C421.08,234.852,410.889,230.113,400.297,227.15z"/>
	<path style="fill:#7ACDFF;" d="M386.283,380.071l83.468-83.468c-2.963-10.592-7.702-20.783-14.209-30.124l-91.425,91.424   L386.283,380.071z"/>
</g>
<g>
</g>
<g>
</g>
<g>
</g>
<g>
</g>
<g>
</g>
<g>
</g>
<g>
</g>
<g>
</g>
<g>
</g>
<g>
</g>
<g>
</g>
<g>
</g>
<g>
</g>
<g>
</g>
<g>
</g>
</svg>
