<?xml version="1.0" encoding="iso-8859-1"?>
<!-- Generator: Adobe Illustrator 19.0.0, SVG Export Plug-In . SVG Version: 6.00 Build 0)  -->
<svg xmlns="http://www.w3.org/2000/svg" xmlns:xlink="http://www.w3.org/1999/xlink" version="1.1" id="Layer_1" x="0px" y="0px" viewBox="0 0 512 512" style="enable-background:new 0 0 512 512;" xml:space="preserve">
<path style="fill:#3EAFF5;" d="M241.806,106.827L220.882,256l20.923,149.173c82.386,0,149.173-66.787,149.173-149.173  S324.192,106.827,241.806,106.827z"/>
<path style="fill:#7ACDFF;" d="M92.633,256c0,82.386,66.787,149.173,149.173,149.173V106.827  C159.42,106.827,92.633,173.614,92.633,256z"/>
<path style="fill:#D61322;" d="M241.806,497.805c64.588,0,125.311-25.152,170.982-70.823l-22.191-22.191  c-39.743,39.743-92.585,61.631-148.79,61.631l0,0L241.806,497.805L241.806,497.805z"/>
<path style="fill:#EC2533;" d="M70.823,85.017C25.152,130.688,0,191.411,0,256s25.152,125.311,70.823,170.983  c45.671,45.67,106.393,70.823,170.983,70.823v-31.384C125.779,466.421,31.384,372.027,31.384,256S125.779,45.578,241.806,45.578  V14.194C177.217,14.194,116.495,39.347,70.823,85.017z"/>
<path style="fill:#D61322;" d="M440.311,285.162l-29.379,11.034l27.594,73.474L512,342.077l-11.033-29.38l-26.681,10.021  c6.185-21.544,9.326-43.867,9.326-66.717c0-64.588-25.152-125.311-70.823-170.983c-45.67-45.67-106.393-70.823-170.982-70.823l0,0  v31.384l0,0c116.027,0,210.422,94.394,210.422,210.422c0,15.98-1.769,31.659-5.245,46.925L440.311,285.162z"/>
<path style="fill:#027ACD;" d="M241.806,91.135L241.806,91.135L231.344,256l10.462,164.865l0,0  c90.907,0,164.865-73.958,164.865-164.865S332.712,91.135,241.806,91.135z M361.568,197.105  c6.571,13.309,10.986,27.861,12.791,43.203h-44.837c-0.866-14.503-2.909-29.093-6.002-43.203H361.568z M340.034,165.721h-25.438  c-2.081-5.838-4.341-11.501-6.797-16.909c-1.923-4.236-3.935-8.242-6.021-12.039C316.228,144.071,329.177,153.918,340.034,165.721z   M257.498,129.641c7.602,6.633,15.153,17.67,21.726,32.145c0.585,1.287,1.147,2.61,1.708,3.935h-23.434V129.641z M279.223,350.213  c-6.572,14.475-14.123,25.512-21.726,32.145v-36.081h23.434C280.37,347.602,279.807,348.926,279.223,350.213z M291.254,314.894  h-33.756v-43.203h40.563C297.061,286.199,294.727,300.918,291.254,314.894z M257.498,240.308v-43.203h33.756  c3.473,13.976,5.807,28.695,6.806,43.203H257.498z M301.778,375.226c2.087-3.796,4.099-7.804,6.021-12.039  c2.455-5.408,4.716-11.071,6.797-16.909h25.438C329.177,358.081,316.228,367.928,301.778,375.226z M361.568,314.894h-38.046  c3.092-14.111,5.135-28.699,6.002-43.203h44.837C372.555,287.033,368.14,301.586,361.568,314.894z"/>
<path style="fill:#3EAFF5;" d="M76.941,256c0,90.907,73.958,164.865,164.865,164.865V91.135  C150.898,91.135,76.941,165.093,76.941,256z M122.043,197.105h38.906c-3.01,14.09-4.998,28.678-5.84,43.203h-45.858  C111.056,224.966,115.471,210.413,122.043,197.105z M122.043,314.894c-6.571-13.309-10.986-27.861-12.792-43.203h45.858  c0.842,14.524,2.83,29.112,5.84,43.203H122.043z M143.577,346.278h26.091c2.024,5.806,4.224,11.433,6.614,16.802  c1.949,4.379,3.993,8.519,6.12,12.429C167.723,368.182,154.575,358.235,143.577,346.278z M176.281,148.919  c-2.389,5.369-4.588,10.996-6.614,16.802h-26.091c10.999-11.957,24.145-21.905,38.824-29.231  C180.274,140.402,178.23,144.54,176.281,148.919z M226.114,382.218c-7.436-6.631-14.787-17.575-21.16-31.897  c-0.588-1.321-1.155-2.68-1.72-4.043h22.88V382.218z M226.114,314.894h-32.941c-3.372-13.952-5.636-28.669-6.605-43.203h39.546  V314.894z M226.114,240.308h-39.546c0.969-14.534,3.234-29.25,6.605-43.203h32.941L226.114,240.308L226.114,240.308z   M203.234,165.721c0.564-1.363,1.131-2.721,1.72-4.043c6.373-14.322,13.724-25.266,21.16-31.897v35.94H203.234z"/>
<g>
</g>
<g>
</g>
<g>
</g>
<g>
</g>
<g>
</g>
<g>
</g>
<g>
</g>
<g>
</g>
<g>
</g>
<g>
</g>
<g>
</g>
<g>
</g>
<g>
</g>
<g>
</g>
<g>
</g>
</svg>
