<?xml version="1.0" encoding="iso-8859-1"?>
<!-- Generator: Adobe Illustrator 19.0.0, SVG Export Plug-In . SVG Version: 6.00 Build 0)  -->
<svg xmlns="http://www.w3.org/2000/svg" xmlns:xlink="http://www.w3.org/1999/xlink" version="1.1" id="Layer_1" x="0px" y="0px" viewBox="0 0 512 512" style="enable-background:new 0 0 512 512;" xml:space="preserve">
<path style="fill:#FFC222;" d="M375.379,212.207L256,120.657l-10.45,42.332L256,187.054c21.787,0,39.449,17.662,39.449,39.449  S277.787,265.952,256,265.952l-20.9,119.091L256,512H375.38L375.379,212.207L375.379,212.207z"/>
<path style="fill:#FEDF77;" d="M216.551,226.503c0-21.787,17.662-39.449,39.449-39.449v-66.397l-119.379,91.55V512H256V265.952  C234.213,265.952,216.551,248.29,216.551,226.503z"/>
<polygon style="fill:#F17A00;" points="323.573,313.993 256,313.993 235.1,329.667 256,345.341 323.573,345.341 "/>
<rect x="188.425" y="313.995" style="fill:#FF9500;" width="67.576" height="31.348"/>
<polygon style="fill:#F17A00;" points="323.573,366.244 256,366.244 235.1,381.918 256,397.592 323.573,397.592 "/>
<rect x="188.425" y="366.242" style="fill:#FF9500;" width="67.576" height="31.348"/>
<polygon style="fill:#D61322;" points="271.674,0 256,0 245.551,113.251 256,226.503 271.674,226.503 "/>
<polygon style="fill:#F17A00;" points="323.573,418.495 256,418.495 235.1,434.17 256,449.844 323.573,449.844 "/>
<rect x="188.425" y="418.5" style="fill:#FF9500;" width="67.576" height="31.348"/>
<rect x="240.327" style="fill:#EC2533;" width="15.674" height="226.502"/>
<g>
</g>
<g>
</g>
<g>
</g>
<g>
</g>
<g>
</g>
<g>
</g>
<g>
</g>
<g>
</g>
<g>
</g>
<g>
</g>
<g>
</g>
<g>
</g>
<g>
</g>
<g>
</g>
<g>
</g>
</svg>
