<?xml version="1.0" encoding="iso-8859-1"?>
<!-- Generator: Adobe Illustrator 19.0.0, SVG Export Plug-In . SVG Version: 6.00 Build 0)  -->
<svg xmlns="http://www.w3.org/2000/svg" xmlns:xlink="http://www.w3.org/1999/xlink" version="1.1" id="Layer_1" x="0px" y="0px" viewBox="0 0 512 512" style="enable-background:new 0 0 512 512;" xml:space="preserve">
<g>
	<polygon style="fill:#027ACD;" points="418.849,240.537 455.703,219.259 347.897,190.373 319.01,298.178 355.865,276.901    417.523,383.697 328.618,383.697 364.982,420.06 328.618,456.425 480.508,456.425 512,401.878  "/>
	<polygon style="fill:#027ACD;" points="287.492,13.02 256,13.02 235.101,55.728 256,103.93 299.826,179.839 313.137,130.165    362.811,143.475  "/>
	<polygon style="fill:#027ACD;" points="295.46,420.06 256,380.601 235.101,420.06 256,459.52  "/>
</g>
<g>
	<polygon style="fill:#3EAFF5;" points="224.508,13.02 131.357,174.362 94.504,153.084 123.39,260.89 231.195,232.003    194.342,210.726 256,103.93 256,13.02  "/>
	<polygon style="fill:#3EAFF5;" points="216.54,383.697 94.477,383.697 138.303,307.788 88.627,321.099 75.317,271.425 0,401.878    31.492,456.425 216.54,456.425 216.54,498.979 256,459.52 256,380.601 216.54,341.141  "/>
</g>
<g>
</g>
<g>
</g>
<g>
</g>
<g>
</g>
<g>
</g>
<g>
</g>
<g>
</g>
<g>
</g>
<g>
</g>
<g>
</g>
<g>
</g>
<g>
</g>
<g>
</g>
<g>
</g>
<g>
</g>
</svg>
