<?xml version="1.0" encoding="iso-8859-1"?>
<!-- Generator: Adobe Illustrator 19.0.0, SVG Export Plug-In . SVG Version: 6.00 Build 0)  -->
<svg xmlns="http://www.w3.org/2000/svg" xmlns:xlink="http://www.w3.org/1999/xlink" version="1.1" id="Layer_1" x="0px" y="0px" viewBox="0 0 512 512" style="enable-background:new 0 0 512 512;" xml:space="preserve">
<polygon style="fill:#FFC222;" points="402.781,80.972 196.115,80.972 217.014,512 402.781,512 "/>
<rect x="31.248" y="80.969" style="fill:#FEDF77;" width="185.762" height="431.031"/>
<polygon style="fill:#D61322;" points="480.752,292.474 402.781,292.474 381.881,361.822 402.781,431.17 480.752,431.17 "/>
<rect x="324.807" y="292.477" style="fill:#EC2533;" width="77.97" height="138.7"/>
<path style="fill:#D4D4D4;" d="M332.354,50.388h-64.952C267.402,22.559,244.843,0,217.014,0l-20.899,80.972l20.899,30.583h115.34  V50.388z"/>
<path style="fill:#EDEDED;" d="M217.014,0c-27.829,0-50.388,22.559-50.388,50.388h-64.952v61.168h115.34V0L217.014,0z"/>
<circle style="fill:#9D9D9D;" cx="217.015" cy="49.392" r="16.183"/>
<polygon style="fill:#FFC222;" points="435.925,314.656 402.781,347.801 392.331,374.77 402.781,392.132 458.091,336.822 "/>
<polygon style="fill:#FEDF77;" points="387.31,363.271 369.636,345.598 347.47,367.762 387.31,407.603 402.781,392.132   402.781,347.801 "/>
<polygon style="fill:#F17A00;" points="348.525,159.391 217.014,159.391 196.115,175.064 217.014,190.738 348.525,190.738 "/>
<rect x="85.504" y="159.389" style="fill:#FF9500;" width="131.511" height="31.347"/>
<g>
	<polygon style="fill:#F17A00;" points="348.525,213.292 217.014,213.292 196.115,228.965 217.014,244.639 348.525,244.639  "/>
	<polygon style="fill:#F17A00;" points="256,415.496 217.014,415.496 196.115,431.17 217.014,446.843 256,446.843  "/>
</g>
<g>
	<rect x="85.504" y="213.295" style="fill:#FF9500;" width="131.511" height="31.347"/>
	<rect x="85.504" y="415.493" style="fill:#FF9500;" width="131.511" height="31.347"/>
</g>
<g>
</g>
<g>
</g>
<g>
</g>
<g>
</g>
<g>
</g>
<g>
</g>
<g>
</g>
<g>
</g>
<g>
</g>
<g>
</g>
<g>
</g>
<g>
</g>
<g>
</g>
<g>
</g>
<g>
</g>
</svg>
