<?xml version="1.0" encoding="iso-8859-1"?>
<!-- Generator: Adobe Illustrator 19.0.0, SVG Export Plug-In . SVG Version: 6.00 Build 0)  -->
<svg xmlns="http://www.w3.org/2000/svg" xmlns:xlink="http://www.w3.org/1999/xlink" version="1.1" id="Layer_1" x="0px" y="0px" viewBox="0 0 512 512" style="enable-background:new 0 0 512 512;" xml:space="preserve">
<path style="fill:#FF9500;" d="M245.572,20.601l10.45,94.276c8.657,0,17.19,0.528,25.577,1.526V41.501L245.572,20.601z"/>
<path style="fill:#FFC222;" d="M230.445,41.501v74.902c8.388-0.998,16.92-1.526,25.577-1.526V20.601L230.445,41.501z"/>
<polygon style="fill:#D61322;" points="315.573,0 256.022,0 235.123,20.606 256.022,41.501 315.573,41.501 "/>
<rect x="196.472" style="fill:#EC2533;" width="59.551" height="41.501"/>
<path style="fill:#027ACD;" d="M256.022,93.978l-20.899,201.217l20.899,206.356l15.675,9.885  c47.374-3.425,90.478-22.255,124.327-51.504l4.717-17.94l17.449-4.227c29.249-33.849,48.078-76.953,51.504-124.326l-10.439-15.676  l10.439-15.677c-3.426-47.374-22.256-90.477-51.505-124.326l-20.06-2.071l-2.102-20.09c-33.851-29.251-76.956-48.081-124.33-51.506  L256.022,93.978z"/>
<path style="fill:#3EAFF5;" d="M52.236,297.765l-9.885,15.676c3.426,47.374,22.256,90.478,51.505,124.327l17.273,5.269l4.892,16.895  c33.849,29.249,76.954,48.078,124.326,51.503l15.673-9.885V93.978l-15.675-9.885c-47.374,3.425-90.478,22.255-124.327,51.504  l-4.543,18.35l-17.622,3.815c-29.248,33.851-48.078,76.954-51.503,124.327L52.236,297.765z"/>
<path style="fill:#7ACDFF;" d="M131.679,282.091h-89.32c-0.374,5.176-0.746,10.404-0.574,15.673  c0.418,12.713,0.769,20.652,0.574,15.673h89.32V282.091z"/>
<g>
	<path style="fill:#3EAFF5;" d="M271.696,84.102c-5.176-0.374-10.402-0.574-15.673-0.574l-10.45,89.925h26.123V84.102z"/>
	<path style="fill:#3EAFF5;" d="M271.696,511.426v-87.895h-26.123L256.022,512C261.294,512,266.519,511.801,271.696,511.426z"/>
</g>
<g>
	<path style="fill:#7ACDFF;" d="M240.349,84.102v89.351h15.673V83.528C250.75,83.528,245.525,83.728,240.349,84.102z"/>
	<path style="fill:#7ACDFF;" d="M240.349,511.426c5.176,0.374,10.402,0.574,15.673,0.574v-88.468h-15.673V511.426z"/>
</g>
<path style="fill:#3EAFF5;" d="M378.275,313.438h91.409c0.374-5.176,0.574-10.402,0.574-15.673s-0.199-10.497-0.574-15.673h-91.409  V313.438z"/>
<path style="fill:#D61322;" d="M256.022,149.285l-20.899,145.911l20.899,151.048c82.003,0,148.48-66.476,148.48-148.48  S338.025,149.285,256.022,149.285z"/>
<path style="fill:#EC2533;" d="M107.542,297.765c0,82.003,66.476,148.48,148.48,148.48v-296.96  C174.019,149.285,107.542,215.761,107.542,297.765z"/>
<polygon style="fill:#FF9500;" points="161.981,391.805 298.085,339.826 350.063,203.724 350.063,203.724 239.088,285.379 "/>
<polygon style="fill:#FFC222;" points="213.96,255.702 161.981,391.805 161.981,391.805 350.063,203.724 "/>
<polygon style="fill:#FEDF77;" points="304.21,323.788 229.999,249.577 213.96,255.702 207.835,271.742 282.043,345.952   298.084,339.826 "/>
<path style="fill:#7ACDFF;" d="M142.2,161.777L116.023,135.6c-7.916,6.84-15.326,14.249-22.165,22.165l26.178,26.178L142.2,161.777z  "/>
<g>
	<path style="fill:#3EAFF5;" d="M369.844,433.751l26.178,26.178c7.916-6.84,15.326-14.249,22.165-22.165l-26.179-26.178   L369.844,433.751z"/>
	<path style="fill:#3EAFF5;" d="M392.008,183.943l26.178-26.178c-6.84-7.916-14.249-15.326-22.165-22.165l-26.178,26.178   L392.008,183.943z"/>
</g>
<path style="fill:#7ACDFF;" d="M120.035,411.585l-26.178,26.178c6.84,7.916,14.249,15.326,22.165,22.165l26.178-26.178  L120.035,411.585z"/>
<g>
</g>
<g>
</g>
<g>
</g>
<g>
</g>
<g>
</g>
<g>
</g>
<g>
</g>
<g>
</g>
<g>
</g>
<g>
</g>
<g>
</g>
<g>
</g>
<g>
</g>
<g>
</g>
<g>
</g>
</svg>
