<?xml version="1.0" encoding="iso-8859-1"?>
<!-- Generator: Adobe Illustrator 19.0.0, SVG Export Plug-In . SVG Version: 6.00 Build 0)  -->
<svg xmlns="http://www.w3.org/2000/svg" xmlns:xlink="http://www.w3.org/1999/xlink" version="1.1" id="Layer_1" x="0px" y="0px" viewBox="0 0 512 512" style="enable-background:new 0 0 512 512;" xml:space="preserve">
<path style="fill:#6F6F6F;" d="M306.87,512c-36.693,0-66.544-29.851-66.544-66.544V0h31.347v445.456  c0,19.408,15.789,35.197,35.197,35.197c19.408,0,35.197-15.788,35.197-35.197v-17.83h31.347v17.83  C373.414,482.149,343.563,512,306.87,512z"/>
<path style="fill:#D61322;" d="M256,35.95l-20.899,126.572L256,255.761h219.811C475.81,134.363,377.398,35.95,256,35.95z"/>
<path style="fill:#EC2533;" d="M366.359,107.565C334.245,83.594,296.083,70.924,256,70.924V35.95  c-121.399,0-219.811,98.413-219.811,219.811H256V102.271c33.275,0,64.952,10.517,91.608,30.415  c25.79,19.252,45.273,46.643,54.86,77.128l29.903-9.404C420.827,163.696,397.382,130.723,366.359,107.565z"/>
<g>
</g>
<g>
</g>
<g>
</g>
<g>
</g>
<g>
</g>
<g>
</g>
<g>
</g>
<g>
</g>
<g>
</g>
<g>
</g>
<g>
</g>
<g>
</g>
<g>
</g>
<g>
</g>
<g>
</g>
</svg>
