<?xml version="1.0" encoding="iso-8859-1"?>
<!-- Generator: Adobe Illustrator 19.0.0, SVG Export Plug-In . SVG Version: 6.00 Build 0)  -->
<svg xmlns="http://www.w3.org/2000/svg" xmlns:xlink="http://www.w3.org/1999/xlink" version="1.1" id="Layer_1" x="0px" y="0px" viewBox="0 0 512 512" style="enable-background:new 0 0 512 512;" xml:space="preserve">
<polygon style="fill:#C2000A;" points="255.999,512 299.92,512 330.343,315.819 235.099,294.919 "/>
<g>
	<polygon style="fill:#D61322;" points="181.655,315.819 212.079,512 255.999,512 255.999,294.919  "/>
	<polygon style="fill:#D61322;" points="255.999,223.781 235.099,269.8 255.999,315.819 330.343,315.819 349.721,315.819    349.721,223.781  "/>
</g>
<polygon style="fill:#EC2533;" points="255.999,223.781 162.277,223.781 162.277,315.819 181.655,315.819 255.999,315.819 "/>
<g>
	<rect x="196.125" y="254.13" style="fill:#6F6F6F;" width="119.75" height="31.348"/>
	<polygon style="fill:#6F6F6F;" points="154.632,0 138.958,0 128.509,73.577 138.958,147.152 154.632,147.152  "/>
</g>
<rect x="123.282" style="fill:#9D9D9D;" width="15.674" height="147.149"/>
<polygon style="fill:#6F6F6F;" points="208.972,0 193.298,0 182.849,73.577 193.298,147.152 208.972,147.152 "/>
<rect x="177.629" style="fill:#9D9D9D;" width="15.674" height="147.149"/>
<polygon style="fill:#6F6F6F;" points="250.773,0 235.099,0 224.649,73.577 235.099,147.152 250.773,147.152 "/>
<rect x="219.427" style="fill:#9D9D9D;" width="15.674" height="147.149"/>
<polygon style="fill:#6F6F6F;" points="292.573,0 276.899,0 266.449,73.577 276.899,147.152 292.573,147.152 "/>
<rect x="261.225" style="fill:#9D9D9D;" width="15.674" height="147.149"/>
<polygon style="fill:#6F6F6F;" points="346.913,0 331.239,0 320.79,73.577 331.239,147.152 346.913,147.152 "/>
<rect x="315.562" style="fill:#9D9D9D;" width="15.674" height="147.149"/>
<polygon style="fill:#6F6F6F;" points="388.714,0 373.04,0 362.589,73.577 373.04,147.152 388.714,147.152 "/>
<g>
	<rect x="357.37" style="fill:#9D9D9D;" width="15.674" height="147.149"/>
	<polygon style="fill:#9D9D9D;" points="415.178,162.127 255.999,162.127 235.099,177.801 255.999,193.475 415.178,193.475  "/>
</g>
<rect x="96.824" y="162.123" style="fill:#D4D4D4;" width="159.176" height="31.348"/>
<rect x="81.15" y="147.149" style="fill:#9D9D9D;" width="31.348" height="61.297"/>
<rect x="399.502" y="147.149" style="fill:#6F6F6F;" width="31.348" height="61.297"/>
<g>
</g>
<g>
</g>
<g>
</g>
<g>
</g>
<g>
</g>
<g>
</g>
<g>
</g>
<g>
</g>
<g>
</g>
<g>
</g>
<g>
</g>
<g>
</g>
<g>
</g>
<g>
</g>
<g>
</g>
</svg>
