<?xml version="1.0" encoding="iso-8859-1"?>
<!-- Generator: Adobe Illustrator 19.0.0, SVG Export Plug-In . SVG Version: 6.00 Build 0)  -->
<svg xmlns="http://www.w3.org/2000/svg" xmlns:xlink="http://www.w3.org/1999/xlink" version="1.1" id="Layer_1" x="0px" y="0px" viewBox="0 0 512 512" style="enable-background:new 0 0 512 512;" xml:space="preserve">
<polygon style="fill:#9D9D9D;" points="256,439.842 322.113,450.292 512,450.292 512,401.718 235.101,380.819 "/>
<g>
	<polygon style="fill:#D4D4D4;" points="0,401.718 0,450.292 189.887,450.292 256,439.842 256,380.819  "/>
	<polygon style="fill:#D4D4D4;" points="256,401.718 512,401.718 512,353.145 235.101,332.246  "/>
</g>
<polygon style="fill:#EDEDED;" points="256,332.246 0,353.145 0,401.718 256,401.718 "/>
<polygon style="fill:#9D9D9D;" points="256,353.145 512,353.145 512,304.571 235.101,283.672 "/>
<g>
	<polygon style="fill:#D4D4D4;" points="256,283.672 0,304.571 0,353.145 256,353.145  "/>
	<polygon style="fill:#D4D4D4;" points="256,304.571 512,304.571 512,255.998 235.101,235.099  "/>
</g>
<polygon style="fill:#EDEDED;" points="256,235.099 0,255.998 0,304.571 256,304.571 "/>
<polygon style="fill:#9D9D9D;" points="256,255.998 512,255.998 512,207.425 235.101,186.525 "/>
<g>
	<polygon style="fill:#D4D4D4;" points="256,186.525 0,207.425 0,255.998 256,255.998  "/>
	<polygon style="fill:#D4D4D4;" points="433.461,158.851 235.101,137.952 256,207.425 512,207.425 512,201.845  "/>
</g>
<polygon style="fill:#EDEDED;" points="256,137.952 78.539,158.851 0,201.845 0,207.425 256,207.425 "/>
<polygon style="fill:#9D9D9D;" points="256,158.851 433.461,158.851 344.731,110.277 235.101,89.377 "/>
<polygon style="fill:#D4D4D4;" points="256,89.377 167.269,110.277 78.539,158.851 256,158.851 "/>
<polygon style="fill:#EDEDED;" points="256,61.703 167.269,110.277 256,110.277 "/>
<polygon style="fill:#D4D4D4;" points="344.731,110.277 256,61.703 256,110.277 "/>
<polygon style="fill:#6F6F6F;" points="322.113,275.057 256,275.057 235.101,366.249 256,450.292 322.113,450.292 "/>
<rect x="189.889" y="275.057" style="fill:#9D9D9D;" width="66.111" height="175.24"/>
<g>
</g>
<g>
</g>
<g>
</g>
<g>
</g>
<g>
</g>
<g>
</g>
<g>
</g>
<g>
</g>
<g>
</g>
<g>
</g>
<g>
</g>
<g>
</g>
<g>
</g>
<g>
</g>
<g>
</g>
</svg>
