<?xml version="1.0" encoding="iso-8859-1"?>
<!-- Generator: Adobe Illustrator 19.0.0, SVG Export Plug-In . SVG Version: 6.00 Build 0)  -->
<svg xmlns="http://www.w3.org/2000/svg" xmlns:xlink="http://www.w3.org/1999/xlink" version="1.1" id="Layer_1" x="0px" y="0px" viewBox="0 0 512.001 512.001" style="enable-background:new 0 0 512.001 512.001;" xml:space="preserve">
<path style="fill:#6F6F6F;" d="M488.285,16.679H256l-20.899,322.053L512,317.832V40.394C512,27.296,501.383,16.679,488.285,16.679z"/>
<path style="fill:#9D9D9D;" d="M256,16.679H23.715C10.617,16.679,0,27.296,0,40.394v277.439l256,20.899V16.679z"/>
<polygon style="fill:#6F6F6F;" points="256,479.644 337.385,479.644 326.606,405.24 235.101,384.341 "/>
<polygon style="fill:#9D9D9D;" points="185.394,405.24 174.615,479.644 256,479.644 256,384.341 "/>
<path style="fill:#D4D4D4;" d="M256,405.24h70.606h161.68c13.097,0,23.715-10.617,23.715-23.715v-63.693H256l-20.899,43.704  L256,405.24z"/>
<path style="fill:#EDEDED;" d="M256,317.832H0v63.693c0,13.098,10.617,23.715,23.715,23.715h161.68H256V317.832z"/>
<polygon style="fill:#D4D4D4;" points="382.119,463.971 256,463.971 235.101,479.644 256,495.318 382.119,495.318 "/>
<rect x="129.881" y="463.975" style="fill:#EDEDED;" width="126.119" height="31.347"/>
<path style="fill:#D61322;" d="M256,68.145l-23.362,92.274L256,264.21c0,0,70.064-55.938,70.064-126.002  C326.064,99.513,294.695,68.145,256,68.145z"/>
<path style="fill:#EC2533;" d="M185.936,138.208C185.936,208.272,256,264.21,256,264.21V68.145  C217.304,68.145,185.936,99.513,185.936,138.208z"/>
<path style="fill:#FFC222;" d="M256,100.266l-23.362,37.943L256,176.151c20.922,0,37.943-17.021,37.943-37.943  C293.943,117.287,276.922,100.266,256,100.266z"/>
<path style="fill:#FEDF77;" d="M218.057,138.209c0,20.922,17.021,37.943,37.943,37.943v-75.887  C235.078,100.266,218.057,117.287,218.057,138.209z"/>
<polygon style="fill:#6F6F6F;" points="278.271,345.863 256,345.863 245.55,361.536 256,377.21 278.271,377.21 "/>
<rect x="233.733" y="345.86" style="fill:#9D9D9D;" width="22.271" height="31.347"/>
<g>
</g>
<g>
</g>
<g>
</g>
<g>
</g>
<g>
</g>
<g>
</g>
<g>
</g>
<g>
</g>
<g>
</g>
<g>
</g>
<g>
</g>
<g>
</g>
<g>
</g>
<g>
</g>
<g>
</g>
</svg>
