<?xml version="1.0" encoding="iso-8859-1"?>
<!-- Generator: Adobe Illustrator 19.0.0, SVG Export Plug-In . SVG Version: 6.00 Build 0)  -->
<svg xmlns="http://www.w3.org/2000/svg" xmlns:xlink="http://www.w3.org/1999/xlink" version="1.1" id="Layer_1" x="0px" y="0px" viewBox="0 0 512 512" style="enable-background:new 0 0 512 512;" xml:space="preserve">
<polygon style="fill:#9D9D9D;" points="399.635,9.313 256,9.313 245.55,24.555 256,40.66 374.292,40.66 409.601,205.46   440.252,198.893 "/>
<polygon style="fill:#D4D4D4;" points="112.365,9.313 71.748,198.893 102.399,205.46 137.708,40.66 256,40.66 256,9.313 "/>
<path style="fill:#D61322;" d="M256,202.177l-10.45,150.255L256,502.686h119.993c53.403,0,96.694-43.291,96.694-96.694V202.177H256z   M328.073,417.497c0,12.984-10.525,23.51-23.51,23.51l0,0c-12.984,0-23.51-10.526-23.51-23.51v-144.76  c0-12.984,10.526-23.51,23.51-23.51l0,0c12.984,0,23.51,10.526,23.51,23.51V417.497z M425.197,417.497  c0,12.984-10.526,23.51-23.51,23.51l0,0c-12.985,0-23.51-10.526-23.51-23.51v-144.76c0-12.984,10.525-23.51,23.51-23.51l0,0  c12.984,0,23.51,10.526,23.51,23.51V417.497z"/>
<path style="fill:#EC2533;" d="M39.313,202.177v203.817c0,53.403,43.291,96.694,96.694,96.694H256V202.177H39.313z M133.823,417.497  c0,12.984-10.525,23.51-23.51,23.51l0,0c-12.984,0-23.51-10.526-23.51-23.51v-144.76c0-12.984,10.526-23.51,23.51-23.51l0,0  c12.985,0,23.51,10.526,23.51,23.51V417.497z M207.437,441.007L207.437,441.007c-12.985,0-23.51-10.526-23.51-23.51v-144.76  c0-12.984,10.525-23.51,23.51-23.51l0,0c12.984,0,23.51,10.526,23.51,23.51v144.76C230.948,430.481,220.421,441.007,207.437,441.007  z"/>
<polygon style="fill:#6F6F6F;" points="512,186.503 256,186.503 235.101,202.177 256,217.85 512,217.85 "/>
<rect y="186.503" style="fill:#9D9D9D;" width="256" height="31.347"/>
<g>
</g>
<g>
</g>
<g>
</g>
<g>
</g>
<g>
</g>
<g>
</g>
<g>
</g>
<g>
</g>
<g>
</g>
<g>
</g>
<g>
</g>
<g>
</g>
<g>
</g>
<g>
</g>
<g>
</g>
</svg>
