<svg height="512pt" viewBox="0 0 512 512" width="512pt" xmlns="http://www.w3.org/2000/svg"><path d="m256 0c-140.699219 0-256 115.300781-256 256s115.300781 256 256 256 256-115.300781 256-256-115.300781-256-256-256zm0 0" fill="#5a5a5a"/><path d="m512 256c0 140.699219-115.300781 256-256 256v-512c140.699219 0 256 115.300781 256 256zm0 0" fill="#444"/><path d="m481 256c0 124.199219-100.800781 225-225 225s-225-100.800781-225-225 100.800781-225 225-225 225 100.800781 225 225zm0 0" fill="#ffd400"/><path d="m481 256c0 124.199219-100.800781 225-225 225v-450c124.199219 0 225 100.800781 225 225zm0 0" fill="#fdbf00"/><g fill="#5a5a5a"><path d="m256 211c-24.902344 0-45 20.097656-45 45s20.097656 45 45 45 45-20.097656 45-45-20.097656-45-45-45zm0 0"/><path d="m302.800781 316.601562-13.199219 6.597657c-10.5 5.402343-22.203124 7.800781-33.601562 7.800781s-23.101562-2.402344-33.601562-7.800781l-13.199219-6.597657-53.699219 107.097657 13.199219 6.902343c27.300781 13.5 56.699219 20.699219 87.300781 20.699219s60-7.199219 87.300781-20.699219l13.199219-6.902343zm0 0"/><path d="m180.238281 266.648438-119.78125-7.191407.894531-14.972656c3.605469-60.761719 36.210938-117.214844 87.21875-150.996094l12.507813-8.289062 66.125 100.121093-12.496094 8.277344c-19.628906 12.992188-32.183593 34.703125-33.574219 58.066406zm0 0"/></g><path d="m331.761719 266.648438-.894531-14.984376c-1.390626-23.363281-13.945313-45.074218-33.574219-58.066406l-12.492188-8.277344 66.121094-100.121093 12.511719 8.292969c51.003906 33.777343 83.613281 90.234374 87.214844 150.996093l.894531 14.96875zm0 0" fill="#444"/><path d="m256 301v-90c24.902344 0 45 20.097656 45 45s-20.097656 45-45 45zm0 0" fill="#444"/><path d="m356.5 423.699219-13.199219 6.902343c-27.300781 13.5-56.699219 20.699219-87.300781 20.699219v-120.300781c11.398438 0 23.101562-2.402344 33.601562-7.800781l13.199219-6.597657zm0 0" fill="#444"/></svg>