<svg height="512pt" viewBox="0 0 512 512" width="512pt" xmlns="http://www.w3.org/2000/svg"><path d="m464.199219 102.101562c-27.898438-26.402343-63.898438-40.5-102.597657-40.5-.300781 0-.300781 0-.300781 0-25.5-34.199218-63.300781-56.800781-105.300781-60.699218-4.800781-.601563-9.902344-.902344-15-.902344-61.199219 0-116.101562 38.5-138.601562 95.5-59.398438 15-102.398438 68.699219-102.398438 130.5 0 74.398438 61.601562 135 136 135h20.097656c12.601563 35.398438 46.5 60 84.902344 60 5.097656 0 10.199219-.300781 15-1.5 32.101562-5.398438 59.097656-27.898438 69.902344-58.5h35.097656c82.800781 0 151-67.199219 151-150 0-41.101562-18.101562-80.699219-47.800781-108.898438zm0 0" fill="#5a5a5a"/><path d="m512 211c0 82.800781-68.199219 150-151 150h-35.097656c-10.800782 30.601562-37.800782 53.101562-69.902344 58.5v-418.597656c42 3.898437 79.800781 26.496094 105.300781 60.699218h.300781c38.699219 0 74.699219 14.097657 102.597657 40.5 29.699219 28.199219 47.800781 67.796876 47.800781 108.898438zm0 0" fill="#444"/><path d="m106 512c-20.273438 0-37.457031-13.476562-43.066406-31.933594-18.457032-5.609375-31.933594-23.792968-31.933594-44.066406 0-29.867188 30.789062-53.570312 60-42.085938 29.253906-11.558593 59.984375 12.203126 60 42.085938 0 5.066406-.96875 10.035156-2.914062 15 1.945312 4.964844 2.914062 10.933594 2.914062 16 0 24.8125-20.1875 45-45 45zm0 0" fill="#5a5a5a"/><path d="m136 301c-24.8125 0-45-20.1875-45-45v-60c0-24.8125 20.1875-45 45-45s45 20.1875 45 45v15h-30v-15c0-8.277344-6.722656-15-15-15s-15 6.722656-15 15v60c0 8.277344 6.722656 15 15 15s15-6.722656 15-15v-15h30v15c0 24.8125-20.1875 45-45 45zm0 0" fill="#ede9e8"/><path d="m256 151c-24.902344 0-45 20.097656-45 45v60c0 24.902344 20.097656 45 45 45s45-20.097656 45-45v-60c0-24.902344-20.097656-45-45-45zm15 105c0 8.402344-6.597656 15-15 15s-15-6.597656-15-15v-60c0-8.402344 6.597656-15 15-15s15 6.597656 15 15zm0 0" fill="#ede9e8"/><g fill="#dfd7d5"><path d="m421 301h-90v-26.453125c0-17.15625 9.535156-32.578125 24.871094-40.257813l26.839844-13.417968c5.109374-2.546875 8.289062-7.6875 8.289062-13.417969v-11.453125c0-8.277344-6.722656-15-15-15s-15 6.722656-15 15v15h-30v-15c0-24.8125 20.1875-45 45-45s45 20.1875 45 45v11.453125c0 17.15625-9.535156 32.578125-24.871094 40.257813l-26.839844 13.417968c-4.027343 2.003906-6.851562 5.625-7.878906 9.871094h59.589844zm0 0"/><path d="m301 196v60c0 24.902344-20.097656 45-45 45v-30c8.402344 0 15-6.597656 15-15v-60c0-8.402344-6.597656-15-15-15v-30c24.902344 0 45 20.097656 45 45zm0 0"/></g></svg>