<svg height="512pt" viewBox="0 -61 512 512" width="512pt" xmlns="http://www.w3.org/2000/svg"><path d="m91 180h-91v-150h91l30 70.3125zm0 0" fill="#6e6e6e"/><path d="m473.5 291c-5.699219 3-10.5 6.898438-14.699219 10.5h-45.601562c-9-7.800781-20.097657-16.5-37.199219-16.5s-28.199219 8.699219-37.199219 16.5h-45.601562c-6.898438-6-15.300781-12.601562-27-15-2.398438-8.699219-6-17.402344-10.199219-25.5-4.199219-8.402344-9.300781-16.199219-15-23.402344-19.800781-24.597656-47.699219-43.199218-79.199219-52.5l4.800781-155.699218c30 .902343 60.300782 6.902343 89.398438 16.800781 41.398438 13.5 80.398438 35.699219 112.800781 64.800781 52.5 46.199219 89.097657 109.800781 104.699219 180zm0 0" fill="#90e36a"/><path d="m473.5 291c-5.699219 3-10.5 6.898438-14.699219 10.5h-45.601562c-9-7.800781-20.097657-16.5-37.199219-16.5s-28.199219 8.699219-37.199219 16.5h-45.601562c-6.898438-6-15.300781-12.601562-27-15-2.398438-8.699219-6-17.402344-10.199219-25.5v-214.800781c41.398438 13.5 80.398438 35.699219 112.800781 64.800781 52.5 46.199219 89.097657 109.800781 104.699219 180zm0 0" fill="#70da40"/><path d="m359.800781 222.597656-26.398437 14.398438c-18.300782-33.898438-45.300782-62.097656-77.402344-82.199219-11.398438-7.5-23.101562-13.5-35.699219-18.597656l11.398438-27.601563c8.398437 3.300782 16.5 7.203125 24.300781 11.402344 43.5 23.097656 79.800781 58.800781 103.800781 102.597656zm0 0" fill="#70da40"/><path d="m359.800781 222.597656-26.398437 14.398438c-18.300782-33.898438-45.300782-62.097656-77.402344-82.199219v-34.796875c43.5 23.097656 79.800781 58.800781 103.800781 102.597656zm0 0" fill="#56c225"/><path d="m512 270v30h-15c-7.199219 0-13 4.199219-21.097656 11.101562-9.300782 8.398438-21 18.898438-39.902344 18.898438s-30.601562-10.5-39.902344-18.898438c-16.199218-14.101562-24-14.101562-40.199218 0-9.296876 8.398438-21 18.898438-39.898438 18.898438-18.902344 0-30.601562-10.5-39.902344-18.898438-8.097656-6.902343-14.097656-10.503906-20.097656-10.503906s-12 3.601563-20.097656 10.503906c-9.300782 8.398438-21 18.898438-39.902344 18.898438s-30.601562-10.5-39.902344-18.898438c-16.199218-14.101562-24-14.101562-40.199218 0-9.296876 8.398438-21 18.898438-39.898438 18.898438-18.902344 0-31.601562-10.5-40.902344-18.898438-8.097656-6.902343-12.898437-11.101562-20.097656-11.101562h-15v-30h15c18.898438 0 31.601562 10.5 40.902344 18.898438 16.199218 14.101562 24 14.101562 40.199218 0 9.296876-8.398438 21-18.898438 39.898438-18.898438 18.902344 0 30.601562 10.5 39.902344 18.898438 16.199218 14.101562 24 14.101562 40.199218 0 9.300782-8.398438 21-18.898438 39.902344-18.898438 18.898438 0 30.597656 10.5 39.898438 18.898438 16.199218 14.101562 24 14.101562 40.199218 0 9.300782-8.398438 21-18.898438 39.902344-18.898438 18.898438 0 30.601563 10.5 39.898438 18.898438 16.199218 14.101562 24 14.101562 40.199218 0 9.300782-8.398438 22-18.898438 40.902344-18.898438zm0 0" fill="#90e36a"/><path d="m512 330v30h-15c-7.199219 0-13 4.199219-21.097656 11.101562-9.300782 8.398438-21 18.898438-39.902344 18.898438s-30.601562-10.5-39.902344-18.898438c-16.199218-14.101562-24-14.101562-40.199218 0-9.296876 8.398438-21 18.898438-39.898438 18.898438-18.902344 0-30.601562-10.5-39.902344-18.898438-8.097656-6.902343-14.097656-10.503906-20.097656-10.503906s-12 3.601563-20.097656 10.503906c-9.300782 8.398438-21 18.898438-39.902344 18.898438s-30.601562-10.5-39.902344-18.898438c-16.199218-14.101562-24-14.101562-40.199218 0-9.296876 8.398438-21 18.898438-39.898438 18.898438-18.902344 0-31.601562-10.5-40.902344-18.898438-8.097656-6.902343-12.898437-11.101562-20.097656-11.101562h-15v-30h15c18.898438 0 31.601562 10.5 40.902344 18.898438 16.199218 14.101562 24 14.101562 40.199218 0 9.296876-8.398438 21-18.898438 39.898438-18.898438 18.902344 0 30.601562 10.5 39.902344 18.898438 16.199218 14.101562 24 14.101562 40.199218 0 9.300782-8.398438 21-18.898438 39.902344-18.898438 18.898438 0 30.597656 10.5 39.898438 18.898438 16.199218 14.101562 24 14.101562 40.199218 0 9.300782-8.398438 21-18.898438 39.902344-18.898438 18.898438 0 30.601563 10.5 39.898438 18.898438 16.199218 14.101562 24 14.101562 40.199218 0 9.300782-8.398438 22-18.898438 40.902344-18.898438zm0 0" fill="#90e36a"/><path d="m151 180h-60v-150h60l15 19.6875v111.5625zm0 0" fill="#5a5a5a"/><path d="m512 270v30h-15c-7.199219 0-13 4.199219-21.097656 11.101562-9.300782 8.398438-21 18.898438-39.902344 18.898438s-30.601562-10.5-39.902344-18.898438c-16.199218-14.101562-24-14.101562-40.199218 0-9.296876 8.398438-21 18.898438-39.898438 18.898438-18.902344 0-30.601562-10.5-39.902344-18.898438-8.097656-6.902343-14.097656-10.503906-20.097656-10.503906v-30.597656c18.898438 0 30.601562 10.5 39.902344 18.898438 16.199218 14.101562 24 14.101562 40.199218 0 9.296876-8.398438 21-18.898438 39.898438-18.898438 18.902344 0 30.601562 10.5 39.902344 18.898438 16.199218 14.101562 24 14.101562 40.199218 0 9.300782-8.398438 22-18.898438 40.902344-18.898438zm0 0" fill="#70da40"/><path d="m497 330h15v30h-15c-7.199219 0-13 4.199219-21.097656 11.101562-9.300782 8.398438-21 18.898438-39.902344 18.898438s-30.601562-10.5-39.902344-18.898438c-16.199218-14.101562-24-14.101562-40.199218 0-9.296876 8.398438-21 18.898438-39.898438 18.898438-18.902344 0-30.601562-10.5-39.902344-18.898438-8.097656-6.902343-14.097656-10.503906-20.097656-10.503906v-30.597656c18.898438 0 30.601562 10.5 39.902344 18.898438 16.199218 14.101562 24 14.101562 40.199218 0 9.296876-8.398438 21-18.898438 39.898438-18.898438 18.902344 0 30.601562 10.5 39.902344 18.898438 16.199218 14.101562 24 14.101562 40.199218 0 9.296876-8.398438 22-18.898438 40.898438-18.898438zm0 0" fill="#70da40"/><path d="m151 0h30v210h-30zm0 0" fill="#6e6e6e"/></svg>