<svg height="512pt" viewBox="0 0 512 512" width="512pt" xmlns="http://www.w3.org/2000/svg"><path d="m0 302 30.9375 30h151.875l27.1875-30v-46c0-11.515625-4.351562-22.03125-11.484375-30 7.132813-7.96875 11.484375-18.484375 11.484375-30v-34.539062l-62.519531-110.683594h-84.960938l-62.519531 110.683594v34.539062c0 11.515625 4.351562 22.03125 11.484375 30-7.132813 7.96875-11.484375 18.484375-11.484375 30zm0 0" fill="#00c0f1"/><path d="m460.402344 364.398438v85.203124l-110.902344 62.398438h-34.5c-11.398438 0-21.898438-4.5-30-11.398438-8.101562 6.898438-18.601562 11.398438-30 11.398438h-90c-11.398438 0-21.898438-4.5-30-11.398438-8.101562 6.898438-18.601562 11.398438-30 11.398438h-105v-210h105c11.398438 0 21.898438 4.5 30 11.398438 8.101562-6.898438 18.601562-11.398438 30-11.398438h90c11.398438 0 21.898438 4.5 30 11.398438 8.101562-6.898438 18.601562-11.398438 30-11.398438h34.5zm0 0" fill="#76e2f8"/><path d="m460.402344 407v42.597656l-110.902344 62.402344h-34.5c-11.398438 0-21.898438-4.5-30-11.398438-8.101562 6.898438-18.601562 11.398438-30 11.398438h-90c-11.398438 0-21.898438-4.5-30-11.398438-8.101562 6.898438-18.601562 11.398438-30 11.398438h-105v-105zm0 0" fill="#00c0f1"/><path d="m180 60h-150v-60h150zm0 0" fill="#d2c5c2"/><path d="m452 332v150h60v-150zm0 0" fill="#ede9e8"/><path d="m452 407h60v75h-60zm0 0" fill="#d2c5c2"/></svg>