<svg height="512pt" viewBox="-16 0 512 512" width="512pt" xmlns="http://www.w3.org/2000/svg"><path d="m405.300781 152.300781-33.601562 134.699219h-263.398438l-33.601562-134.699219 33-152.300781h264.601562zm0 0" fill="#5a5a5a"/><path d="m405.300781 152.300781-33.601562 134.699219h-131.699219v-287h132.300781zm0 0" fill="#444"/><path d="m308.699219 160.097656h-137.398438l27.898438-85.097656h81.601562zm0 0" fill="#ede9e8"/><path d="m308.699219 160.097656h-68.699219v-85.097656h40.800781zm0 0" fill="#dfd7d5"/><path d="m375 272v135h-270v-135c0-74.699219 60.300781-135 135-135 37.199219 0 71.101562 15 95.398438 39.601562 24.601562 24.296876 39.601562 58.199219 39.601562 95.398438zm0 0" fill="#70da40"/><path d="m375 272v135h-135v-270c37.199219 0 71.101562 15 95.398438 39.601562 24.601562 24.296876 39.601562 58.199219 39.601562 95.398438zm0 0" fill="#56c225"/><path d="m33.632812 414.71875 71.367188-71.535156 63.800781 63.816406-71.519531 71.351562zm0 0" fill="#5a5a5a"/><path d="m0 405.929688 42.421875-42.421876 106.070313 106.054688-42.421876 42.4375zm0 0" fill="#6e6e6e"/><path d="m195 197h30v30h-30zm0 0" fill="#5a5a5a"/><path d="m195 257h30v30h-30zm0 0" fill="#5a5a5a"/><path d="m195 317h30v30h-30zm0 0" fill="#5a5a5a"/><g fill="#444"><path d="m255 197h30v30h-30zm0 0"/><path d="m255 257h30v30h-30zm0 0"/><path d="m255 317h30v30h-30zm0 0"/><path d="m446.367188 414.71875-71.367188-71.234375-63.503906 63.515625 71.222656 71.351562zm0 0"/></g><path d="m480 405.929688-42.421875-42.421876-106.070313 106.054688 42.421876 42.4375zm0 0" fill="#5a5a5a"/></svg>