<svg height="512pt" viewBox="0 -16 512 512" width="512pt" xmlns="http://www.w3.org/2000/svg"><path d="m512 480h-512l256-480zm0 0" fill="#5a5a5a"/><path d="m512 480h-256v-480zm0 0" fill="#444"/><path d="m461.199219 450h-410.398438l205.199219-386.101562zm0 0" fill="#ffd400"/><path d="m461.199219 450h-205.199219v-386.101562zm0 0" fill="#fdbf00"/><path d="m271 315c0 8.402344-6.597656 15-15 15s-15-6.597656-15-15 6.597656-15 15-15 15 6.597656 15 15zm0 0" fill="#5a5a5a"/><path d="m358.449219 287.550781-62.320313 7.503907c3.015625 6.035156 4.871094 12.746093 4.871094 19.945312 0 23.859375-18.71875 43.246094-42.214844 44.71875l24.679688 57.761719 13.800781-5.902344c38.714844-16.554687 63.734375-54.464844 63.734375-96.578125 0-9.660156-1.25-15.621094-2.550781-27.449219zm0 0" fill="#444"/><path d="m331 240-37.5 50.097656c-8.101562-11.996094-21.898438-20.097656-37.5-20.097656s-29.398438 8.101562-37.5 20.097656l-37.5-50.097656 12-9c18.300781-13.800781 40.800781-20.699219 63-20.699219s44.699219 6.898438 63 20.699219zm0 0" fill="#5a5a5a"/><path d="m211 315c0-7.199219 1.855469-13.910156 4.871094-19.949219l-62.324219-7.503906c-1.300781 11.871094-2.546875 17.792969-2.546875 27.453125 0 42.113281 25.019531 80.023438 63.734375 96.578125l13.800781 5.902344 24.679688-57.761719c-23.496094-1.472656-42.214844-20.859375-42.214844-44.71875zm0 0" fill="#5a5a5a"/><g fill="#444"><path d="m271 315c0 8.402344-6.597656 15-15 15v-30c8.402344 0 15 6.597656 15 15zm0 0"/><path d="m331 240-37.5 50.097656c-8.101562-11.996094-21.898438-20.097656-37.5-20.097656v-59.699219c22.199219 0 44.699219 6.898438 63 20.699219zm0 0"/></g></svg>