<svg height="512pt" viewBox="0 0 512 512" width="512pt" xmlns="http://www.w3.org/2000/svg"><path d="m236.605469 325.605469-21.210938-21.210938 100.605469-100.605469 60 60 110.394531-109.394531 21.210938 21.210938-131.605469 130.605469-60-60zm0 0" fill="#25d9f8"/><path d="m236.605469 175.605469-21.210938-21.210938 100.605469-100.605469 60 60 110.394531-109.394531 21.210938 21.210938-131.605469 130.605469-60-60zm0 0" fill="#25d9f8"/><path d="m211 406c0 57.898438-47.101562 106-105 106s-106-48.101562-106-106c0-27 11.800781-54.402344 31-73.898438v-257.101562c0-41.398438 33.601562-75 75-75s75 33.601562 75 75v75l-45 15 45 15v30l-45 15 45 15v30l-45 15 45 15v32.101562c19.199219 19.496094 30 46.898438 30 73.898438zm0 0" fill="#ede9e8"/><path d="m211 406c0 57.898438-47.101562 106-105 106v-512c41.398438 0 75 33.601562 75 75v75l-45 15 45 15v30l-45 15 45 15v30l-45 15 45 15v32.101562c19.199219 19.496094 30 46.898438 30 73.898438zm0 0" fill="#d2c5c2"/><g fill="#dd3400"><path d="m106 270h75v30h-75zm0 0"/><path d="m106 210h75v30h-75zm0 0"/><path d="m106 150h75v30h-75zm0 0"/></g><path d="m512 240h-30v-60h-60v-30h90zm0 0" fill="#25d9f8"/><path d="m512 90h-30v-60h-60v-30h90zm0 0" fill="#25d9f8"/><path d="m91 90h30v286h-30zm0 0" fill="#ff7816"/><path d="m106 90h15v286h-15zm0 0" fill="#dd3400"/><path d="m106 361c-24.902344 0-45 20.097656-45 45 0 24.898438 20.097656 46 45 46s45-21.101562 45-46c0-24.902344-20.097656-45-45-45zm0 0" fill="#ff7816"/><path d="m151 406c0 24.898438-20.097656 46-45 46v-91c24.902344 0 45 20.097656 45 45zm0 0" fill="#dd3400"/></svg>