<svg height="512pt" viewBox="0 0 512 512" width="512pt" xmlns="http://www.w3.org/2000/svg"><path d="m140.972656 512c-19.378906 0-38.554687-7.5-53.039062-21.988281l-14.589844-14.601563 21.210938-21.210937 14.589843 14.605469c14.660157 14.632812 37.25 17.398437 54.972657 6.765624 11-6.605468 18.457031-17.136718 20.960937-29.691406 2.503906-12.4375-.335937-25.355468-7.761719-35.445312l24.167969-17.785156c12.421875 16.875 17.167969 38.4375 13.007813 59.136718-4.1875 20.929688-16.597657 38.507813-34.9375 49.507813-11.996094 7.207031-25.339844 10.707031-38.582032 10.707031zm0 0" fill="#444"/><path d="m511.984375 0h-76.996094c-41.351562 0-75 35.644531-75 76.996094 0 23.015625 5.890625 43.902344 17.492188 62.09375 8.1875 12.832031 12.507812 27.613281 12.507812 42.90625 0 33.089844 26.910157 59.996094 60 59.996094 33.089844 0 61.996094-26.90625 61.996094-59.996094v-90l-15-15 15-14.996094zm0 0" fill="#fed2a4"/><path d="m277.191406 366.1875-218.09375 131.898438-59.097656-59.097657 129.296875-220.394531 74.097656 73.796875zm0 0" fill="#ff7816"/><path d="m419.988281 106.996094c0 24.8125 20.183594 45 45 45v-30c-8.277343 0-15-6.722656-15-15 0-8.273438 6.722657-15 15-15h46.996094v-29.996094h-46.996094c-24.816406 0-45 20.183594-45 44.996094zm0 0" fill="#ffbd86"/><path d="m320.089844 156.792969-27.097656 27.300781v42.597656l-36.5 36-11.699219-11.699218-9.597657-9.300782 27.796876-27.597656v-42.300781l35.800781-36.296875zm0 0" fill="#ffe470"/><path d="m290.351562 311.21875-12.683593-27.1875 35.15625-16.390625 14.515625-39.855469 46.402344-21.648437 12.6875 27.183593-35.15625 16.40625-14.515626 39.859376zm0 0" fill="#ffd400"/><path d="m214.035156 220.402344-27.183594-12.683594 16.390626-35.144531-14.515626-39.871094 21.648438-46.417969 27.1875 12.683594-16.40625 35.140625 14.515625 39.871094zm0 0" fill="#ffe470"/><path d="m256.492188 262.691406-11.699219-11.699218 48.199219-48v23.699218zm0 0" fill="#ffd400"/><path d="m277.191406 366.1875-218.09375 131.898438-29.699218-29.699219 173.996093-175.996094zm0 0" fill="#dd3400"/><path d="m311.992188 374.589844-21.300782 21.296875-190.792968-190.792969 21.296874-21.300781zm0 0" fill="#ede9e8"/><path d="m195.292969 300.492188 21.296875-21.300782 95.398437 95.394532-21.300781 21.300781zm0 0" fill="#dfd7d5"/></svg>