<svg height="512pt" viewBox="-31 0 512 512" width="512pt" xmlns="http://www.w3.org/2000/svg"><g fill="#5a5a5a"><path d="m195 451h-90c-41.351562 0-75-33.648438-75-75h30c0 24.8125 20.1875 45 45 45h90zm0 0"/><path d="m60 136h-30v-56.453125l-30-66.128906 26.835938-13.417969 33.164062 72.453125zm0 0"/><path d="m300 15h30v91h-30zm0 0"/></g><path d="m315 15h15v91h-15zm0 0" fill="#444"/><path d="m240 91h150v75h-150zm0 0" fill="#70da40"/><path d="m315 91h75v75h-75zm0 0" fill="#56c225"/><path d="m180 151v361h270v-361zm0 0" fill="#ede9e8"/><path d="m315 151h135v361h-135zm0 0" fill="#dfd7d5"/><path d="m315 241c-41.398438 0-75 33.601562-75 75s33.601562 75 75 75 75-33.601562 75-75-33.601562-75-75-75zm0 0" fill="#70da40"/><path d="m390 316c0 41.398438-33.601562 75-75 75v-150c41.398438 0 75 33.601562 75 75zm0 0" fill="#56c225"/><path d="m240 0h150v30h-150zm0 0" fill="#ede9e8"/><path d="m15 121h60v270h-60zm0 0" fill="#70da40"/><path d="m315 0h75v30h-75zm0 0" fill="#dfd7d5"/><path d="m315 271c-24.902344 0-45 20.097656-45 45s20.097656 45 45 45 45-20.097656 45-45-20.097656-45-45-45zm0 0" fill="#ede9e8"/><path d="m360 316c0 24.902344-20.097656 45-45 45v-90c24.902344 0 45 20.097656 45 45zm0 0" fill="#dfd7d5"/><path d="m261.894531 347.800781 84.898438-84.898437 21.300781 21.300781-84.898438 84.898437zm0 0" fill="#70da40"/><path d="m368.101562 284.199219-53.101562 53.101562v-42.601562l31.800781-31.800781zm0 0" fill="#56c225"/></svg>