<svg height="512pt" viewBox="0 0 512 512" width="512pt" xmlns="http://www.w3.org/2000/svg"><g fill="#90e36a"><path d="m121 331h30v90h-30zm0 0"/><path d="m241 331h30v90h-30zm0 0"/><path d="m181 421h30v91h-30zm0 0"/><path d="m61 421h30v91h-30zm0 0"/></g><path d="m301 421h30v91h-30zm0 0" fill="#70da40"/><path d="m421 421h30v91h-30zm0 0" fill="#70da40"/><path d="m361 331h30v90h-30zm0 0" fill="#70da40"/><path d="m256 331h15v90h-15zm0 0" fill="#70da40"/><path d="m465.199219 102.101562c-27.898438-26.402343-64.898438-40.5-103.597657-40.5-.300781 0-.300781 0-.300781 0-25.5-34.199218-63.300781-56.800781-105.300781-60.699218-4.800781-.601563-9.902344-.902344-15-.902344-61.199219 0-116.101562 38.5-138.601562 95.5-59.398438 15-102.398438 68.699219-102.398438 130.5 0 74.398438 61.601562 135 136 135h225c82.800781 0 151-67.199219 151-150 0-41.101562-17.101562-80.699219-46.800781-108.898438zm0 0" fill="#ede9e8"/><path d="m512 211c0 82.800781-68.199219 150-151 150h-105v-360.097656c42 3.898437 79.800781 26.496094 105.300781 60.699218h.300781c38.699219 0 75.699219 14.097657 103.597657 40.5 29.699219 28.199219 46.800781 67.796876 46.800781 108.898438zm0 0" fill="#dfd7d5"/><path d="m271 196c0 8.402344-6.597656 15-15 15s-15-6.597656-15-15 6.597656-15 15-15 15 6.597656 15 15zm0 0" fill="#5a5a5a"/><path d="m358.449219 168.550781-62.320313 7.503907c3.015625 6.035156 4.871094 12.746093 4.871094 19.945312 0 23.859375-18.71875 43.246094-42.214844 44.71875l24.679688 57.761719 13.800781-5.902344c38.714844-16.554687 63.734375-54.464844 63.734375-96.578125 0-9.660156-1.25-15.621094-2.550781-27.449219zm0 0" fill="#444"/><path d="m331 121-37.5 50.097656c-8.101562-11.996094-21.898438-20.097656-37.5-20.097656s-29.398438 8.101562-37.5 20.097656l-37.5-50.097656 12-9c18.300781-13.800781 40.800781-20.699219 63-20.699219s44.699219 6.898438 63 20.699219zm0 0" fill="#5a5a5a"/><path d="m211 196c0-7.199219 1.855469-13.910156 4.871094-19.949219l-62.324219-7.503906c-1.300781 11.871094-2.546875 17.792969-2.546875 27.453125 0 42.113281 25.019531 80.023438 63.734375 96.578125l13.800781 5.902344 24.679688-57.761719c-23.496094-1.472656-42.214844-20.859375-42.214844-44.71875zm0 0" fill="#5a5a5a"/><path d="m271 196c0 8.402344-6.597656 15-15 15v-30c8.402344 0 15 6.597656 15 15zm0 0" fill="#444"/><path d="m331 121-37.5 50.097656c-8.101562-11.996094-21.898438-20.097656-37.5-20.097656v-59.699219c22.199219 0 44.699219 6.898438 63 20.699219zm0 0" fill="#444"/></svg>