<svg height="512pt" viewBox="0 -31 512 512" width="512pt" xmlns="http://www.w3.org/2000/svg"><path d="m331 60h120v120h-120zm0 0" fill="#ffd400"/><path d="m391 150h121v60l-45.0625 30-75.9375-30-30-28.125zm0 0" fill="#ff9f00"/><path d="m271 150h120v120h-120zm0 0" fill="#fdbf00"/><path d="m60 0h30v75h-30zm0 0" fill="#5a5a5a"/><path d="m30 75h120v90h-120zm0 0" fill="#dfd7d5"/><path d="m210 240-30 30h-152.8125l-27.1875-30v-90h210zm0 0" fill="#ede9e8"/><path d="m60 210h30v45h-30zm0 0" fill="#444"/><path d="m120 210h30v45h-30zm0 0" fill="#444"/><path d="m512 210v15c0 56.699219-26.199219 110.699219-68.800781 147.300781-8.699219 3.898438-15.898438 1.5-27.296875-8.402343-9.300782-8.398438-21-18.898438-39.902344-18.898438s-30.601562 10.5-39.902344 18.898438c-16.199218 14.101562-24 14.101562-40.199218 0-9.296876-8.398438-21-18.898438-39.898438-18.898438-18.902344 0-31.601562 10.5-40.902344 18.898438-3.601562 3.300781-6.898437 5.703124-9.898437 7.203124l-21.902344-1.203124c-2.699219-1.5-5.398437-3.300782-8.398437-6-9.300782-8.398438-21-18.898438-39.902344-18.898438-18.898438 0-30.597656 10.5-39.898438 18.898438-.601562.601562-1.199218.601562-1.5 1.199218l-39.902344-2.097656c-8.996093-8.398438-20.394531-18-38.695312-18l-15-15v-90h282.398438l60-30zm0 0" fill="#5a5a5a"/><path d="m512 210v15c0 56.699219-26.199219 110.699219-68.800781 147.300781-8.699219 3.898438-15.898438 1.5-27.296875-8.402343-9.300782-8.398438-21-18.898438-39.902344-18.898438s-30.601562 10.5-39.902344 18.898438c-16.199218 14.101562-24 14.101562-40.199218 0-9.296876-8.398438-21-18.898438-39.898438-18.898438v-105h26.398438l60-30zm0 0" fill="#444"/><path d="m0 60h180v30h-180zm0 0" fill="#ede9e8"/><path d="m512 330v30h-15c-7.199219 0-12 4.199219-20.097656 11.101562-9.300782 8.398438-22 18.898438-40.902344 18.898438s-30.601562-10.5-39.902344-18.898438c-16.199218-14.101562-24-14.101562-40.199218 0-9.296876 8.398438-21 18.898438-39.898438 18.898438-18.902344 0-30.601562-10.5-39.902344-18.898438-8.097656-6.902343-14.097656-10.503906-20.097656-10.503906s-12 3.601563-20.097656 10.503906c-9.300782 8.398438-22 18.898438-40.902344 18.898438s-30.601562-10.5-39.902344-18.898438c-16.199218-14.101562-24-14.101562-40.199218 0-9.296876 8.398438-21 18.898438-39.898438 18.898438-18.902344 0-30.601562-10.5-39.902344-18.898438-8.097656-6.902343-12.898437-11.101562-20.097656-11.101562h-15v-30h15c18.898438 0 30.601562 10.5 39.902344 18.898438 16.199218 14.101562 24 14.101562 40.199218 0 9.296876-8.398438 21-18.898438 39.898438-18.898438 18.902344 0 30.601562 10.5 39.902344 18.898438 16.199218 14.101562 24 14.101562 40.199218 0 9.300782-8.398438 22-18.898438 40.902344-18.898438 18.898438 0 30.597656 10.5 39.898438 18.898438 16.199218 14.101562 24 14.101562 40.199218 0 9.300782-8.398438 21-18.898438 39.902344-18.898438 18.898438 0 30.601563 10.5 39.898438 18.898438 16.199218 14.101562 24 14.101562 40.199218 0 9.300782-8.398438 22-18.898438 40.902344-18.898438zm0 0" fill="#76e2f8"/><path d="m512 390v30h-15c-7.199219 0-12 4.199219-20.097656 11.101562-9.300782 8.398438-22 18.898438-40.902344 18.898438s-30.601562-10.5-39.902344-18.898438c-16.199218-14.101562-24-14.101562-40.199218 0-9.296876 8.398438-21 18.898438-39.898438 18.898438-18.902344 0-30.601562-10.5-39.902344-18.898438-8.097656-6.902343-14.097656-10.503906-20.097656-10.503906s-12 3.601563-20.097656 10.503906c-9.300782 8.398438-22 18.898438-40.902344 18.898438s-30.601562-10.5-39.902344-18.898438c-16.199218-14.101562-24-14.101562-40.199218 0-9.296876 8.398438-21 18.898438-39.898438 18.898438-18.902344 0-30.601562-10.5-39.902344-18.898438-8.097656-6.902343-12.898437-11.101562-20.097656-11.101562h-15v-30h15c18.898438 0 30.601562 10.5 39.902344 18.898438 16.199218 14.101562 24 14.101562 40.199218 0 9.296876-8.398438 21-18.898438 39.898438-18.898438 18.902344 0 30.601562 10.5 39.902344 18.898438 16.199218 14.101562 24 14.101562 40.199218 0 9.300782-8.398438 22-18.898438 40.902344-18.898438 18.898438 0 30.597656 10.5 39.898438 18.898438 16.199218 14.101562 24 14.101562 40.199218 0 9.300782-8.398438 21-18.898438 39.902344-18.898438 18.898438 0 30.601563 10.5 39.898438 18.898438 16.199218 14.101562 24 14.101562 40.199218 0 9.300782-8.398438 22-18.898438 40.902344-18.898438zm0 0" fill="#76e2f8"/><g fill="#25d9f8"><path d="m512 330v30h-15c-7.199219 0-12 4.199219-20.097656 11.101562-9.300782 8.398438-22 18.898438-40.902344 18.898438s-30.601562-10.5-39.902344-18.898438c-16.199218-14.101562-24-14.101562-40.199218 0-9.296876 8.398438-21 18.898438-39.898438 18.898438-18.902344 0-30.601562-10.5-39.902344-18.898438-8.097656-6.902343-14.097656-10.503906-20.097656-10.503906v-30.597656c18.898438 0 30.601562 10.5 39.902344 18.898438 16.199218 14.101562 24 14.101562 40.199218 0 9.296876-8.398438 21-18.898438 39.898438-18.898438 18.902344 0 30.601562 10.5 39.902344 18.898438 16.199218 14.101562 24 14.101562 40.199218 0 9.300782-8.398438 22-18.898438 40.902344-18.898438zm0 0"/><path d="m497 390h15v30h-15c-7.199219 0-12 4.199219-20.097656 11.101562-9.300782 8.398438-22 18.898438-40.902344 18.898438s-30.601562-10.5-39.902344-18.898438c-16.199218-14.101562-24-14.101562-40.199218 0-9.296876 8.398438-21 18.898438-39.898438 18.898438-18.902344 0-30.601562-10.5-39.902344-18.898438-8.097656-6.902343-14.097656-10.503906-20.097656-10.503906v-30.597656c18.898438 0 30.601562 10.5 39.902344 18.898438 16.199218 14.101562 24 14.101562 40.199218 0 9.296876-8.398438 21-18.898438 39.898438-18.898438 18.902344 0 30.601562 10.5 39.902344 18.898438 16.199218 14.101562 24 14.101562 40.199218 0 9.296876-8.398438 22-18.898438 40.898438-18.898438zm0 0"/></g></svg>