<svg height="512pt" viewBox="0 0 512 512" width="512pt" xmlns="http://www.w3.org/2000/svg"><path d="m0 121 28.125-30h157.5l24.375 30v181l-29.0625 30h-155.625l-25.3125-30zm0 0" fill="#ff9f00"/><path d="m150 91h-90v-91h90zm0 0" fill="#444"/><path d="m0 61h210v60h-210zm0 0" fill="#5a5a5a"/><path d="m421 362v90h91v-90zm0 0" fill="#5a5a5a"/><path d="m421 407h91v45h-91zm0 0" fill="#292929"/><path d="m421 331.097656v158.402344l-31 22.5h-330l-30-27.300781v-153.601563l30-29.097656h330zm0 0" fill="#ffd400"/><path d="m421 407v82.5l-31 22.5h-330l-30-27.300781v-77.699219zm0 0" fill="#ff9f00"/><path d="m330 392v30h-30v30h-30v-30h-30v-30h30v-30h30v30zm0 0" fill="#6e6e6e"/><path d="m150 212h-30v-30h-30v30h-30v30h30v30h30v-30h30zm0 0" fill="#5a5a5a"/><path d="m120 392h75v30h-75zm0 0" fill="#6e6e6e"/><path d="m120 407h75v15h-75zm0 0" fill="#444"/><path d="m240 407h90v15h-30v30h-30v-30h-30zm0 0" fill="#444"/><path d="m0 302h60v210h-60zm0 0" fill="#6e6e6e"/><path d="m390 302h61v210h-61zm0 0" fill="#6e6e6e"/><g fill="#444"><path d="m0 407h60v105h-60zm0 0"/><path d="m390 407h61v105h-61zm0 0"/></g></svg>