<svg height="512pt" viewBox="0 0 512 512" width="512pt" xmlns="http://www.w3.org/2000/svg"><path d="m389.199219 224.5-40.199219 45.300781-93-69.902343-93 69.902343-40.199219-45.300781 103.199219-72.902344v-136.597656h60v136.597656zm0 0" fill="#ff7816"/><path d="m389.199219 224.5-40.199219 45.300781-93-69.902343v-184.898438h30v136.597656zm0 0" fill="#ff4b00"/><path d="m467 482c-91.128906 0-166-73.871094-166-165v-151c0-24.851562 20.148438-45 45-45 91.128906 0 166 73.871094 166 165v151c0 24.851562-20.148438 45-45 45zm0 0" fill="#ff4b00"/><path d="m45 482c91.128906 0 166-73.871094 166-165v-151c0-24.851562-20.148438-45-45-45-91.128906 0-166 73.871094-166 165v151c0 24.851562 20.148438 45 45 45zm0 0" fill="#ff7816"/><path d="m367 268-18 25-93-70.601562-93 70.601562-18-25 111-83.398438zm0 0" fill="#ff4b00"/><path d="m403 220-18 24-114-85.5v-128.5h-30v128.5l-114 85.5-18-24 102-76.5v-143.5h90v143.5zm0 0" fill="#ff4b00"/><path d="m256 184.601562 111 83.398438-18 25-93-70.601562zm0 0" fill="#dd3400"/><path d="m403 220-18 24-114-85.5v-128.5h-15v-30h45v143.5zm0 0" fill="#dd3400"/><path d="m256 302c-57.898438 0-105 47.101562-105 105s47.101562 105 105 105 105-47.101562 105-105-47.101562-105-105-105zm0 0" fill="#5a5a5a"/><path d="m361 407c0 57.898438-47.101562 105-105 105v-210c57.898438 0 105 47.101562 105 105zm0 0" fill="#444"/><path d="m277.300781 407 19.199219 19.5-21 21-19.5-19.199219-19.5 19.199219-21-21 19.199219-19.5-19.199219-19.5 21-21 19.5 19.199219 19.5-19.199219 21 21zm0 0" fill="#ff7816"/><path d="m296.5 387.5-19.199219 19.5 19.199219 19.5-21 21-19.5-19.199219v-42.601562l19.5-19.199219zm0 0" fill="#ff4b00"/></svg>