<svg height="512pt" viewBox="0 0 512 512" width="512pt" xmlns="http://www.w3.org/2000/svg"><path d="m256 0c-140.699219 0-256 115.300781-256 256s115.300781 256 256 256 256-115.300781 256-256-115.300781-256-256-256zm0 0" fill="#5a5a5a"/><path d="m512 256c0 140.699219-115.300781 256-256 256v-512c140.699219 0 256 115.300781 256 256zm0 0" fill="#444"/><path d="m481 256c0 124.199219-100.800781 225-225 225s-225-100.800781-225-225 100.800781-225 225-225 225 100.800781 225 225zm0 0" fill="#ffd400"/><path d="m481 256c0 124.199219-100.800781 225-225 225v-450c124.199219 0 225 100.800781 225 225zm0 0" fill="#fdbf00"/><path d="m256 151c-57.898438 0-105 47.101562-105 105s47.101562 105 105 105 105-47.101562 105-105-47.101562-105-105-105zm0 0" fill="#5a5a5a"/><path d="m361 256c0 57.898438-47.101562 105-105 105v-210c57.898438 0 105 47.101562 105 105zm0 0" fill="#444"/><path d="m256 181c-41.398438 0-75 33.601562-75 75s33.601562 75 75 75 75-33.601562 75-75-33.601562-75-75-75zm0 0" fill="#ffd400"/><path d="m331 256c0 41.398438-33.601562 75-75 75v-150c41.398438 0 75 33.601562 75 75zm0 0" fill="#fdbf00"/><path d="m438.101562 313.898438-29.703124-3.597657c2.402343-19.199219-3-39-14.699219-54.601562-12.902344-17.398438-32.097657-27-52.203125-29.101563-15 21-37.5 36.601563-63.898438 42.003906 8.101563 25.199219 6.601563 52.199219-4.199218 76.199219.300781.296875.300781.898438.597656 1.5 24.902344 33 72.304687 39.300781 105.304687 14.398438l18 24c-18.898437 14.398437-41.101562 21.300781-63.300781 21.300781-29.101562 0-57.601562-12.601562-78-35.699219-20.398438 23.097657-48.898438 35.699219-78 35.699219-22.199219 0-44.398438-6.902344-63.300781-21.300781l18-24c33 25.199219 80.101562 18.601562 105.300781-14.398438.300781-.601562.300781-1.203125.601562-1.5-10.800781-24-12.300781-51-4.199218-76.199219-26.101563-5.402343-48.300782-20.703124-63.300782-41.402343-10.5.902343-21 3.300781-30.601562 8.699219-26.097656 15.300781-40.5 44.402343-36.898438 74.402343l-29.703124 3.597657c-5.398438-42 15-82.796876 51.601562-103.800782 9.898438-5.699218 20.402344-9.597656 31.199219-11.699218-3.296875-10.199219-5.699219-21-5.699219-32.398438 0-42.300781 25.199219-80.398438 64.199219-96.601562l11.703125 27.601562c-27.902344 11.699219-45.902344 38.699219-45.902344 69 0 10.800781 2.402344 21.300781 6.597656 30.597656 19.203125 1.800782 37.800782 8.402344 53.703125 20.703125 5.398438 3.898438 10.199219 8.398438 14.699219 13.5 4.5-5.101562 9.300781-9.601562 14.699219-13.5 16.203125-12.300781 34.800781-18.902343 53.402343-20.402343 4.496094-9.597657 6.898438-19.796876 6.898438-30.898438 0-30.300781-18-57.300781-45.902344-69l11.703125-27.601562c39 16.203124 64.199219 54.300781 64.199219 96.601562 0 11.398438-2.402344 22.199219-5.699219 32.699219 24 5.101562 46.5 18 62.398438 39 16.5 21.601562 23.699219 49.5 20.402343 76.199219zm0 0" fill="#5a5a5a"/><path d="m438.101562 313.898438-29.703124-3.597657c2.402343-19.199219-3-39-14.699219-54.601562-12.902344-17.398438-32.097657-27-52.203125-29.101563-15 21-37.5 36.601563-63.898438 42.003906 8.101563 25.199219 6.601563 52.199219-4.199218 76.199219.300781.296875.300781.898438.597656 1.5 24.902344 33 72.304687 39.300781 105.304687 14.398438l18 24c-18.898437 14.398437-41.101562 21.300781-63.300781 21.300781-29.101562 0-57.601562-12.601562-78-35.699219v-139.5c4.5-5.101562 9.300781-9.601562 14.699219-13.5 16.203125-12.300781 34.800781-18.902343 53.402343-20.402343 4.496094-9.597657 6.898438-19.796876 6.898438-30.898438 0-30.300781-18-57.300781-45.902344-69l11.703125-27.601562c39 16.203124 64.199219 54.300781 64.199219 96.601562 0 11.398438-2.402344 22.199219-5.699219 32.699219 24 5.101562 46.5 18 62.398438 39 16.5 21.601562 23.699219 49.5 20.402343 76.199219zm0 0" fill="#444"/></svg>