<svg height="512pt" viewBox="0 0 512 512" width="512pt" xmlns="http://www.w3.org/2000/svg"><path d="m256 0c-140.699219 0-256 115.300781-256 256s115.300781 256 256 256 256-115.300781 256-256-115.300781-256-256-256zm0 0" fill="#a8ebfa"/><path d="m512 256c0 140.699219-115.300781 256-256 256v-512c140.699219 0 256 115.300781 256 256zm0 0" fill="#76e2f8"/><path d="m481 256c0 124.199219-100.800781 225-225 225s-225-100.800781-225-225 100.800781-225 225-225 225 100.800781 225 225zm0 0" fill="#25d9f8"/><path d="m481 256c0 124.199219-100.800781 225-225 225v-450c124.199219 0 225 100.800781 225 225zm0 0" fill="#00c0f1"/><path d="m241 15h30v91h-30zm0 0" fill="#a8ebfa"/><path d="m48.109375 121h117.992187v30h-117.992187zm0 0" fill="#a8ebfa"/><path d="m406 241h91v30h-91zm0 0" fill="#76e2f8"/><path d="m241 406h30v91h-30zm0 0" fill="#a8ebfa"/><path d="m256 0c-90.902344 0-165 115.300781-165 256s74.097656 256 165 256 165-115.300781 165-256-74.097656-256-165-256zm0 481c-74.398438 0-135-100.800781-135-225s60.601562-225 135-225 135 100.800781 135 225-60.601562 225-135 225zm0 0" fill="#a8ebfa"/><path d="m15 241h91v30h-91zm0 0" fill="#a8ebfa"/><path d="m345.898438 121h117.992187v30h-117.992187zm0 0" fill="#76e2f8"/><path d="m48.109375 361h117.992187v30h-117.992187zm0 0" fill="#a8ebfa"/><g fill="#76e2f8"><path d="m345.898438 361h117.992187v30h-117.992187zm0 0"/><path d="m421 256c0 140.699219-74.097656 256-165 256v-31c74.398438 0 135-100.800781 135-225s-60.601562-225-135-225v-31c90.902344 0 165 115.300781 165 256zm0 0"/><path d="m256 15h15v91h-15zm0 0"/><path d="m256 406h15v91h-15zm0 0"/></g><path d="m256 91c-90.902344 0-165 74.097656-165 165 0 90.898438 74.097656 165 165 165s165-74.101562 165-165c0-90.902344-74.097656-165-165-165zm0 0" fill="#5a5a5a"/><path d="m421 256c0 90.898438-74.097656 165-165 165v-330c90.902344 0 165 74.097656 165 165zm0 0" fill="#444"/><path d="m256 121c-74.398438 0-135 60.597656-135 135 0 74.398438 60.601562 135 135 135s135-60.601562 135-135c0-74.402344-60.601562-135-135-135zm0 0" fill="#ffd400"/><path d="m391 256c0 74.398438-60.601562 135-135 135v-270c74.398438 0 135 60.597656 135 135zm0 0" fill="#fdbf00"/><path d="m271 256c0 8.402344-6.597656 15-15 15s-15-6.597656-15-15 6.597656-15 15-15 15 6.597656 15 15zm0 0" fill="#5a5a5a"/><path d="m358.449219 228.550781-62.320313 7.503907c3.015625 6.035156 4.871094 12.746093 4.871094 19.945312 0 23.859375-18.71875 43.246094-42.214844 44.71875l24.679688 57.761719 13.800781-5.902344c38.714844-16.554687 63.734375-54.464844 63.734375-96.578125 0-9.660156-1.25-15.621094-2.550781-27.449219zm0 0" fill="#444"/><path d="m331 181-37.5 50.097656c-8.101562-11.996094-21.898438-20.097656-37.5-20.097656s-29.398438 8.101562-37.5 20.097656l-37.5-50.097656 12-9c18.300781-13.800781 40.800781-20.699219 63-20.699219s44.699219 6.898438 63 20.699219zm0 0" fill="#5a5a5a"/><path d="m211 256c0-7.199219 1.855469-13.910156 4.871094-19.949219l-62.324219-7.503906c-1.300781 11.871094-2.546875 17.792969-2.546875 27.453125 0 42.113281 25.019531 80.023438 63.734375 96.578125l13.800781 5.902344 24.679688-57.761719c-23.496094-1.472656-42.214844-20.859375-42.214844-44.71875zm0 0" fill="#5a5a5a"/><path d="m271 256c0 8.402344-6.597656 15-15 15v-30c8.402344 0 15 6.597656 15 15zm0 0" fill="#444"/><path d="m331 181-37.5 50.097656c-8.101562-11.996094-21.898438-20.097656-37.5-20.097656v-59.699219c22.199219 0 44.699219 6.898438 63 20.699219zm0 0" fill="#444"/></svg>