<svg height="512pt" viewBox="-61 0 512 512" width="512pt" xmlns="http://www.w3.org/2000/svg"><path d="m315 120h60v121h-60zm0 0" fill="#dd3400"/><path d="m345 391h-30v-30h30c8.277344 0 15-6.722656 15-15v-241c0-8.277344-6.722656-15-15-15h-30v-30h30c24.8125 0 45 20.1875 45 45v241c0 24.8125-20.1875 45-45 45zm0 0" fill="#444"/><path d="m30 0h300v482h-300zm0 0" fill="#ff7816"/><path d="m180 0h150v482h-150zm0 0" fill="#ff4b00"/><path d="m90 60v151h180v-151zm0 0" fill="#5a5a5a"/><path d="m191.101562 246.097656-11.101562-12.597656-11.101562 12.597656c-8.097657 9-48.898438 55.800782-48.898438 84.902344 0 33 27 60 60 60s60-27 60-60c0-29.101562-40.800781-75.902344-48.898438-84.902344zm0 0" fill="#ffd400"/><path d="m0 452h360v60h-360zm0 0" fill="#5a5a5a"/><path d="m180 391v-157.5l11.101562 12.597656c8.097657 9 48.898438 55.800782 48.898438 84.902344 0 33-27 60-60 60zm0 0" fill="#fdbf00"/><g fill="#444"><path d="m180 60h90v151h-90zm0 0"/><path d="m180 452h180v60h-180zm0 0"/></g></svg>