<svg height="512pt" viewBox="0 0 512 512" width="512pt" xmlns="http://www.w3.org/2000/svg"><path d="m274.820312 281.957031 55.179688 230.042969h182v-15c0-92.09375-15.542969-147.515625-30.570312-200.117188-12.320313-43.121093-23.949219-85.636718-27.894532-146.882812l-73.785156-30-81.257812 30c-3.519532 54.449219-13.109376 94.398438-23.671876 131.957031zm0 0" fill="#c4b3af"/><path d="m330 497v15h-330v-15c0-122.101562 15.601562-177.398438 30.601562-230.199219 12.898438-45.601562 25.5-90.101562 28.496094-176.800781l29.703125-30h148.800781l33.300782 30c2.996094 86.699219 15.597656 131.199219 28.496094 176.800781 15 52.800781 30.601562 108.097657 30.601562 230.199219zm0 0" fill="#ede9e8"/><path d="m330 497v15h-165v-452h72.597656l33.300782 30c3 86.699219 15.601562 131.199219 28.5 176.800781 15 52.800781 30.601562 108.097657 30.601562 230.199219zm0 0" fill="#d2c5c2"/><path d="m391 105h-30v-15c0-33.089844 26.910156-60 60-60h31c16.539062 0 30-13.460938 30-30h30c0 33.089844-26.910156 60-60 60h-31c-16.539062 0-30 13.460938-30 30zm0 0" fill="#ffbd86"/><path d="m180 316c0 8.402344-6.597656 15-15 15s-15-6.597656-15-15 6.597656-15 15-15 15 6.597656 15 15zm0 0" fill="#5a5a5a"/><path d="m267.449219 288.550781-62.320313 7.503907c3.015625 6.035156 4.871094 12.746093 4.871094 19.945312 0 23.859375-18.71875 43.246094-42.214844 44.71875l24.679688 57.761719 13.800781-5.902344c38.714844-16.554687 63.734375-54.464844 63.734375-96.578125 0-9.660156-1.25-15.621094-2.550781-27.449219zm0 0" fill="#444"/><path d="m240 241-37.5 50.097656c-8.101562-11.996094-21.898438-20.097656-37.5-20.097656s-29.398438 8.101562-37.5 20.097656l-37.5-50.097656 12-9c18.300781-13.800781 40.800781-20.699219 63-20.699219s44.699219 6.898438 63 20.699219zm0 0" fill="#5a5a5a"/><path d="m120 316c0-7.199219 1.855469-13.910156 4.871094-19.949219l-62.324219-7.503906c-1.300781 11.871094-2.546875 17.792969-2.546875 27.453125 0 42.113281 25.019531 80.023438 63.734375 96.578125l13.800781 5.902344 24.679688-57.761719c-23.496094-1.472656-42.214844-20.859375-42.214844-44.71875zm0 0" fill="#5a5a5a"/><path d="m180 316c0 8.402344-6.597656 15-15 15v-30c8.402344 0 15 6.597656 15 15zm0 0" fill="#444"/><path d="m240 241-37.5 50.097656c-8.101562-11.996094-21.898438-20.097656-37.5-20.097656v-59.699219c22.199219 0 44.699219 6.898438 63 20.699219zm0 0" fill="#444"/><path d="m270.902344 90h-211.804688c.601563-13.800781.902344-28.800781.902344-45v-15h210v15c0 16.199219.300781 31.199219.902344 45zm0 0" fill="#ff7816"/><g fill="#dd3400"><path d="m270.902344 90h-105.902344v-60h105v15c0 16.199219.300781 31.199219.902344 45zm0 0"/><path d="m452 90h-152v15c0 16.296875-.605469 31.027344-1.507812 45h155.042968c-.902344-13.984375-1.535156-28.660156-1.535156-45zm0 0"/></g></svg>