<svg height="512pt" viewBox="0 0 512 512" width="512pt" xmlns="http://www.w3.org/2000/svg"><path d="m346 61h30v90h-30zm0 0" fill="#444"/><path d="m301 121h120v90h-120zm0 0" fill="#5a5a5a"/><path d="m361 181h90v60l-34.375 30-55.625-30-30-28.75zm0 0" fill="#fdbf00"/><g fill="#5a5a5a"><path d="m61 361h150l-23.332031-210-47.292969-30-56.042969 30zm0 0"/><path d="m76 361h60v121h-60zm0 0"/><path d="m226 361h60v121h-60zm0 0"/></g><path d="m376 361h60v121h-60zm0 0" fill="#444"/><path d="m256 361h30v121h-30zm0 0" fill="#444"/><path d="m121 106h-30v-15c0-33.089844 26.910156-60 60-60h30c16.539062 0 30-14.460938 30-31h30c0 33.089844-26.910156 61-60 61h-30c-16.539062 0-30 13.460938-30 30zm0 0" fill="#fed2a4"/><path d="m512 452v30h-15c-7.199219 0-12 4.199219-20.097656 11.101562-9.300782 8.398438-22 18.898438-40.902344 18.898438s-30.601562-10.5-39.902344-18.898438c-16.199218-14.101562-24-14.101562-40.199218 0-9.296876 8.398438-21 18.898438-39.898438 18.898438-18.902344 0-30.601562-10.5-39.902344-18.898438-8.097656-6.902343-14.097656-10.503906-20.097656-10.503906s-12 3.601563-20.097656 10.503906c-9.300782 8.398438-21 18.898438-39.902344 18.898438s-30.601562-10.5-39.902344-18.898438c-16.199218-14.101562-24-14.101562-40.199218 0-9.296876 8.398438-21 18.898438-39.898438 18.898438-18.902344 0-31.601562-10.5-40.902344-18.898438-8.097656-6.902343-12.898437-11.101562-20.097656-11.101562h-15v-30h15c18.898438 0 31.601562 10.5 40.902344 18.898438 16.199218 14.101562 24 14.101562 40.199218 0 9.296876-8.398438 21-18.898438 39.898438-18.898438 18.902344 0 30.601562 10.5 39.902344 18.898438 16.199218 14.101562 24 14.101562 40.199218 0 9.300782-8.398438 21-18.898438 39.902344-18.898438 18.898438 0 30.597656 10.5 39.898438 18.898438 16.199218 14.101562 24 14.101562 40.199218 0 9.300782-8.398438 21-18.898438 39.902344-18.898438 18.898438 0 30.601563 10.5 39.898438 18.898438 16.199218 14.101562 24 14.101562 40.199218 0 9.300782-8.398438 22-18.898438 40.902344-18.898438zm0 0" fill="#76e2f8"/><path d="m497 452h15v30h-15c-7.199219 0-12 4.199219-20.097656 11.101562-9.300782 8.398438-22 18.898438-40.902344 18.898438s-30.601562-10.5-39.902344-18.898438c-16.199218-14.101562-24-14.101562-40.199218 0-9.296876 8.398438-21 18.898438-39.898438 18.898438-18.902344 0-30.601562-10.5-39.902344-18.898438-8.097656-6.902343-14.097656-10.503906-20.097656-10.503906v-30.597656c18.898438 0 30.601562 10.5 39.902344 18.898438 16.199218 14.101562 24 14.101562 40.199218 0 9.296876-8.398438 21-18.898438 39.898438-18.898438 18.902344 0 30.601562 10.5 39.902344 18.898438 16.199218 14.101562 24 14.101562 40.199218 0 9.296876-8.398438 22-18.898438 40.898438-18.898438zm0 0" fill="#25d9f8"/><path d="m30 331-15.625 30-14.375-30v-60h30zm0 0" fill="#5a5a5a"/><path d="m512 331-15.625 30-14.375-30v-60h30zm0 0" fill="#444"/><path d="m271 181h90v60h-90zm0 0" fill="#ffd400"/><path d="m271 241h180v120h-180zm0 0" fill="#ff9f00"/><path d="m0 331h512v60h-512zm0 0" fill="#6e6e6e"/><path d="m256 331h256v60h-256zm0 0" fill="#5a5a5a"/><path d="m91 91-6.667969 60h103.335938l-6.667969-60zm0 0" fill="#ff4b00"/></svg>