<svg height="512pt" viewBox="0 0 512 512" width="512pt" xmlns="http://www.w3.org/2000/svg"><path d="m105 60 45 32v61.5c34.199219 6.902344 60 37.199219 60 73.5v15l-100.199219 30-4.800781-1.199219-105-28.800781v-15c0-36.300781 25.800781-66.597656 60-73.5v-61.5zm0 0" fill="#56c225"/><path d="m210 302v-60h-210v60l28.75 30h157.5zm0 0" fill="#56c225"/><path d="m120 408.800781-30 103.199219h-90v-210h90l29.398438 105zm0 0" fill="#90e36a"/><path d="m119.398438 407 .601562 1.800781-30 103.199219h-90v-105zm0 0" fill="#56c225"/><path d="m451 407-31 45h-61.5c-6.902344 34.199219-37.199219 60-73.5 60h-15l-30-100.199219 1.199219-4.800781 28.800781-105h15c36.300781 0 66.597656 25.800781 73.5 60h61.5zm0 0" fill="#90e36a"/><path d="m451 407-31 45h-61.5c-6.902344 34.199219-37.199219 60-73.5 60h-15l-30-100.199219 1.199219-4.800781zm0 0" fill="#56c225"/><path d="m90 302h180v210h-180zm0 0" fill="#6e6e6e"/><path d="m90 407h180v105h-180zm0 0" fill="#5a5a5a"/><path d="m180 362c-24.902344 0-45 20.097656-45 45 0 24.898438 20.097656 45 45 45s45-20.101562 45-45c0-24.902344-20.097656-45-45-45zm0 0" fill="#ffe470"/><path d="m135 407h90c0 24.898438-20.097656 45-45 45s-45-20.101562-45-45zm0 0" fill="#fdbf00"/><path d="m420 362h92v90h-92zm0 0" fill="#6e6e6e"/><g fill="#444"><path d="m420 407h92v45h-92zm0 0"/><path d="m60 0h90v92h-90zm0 0"/></g></svg>