<svg height="512pt" viewBox="0 0 511 512" width="512pt" xmlns="http://www.w3.org/2000/svg"><g fill="#6e6e6e"><path d="m196.324219 469.574219 21.210937 21.210937-21.210937 21.210938-21.210938-21.210938zm0 0"/><path d="m76.328125 469.574219 21.210937 21.210937-21.210937 21.210938-21.210937-21.210938zm0 0"/><path d="m136.324219 409.574219 21.210937 21.210937-21.210937 21.210938-21.210938-21.210938zm0 0"/><path d="m196.324219 349.574219 21.210937 21.210937-21.210937 21.210938-21.210938-21.210938zm0 0"/></g><path d="m421.324219 46c0 24.898438-20.097657 45-45 45-24.902344 0-45-20.101562-45-45 0-24.902344 20.097656-46 45-46 24.902343 0 45 21.097656 45 46zm0 0" fill="#ff7816"/><path d="m179.199219 211h-146.75l-31.949219-206.429688 29.648438-4.570312 28.050781 181h95.25l28.050781-181 29.648438 4.570312zm0 0" fill="#5a5a5a"/><path d="m512.324219 166v105h-46v-90h-30v331h-45v-181h-30v181h-45v-362.5l-70.203125 100.199219-34.796875-26.699219 72-108c13.800781-17.101562 30.601562-24 48-24h45 60c41.398437 0 76 33.601562 76 75zm0 0" fill="#ff7816"/><path d="m376.324219 91v-91c24.902343 0 45 21.097656 45 46 0 24.898438-20.097657 45-45 45zm0 0" fill="#ff4b00"/><path d="m512.324219 166v105h-46v-90h-30v331h-45v-181h-15v-240h60c41.398437 0 76 33.601562 76 75zm0 0" fill="#ff4b00"/></svg>