<svg height="512pt" viewBox="0 0 512.00008 512" width="512pt" xmlns="http://www.w3.org/2000/svg"><g fill="#ff9f00"><path d="m420.851562 60.980469h29.992188v44.988281h-29.992188zm0 0"/><path d="m184.496094 99.421875 21.207031-21.203125-53.011719-54.027344-42.425781 43.425782 21.207031 21.203124 21.21875-21.21875zm0 0"/><path d="m270.996094 0v75.976562h-29.992188v-44.984374h-29.992187v-30.992188zm0 0"/></g><path d="m511.023438 178.546875c-5.996094 35.390625-39.988282 62.382813-78.375 62.382813h-251.625l-14.996094-14.996094-14.996094 14.996094h-150.9570312v-29.992188h91.8750002c7.5-83.972656 78.277343-149.953125 164.050781-149.953125h59.980469c32.691406 0 62.980469 15.292969 82.476562 40.484375 11.097657-6.597656 23.691407-10.496094 37.488281-10.496094 45.890626 0 82.574219 41.089844 75.078126 87.574219zm0 0" fill="#ede9e8"/><path d="m511.023438 178.546875c-5.996094 35.390625-39.988282 62.382813-78.375 62.382813h-176.648438v-179.945313h59.980469c32.691406 0 62.980469 15.292969 82.476562 40.484375 11.097657-6.597656 23.691407-10.496094 37.488281-10.496094 45.890626 0 82.574219 41.089844 75.078126 87.574219zm0 0" fill="#dfd7d5"/><path d="m327.40625 369.34375-21.207031-21.207031 53.011719-53.023438 42.425781 42.421875-21.207031 21.207032-21.21875-21.222657zm0 0" fill="#ff9f00"/><path d="m300.988281 270.917969v29.992187h-29.992187v44.988282h-29.992188v-74.980469zm0 0" fill="#ff9f00"/><path d="m61.058594 330.902344h29.992187v44.984375h-29.992187zm0 0" fill="#fdbf00"/><path d="m511.925781 481.855469v29.992187h-150.957031l-14.996094-14.996094-14.996094 14.996094h-251.625c-38.386718 0-72.378906-26.992187-78.375-62.382812-7.496093-46.484375 29.191407-88.570313 75.078126-88.570313 13.796874 0 26.390624 3.898438 37.488281 10.496094 19.496093-25.195313 49.785156-40.488281 82.476562-40.488281h59.980469c85.773438 0 156.550781 66.980468 164.050781 150.953125zm0 0" fill="#6e6e6e"/><path d="m511.925781 481.855469v29.992187h-150.957031l-14.996094-14.996094-14.996094 14.996094h-74.976562v-180.945312c85.773438 0 156.550781 66.980468 164.050781 150.953125zm0 0" fill="#5a5a5a"/><path d="m360.96875 496.851562v14.996094h-29.992188v-14.996094c0-20.992187-45.285156-44.984374-74.976562-44.984374h-74.976562v-29.992188h74.976562c35.992188 0 104.96875 29.089844 104.96875 74.976562zm0 0" fill="#444"/><path d="m360.96875 496.851562v14.996094h-29.992188v-14.996094c0-20.992187-45.285156-44.984374-74.976562-44.984374v-29.992188c35.992188 0 104.96875 29.089844 104.96875 74.976562zm0 0" fill="#292929"/><path d="m330.976562 150.957031v29.988281h-74.976562c-29.691406 0-74.976562 23.992188-74.976562 44.988282v14.996094h-29.992188v-14.996094c0-45.886719 68.980469-74.976563 104.96875-74.976563zm0 0" fill="#d2c5c2"/><path d="m256 150.957031h74.976562v29.988281h-74.976562zm0 0" fill="#c4b3af"/></svg>