<svg height="512pt" viewBox="0 0 512 512" width="512pt" xmlns="http://www.w3.org/2000/svg"><path d="m331 136c0 74.699219-73.800781 135-165 135-33.300781 0-64.199219-8.101562-90-21.902344-47.96875-25.410156-75-64.285156-75-113.097656 0-47.402344 29.699219-90.101562 75-114.101562 25.800781-13.800782 56.699219-21.898438 90-21.898438 91.199219 0 165 61.300781 165 136zm0 0" fill="#56c225"/><path d="m225.398438 492.800781h-118.796876c4.796876-22.5 29.398438-96.101562 29.398438-206.800781v-95.101562c9.300781 3.300781 19.199219 5.101562 30 5.101562s20.699219-1.800781 30-5.101562v95.101562c0 114 28.5 202 29.398438 206.800781zm0 0" fill="#b35f49"/><path d="m241 151c0 33-33.601562 60-75 60s-75-27-75-60h30c0 16.199219 20.699219 30 45 30s45-13.800781 45-30zm0 0" fill="#c6715a"/><path d="m512 136c0 74.699219-74.800781 135-166 135-33.300781 0-64.199219-8.101562-90-21.902344-45.300781-24-75-65.699218-75-113.097656 0-47.402344 29.699219-90.101562 75-114.101562 25.800781-13.800782 56.699219-21.898438 90-21.898438 91.199219 0 166 61.300781 166 136zm0 0" fill="#70da40"/><path d="m405.398438 492.800781h-118.796876c4.796876-22.5 29.398438-96.101562 29.398438-206.800781v-95.101562c9.300781 3.300781 19.199219 5.101562 30 5.101562s20.699219-1.800781 30-5.101562v95.101562c0 114 28.5 202 29.398438 206.800781zm0 0" fill="#99503d"/><path d="m421 151c0 33-33.601562 60-75 60s-75-27-75-60h30c0 16.199219 20.699219 30 45 30s45-13.800781 45-30zm0 0" fill="#b35f49"/><path d="m436 331h-15v45c0 8.398438-6.597656 15-15 15s-15-6.601562-15-15c0-57.898438-47.101562-105-105-105h-39.300781l9.300781 8.398438 20.097656 17.703124c0 .296876 24.902344 23.097657 24.902344 48.898438 0 9.300781-3.300781 13.199219-9.601562 20.097656-9 10.203125-20.699219 23.402344-20.699219 53.101563-6-1.800781-10.800781-4.5-14.699219-8.101563-8.699219-7.796875-14.097656-19.796875-20.699219-36.300781-14.101562-32.695313-31.199219-73.796875-99.300781-73.796875h-42.597656l33.296875 26.699219c.300781.296875 2.101562 1.800781 4.800781 4.5 9.902344 10.199219 12.300781 24.300781 6.601562 37.199219-4.203124 10.5-15 21.601562-32.101562 21.601562-8.402344 0-15-6.601562-15-15v-45h-15c-49.199219 0-76 39.300781-76 78.300781 0 50.398438 42.101562 102.699219 121 102.699219h270c78.898438 0 121-52 121-102.699219 0-39-26.800781-78.300781-76-78.300781zm0 0" fill="#fdbf00"/><path d="m512 409.300781c0 50.699219-42.101562 102.699219-121 102.699219h-135v-100.902344c3.898438 3.601563 8.699219 6.300782 14.699219 8.101563 0-29.699219 11.699219-42.898438 20.699219-53.101563 6.300781-6.898437 9.601562-10.796875 9.601562-20.097656 0-25.800781-24.902344-48.601562-24.902344-48.898438l-20.097656-17.703124v-8.398438h30c57.898438 0 105 47.101562 105 105 0 8.398438 6.597656 15 15 15s15-6.601562 15-15v-45h15c49.199219 0 76 39.300781 76 78.300781zm0 0" fill="#ff9f00"/></svg>