<svg height="512pt" viewBox="0 0 512 512" width="512pt" xmlns="http://www.w3.org/2000/svg"><path d="m451 30-30 30h-30l-30-30h-60v330h211v-330zm0 0" fill="#dfd7d5"/><path d="m421 30-15 15-15-15h-30v120h90v-120zm0 0" fill="#444"/><path d="m451 210c-21.898438 0-41.699219 12-52.199219 30.898438-4.800781.601562-9.300781 2.101562-13.199219 4.199218-9.601562-20.699218-30.300781-35.097656-54.601562-35.097656-21.898438 0-41.699219 12-52.199219 30.898438-8.402343 1.203124-16.203125 4.800781-22.800781 10.5-.300781.300781-.300781.300781-.601562.601562-9 8.398438-14.398438 20.398438-14.398438 33l-30 36.597656 30 53.402344h271v-105c0-33-28-60-61-60zm0 0" fill="#ffbd86"/><path d="m497.601562 342c-6.601562-6-14.699218-9.898438-23.402343-11.101562-10.5-18.898438-31.300781-30.898438-53.199219-30.898438-24.300781 0-45 14.398438-54.601562 35.097656-3.898438-2.097656-8.398438-3.597656-13.199219-4.199218-10.5-18.898438-30.300781-30.898438-52.199219-30.898438-18 0-34.199219 8.097656-45 20.699219-9.601562 10.5-15 24.300781-15 39.300781l-30 32.699219 30 57.300781h271v-75c0-12.601562-5.398438-24.601562-14.398438-33zm0 0" fill="#fed2a4"/><path d="m196 0-30 30h-90l-30-30h-46v465h241v-465zm0 0" fill="#ede9e8"/><path d="m166 0-15 15-15-15h-30l-15 15-15-15h-30v300h150v-300zm0 0" fill="#5a5a5a"/><g fill="#76e2f8"><path d="m76 240h30v30h-30zm0 0"/><path d="m76 180h30v30h-30zm0 0"/><path d="m76 120h30v30h-30zm0 0"/><path d="m76 60h30v30h-30zm0 0"/><path d="m136 60h30v30h-30zm0 0"/><path d="m136 120h30v30h-30zm0 0"/><path d="m136 180h30v30h-30zm0 0"/><path d="m136 240h30v30h-30zm0 0"/></g><path d="m451 390c-21.898438 0-41.699219 12-52.199219 30.898438-4.800781.601562-9.300781 2.101562-13.199219 4.199218-9.601562-20.699218-30.300781-35.097656-54.601562-35.097656-21.898438 0-41.699219 12-52.199219 30.898438-4.800781.601562-9.300781 2.101562-13.199219 4.199218-2.402343-5.398437-5.703124-10.199218-9.601562-14.398437-4.199219-5.101563-9.300781-9-15-12.300781-8.699219-5.398438-18.898438-8.398438-30-8.398438-21.898438 0-41.699219 12-52.199219 30.898438-4.800781.601562-9.300781 2.101562-13.199219 4.199218-9.601562-20.699218-30.300781-35.097656-54.601562-35.097656-21.898438 0-41.699219 12-52.199219 30.898438-8.703125 1.203124-17.800781 5.101562-24.402343 11.101562-9 8.398438-14.398438 20.398438-14.398438 33v47h512v-62c0-33-28-60-61-60zm0 0" fill="#fed2a4"/><path d="m512 512v-62c0-33-28-60-61-60-21.898438 0-41.699219 12-52.199219 30.898438-4.800781.601562-9.300781 2.101562-13.199219 4.203124-9.601562-20.703124-30.300781-35.101562-54.601562-35.101562-21.898438 0-41.699219 12-52.199219 30.898438-4.800781.601562-9.300781 2.101562-13.199219 4.203124-2.402343-5.402343-5.703124-10.203124-9.601562-14.402343-4.199219-5.101563-9.300781-9-15-12.300781v113.601562zm0 0" fill="#ffbd86"/><path d="m76 0h30v30h-30zm0 0" fill="#76e2f8"/><path d="m136 0h30v30h-30zm0 0" fill="#76e2f8"/><path d="m391 90h30v30h-30zm0 0" fill="#25d9f8"/><path d="m391 30h30v30h-30zm0 0" fill="#25d9f8"/></svg>