<svg height="512pt" viewBox="0 -15 512 512" width="512pt" xmlns="http://www.w3.org/2000/svg"><path d="m360.097656 100.199219-28.195312 9.601562h-211.804688l-28.195312-9.601562 33.296875-100.199219h201.601562zm0 0" fill="#ff4b00"/><path d="m360.097656 100.199219-28.195312 9.601562h-120.902344v-109.800781h115.800781zm0 0" fill="#dd3400"/><path d="m331.902344 109.800781h-211.804688l26.703125-79.800781h158.398438zm0 0" fill="#5a5a5a"/><path d="m331.902344 109.800781h-120.902344v-79.800781h94.199219zm0 0" fill="#444"/><path d="m421 128.699219v111.300781h-421v-114.300781l78.402344-35.699219h303.898437zm0 0" fill="#ff7816"/><path d="m211 15h30v90h-30zm0 0" fill="#dd3400"/><path d="m421 128.699219v111.300781h-210v-150h171.300781zm0 0" fill="#ff4b00"/><path d="m106 270c-24.8125 0-45-20.1875-45-45s20.1875-45 45-45 45 20.1875 45 45-20.1875 45-45 45zm0 0" fill="#6e6e6e"/><path d="m316 270c-24.8125 0-45-20.1875-45-45s20.1875-45 45-45 45 20.1875 45 45-20.1875 45-45 45zm0 0" fill="#5a5a5a"/><path d="m181 150h60v30h-60zm0 0" fill="#ffd400"/><path d="m106 210c-8.277344 0-15 6.722656-15 15s6.722656 15 15 15 15-6.722656 15-15-6.722656-15-15-15zm0 0" fill="#ede9e8"/><path d="m316 210c-8.277344 0-15 6.722656-15 15s6.722656 15 15 15 15-6.722656 15-15-6.722656-15-15-15zm0 0" fill="#dfd7d5"/><path d="m211 150h30v30h-30zm0 0" fill="#fdbf00"/><path d="m390.097656 310.199219-28.195312 9.601562h-211.804688l-28.195312-9.601562 33.296875-100.199219h201.601562zm0 0" fill="#ff4b00"/><path d="m390.097656 310.199219-28.195312 9.601562h-120.902344v-109.800781h115.800781zm0 0" fill="#dd3400"/><path d="m361.902344 319.800781h-211.804688l26.703125-79.800781h158.398438zm0 0" fill="#5a5a5a"/><path d="m361.902344 319.800781h-120.902344v-79.800781h94.199219zm0 0" fill="#444"/><path d="m451 338.699219v112.300781h-420v-115.300781l77.402344-35.699219h303.898437zm0 0" fill="#ff7816"/><path d="m241 225h30v90h-30zm0 0" fill="#dd3400"/><path d="m451 338.699219v112.300781h-210v-151h171.300781zm0 0" fill="#ff4b00"/><path d="m421 300v-30c16.539062 0 30-13.460938 30-30 0-33.089844 27.910156-60 61-60v30c-16.539062 0-31 13.460938-31 30 0 33.089844-26.910156 60-60 60zm0 0" fill="#ffbd86"/><path d="m421 120v-30c16.539062 0 30-13.460938 30-30 0-33.089844 27.910156-60 61-60v30c-16.539062 0-31 13.460938-31 30 0 33.089844-26.910156 60-60 60zm0 0" fill="#ffbd86"/><path d="m136 481c-24.8125 0-45-20.1875-45-45s20.1875-45 45-45 45 20.1875 45 45-20.1875 45-45 45zm0 0" fill="#6e6e6e"/><path d="m346 481c-24.8125 0-45-20.1875-45-45s20.1875-45 45-45 45 20.1875 45 45-20.1875 45-45 45zm0 0" fill="#5a5a5a"/><path d="m211 361h60v30h-60zm0 0" fill="#ffd400"/><path d="m136 421c-8.277344 0-15 6.722656-15 15s6.722656 15 15 15 15-6.722656 15-15-6.722656-15-15-15zm0 0" fill="#ede9e8"/><path d="m346 421c-8.277344 0-15 6.722656-15 15s6.722656 15 15 15 15-6.722656 15-15-6.722656-15-15-15zm0 0" fill="#dfd7d5"/><path d="m241 361h30v30h-30zm0 0" fill="#fdbf00"/></svg>