<svg height="512pt" viewBox="0 0 512 512" width="512pt" xmlns="http://www.w3.org/2000/svg"><path d="m480.398438 493.398438h-448.796876l31.5-127.597657 47.699219-24 31.5 19.199219-11.699219-41.699219 31.199219-78.300781 34.199219-30h120l34.199219 30 37.5 94.199219 61.199219 30.601562zm0 0" fill="#c6715a"/><path d="m480.398438 493.398438h-224.398438v-282.398438h60l34.199219 30 37.5 94.199219 61.199219 30.601562zm0 0" fill="#99503d"/><path d="m421 121h30v30h-30zm0 0" fill="#dd3400"/><path d="m391 181h30v30h-30zm0 0" fill="#dd3400"/><path d="m91 181h30v30h-30zm0 0" fill="#ff7816"/><path d="m61 121h30v30h-30zm0 0" fill="#ff7816"/><path d="m376 76c0 24.902344-20.097656 45-45 45-13.800781 0-26.101562-6.300781-34.199219-16.199219-3.300781 3-6.898437 5.699219-10.800781 7.796875v98.402344h-60v-98.402344c-3.898438-2.097656-7.5-4.796875-10.800781-7.796875-8.097657 9.898438-20.398438 16.199219-34.199219 16.199219-24.902344 0-45-20.097656-45-45s20.097656-46 45-46c7.5 0 14.398438 2.101562 20.398438 5.097656 9.601562-20.699218 30.300781-35.097656 54.601562-35.097656s45 14.398438 54.601562 35.097656c6-2.996094 12.898438-5.097656 20.398438-5.097656 24.902344 0 45 21.097656 45 46zm0 0" fill="#fed2a4"/><path d="m378.765625 497-48.71875-126.273438-28.09375 10.546876 44.613281 115.726562zm0 0" fill="#804231"/><path d="m196.453125 497 14.09375-57.367188-29.09375-7.265624-15.90625 64.632812zm0 0" fill="#b35f49"/><path d="m286 211h-30v-211c24.300781 0 45 14.398438 54.601562 35.097656 6-2.996094 12.898438-5.097656 20.398438-5.097656 24.902344 0 45 21.097656 45 46s-20.097656 45-45 45c-13.800781 0-26.101562-6.300781-34.199219-16.199219-3.300781 3-6.898437 5.699219-10.800781 7.796875zm0 0" fill="#ffbd86"/><path d="m211 391v-30h-38.789062l-41.691407-41.6875-4.730469 11.832031-3.207031 4.792969-11.902343 5.953125 49.109374 49.109375zm0 0" fill="#b35f49"/><path d="m0 482h512v30h-512zm0 0" fill="#5a5a5a"/><path d="m256 482h256v30h-256zm0 0" fill="#5a5a5a"/><path d="m350.199219 241h-34.199219c-8.402344 0-15 6.597656-15 15v30c0 24.902344-20.097656 45-45 45s-45-20.097656-45-45v-30c0-8.402344-6.597656-15-15-15h-34.199219l24-60h140.402344l11.996094 30zm0 0" fill="#ff7816"/><path d="m350.199219 241h-34.199219c-8.402344 0-15 6.597656-15 15v30c0 24.902344-20.097656 45-45 45v-150h70.199219zm0 0" fill="#dd3400"/></svg>