<svg height="511pt" viewBox="1 0 511.99976 511" width="511pt" xmlns="http://www.w3.org/2000/svg"><path d="m444.703125 489.964844c-8.097656 14.097656-22.496094 22.496094-38.695313 22.496094h-360.972656c-16.199218 0-30.597656-8.398438-38.695312-22.496094-8.402344-13.800782-8.402344-30.601563-.300782-44.699219l144.988282-251.679687v-178.085938h149.988281v178.085938l143.988281 251.679687c8.101563 14.097656 8.101563 30.898437-.300781 44.699219zm0 0" fill="#ffd400"/><path d="m444.703125 489.964844c-8.097656 14.097656-22.496094 22.496094-38.695313 22.496094h-179.988281v-496.960938h74.996094v178.085938l143.988281 251.679687c8.101563 14.097656 8.101563 30.898437-.300781 44.699219zm0 0" fill="#fdbf00"/><path d="m481.003906 136.488281v135.992188l-59.996094 28.195312-3.902343 1.800781-56.09375-29.996093v-135.992188zm0 0" fill="#ede9e8"/><path d="m481.003906 136.488281v135.992188l-59.996094 28.195312v-164.1875zm0 0" fill="#d2c5c2"/><path d="m121.027344.5h209.984375v29.996094h-209.984375zm0 0" fill="#dfd7d5"/><path d="m331.011719 121.492188h180.988281v29.996093h-180.988281zm0 0" fill="#dfd7d5"/><path d="m421.007812 121.492188h90.992188v29.996093h-90.992188zm0 0" fill="#c4b3af"/><path d="m481.003906 272.480469v179.984375c0 32.996094-27 59.996094-59.996094 59.996094-32.996093 0-59.996093-27-59.996093-59.996094v-179.984375zm0 0" fill="#90e36a"/><path d="m421.007812 272.480469h59.996094v179.984375c0 32.996094-27 59.996094-59.996094 59.996094zm0 0" fill="#56c225"/><path d="m226.019531.5h104.992188v29.996094h-104.992188zm0 0" fill="#d2c5c2"/><path d="m241.019531 347.472656c0 8.402344-6.597656 15-15 15-8.398437 0-14.996093-6.597656-14.996093-15 0-8.398437 6.597656-14.996094 14.996093-14.996094 8.402344 0 15 6.597657 15 14.996094zm0 0" fill="#5a5a5a"/><path d="m328.464844 320.023438-62.320313 7.503906c3.015625 6.039062 4.871094 12.75 4.871094 19.949218 0 23.855469-18.714844 43.242188-42.210937 44.714844l24.679687 57.757813 13.796875-5.902344c38.714844-16.554687 63.730469-54.460937 63.730469-96.570313 0-9.660156-1.246094-15.625-2.546875-27.453124zm0 0" fill="#444"/><path d="m301.015625 272.480469-37.496094 50.09375c-8.101562-11.996094-21.898437-20.097657-37.5-20.097657-15.597656 0-29.394531 8.101563-37.496093 20.097657l-37.496094-50.09375 12-9c18.296875-13.800781 40.796875-20.699219 62.992187-20.699219 22.199219 0 44.699219 6.898438 62.996094 20.699219zm0 0" fill="#5a5a5a"/><path d="m181.023438 347.472656c0-7.195312 1.859374-13.90625 4.871093-19.945312l-62.316406-7.503906c-1.304687 11.867187-2.550781 17.792968-2.550781 27.449218 0 42.113282 25.019531 80.019532 63.730468 96.570313l13.796876 5.902343 24.679687-57.757812c-23.492187-1.46875-42.210937-20.855469-42.210937-44.714844zm0 0" fill="#5a5a5a"/><g fill="#444"><path d="m241.019531 347.472656c0 8.402344-6.597656 15-15 15v-29.996094c8.402344 0 15 6.597657 15 14.996094zm0 0"/><path d="m301.015625 272.480469-37.496094 50.09375c-8.101562-11.996094-21.898437-20.097657-37.5-20.097657v-59.695312c22.199219 0 44.699219 6.898438 62.996094 20.699219zm0 0"/></g></svg>