<svg height="512pt" viewBox="0 0 512 512" width="512pt" xmlns="http://www.w3.org/2000/svg"><path d="m181 0c0 16.539062-13.460938 30-30 30h-30c-33.089844 0-60 26.910156-60 60l18.75 30 11.25-30c0-16.539062 13.460938-30 30-30h30c33.089844 0 60-26.910156 60-60zm0 0" fill="#fed2a4"/><path d="m151 90h-90l-8.570312 60 53.570312 30 53.570312-30zm0 0" fill="#ff7816"/><path d="m482 0c0 16.539062-13.460938 30-30 30h-31c-33.089844 0-60 26.910156-60 60l18.75 30 11.25-30c0-16.539062 13.460938-30 30-30h31c33.089844 0 60-26.910156 60-60zm0 0" fill="#ffbd86"/><path d="m361 0c0 33-27 60-60 60h-30c-16.5 0-30 13.5-30 30l-11.101562 30-18.898438-30c0-22.199219 12-41.398438 30-51.898438 8.699219-5.101562 19.199219-8.101562 30-8.101562h30c16.5 0 30-13.5 30-30zm0 0" fill="#fed2a4"/><path d="m361 0c0 33-27 60-60 60h-30c-16.5 0-30 13.5-30 30v-51.898438c8.699219-5.101562 19.199219-8.101562 30-8.101562h30c16.5 0 30-13.5 30-30zm0 0" fill="#ffbd86"/><path d="m361 90h60v180h-60zm0 0" fill="#444"/><path d="m211 90h60v180h-60zm0 0" fill="#5a5a5a"/><path d="m241 90h30v180h-30zm0 0" fill="#444"/><path d="m481 300v-131.5l-174.828125 104.914062-22.664063 117.585938 8.746094 61 112.808594 30 75.9375-30v-61l-30-30v-31zm0 0" fill="#d2c5c2"/><path d="m481 512v-60h-188.746094l38.746094 60zm0 0" fill="#dd3400"/><path d="m421 300h60v91h-60zm0 0" fill="#25d9f8"/><path d="m301 330v31l30 30v61l-75.902344 30-14.097656-5.101562-68.699219-24.898438-38.703125-61 22.5-117.699219 84.902344-50.703125 90-53.996094v131.398438zm0 0" fill="#ede9e8"/><path d="m301 330v31l30 30v61l-75.902344 30-14.097656-5.101562v-254.300782l90-53.996094v131.398438zm0 0" fill="#dfd7d5"/><path d="m331 452v60h-120l-38.699219-60zm0 0" fill="#ff7816"/><path d="m159.570312 150h-107.140624l-43.859376 302 102.429688 30 91.429688-30zm0 0" fill="#6e6e6e"/><path d="m211 512-8.570312-60h-193.859376l-8.570312 60zm0 0" fill="#5a5a5a"/><path d="m271 300h60v91h-60zm0 0" fill="#25d9f8"/><path d="m241 452h90v60h-90zm0 0" fill="#ff4b00"/></svg>