<svg height="512pt" viewBox="-31 0 511 512" width="512pt" xmlns="http://www.w3.org/2000/svg"><path d="m156.410156 272h139.496094v30h-139.496094zm0 0" fill="#5a5a5a"/><path d="m385.90625 486.199219-20.996094 21.601562-138.902344-133.5-.597656.597657-139.800781 132.902343-20.402344-21.601562 138.898438-132.601563-58.199219-55.796875 21.003906-21.601562 58.5 56.101562.597656.597657 59.699219-56.699219 20.402344 21.601562-58.5 55.796875zm0 0" fill="#5a5a5a"/><g fill="#444"><path d="m225.410156 272h70.496094v30h-70.496094zm0 0"/><path d="m385.90625 486.199219-20.996094 21.601562-138.902344-133.5-.597656.597657v-42.597657l.597656.597657 59.699219-56.699219 20.402344 21.601562-58.5 55.796875zm0 0"/><path d="m361.375 502.316406-137.433594-364.753906 28.070313-10.632812 137.429687 364.753906zm0 0"/></g><path d="m89.441406 502.316406-28.066406-10.632812 137.429688-364.753906 28.070312 10.632812zm0 0" fill="#5a5a5a"/><path d="m210.410156 0h30v75h-30zm0 0" fill="#5a5a5a"/><path d="m225.410156 0h15v75h-15zm0 0" fill="#444"/><path d="m38.128906 209.910156c-50.171875-60.789062-50.171875-149.03125 0-209.8203122l23.144532 19.1015622c-41.046876 49.714844-41.046876 121.902344 0 171.621094zm0 0" fill="#a8ebfa"/><path d="m412.6875 209.910156-23.144531-19.101562c41.046875-49.714844 41.046875-121.902344 0-171.621094l23.144531-19.0976562c50.171875 60.7890622 50.171875 149.0312502 0 209.8203122zm0 0" fill="#76e2f8"/><path d="m128.070312 130.0625c-6.960937-10.328125-14.226562-33.238281 2.621094-53.613281l23.113282 19.101562c-6.398438 7.75-2.238282 15.617188-.804688 17.828125zm0 0" fill="#a8ebfa"/><path d="m78.382812 163.695312c-16.320312-24.140624-33.398437-77.710937 6.050782-125.464843l23.113281 19.105469c-35.257813 42.699218-5.59375 87.652343-4.320313 89.542968zm0 0" fill="#a8ebfa"/><path d="m320.109375 133.5625-23.113281-19.101562c3.132812-3.808594 5.726562-11.980469 0-18.925782l23.113281-19.101562c15.5 18.753906 11.734375 42.9375 0 57.128906zm0 0" fill="#76e2f8"/><path d="m366.398438 171.769531-23.144532-19.105469c22.808594-27.609374 22.808594-67.703124 0-95.328124l23.144532-19.105469c31.933593 38.6875 31.933593 94.851562 0 133.539062zm0 0" fill="#76e2f8"/><path d="m225.410156 60c-24.902344 0-45 20.097656-45 45 0 24.898438 20.097656 45 45 45 24.898438 0 45-20.101562 45-45 0-24.902344-20.101562-45-45-45zm0 0" fill="#76e2f8"/><path d="m225.410156 150v-90c24.898438 0 45 20.097656 45 45 0 24.898438-20.101562 45-45 45zm0 0" fill="#25d9f8"/><path d="m30.410156 482h390v30h-390zm0 0" fill="#6e6e6e"/><path d="m225.410156 482h195v30h-195zm0 0" fill="#5a5a5a"/></svg>