<svg height="512pt" viewBox="0 0 512.00113 512" width="512pt" xmlns="http://www.w3.org/2000/svg"><path d="m500.972656 469.164062c-6 6.300782-13.804687 9.003907-21.605468 10.203126-1.199219 7.800781-3.902344 15.605468-10.203126 21.605468-14.402343 14.703125-39.414062 14.703125-53.816406 0-12.902344-12.605468-13.804687-33.109375-4.503906-47.515625l-353.300781-352.300781c-14.40625 9.300781-33.910157 8.402344-46.515625-4.5-14.703125-14.40625-14.703125-39.414062 0-53.816406 6.003906-6.304688 13.804687-9.003906 21.609375-10.203125 1.199219-7.804688 3.898437-15.605469 10.199219-21.605469 14.40625-14.707031 39.414062-14.707031 53.816406 0 12.90625 12.601562 13.804687 32.109375 4.503906 46.511719l352.300781 353.304687c14.40625-9.304687 34.910157-8.402344 47.515625 4.5 14.703125 14.402344 14.703125 39.410156 0 53.816406zm0 0" fill="#dfd7d5"/><path d="m500.972656 469.164062c-6 6.300782-13.804687 9.003907-21.605468 10.203126-1.199219 7.800781-3.902344 15.605468-10.203126 21.605468-14.402343 14.703125-39.414062 14.703125-53.816406 0-12.902344-12.605468-13.804687-33.109375-4.503906-47.515625l-154.84375-154.84375v-85.226562l197.460938 197.460937c14.402343-9.304687 34.910156-8.402344 47.511718 4.5 14.703125 14.402344 14.703125 39.410156 0 53.816406zm0 0" fill="#c4b3af"/><path d="m500.972656 96.65625c-12.601562 12.902344-33.109375 13.800781-47.515625 4.5l-352.300781 352.300781c9.300781 14.40625 8.402344 34.910157-4.503906 47.515625-14.402344 14.703125-39.410156 14.703125-53.816406 0-6.300782-6-9-13.804687-10.199219-21.605468-7.804688-1.199219-15.605469-3.902344-21.609375-10.203126-14.703125-14.40625-14.703125-39.414062 0-53.816406 12.605468-12.902344 32.109375-13.804687 46.515625-4.5l353.300781-353.304687c-9.300781-14.402344-8.398438-33.910157 4.503906-46.515625 14.402344-14.703125 39.414063-14.703125 53.816406 0 6.300782 6.003906 9.003907 13.804687 10.203126 21.605468 7.800781 1.203126 15.605468 3.902344 21.605468 10.207032 14.703125 14.402344 14.703125 39.410156 0 53.816406zm0 0" fill="#dfd7d5"/><path d="m500.972656 96.65625c-12.601562 12.902344-33.109375 13.800781-47.515625 4.5l-197.457031 197.457031v-85.226562l154.84375-155.84375c-9.300781-14.402344-8.398438-33.910157 4.503906-46.515625 14.402344-14.703125 39.414063-14.703125 53.816406 0 6.300782 6.003906 9.003907 13.804687 10.203126 21.605468 7.800781 1.203126 15.605468 3.902344 21.605468 10.207032 14.703125 14.402344 14.703125 39.410156 0 53.816406zm0 0" fill="#c4b3af"/><path d="m421.050781 195.984375v117.933594l-60.019531 30.007812v77.125h-60.015625l-15.003906-45.015625-15.007813 45.015625h-30.007812l-15.003906-45.015625-15.003907 45.015625h-60.019531v-77.125l-60.015625-30.007812v-117.933594c0-90.929687 74.121094-166.050781 165.046875-166.050781 90.929688 0 165.050781 75.121094 165.050781 166.050781zm0 0" fill="#ede9e8"/><path d="m421.050781 195.984375v117.933594l-60.019531 30.007812v77.125h-60.015625l-15.003906-45.015625-15.007813 45.015625h-15.003906v-391.117187c90.929688 0 165.050781 75.121094 165.050781 166.050781zm0 0" fill="#d2c5c2"/><path d="m240.996094 271.007812h-90.027344v-90.027343h90.027344zm0 0" fill="#5a5a5a"/><path d="m361.03125 271.007812h-90.027344v-90.027343h90.027344zm0 0" fill="#444"/><path d="m210.988281 361.03125h30.007813v60.019531h-30.007813zm0 0" fill="#dfd7d5"/><path d="m271.003906 361.03125h30.011719v60.019531h-30.011719zm0 0" fill="#c4b3af"/></svg>