<svg height="512pt" viewBox="0 -31 512 512" width="512pt" xmlns="http://www.w3.org/2000/svg"><path d="m331 270h181v150h-181zm0 0" fill="#d2c5c2"/><path d="m331 345h181v75h-181zm0 0" fill="#c4b3af"/><path d="m361 300h121v30h-121zm0 0" fill="#ede9e8"/><path d="m361 360h121v30h-121zm0 0" fill="#dfd7d5"/><path d="m467 240c-24.8125 0-45-20.1875-45-45s20.1875-45 45-45 45 20.1875 45 45-20.1875 45-45 45zm0 0" fill="#fed2a4"/><path d="m387.699219 66.597656c-10.5-39-45.597657-66.597656-86.699219-66.597656-16.199219 0-31.800781 4.5-45 12.300781-20.097656 11.398438-35.398438 30.898438-41.699219 54.296875-20.101562 9.902344-33.300781 30.300782-33.300781 53.402344 0 33 27 60 60 60 5.097656 0 10.199219-.601562 15-1.800781 4.199219-1.199219 8.101562-2.699219 12-4.800781 21.601562 8.703124 44.398438 8.703124 66 0 8.398438 4.5 17.398438 6.601562 27 6.601562 33 0 61-27 61-60 0-23.101562-14.199219-43.5-34.300781-53.402344zm0 0" fill="#fed2a4"/><path d="m211 315v60h-150v-135h-61v-60h121v135zm0 0" fill="#d2c5c2"/><path d="m61 345h150v30h-150zm0 0" fill="#c4b3af"/><path d="m361 345-30 105h-150v-210h150zm0 0" fill="#ede9e8"/><path d="m361 345-30 105h-150v-105zm0 0" fill="#dfd7d5"/><path d="m331 240h60v210h-60zm0 0" fill="#dfd7d5"/><path d="m331 345h60v105h-60zm0 0" fill="#d2c5c2"/></svg>