<svg height="512pt" viewBox="0 -16 512 512" width="512pt" xmlns="http://www.w3.org/2000/svg"><path d="m427 252-51 33h-240l-58.199219-30.902344 46.800781-164.097656h47.097657l30 30-8.398438-54 21.898438-66h111zm0 0" fill="#ede9e8"/><path d="m427 252-51 33h-120v-285h70.199219zm0 0" fill="#dfd7d5"/><path d="m453.699219 318.601562-39.597657 39.597657-76.800781 25.5-22.800781-15.300781-2.699219 31.800781-51.601562 51.902343-4.199219-1.503906-100.5-33.296875-26.097656-52.203125 13.195312-21.597656-40.199218 1.5-44.097657-22.199219 19.5-68.703125c5.398438-.597656 11.097657-3.898437 18.300781-10.199218 9.296876-8.398438 21-18.898438 39.898438-18.898438 18.902344 0 30.601562 10.5 39.902344 18.898438 16.199218 14.101562 24 14.101562 40.199218 0 9.300782-8.398438 21-18.898438 39.902344-18.898438 18.898438 0 30.597656 10.5 39.898438 18.898438 16.199218 14.101562 24 14.101562 40.199218 0 9.300782-8.398438 21-18.898438 39.902344-18.898438 18.898438 0 30.601563 10.5 39.898438 18.898438 4.199218 3.601562 7.800781 6.300781 11.101562 8.101562zm0 0" fill="#a8ebfa"/><path d="m453.699219 318.601562-39.597657 39.597657-76.800781 25.5-22.800781-15.300781-2.699219 31.800781-51.601562 51.902343-4.199219-1.503906v-225.597656c18.898438 0 30.601562 10.5 39.902344 18.898438 16.199218 14.101562 24 14.101562 40.199218 0 9.296876-8.398438 21-18.898438 39.898438-18.898438 18.902344 0 30.601562 10.5 39.902344 18.898438 4.199218 3.601562 7.800781 6.300781 11.101562 8.101562zm0 0" fill="#76e2f8"/><path d="m301 150v30h-84.300781l-45-90h13.5l8.101562-24 42 84zm0 0" fill="#dfd7d5"/><path d="m0 390h61v30h-61zm0 0" fill="#76e2f8"/><path d="m91 450h90v30h-90zm0 0" fill="#76e2f8"/><g fill="#25d9f8"><path d="m301 450h90v30h-90zm0 0"/><path d="m451 390h61v30h-61zm0 0"/><path d="m272.582031 321.710938 39.308594 78.613281 12.210937-12.214844 13.050782-4.347656-37.734375-75.472657zm0 0"/></g><path d="m189.289062 301.582031-86.828124 43.414063 22.363281 11.179687 4.472656 8.945313 73.414063-36.703125zm0 0" fill="#76e2f8"/><path d="m512 210v30h-15c-7.199219 0-13 4.199219-21.097656 11.101562-9.300782 8.398438-21 18.898438-39.902344 18.898438s-30.601562-10.5-39.902344-18.898438c-16.199218-14.101562-24-14.101562-40.199218 0-9.296876 8.398438-21 18.898438-39.898438 18.898438-18.902344 0-30.601562-10.5-39.902344-18.898438-8.097656-6.902343-14.097656-10.503906-20.097656-10.503906s-12 3.601563-20.097656 10.503906c-9.300782 8.398438-21 18.898438-39.902344 18.898438s-30.601562-10.5-39.902344-18.898438c-16.199218-14.101562-24-14.101562-40.199218 0-9.296876 8.398438-21 18.898438-39.898438 18.898438-18.902344 0-30.601562-10.5-39.902344-18.898438-8.097656-6.902343-13.898437-11.101562-21.097656-11.101562h-15v-30h15c18.898438 0 31.601562 10.5 40.902344 18.898438 16.199218 14.101562 24 14.101562 40.199218 0 9.296876-8.398438 21-18.898438 39.898438-18.898438 18.902344 0 30.601562 10.5 39.902344 18.898438 16.199218 14.101562 24 14.101562 40.199218 0 9.300782-8.398438 21-18.898438 39.902344-18.898438 18.898438 0 30.597656 10.5 39.898438 18.898438 16.199218 14.101562 24 14.101562 40.199218 0 9.300782-8.398438 21-18.898438 39.902344-18.898438 18.898438 0 30.601563 10.5 39.898438 18.898438 16.199218 14.101562 24 14.101562 40.199218 0 9.300782-8.398438 22-18.898438 40.902344-18.898438zm0 0" fill="#76e2f8"/><path d="m497 210h15v30h-15c-7.199219 0-13 4.199219-21.097656 11.101562-9.300782 8.398438-21 18.898438-39.902344 18.898438s-30.601562-10.5-39.902344-18.898438c-16.199218-14.101562-24-14.101562-40.199218 0-9.296876 8.398438-21 18.898438-39.898438 18.898438-18.902344 0-30.601562-10.5-39.902344-18.898438-8.097656-6.902343-14.097656-10.503906-20.097656-10.503906v-30.597656c18.898438 0 30.601562 10.5 39.902344 18.898438 16.199218 14.101562 24 14.101562 40.199218 0 9.296876-8.398438 21-18.898438 39.898438-18.898438 18.902344 0 30.601562 10.5 39.902344 18.898438 16.199218 14.101562 24 14.101562 40.199218 0 9.296876-8.398438 22-18.898438 40.898438-18.898438zm0 0" fill="#25d9f8"/><path d="m256 150h45v30h-45zm0 0" fill="#d2c5c2"/></svg>