<svg height="512pt" viewBox="0 0 512 512" width="512pt" xmlns="http://www.w3.org/2000/svg"><path d="m421 135c0 74.699219-73.800781 135-165 135s-165-60.300781-165-135 73.800781-135 165-135 165 60.300781 165 135zm0 0" fill="#90e36a"/><path d="m421 135c0 74.699219-73.800781 135-165 135v-270c91.199219 0 165 60.300781 165 135zm0 0" fill="#56c225"/><path d="m112.5 376v-15h-75v15c0 46.199219-12.300781 82.300781-22.800781 106l61.238281 15 59.363281-15c-10.5-23.699219-22.800781-59.800781-22.800781-106zm0 0" fill="#b35f49"/><path d="m474.5 376v-15h-75v15c0 46.199219-12.300781 82.300781-22.800781 106l65.925781 15 54.675781-15c-10.5-23.699219-22.800781-59.800781-22.800781-106zm0 0" fill="#99503d"/><path d="m315.398438 492.800781h-118.796876c4.796876-22.5 29.398438-97.101562 29.398438-207.800781v-95.101562c9.300781 3.300781 19.199219 5.101562 30 5.101562s20.699219-1.800781 30-5.101562v95.101562c0 114 28.5 203 29.398438 207.800781zm0 0" fill="#b35f49"/><path d="m315.398438 492.800781h-59.398438v-297.800781c10.800781 0 20.699219-1.800781 30-5.101562v95.101562c0 114 28.5 203 29.398438 207.800781zm0 0" fill="#804231"/><path d="m331 150c0 33-33.601562 60-75 60s-75-27-75-60h30c0 16.199219 20.699219 30 45 30s45-13.800781 45-30zm0 0" fill="#c6715a"/><path d="m256 210v-30c24.300781 0 45-13.800781 45-30h30c0 33-33.601562 60-75 60zm0 0" fill="#99503d"/><path d="m512 512h-512c2.699219-6.300781 8.402344-16.199219 14.699219-30h482.601562c6.296875 13.800781 12 23.699219 14.699219 30zm0 0" fill="#5a5a5a"/><path d="m512 512h-256v-30h241.300781c6.296875 13.800781 12 23.699219 14.699219 30zm0 0" fill="#444"/></svg>