<svg height="511pt" viewBox="0 0 511.99966 511" width="511pt" xmlns="http://www.w3.org/2000/svg"><path d="m461.203125 259.683594-70.195313 35.097656v30l-41.398437 20.699219 41.398437 20.695312v39.300781c0 24.894532-20.101562 44.996094-45 44.996094h-44.996093v61.996094h-209.988281v-93.195312c-.300782-22.796876-6.898438-45.597657-19.5-66.296876l4.5 7.5 65.097656-269.980468 84.894531 5.699218 143.09375 9.597657c13.496094 25.800781 20.996094 54.296875 21.898437 83.394531zm0 0" fill="#fed2a4"/><path d="m461.203125 259.683594-70.195313 35.097656v30l-41.398437 20.699219 41.398437 20.695312v39.300781c0 24.894532-20.101562 44.996094-45 44.996094h-44.996093v61.996094h-74.996094v-416.273438l143.09375 9.597657c13.496094 25.800781 20.996094 54.296875 21.898437 83.394531zm0 0" fill="#ffbd86"/><path d="m421.003906.5v15c0 38.394531-20.699218 72.292969-51.894531 90.292969-15.601563 9.597656-33.898437 14.699219-53.097656 14.699219h-24.898438l-59.097656 45.898437-6 9.296875-19.796875 30.898438-10.199219-11.097657c0-16.5-13.5-30-30-30-16.496093 0-29.996093 13.5-29.996093 30v59.996094c0 16.5 13.5 30 29.996093 30 6 0 11.101563-2.101563 15.902344-5.101563l-2.402344 11.699219-34.199219 68.394531h-69.292968c-4.503906-7.5-10.800782-19.199218-24-33.597656-33.898438-36.898437-52.898438-84.894531-51.996094-134.992187 2.097656-105.59375 93.992188-191.386719 203.785156-191.386719zm0 0" fill="#5a5a5a"/><g fill="#ffd400"><path d="m489.292969 272.050781 13.417969 26.832031-59.996094 29.996094-13.417969-26.832031zm0 0"/><path d="m451.003906 360.476562h60.996094v30h-60.996094zm0 0"/><path d="m442.707031 422.039062 59.996094 29.996094-13.417969 26.835938-59.996094-30zm0 0"/></g><path d="m211.019531 255.484375h-30c0 8.277344-6.722656 15-15 15-8.273437 0-14.996093-6.722656-14.996093-15v-59.996094c0-8.277343 6.722656-15 14.996093-15 8.277344 0 15 6.722657 15 15v15h30v-15c0-24.8125-20.1875-44.996093-45-44.996093s-44.996093 20.183593-44.996093 44.996093v59.996094c0 24.8125 20.183593 44.996094 44.996093 44.996094s45-20.183594 45-44.996094" fill="#ffbd86"/><path d="m421.003906.5v15c0 38.394531-20.699218 72.292969-51.894531 90.292969-15.601563 9.597656-33.898437 14.699219-53.097656 14.699219h-24.898438l-59.097656 45.898437-6 9.296875v-175.1875zm0 0" fill="#444"/></svg>