<svg height="512pt" viewBox="-61 0 512 512" width="512pt" xmlns="http://www.w3.org/2000/svg"><path d="m195 0c-61.199219 68.699219-195 224.800781-195 316 0 107.398438 87.597656 196 195 196s195-88.601562 195-196c0-91.199219-133.800781-247.300781-195-316zm0 0" fill="#a8ebfa"/><path d="m390 316c0 107.398438-87.597656 196-195 196v-512c61.199219 68.699219 195 224.800781 195 316zm0 0" fill="#25d9f8"/><path d="m135 241c-24.8125 0-45-20.1875-45-45s20.1875-45 45-45 45 20.1875 45 45-20.1875 45-45 45zm0 0" fill="#56c225"/><path d="m135 211c-8.269531 0-15-6.730469-15-15s6.730469-15 15-15 15 6.730469 15 15-6.730469 15-15 15zm0 0" fill="#5a5a5a"/><path d="m90 361h30v30h-30zm0 0" fill="#5a5a5a"/><path d="m240 211h30v30h-30zm0 0" fill="#444"/><path d="m90 271h30v30h-30zm0 0" fill="#5a5a5a"/><g fill="#444"><path d="m240 271h30v45h-30zm0 0"/><path d="m240 376h30v45h-30zm0 0"/><path d="m197.550781 396.492188-15-25.984376 38.964844-22.5 15 25.984376zm0 0"/><path d="m288.484375 343.992188-15-25.984376 38.964844-22.5 15 25.984376zm0 0"/><path d="m312.449219 396.492188-38.964844-22.5 15-25.984376 38.964844 22.5zm0 0"/><path d="m221.515625 343.992188-38.964844-22.5 15-25.984376 38.964844 22.5zm0 0"/></g><path d="m255 391c-24.8125 0-45-20.1875-45-45s20.1875-45 45-45 45 20.1875 45 45-20.1875 45-45 45zm0 0" fill="#49a520"/><path d="m255 361c-8.269531 0-15-6.730469-15-15s6.730469-15 15-15 15 6.730469 15 15-6.730469 15-15 15zm0 0" fill="#444"/></svg>