<svg height="512pt" viewBox="0 0 512 512" width="512pt" xmlns="http://www.w3.org/2000/svg"><path d="m436 151h30v270h-30zm0 0" fill="#292929"/><path d="m181 301h150v30h-150zm0 0" fill="#5a5a5a"/><path d="m256 301h75v30h-75zm0 0" fill="#444"/><path d="m370.902344 454.601562-19.804688 22.796876-95.097656-81.597657-95.097656 81.597657-19.804688-22.796876 91.800782-78.601562-58.199219-49.800781 19.800781-22.796875 61.5 52.796875 64.5-55.199219 19.5 22.800781-60.898438 52.199219zm0 0" fill="#5a5a5a"/><path d="m370.902344 454.601562-19.804688 22.796876-95.097656-81.597657v-39.601562l64.5-55.199219 19.5 22.800781-60.898438 52.199219zm0 0" fill="#444"/><path d="m421 391h60v90h-60zm0 0" fill="#444"/><path d="m163.171875 480.371094-29.296875-6.503906 72.714844-327.175782 29.296875 6.503906zm0 0" fill="#5a5a5a"/><path d="m349.75 487.242188-71.527344-358.667969 29.414063-5.890625 71.527343 357.671875zm0 0" fill="#444"/><path d="m0 451h512v61h-512zm0 0" fill="#6e6e6e"/><path d="m256 451h256v61h-256zm0 0" fill="#5a5a5a"/><path d="m455.199219 94.300781-199.199219 83.097657-193 80.101562-7.199219-61.199219 200.199219-83.402343 192-80.097657zm0 0" fill="#ff7816"/><path d="m455.199219 94.300781-199.199219 83.097657v-64.5l192-80.097657zm0 0" fill="#ff4b00"/><path d="m0 91v120l30 90h60v-210zm0 0" fill="#5a5a5a"/><path d="m481 151-30 30-30-30v-151h60zm0 0" fill="#444"/></svg>