<svg height="512pt" viewBox="0 0 512 512" width="512pt" xmlns="http://www.w3.org/2000/svg"><path d="m421 0c0 16.539062-13.460938 31-30 31h-30c-33.089844 0-60 26.910156-60 60l18.75 30 11.25-30c0-16.539062 13.460938-30 30-30h30c33.089844 0 60-27.910156 60-61zm0 0" fill="#ffbd86"/><path d="m301 91h60v180h-60zm0 0" fill="#444"/><path d="m61 482h-31v-31h61v-30h-61v-30h-30v121h61l30-12.5zm0 0" fill="#b35f49"/><path d="m482 391v30h-31v-30h-30v30h-60v30h60v31h-30l-30 17.5 30 12.5h121v-121zm0 91h-31v-31h31zm0 0" fill="#99503d"/><path d="m391 271v241h-180l-30-30h-30l-30 30h-60v-241l165-120zm0 0" fill="#ede9e8"/><path d="m391 271v241h-165v-361zm0 0" fill="#dfd7d5"/><path d="m331 391h-90v-90h90zm0 0" fill="#25d9f8"/><path d="m121 331h90v181h-90zm0 0" fill="#5a5a5a"/><path d="m433.597656 260.199219-42.597656 42.601562-165-135-165 135-42.597656-42.601562 207.597656-169.199219zm0 0" fill="#ff7816"/><path d="m433.597656 260.199219-42.597656 42.601562-165-135v-76.800781zm0 0" fill="#ff4b00"/></svg>