<svg height="512pt" viewBox="0 0 512 512" width="512pt" xmlns="http://www.w3.org/2000/svg"><path d="m421 90h-30c0-33-27-60-60-60s-60 27-60 60v32.699219c4.800781-1.5 9.601562-2.699219 15-2.699219 24.902344 0 45 20.097656 45 45h-30c0-8.402344-6.597656-15-15-15s-15 6.597656-15 15v150h-30v-150c0-8.402344-6.597656-15-15-15s-15 6.597656-15 15h-30c0-24.902344 20.097656-45 45-45 5.398438 0 10.199219 1.199219 15 2.699219v-32.699219c0-33-27-60-60-60s-60 27-60 60h-30c0-49.5 40.5-90 90-90 31.199219 0 58.800781 16.199219 75 40.5 16.199219-24.300781 43.800781-40.5 75-40.5 49.5 0 90 40.5 90 90zm0 0" fill="#76e2f8"/><path d="m421 90h-30c0-33-27-60-60-60s-60 27-60 60v32.699219c4.800781-1.5 9.601562-2.699219 15-2.699219 24.902344 0 45 20.097656 45 45h-30c0-8.402344-6.597656-15-15-15s-15 6.597656-15 15v150h-15v-274.5c16.199219-24.300781 43.800781-40.5 75-40.5 49.5 0 90 40.5 90 90zm0 0" fill="#25d9f8"/><path d="m0 300h91v182h-91zm0 0" fill="#6e6e6e"/><path d="m422 300h90v182h-90zm0 0" fill="#5a5a5a"/><path d="m422 300v182h-331v-182h150l6.300781 30 8.699219-11.101562 15-18.898438zm0 0" fill="#6e6e6e"/><path d="m422 300v182h-166v-163.101562l15-18.898438zm0 0" fill="#5a5a5a"/><path d="m391 120h30v30h-30zm0 0" fill="#25d9f8"/><path d="m391 180h30v30h-30zm0 0" fill="#25d9f8"/><g fill="#76e2f8"><path d="m91 120h30v30h-30zm0 0"/><path d="m91 180h30v30h-30zm0 0"/><path d="m181 180h30v30h-30zm0 0"/></g><path d="m301 180h30v30h-30zm0 0" fill="#25d9f8"/><path d="m181 240h30v30h-30zm0 0" fill="#76e2f8"/><path d="m301 240h30v30h-30zm0 0" fill="#25d9f8"/><path d="m61 270h60v242h-60zm0 0" fill="#5a5a5a"/><path d="m392 270h60v242h-60zm0 0" fill="#444"/><path d="m310.300781 360-40.800781 81.597656-13.5-6.597656-13.5-6.601562 19.199219-38.398438h-60l39.300781-90h30l-15 38.097656-8.699219 21.902344zm0 0" fill="#5a5a5a"/><path d="m271 300-15 38.097656v-38.097656zm0 0" fill="#444"/><path d="m310.300781 360-40.800781 81.597656-13.5-6.597656v-33.601562l5.699219-11.398438h-5.699219v-30zm0 0" fill="#444"/></svg>