<svg height="512pt" viewBox="0 -31 512 512" width="512pt" xmlns="http://www.w3.org/2000/svg"><path d="m211 15h90v60h-90zm0 0" fill="#5a5a5a"/><path d="m256 15h45v60h-45zm0 0" fill="#444"/><path d="m512 195c0 74.699219-61.300781 135-136 135l-120 27.898438-8.699219 2.101562-36.300781-9.902344-30-8.101562-30-8.097656-15-3.898438c-5.097656 0-9.902344-.902344-15-1.5-67.5-7.5-121-64.199219-121-133.5s53.5-126 121-133.5c5.097656-.601562 9.902344 28.5 15 28.5l15-30h30l16.800781 30 13.199219-30h165c74.699219 0 136 60.300781 136 135zm0 0" fill="#ff7816"/><path d="m136 60c-5.136719 0-10.011719.953125-15 1.511719v266.976562c4.988281.558594 9.863281 1.511719 15 1.511719l15 4.042969v-274.042969zm0 0" fill="#5a5a5a"/><path d="m181 60v282.132812l30 8.089844v-290.222656zm0 0" fill="#5a5a5a"/><path d="m512 195c0 74.699219-61.300781 135-136 135l-120 27.898438v-297.898438h120c74.699219 0 136 60.300781 136 135zm0 0" fill="#ff4b00"/><path d="m0 330h512v60h-512zm0 0" fill="#dfd7d5"/><path d="m256 330h256v60h-256zm0 0" fill="#d2c5c2"/><path d="m346 270c-33.089844 0-60-26.910156-60-60 0-29.121094 40.679688-75.9375 48.839844-85.019531l11.160156-12.4375 11.160156 12.4375c8.160156 9.082031 48.839844 55.898437 48.839844 85.019531 0 33.089844-26.910156 60-60 60zm0 0" fill="#fdbf00"/><g fill="#5a5a5a"><path d="m136 90h58.753906v30h-58.753906zm0 0"/><path d="m136 150h58.753906v30h-58.753906zm0 0"/><path d="m136 210h58.753906v30h-58.753906zm0 0"/><path d="m136 270h58.753906v30h-58.753906zm0 0"/><path d="m76 450c-24.8125 0-45-20.1875-45-45s20.1875-45 45-45 45 20.1875 45 45-20.1875 45-45 45zm0 0"/></g><path d="m76 420c-8.277344 0-15-6.722656-15-15s6.722656-15 15-15 15 6.722656 15 15-6.722656 15-15 15zm0 0" fill="#ede9e8"/><path d="m436 450c-24.8125 0-45-20.1875-45-45s20.1875-45 45-45 45 20.1875 45 45-20.1875 45-45 45zm0 0" fill="#444"/><path d="m436 420c-8.277344 0-15-6.722656-15-15s6.722656-15 15-15 15 6.722656 15 15-6.722656 15-15 15zm0 0" fill="#dfd7d5"/><path d="m166 450c-24.8125 0-45-20.1875-45-45s20.1875-45 45-45 45 20.1875 45 45-20.1875 45-45 45zm0 0" fill="#5a5a5a"/><path d="m166 420c-8.277344 0-15-6.722656-15-15s6.722656-15 15-15 15 6.722656 15 15-6.722656 15-15 15zm0 0" fill="#ede9e8"/><path d="m181 0h150v30h-150zm0 0" fill="#ff7816"/><path d="m256 0h75v30h-75zm0 0" fill="#ff4b00"/></svg>