<svg height="512pt" viewBox="-10 0 512 512" width="512pt" xmlns="http://www.w3.org/2000/svg"><path d="m354.886719 315 4.796875 102.5c3.902344 33-27.898438 58.5-59.699219 72.597656l-15-99.097656-15 109.597656c-18 5.101563-38.402344 8.398438-60 10.199219l-15-58.796875-15 60c-33.300781 0-63.898437-4.199219-90-11.402344l-15-48.597656-15 38.097656c-32.101563-14.097656-63.300781-38.699218-59.699219-73.5l30-332.597656h149.699219l149.699219-.300781 8.703125 78 57.898437-57.898438 84.898438 84.898438zm0 0" fill="#c6715a"/><path d="m354.886719 315 4.796875 102.5c3.902344 33-27.898438 58.5-59.699219 72.597656l-15-99.097656-15 109.597656c-18 5.101563-38.402344 8.398438-60 10.199219l-15-58.796875-15 60v-428l149.699219-.300781 8.703125 78 57.898437-57.898438 84.898438 84.898438zm0 0" fill="#99503d"/><path d="m406.800781 178.183594c-23.789062-23.804688-28.445312-56.410156-10.605469-74.253906 17.828126-17.882813 50.449219-13.167969 74.253907 10.605468 23.773437 23.789063 28.433593 56.410156 10.621093 74.253906-19.914062 19.871094-53.4375 10.226563-74.269531-10.605468zm0 0" fill="#ffbd86"/><path d="m269.984375 270v230.632812c10.816406-2.992187 20.820313-6.539062 30-10.554687v-220.078125zm0 0" fill="#804231"/><path d="m179.984375 330v182c10.300781 0 20.261719-.492188 30-1.246094v-180.753906zm0 0" fill="#804231"/><path d="m59.984375 330v160.078125c9.179687 4.015625 19.1875 7.5625 30 10.554687v-170.632812zm0 0" fill="#b35f49"/><path d="m119.984375 160.738281h30v139.261719h-30zm0 0" fill="#b35f49"/><path d="m209.984375 160.738281h30v79.261719h-30zm0 0" fill="#804231"/><path d="m329.683594 83.699219c-5.398438-47.699219-69.597656-83.699219-149.699219-83.699219-80.097656 0-144.300781 36-149.699219 83.699219-.300781 2.101562-.300781 4.199219-.300781 6.300781 0 50.398438 66 90 150 90s150-39.601562 150-90c0-2.101562 0-4.199219-.300781-6.300781zm0 0" fill="#fed2a4"/><path d="m329.984375 90c0 50.398438-66 90-150 90v-180c80.101563 0 144.300781 36 149.699219 83.699219.300781 2.101562.300781 4.199219.300781 6.300781zm0 0" fill="#ffbd86"/><path d="m239.984375 90c0 22.199219-30.898437 30-60 30-29.097656 0-60-7.800781-60-30s30.902344-30 60-30c29.101563 0 60 7.800781 60 30zm0 0" fill="#ffbd86"/><path d="m239.984375 90c0 22.199219-30.898437 30-60 30v-60c29.101563 0 60 7.800781 60 30zm0 0" fill="#f6a96c"/></svg>