<svg height="512pt" viewBox="0 -31 512 512" width="512pt" xmlns="http://www.w3.org/2000/svg"><path d="m256 162.898438v286.5c-3.300781.300781-6.898438.601562-10.199219.601562h-159.601562c-46.796875 0-86.199219-38.402344-86.199219-85.199219 0-116.101562 50.5-180.601562 125.5-255.300781h81c18 18 34.800781 35.699219 49.5 53.398438zm0 0" fill="#6e6e6e"/><path d="m241 0-30 90h-90l-30-90zm0 0" fill="#6e6e6e"/><g fill="#5a5a5a"><path d="m211 90h-45v-90h75zm0 0"/><path d="m256 162.898438v286.5c-3.300781.300781-6.898438.601562-10.199219.601562h-79.800781v-340.5h40.5c18 18 34.800781 35.699219 49.5 53.398438zm0 0"/><path d="m151 105h30v75h-30zm0 0"/></g><path d="m166 105h15v75h-15zm0 0" fill="#444"/><path d="m241 90c0 16.5-13.5 30-30 30h-90c-16.5 0-30-13.5-30-30s13.5-30 30-30h90c16.5 0 30 13.5 30 30zm0 0" fill="#ffd400"/><path d="m241 90c0 16.5-13.5 30-30 30h-45v-60h45c16.5 0 30 13.5 30 30zm0 0" fill="#ff9f00"/><path d="m512 364.800781c0 46.796875-39.402344 85.199219-86.199219 85.199219h-159.601562c-3.300781 0-6.898438-.300781-10.199219-.601562-42-5.097657-75-41.097657-75-84.597657 0-87.902343 28.5-146.402343 75-201.902343 14.699219-17.699219 31.5-35.398438 49.5-53.398438h81c75 74.699219 125.5 139.199219 125.5 255.300781zm0 0" fill="#6e6e6e"/><path d="m331 105h30v75h-30zm0 0" fill="#5a5a5a"/><path d="m421 0-30 90h-90l-30-90zm0 0" fill="#6e6e6e"/><path d="m391 90h-45v-90h75zm0 0" fill="#5a5a5a"/><path d="m512 364.800781c0 46.796875-39.402344 85.199219-86.199219 85.199219h-79.800781v-340.5h40.5c75 74.699219 125.5 139.199219 125.5 255.300781zm0 0" fill="#5a5a5a"/><path d="m346 105h15v75h-15zm0 0" fill="#444"/><path d="m421 90c0 16.5-13.5 30-30 30h-90c-16.5 0-30-13.5-30-30s13.5-30 30-30h90c16.5 0 30 13.5 30 30zm0 0" fill="#ffd400"/><path d="m421 90c0 16.5-13.5 30-30 30h-45v-60h45c16.5 0 30 13.5 30 30zm0 0" fill="#ff9f00"/></svg>