<svg height="512pt" viewBox="0 0 512 512" width="512pt" xmlns="http://www.w3.org/2000/svg"><path d="m461.199219 116.699219-45.597657 128.402343-49.503906 30.296876h-210l-20.097656-48.898438h-.902344l72.601563-202.199219 48.300781 17.699219zm0 0" fill="#ffd400"/><path d="m461.199219 116.699219-45.597657 128.402343-49.503906 30.296876h-110.097656v-233.398438zm0 0" fill="#fdbf00"/><path d="m415.601562 245.101562-10.800781 29.699219-76.800781 211.5-72-26.101562-181.800781-66.300781 47.402343-130.5 13.5-36.898438h.898438c18.898438 0 30.601562 10.5 39.902344 18.902344 16.199218 14.097656 24 14.097656 40.199218 0 9.296876-8.402344 21-18.902344 39.898438-18.902344 18.902344 0 30.601562 10.5 39.902344 18.902344 16.199218 14.097656 24 14.097656 40.199218 0 9.300782-8.402344 21-18.902344 39.902344-18.902344 18.597656 0 30.296875 10.199219 39.597656 18.601562zm0 0" fill="#70da40"/><path d="m415.601562 245.101562-10.800781 29.699219-76.800781 211.5-72-26.101562v-233.699219c18.898438 0 30.601562 10.5 39.902344 18.898438 16.199218 14.101562 24 14.101562 40.199218 0 9.296876-8.398438 21-18.898438 39.898438-18.898438 18.601562 0 30.300781 10.199219 39.601562 18.601562zm0 0" fill="#49a520"/><path d="m494.5 112.800781-10.199219 28.199219-228.300781-83.101562-81.597656-29.699219 10.199218-28.199219 71.398438 26.101562zm0 0" fill="#fdbf00"/><path d="m361.300781 482.398438-10.203125 28.199218-95.097656-34.496094-215.097656-78.300781 10.195312-28.203125 204.902344 74.402344zm0 0" fill="#90e36a"/><path d="m474.101562 169.199219-10.203124 28.199219-207.898438-75.597657-102.300781-37.199219 10.199219-28.203124 92.101562 33.601562zm0 0" fill="#fdbf00"/><path d="m381.699219 426-10.199219 28.199219-115.5-42-194.699219-70.800781 10.199219-28.199219 184.5 67.199219zm0 0" fill="#90e36a"/><path d="m421 391.5h91v30h-91zm0 0" fill="#56c225"/><path d="m451 301.5h61v30h-61zm0 0" fill="#56c225"/><g fill="#90e36a"><path d="m121 481.5h90v30h-90zm0 0"/><path d="m0 451.5h61v30h-61zm0 0"/><path d="m512 211.5v30h-16c-7.199219 0-12 4.199219-20.097656 11.101562-9.300782 8.398438-21 18.898438-39.902344 18.898438s-30.601562-10.5-39.902344-18.898438c-16.199218-14.101562-24-14.101562-40.199218 0-9.296876 8.398438-21 18.898438-39.898438 18.898438-18.902344 0-30.601562-10.5-39.902344-18.898438-8.097656-6.902343-14.097656-10.503906-20.097656-10.503906s-12 3.601563-20.097656 10.503906c-9.300782 8.398438-21 18.898438-39.902344 18.898438s-30.601562-10.5-39.902344-18.898438c-16.199218-14.101562-24-14.101562-40.199218 0-9.296876 8.398438-21 18.898438-39.898438 18.898438-18.902344 0-30.601562-10.5-39.902344-18.898438-8.097656-6.902343-13.898437-11.101562-21.097656-11.101562h-15v-30h15c18.898438 0 31.601562 10.5 40.902344 18.898438 16.199218 14.101562 24 14.101562 40.199218 0 9.296876-8.398438 21-18.898438 39.898438-18.898438 18.902344 0 30.601562 10.5 39.902344 18.898438 16.199218 14.101562 24 14.101562 40.199218 0 9.300782-8.398438 21-18.898438 39.902344-18.898438 18.898438 0 30.597656 10.5 39.898438 18.898438 16.199218 14.101562 24 14.101562 40.199218 0 9.300782-8.398438 21-18.898438 39.902344-18.898438 18.898438 0 30.601563 10.5 39.898438 18.898438 16.199218 14.101562 24 14.101562 40.199218 0 9.300782-8.398438 21-18.898438 39.902344-18.898438zm0 0"/></g><path d="m496 211.5h16v30h-16c-7.199219 0-12 4.199219-20.097656 11.101562-9.300782 8.398438-21 18.898438-39.902344 18.898438s-30.601562-10.5-39.902344-18.898438c-16.199218-14.101562-24-14.101562-40.199218 0-9.296876 8.398438-21 18.898438-39.898438 18.898438-18.902344 0-30.601562-10.5-39.902344-18.898438-8.097656-6.902343-14.097656-10.503906-20.097656-10.503906v-30.597656c18.898438 0 30.601562 10.5 39.902344 18.898438 16.199218 14.101562 24 14.101562 40.199218 0 9.296876-8.398438 21-18.898438 39.898438-18.898438 18.902344 0 30.601562 10.5 39.902344 18.898438 16.199218 14.101562 24 14.101562 40.199218 0 9.296876-8.398438 21-18.898438 39.898438-18.898438zm0 0" fill="#56c225"/><path d="m256 444 105.300781 38.398438-10.203125 28.199218-95.097656-34.496094zm0 0" fill="#56c225"/><path d="m256 380.398438 125.699219 45.601562-10.199219 28.199219-115.5-42zm0 0" fill="#56c225"/><path d="m256 90 218.101562 79.199219-10.203124 28.199219-207.898438-75.597657zm0 0" fill="#ff9f00"/><path d="m494.5 112.800781-10.199219 28.199219-228.300781-83.101562v-31.796876zm0 0" fill="#ff9f00"/></svg>