<svg height="512pt" viewBox="-91 0 512 512" width="512pt" xmlns="http://www.w3.org/2000/svg"><path d="m330 165c0 53.097656-25.800781 104.5-69.300781 135.398438-13.199219 9.300781-20.699219 24.101562-20.699219 38.800781v22.800781l-75 30-75-30v-22.800781c0-14.699219-7.800781-29.5-21-39.101563-52.5-37.5-77.699219-101.796875-66.300781-165.699218l.898437-4.5c13.199219-62.398438 63.902344-113.097657 126-126.296876 11.703125-2.402343 23.699219-3.601562 35.402344-3.601562 38.101562 0 74.398438 12.898438 104.097656 36.898438 38.703125 31.5 60.902344 78.300781 60.902344 128.101562zm0 0" fill="#ffd400"/><path d="m330 165c0 53.097656-25.800781 104.5-69.300781 135.398438-13.199219 9.300781-20.699219 24.101562-20.699219 38.800781v22.800781l-75 30v-392c38.097656 0 74.398438 12.898438 104.097656 36.898438 38.703125 31.5 60.902344 78.300781 60.902344 128.101562zm0 0" fill="#ff9f00"/><path d="m150 467h30v45h-30zm0 0" fill="#5a5a5a"/><path d="m165 467h15v45h-15zm0 0" fill="#444"/><path d="m90 362h150v120h-150zm0 0" fill="#ede9e8"/><path d="m165 362h75v120h-75zm0 0" fill="#d2c5c2"/><path d="m272.097656 407-107.097656 15.300781-102.902344 14.699219-4.199218-30 107.101562-15.300781 102.898438-14.699219zm0 0" fill="#5a5a5a"/><path d="m272.097656 407-107.097656 15.300781v-30.601562l102.898438-14.699219zm0 0" fill="#444"/></svg>