<?xml version="1.0" encoding="UTF-8"?>
<svg xmlns="http://www.w3.org/2000/svg" xmlns:xlink="http://www.w3.org/1999/xlink" width="512" height="512" viewBox="0 0 59 59" version="1.1"><!-- Generator: Sketch 50.2 (55047) - http://www.bohemiancoding.com/sketch --><title>080 - Excavator </title><desc>Created with Sketch.</desc><defs/><g id="Page-1" stroke="none" stroke-width="1" fill="none" fill-rule="evenodd"><g id="080---Excavator-" fill-rule="nonzero"><polygon id="Shape" fill="#F29C1F" points="43 1 53.283 17.275 50.31 18.54 41 6"/><path d="M58.65,22.51 L56.39,17.99 C55.9188401,17.0441019 54.7931149,16.6279778 53.82,17.04 L53.28,17.27 L50.31,18.54 L49.57,18.87 C49.308652,18.9786419 49.106446,19.19415 49.0146526,19.4618809 C48.9228591,19.7296117 48.9502937,20.0238537 49.09,20.27 L52.148,25.77 L48.657,27.51 C48.241548,27.7170599 48.0232055,28.1827907 48.1297762,28.6345837 C48.2363469,29.0863766 48.6398082,29.4054339 49.104,29.405 C49.2589518,29.4053861 49.4117912,29.3690611 49.55,29.299 L53.12,27.519 L57.76,25.199 C58.2351526,24.9610108 58.5960534,24.543703 58.7630338,24.0391969 C58.9300143,23.5346909 58.8893437,22.9844718 58.65,22.51 Z" id="Shape" fill="#7F8C8D"/><path d="M32.85,29.975 C33.575,27.95 42.15,6.992 43.504,3.259 C43.6567105,2.88752442 43.761227,2.49802393 43.815,2.1 C43.8638013,1.40429752 43.5295373,0.737302859 42.943,0.36 C42.1093435,-0.191895106 40.9953351,-0.0376477907 40.343,0.72 L23.03,27.035 L23,30 L32.85,29.975 Z" id="Shape" fill="#E57E25"/><rect id="Rectangle-path" fill="#D25627" x="12" y="42" width="12" height="10"/><path d="M23,32 L23,44 L5,44 C4.44771525,44 4,43.5522847 4,43 L4,33 C4,32.4477153 4.44771525,32 5,32 L23,32 Z" id="Shape" fill="#E57E25"/><path d="M33,31 L33,43 C33,43.5522847 32.5522847,44 32,44 L21,44 L21,28 C21,27.4477153 21.4477153,27 22,27 L29,27 C31.209139,27 33,28.790861 33,31 Z" id="Shape" fill="#F29C1F"/><path d="M33,31 L26,31 C25.4477153,31 25,31.4477153 25,32 L25,37 C25,37.5522847 25.4477153,38 26,38 L33,38 L33,31 Z" id="Shape" fill="#2FA8CC"/><path d="M9,35 L8,35 C7.44771525,35 7,35.4477153 7,36 C7,36.5522847 7.44771525,37 8,37 L9,37 C9.55228475,37 10,36.5522847 10,36 C10,35.4477153 9.55228475,35 9,35 Z" id="Shape" fill="#F29C1F"/><path d="M16,35 L13,35 C12.4477153,35 12,35.4477153 12,36 C12,36.5522847 12.4477153,37 13,37 L16,37 C16.5522847,37 17,36.5522847 17,36 C17,35.4477153 16.5522847,35 16,35 Z" id="Shape" fill="#F29C1F"/><rect id="Rectangle-path" fill="#BDC3C7" x="1" y="50" width="34" height="8" rx="3"/><path d="M32,59 L4,59 C1.790861,59 2.705415e-16,57.209139 0,55 L0,53 C-2.705415e-16,50.790861 1.790861,49 4,49 L32,49 C34.209139,49 36,50.790861 36,53 L36,55 C36,57.209139 34.209139,59 32,59 Z M4,51 C2.8954305,51 2,51.8954305 2,53 L2,55 C2,56.1045695 2.8954305,57 4,57 L32,57 C33.1045695,57 34,56.1045695 34,55 L34,53 C34,51.8954305 33.1045695,51 32,51 L4,51 Z" id="Shape" fill="#7F8C8D"/><path d="M7,53 L5,53 C4.44771525,53 4,53.4477153 4,54 C4,54.5522847 4.44771525,55 5,55 L7,55 C7.55228475,55 8,54.5522847 8,54 C8,53.4477153 7.55228475,53 7,53 Z" id="Shape" fill="#ECF0F1"/><path d="M13,53 L11,53 C10.4477153,53 10,53.4477153 10,54 C10,54.5522847 10.4477153,55 11,55 L13,55 C13.5522847,55 14,54.5522847 14,54 C14,53.4477153 13.5522847,53 13,53 Z" id="Shape" fill="#ECF0F1"/><path d="M19,53 L17,53 C16.4477153,53 16,53.4477153 16,54 C16,54.5522847 16.4477153,55 17,55 L19,55 C19.5522847,55 20,54.5522847 20,54 C20,53.4477153 19.5522847,53 19,53 Z" id="Shape" fill="#ECF0F1"/><path d="M25,53 L23,53 C22.4477153,53 22,53.4477153 22,54 C22,54.5522847 22.4477153,55 23,55 L25,55 C25.5522847,55 26,54.5522847 26,54 C26,53.4477153 25.5522847,53 25,53 Z" id="Shape" fill="#ECF0F1"/><path d="M31,53 L29,53 C28.4477153,53 28,53.4477153 28,54 C28,54.5522847 28.4477153,55 29,55 L31,55 C31.5522847,55 32,54.5522847 32,54 C32,53.4477153 31.5522847,53 31,53 Z" id="Shape" fill="#ECF0F1"/></g></g></svg>
