<?xml version="1.0" encoding="UTF-8"?>
<svg xmlns="http://www.w3.org/2000/svg" xmlns:xlink="http://www.w3.org/1999/xlink" width="512" height="512" viewBox="0 0 58 58" version="1.1"><!-- Generator: Sketch 50.2 (55047) - http://www.bohemiancoding.com/sketch --><title>079 - Saw </title><desc>Created with Sketch.</desc><defs/><g id="Page-1" stroke="none" stroke-width="1" fill="none" fill-rule="evenodd"><g id="079---Saw-" fill-rule="nonzero"><circle id="Oval" fill="#35495E" cx="29" cy="29" r="26"/><circle id="Oval" fill="#547580" cx="29" cy="29" r="20"/><path d="M13.507,26 C13.4223076,26.0001354 13.3379493,25.9893806 13.256,25.968 C12.7214739,25.8298152 12.4000696,25.2845918 12.538,24.75 C14.4761622,17.2435301 21.2473513,11.9991697 29,12 C29.5522847,12 30,12.4477153 30,13 C30,13.5522847 29.5522847,14 29,14 C22.1591648,13.9989454 16.1842087,18.6263897 14.474,25.25 C14.3601167,25.6910697 13.9625344,25.9994324 13.507,26 Z" id="Shape" fill="#95A5A5"/><path d="M13.03,31 C12.5010488,31.0010176 12.0627941,30.5899346 12.03,30.062 C12.012,29.71 12,29.356 12,29 C12,28.4477153 12.4477153,28 13,28 C13.5522847,28 14,28.4477153 14,29 C14,29.3153333 14.0096667,29.628 14.029,29.938 C14.0459747,30.2030148 13.956841,30.4638982 13.7812539,30.663122 C13.6056668,30.8623459 13.3580477,30.9835474 13.093,31 L13.03,31 Z" id="Shape" fill="#95A5A5"/><circle id="Oval" fill="#95A5A5" cx="29" cy="29" r="7"/><circle id="Oval" fill="#35495E" cx="29" cy="29" r="3"/><path d="M31.478,2.883 C31.5265704,3.18177871 31.4371918,3.48647785 31.2349212,3.71167639 C31.0326505,3.93687494 30.7392599,4.05833287 30.437,4.042 C29.962,4.014 29.484,4 29,4 C28.516,4 28.038,4.014 27.563,4.042 C27.2607401,4.05833287 26.9673495,3.93687494 26.7650788,3.71167639 C26.5628082,3.48647785 26.4734296,3.18177871 26.522,2.883 L26.859,0.864 C26.9335973,0.403601405 27.3165571,0.055908759 27.782,0.026 C28.184,0.007 28.59,0 29,0 C29.41,0 29.816,0.007 30.218,0.026 C30.6834429,0.055908759 31.0664027,0.403601405 31.141,0.864 L31.478,2.883 Z" id="Shape" fill="#7F8C8D"/><path d="M23.287,3.4 C23.425515,3.66930101 23.4345318,3.98686459 23.3115206,4.26359131 C23.1885093,4.54031803 22.946723,4.74639397 22.654,4.824 C22.194,4.944 21.7343333,5.07733333 21.275,5.224 C20.8156667,5.37066667 20.3643333,5.532 19.921,5.708 C19.6384278,5.81723781 19.3215685,5.79248714 19.0593858,5.64069718 C18.7972032,5.48890722 18.6179666,5.2264445 18.572,4.927 L18.272,2.902 C18.2013004,2.44146261 18.4580265,1.99312516 18.891,1.821 C19.268,1.678 19.652,1.546 20.042,1.421 C20.432,1.296 20.82,1.176 21.208,1.07 C21.6597878,0.954376787 22.1315163,1.16638491 22.345,1.581 L23.287,3.4 Z" id="Shape" fill="#7F8C8D"/><path d="M15.654,6.414 C15.8690834,6.62718108 15.9759769,6.92634467 15.9446898,7.22755584 C15.9134027,7.52876702 15.7473058,7.79957482 15.493,7.964 C15.093,8.221 14.693,8.49 14.305,8.775 C13.917,9.06 13.536,9.351 13.168,9.654 C12.9330142,9.84508158 12.6240895,9.91936903 12.3279194,9.85601505 C12.0317492,9.79266107 11.78025,9.5984929 11.644,9.328 L10.73,7.5 C10.5199588,7.08383971 10.625324,6.57775523 10.984,6.28 C11.298,6.028 11.623,5.78 11.954,5.543 C12.285,5.306 12.619,5.069 12.954,4.848 C13.3479705,4.59865922 13.8619724,4.65466426 14.193,4.983 L15.654,6.414 Z" id="Shape" fill="#7F8C8D"/><path d="M9.328,11.644 C9.5984929,11.78025 9.79266107,12.0317492 9.85601505,12.3279194 C9.91936903,12.6240895 9.84508158,12.9330142 9.654,13.168 C9.35133333,13.536 9.05833333,13.915 8.775,14.305 C8.49,14.697 8.221,15.092 7.964,15.493 C7.79957482,15.7473058 7.52876702,15.9134027 7.22755584,15.9446898 C6.92634467,15.9759769 6.62718108,15.8690834 6.414,15.654 L4.979,14.194 C4.65066426,13.8629724 4.59465922,13.3489705 4.844,12.955 C5.065,12.619 5.298,12.286 5.539,11.955 C5.78,11.624 6.024,11.299 6.276,10.985 C6.57401777,10.6239795 7.0826078,10.5180232 7.5,10.73 L9.328,11.644 Z" id="Shape" fill="#7F8C8D"/><path d="M4.927,18.572 C5.2264445,18.6179666 5.48890722,18.7972032 5.64069718,19.0593858 C5.79248714,19.3215685 5.81723781,19.6384278 5.708,19.921 C5.534,20.3643333 5.37266667,20.8156667 5.224,21.275 C5.07533333,21.7343333 4.942,22.194 4.824,22.654 C4.74639397,22.946723 4.54031803,23.1885093 4.26359131,23.3115206 C3.98686459,23.4345318 3.66930101,23.425515 3.4,23.287 L1.583,22.342 C1.16838491,22.1285163 0.956376787,21.6567878 1.072,21.205 C1.178,20.817 1.297,20.428 1.423,20.039 C1.549,19.65 1.682,19.265 1.823,18.888 C1.9947786,18.4566716 2.44083467,18.2003033 2.9,18.269 L4.927,18.572 Z" id="Shape" fill="#7F8C8D"/><path d="M2.883,26.522 C3.18177871,26.4734296 3.48647785,26.5628082 3.71167639,26.7650788 C3.93687494,26.9673495 4.05833287,27.2607401 4.042,27.563 C4.014,28.038 4,28.516 4,29 C4,29.484 4.014,29.962 4.042,30.437 C4.05833287,30.7392599 3.93687494,31.0326505 3.71167639,31.2349212 C3.48647785,31.4371918 3.18177871,31.5265704 2.883,31.478 L0.864,31.141 C0.403601405,31.0664027 0.055908759,30.6834429 0.026,30.218 C0.007,29.816 0,29.41 0,29 C0,28.59 0.007,28.184 0.026,27.782 C0.055908759,27.3165571 0.403601405,26.9335973 0.864,26.859 L2.883,26.522 Z" id="Shape" fill="#7F8C8D"/><path d="M3.4,34.713 C3.66930101,34.574485 3.98686459,34.5654682 4.26359131,34.6884794 C4.54031803,34.8114907 4.74639397,35.053277 4.824,35.346 C4.944,35.806 5.07733333,36.2656667 5.224,36.725 C5.37066667,37.1843333 5.532,37.6356667 5.708,38.079 C5.81723781,38.3615722 5.79248714,38.6784315 5.64069718,38.9406142 C5.48890722,39.2027968 5.2264445,39.3820334 4.927,39.428 L2.902,39.728 C2.44146261,39.7986996 1.99312516,39.5419735 1.821,39.109 C1.678,38.732 1.546,38.348 1.421,37.958 C1.296,37.568 1.176,37.18 1.07,36.792 C0.954376787,36.3402122 1.16638491,35.8684837 1.581,35.655 L3.4,34.713 Z" id="Shape" fill="#7F8C8D"/><path d="M6.414,42.346 C6.62718108,42.1309166 6.92634467,42.0240231 7.22755584,42.0553102 C7.52876702,42.0865973 7.79957482,42.2526942 7.964,42.507 C8.221,42.907 8.49,43.307 8.775,43.695 C9.06,44.083 9.351,44.464 9.654,44.832 C9.84508158,45.0669858 9.91936903,45.3759105 9.85601505,45.6720806 C9.79266107,45.9682508 9.5984929,46.21975 9.328,46.356 L7.5,47.27 C7.08383971,47.4800412 6.57775523,47.374676 6.28,47.016 C6.028,46.702 5.78,46.377 5.543,46.046 C5.306,45.715 5.069,45.381 4.848,45.046 C4.59865922,44.6520295 4.65466426,44.1380276 4.983,43.807 L6.414,42.346 Z" id="Shape" fill="#7F8C8D"/><path d="M11.644,48.672 C11.78025,48.4015071 12.0317492,48.2073389 12.3279194,48.143985 C12.6240895,48.080631 12.9330142,48.1549184 13.168,48.346 C13.536,48.6493333 13.915,48.9423333 14.305,49.225 C14.697,49.51 15.092,49.779 15.493,50.036 C15.7473058,50.2004252 15.9134027,50.471233 15.9446898,50.7724442 C15.9759769,51.0736553 15.8690834,51.3728189 15.654,51.586 L14.194,53.021 C13.8629724,53.3493357 13.3489705,53.4053408 12.955,53.156 C12.619,52.935 12.286,52.702 11.955,52.456 C11.624,52.21 11.299,51.971 10.985,51.719 C10.626324,51.4212448 10.5209588,50.9151603 10.731,50.499 L11.644,48.672 Z" id="Shape" fill="#7F8C8D"/><path d="M18.572,53.073 C18.6179666,52.7735555 18.7972032,52.5110928 19.0593858,52.3593028 C19.3215685,52.2075129 19.6384278,52.1827622 19.921,52.292 C20.3643333,52.466 20.8156667,52.6273333 21.275,52.776 C21.7343333,52.9246667 22.194,53.058 22.654,53.176 C22.946723,53.253606 23.1885093,53.459682 23.3115206,53.7364087 C23.4345318,54.0131354 23.425515,54.330699 23.287,54.6 L22.342,56.417 C22.1285163,56.8316151 21.6567878,57.0436232 21.205,56.928 C20.817,56.822 20.428,56.703 20.039,56.577 C19.65,56.451 19.265,56.318 18.888,56.177 C18.4550265,56.0048748 18.1983004,55.5565374 18.269,55.096 L18.572,53.073 Z" id="Shape" fill="#7F8C8D"/><path d="M26.522,55.117 C26.4734296,54.8182213 26.5628082,54.5135222 26.7650788,54.2883236 C26.9673495,54.0631251 27.2607401,53.9416671 27.563,53.958 C28.038,53.986 28.516,54 29,54 C29.484,54 29.962,53.986 30.437,53.958 C30.7392599,53.9416671 31.0326505,54.0631251 31.2349212,54.2883236 C31.4371918,54.5135222 31.5265704,54.8182213 31.478,55.117 L31.141,57.136 C31.0664027,57.5963986 30.6834429,57.9440912 30.218,57.974 C29.818,57.993 29.41,58 29,58 C28.59,58 28.184,57.993 27.782,57.974 C27.3165571,57.9440912 26.9335973,57.5963986 26.859,57.136 L26.522,55.117 Z" id="Shape" fill="#7F8C8D"/><path d="M34.713,54.6 C34.574485,54.330699 34.5654682,54.0131354 34.6884794,53.7364087 C34.8114907,53.459682 35.053277,53.253606 35.346,53.176 C35.806,53.056 36.2656667,52.9226667 36.725,52.776 C37.1843333,52.6293333 37.6356667,52.468 38.079,52.292 C38.3615722,52.1827622 38.6784315,52.2075129 38.9406142,52.3593028 C39.2027968,52.5110928 39.3820334,52.7735555 39.428,53.073 L39.728,55.098 C39.7986996,55.5585374 39.5419735,56.0068748 39.109,56.179 C38.732,56.322 38.348,56.454 37.958,56.579 C37.568,56.704 37.18,56.824 36.792,56.93 C36.3402122,57.0456232 35.8684837,56.8336151 35.655,56.419 L34.713,54.6 Z" id="Shape" fill="#7F8C8D"/><path d="M42.346,51.586 C42.1309166,51.3728189 42.0240231,51.0736553 42.0553102,50.7724442 C42.0865973,50.471233 42.2526942,50.2004252 42.507,50.036 C42.907,49.779 43.307,49.51 43.695,49.225 C44.083,48.94 44.464,48.649 44.832,48.346 C45.0669858,48.1549184 45.3759105,48.080631 45.6720806,48.143985 C45.9682508,48.2073389 46.21975,48.4015071 46.356,48.672 L47.27,50.5 C47.4800412,50.9161603 47.374676,51.4222448 47.016,51.72 C46.702,51.972 46.377,52.22 46.046,52.457 C45.715,52.694 45.381,52.931 45.046,53.157 C44.6520295,53.4063408 44.1380276,53.3503357 43.807,53.022 L42.346,51.586 Z" id="Shape" fill="#7F8C8D"/><path d="M48.672,46.356 C48.4015071,46.21975 48.2073389,45.9682508 48.143985,45.6720806 C48.080631,45.3759105 48.1549184,45.0669858 48.346,44.832 C48.6493333,44.464 48.9423333,44.085 49.225,43.695 C49.51,43.303 49.779,42.908 50.036,42.507 C50.2004252,42.2526942 50.471233,42.0865973 50.7724442,42.0553102 C51.0736553,42.0240231 51.3728189,42.1309166 51.586,42.346 L53.021,43.806 C53.3493357,44.1370276 53.4053408,44.6510295 53.156,45.045 C52.935,45.381 52.702,45.714 52.456,46.045 C52.21,46.376 51.971,46.701 51.719,47.015 C51.4212448,47.373676 50.9151603,47.4790412 50.499,47.269 L48.672,46.356 Z" id="Shape" fill="#7F8C8D"/><path d="M53.073,39.428 C52.7735555,39.3820334 52.5110928,39.2027968 52.3593028,38.9406142 C52.2075129,38.6784315 52.1827622,38.3615722 52.292,38.079 C52.466,37.6363333 52.6273333,37.185 52.776,36.725 C52.9246667,36.265 53.058,35.8053333 53.176,35.346 C53.253606,35.053277 53.459682,34.8114907 53.7364087,34.6884794 C54.0131354,34.5654682 54.330699,34.574485 54.6,34.713 L56.417,35.658 C56.8316151,35.8714837 57.0436232,36.3432122 56.928,36.795 C56.822,37.183 56.703,37.572 56.577,37.961 C56.451,38.35 56.318,38.735 56.177,39.112 C56.0048748,39.5449735 55.5565374,39.8016996 55.096,39.731 L53.073,39.428 Z" id="Shape" fill="#7F8C8D"/><path d="M55.117,31.478 C54.8182213,31.5265704 54.5135222,31.4371918 54.2883236,31.2349212 C54.0631251,31.0326505 53.9416671,30.7392599 53.958,30.437 C53.986,29.962 54,29.484 54,29 C54,28.516 53.986,28.038 53.958,27.563 C53.9416671,27.2607401 54.0631251,26.9673495 54.2883236,26.7650788 C54.5135222,26.5628082 54.8182213,26.4734296 55.117,26.522 L57.136,26.859 C57.5963986,26.9335973 57.9440912,27.3165571 57.974,27.782 C57.993,28.182 58,28.59 58,29 C58,29.41 57.993,29.816 57.974,30.218 C57.9440912,30.6834429 57.5963986,31.0664027 57.136,31.141 L55.117,31.478 Z" id="Shape" fill="#7F8C8D"/><path d="M54.6,23.287 C54.330699,23.425515 54.0131354,23.4345318 53.7364087,23.3115206 C53.459682,23.1885093 53.253606,22.946723 53.176,22.654 C53.056,22.194 52.9226667,21.7343333 52.776,21.275 C52.6293333,20.8156667 52.468,20.3643333 52.292,19.921 C52.1827622,19.6384278 52.2075129,19.3215685 52.3593028,19.0593858 C52.5110928,18.7972032 52.7735555,18.6179666 53.073,18.572 L55.098,18.272 C55.5585374,18.2013004 56.0068748,18.4580265 56.179,18.891 C56.322,19.268 56.454,19.652 56.579,20.042 C56.704,20.432 56.824,20.82 56.93,21.208 C57.0456232,21.6597878 56.8336151,22.1315163 56.419,22.345 L54.6,23.287 Z" id="Shape" fill="#7F8C8D"/><path d="M51.586,15.654 C51.3728189,15.8690834 51.0736553,15.9759769 50.7724442,15.9446898 C50.471233,15.9134027 50.2004252,15.7473058 50.036,15.493 C49.779,15.093 49.51,14.693 49.225,14.305 C48.94,13.917 48.649,13.536 48.346,13.168 C48.1549184,12.9330142 48.080631,12.6240895 48.143985,12.3279194 C48.2073389,12.0317492 48.4015071,11.78025 48.672,11.644 L50.5,10.73 C50.9161603,10.5199588 51.4222448,10.625324 51.72,10.984 C51.972,11.298 52.22,11.623 52.457,11.954 C52.694,12.285 52.931,12.619 53.157,12.954 C53.4063408,13.3479705 53.3503357,13.8619724 53.022,14.193 L51.586,15.654 Z" id="Shape" fill="#7F8C8D"/><path d="M46.356,9.328 C46.21975,9.5984929 45.9682508,9.79266107 45.6720806,9.85601505 C45.3759105,9.91936903 45.0669858,9.84508158 44.832,9.654 C44.464,9.35133333 44.0866667,9.05833333 43.7,8.775 C43.308,8.49 42.913,8.221 42.512,7.964 C42.2576942,7.79957482 42.0915973,7.52876702 42.0603102,7.22755584 C42.0290231,6.92634467 42.1359166,6.62718108 42.351,6.414 L43.811,4.979 C44.1420276,4.65066426 44.6560295,4.59465922 45.05,4.844 C45.386,5.065 45.719,5.298 46.05,5.539 C46.381,5.78 46.706,6.024 47.02,6.276 C47.3792841,6.5753527 47.4831203,7.08373466 47.27,7.5 L46.356,9.328 Z" id="Shape" fill="#7F8C8D"/><path d="M39.428,4.927 C39.3820334,5.2264445 39.2027968,5.48890722 38.9406142,5.64069718 C38.6784315,5.79248714 38.3615722,5.81723781 38.079,5.708 C37.6363333,5.534 37.185,5.37266667 36.725,5.224 C36.265,5.07533333 35.8053333,4.942 35.346,4.824 C35.053277,4.74639397 34.8114907,4.54031803 34.6884794,4.26359131 C34.5654682,3.98686459 34.574485,3.66930101 34.713,3.4 L35.658,1.583 C35.8706524,1.1646196 36.3456468,0.950414609 36.8,1.068 C37.188,1.174 37.577,1.293 37.966,1.419 C38.355,1.545 38.74,1.678 39.117,1.819 C39.5479976,1.99287642 39.8023964,2.44076749 39.731,2.9 L39.428,4.927 Z" id="Shape" fill="#7F8C8D"/></g></g></svg>
