<?xml version="1.0" encoding="UTF-8"?>
<svg xmlns="http://www.w3.org/2000/svg" xmlns:xlink="http://www.w3.org/1999/xlink" width="512" height="512" viewBox="0 0 60 59" version="1.1"><!-- Generator: Sketch 50.2 (55047) - http://www.bohemiancoding.com/sketch --><title>078 - Wood Chop</title><desc>Created with Sketch.</desc><defs/><g id="Page-1" stroke="none" stroke-width="1" fill="none" fill-rule="evenodd"><g id="078---Wood-Chop" fill-rule="nonzero"><path d="M21,44.9999768 L21,59.0000232 L8,59 C5.70946929,59.0059005 3.56280397,57.88395 2.26,56 C1.82635287,55.3927106 1.49840596,54.7165314 1.29,54 C0.903359005,52.6946963 0.903359005,51.3053037 1.29,50 C1.49840596,49.2834686 1.82635287,48.6072894 2.26,48 C3.56280397,46.11605 5.70946929,44.9940995 8,45 L21,44.9999768 Z" id="Shape" fill="#805333"/><path d="M8,49 C8,49.5522847 7.55228475,50 7,50 L1.29,50 C1.49840596,49.2834686 1.82635287,48.6072894 2.26,48 L7,48 C7.55228475,48 8,48.4477153 8,49 Z" id="Shape" fill="#CB8252"/><path d="M8,55 C8,55.5522847 7.55228475,56 7,56 L2.26,56 C1.82635287,55.3927106 1.49840596,54.7165314 1.29,54 L7,54 C7.55228475,54 8,54.4477153 8,55 Z" id="Shape" fill="#CB8252"/><path d="M16,52 C15.995997,52.3317638 16.0227784,52.6631837 16.08,52.99 C16.054177,52.9982328 16.027055,53.0016231 16,53 L11,53 C10.4477153,53 10,52.5522847 10,52 C10,51.4477153 10.4477153,51 11,51 L16,51 C16.027055,50.9983769 16.054177,51.0017672 16.08,51.01 C16.0227784,51.3368163 15.995997,51.6682362 16,52 Z" id="Shape" fill="#CB8252"/><path d="M29,52 C29.0015155,55.6717835 26.1637691,58.7197813 22.5012364,58.9802631 C18.8387037,59.240745 15.5981508,56.6250401 15.08,52.99 C14.9733399,52.3343092 14.9733399,51.6656908 15.08,51.01 C15.5981508,47.3749599 18.8387037,44.759255 22.5012364,45.0197369 C26.1637691,45.2802187 29.0015155,48.3282165 29,52 Z" id="Shape" fill="#F18D46"/><path d="M52,44.9999768 L52,59.0000232 L41,59 C38.7094693,59.0059005 36.562804,57.88395 35.26,56 C34.8263529,55.3927106 34.498406,54.7165314 34.29,54 C33.903359,52.6946963 33.903359,51.3053037 34.29,50 C34.498406,49.2834686 34.8263529,48.6072894 35.26,48 C36.562804,46.11605 38.7094693,44.9940995 41,45 L52,44.9999768 Z" id="Shape" fill="#805333"/><path d="M38,33 L37,33 C33.3429379,32.9871542 30.3078166,30.1699769 30.023,26.524 C29.9950841,25.9812752 30.4057092,25.5155996 30.9476607,25.4753745 C31.4896122,25.4351494 31.9644864,25.8351009 32.017,26.376 C32.2206051,28.9796943 34.3883716,30.9912842 37,31 L38,31 C40.7600532,30.9966939 42.9966939,28.7600532 43,26 L43,5 C43,4.44771525 43.4477153,4 44,4 C44.5522847,4 45,4.44771525 45,5 L45,26 C44.9955914,29.8641657 41.8641657,32.9955914 38,33 Z" id="Shape" fill="#CC66A1"/><path d="M41,1 L47,1 L47,3 C47,4.1045695 46.1045695,5 45,5 L43,5 C41.8954305,5 41,4.1045695 41,3 L41,1 Z" id="Shape" fill="#547580"/><path d="M37.707,9.293 L34.414,6 L37.707,2.707 C38.0859722,2.31462111 38.0805524,1.69091522 37.6948186,1.30518142 C37.3090848,0.919447626 36.6853789,0.91402779 36.293,1.293 L33,4.586 L32.707,4.293 C32.3146211,3.91402779 31.6909152,3.91944763 31.3051814,4.30518142 C30.9194476,4.69091522 30.9140278,5.31462111 31.293,5.707 L31.586,6 L28.293,9.293 C27.9026181,9.68349985 27.9026181,10.3165001 28.293,10.707 L31.586,14 L28.293,17.293 C28.0330434,17.5440745 27.9287874,17.9158779 28.0203028,18.2655073 C28.1118183,18.6151368 28.3848632,18.8881817 28.7344927,18.9796972 C29.0841221,19.0712126 29.4559255,18.9669566 29.707,18.707 L33,15.414 L36.293,18.707 C36.6853789,19.0859722 37.3090848,19.0805524 37.6948186,18.6948186 C38.0805524,18.3090848 38.0859722,17.6853789 37.707,17.293 L34.414,14 L37.707,10.707 C38.0973819,10.3165001 38.0973819,9.68349985 37.707,9.293 Z M30.414,10 L33,7.414 L35.586,10 L33,12.586 L30.414,10 Z" id="Shape" fill="#7F8C8D"/><path d="M35,24 L33,24 C32.4477153,24 32,23.5522847 32,23 C32,22.4477153 32.4477153,22 33,22 L35,22 C35.5522847,22 36,21.5522847 36,21 L36,2 L30,2 L30,19 C30,19.5522847 29.5522847,20 29,20 C28.4477153,20 28,19.5522847 28,19 L28,1 C28,0.44771525 28.4477153,1.01453063e-16 29,0 L37,0 C37.5522847,3.38176876e-17 38,0.44771525 38,1 L38,21 C38,22.6568542 36.6568542,24 35,24 Z" id="Shape" fill="#A5A5A4"/><path d="M9,2 L1,2 C0.44771525,2 6.76353751e-17,1.55228475 0,1 C-6.76353751e-17,0.44771525 0.44771525,1.01453063e-16 1,0 L9,0 C9.55228475,3.38176876e-17 10,0.44771525 10,1 C10,1.55228475 9.55228475,2 9,2 Z" id="Shape" fill="#2C3E50"/><path d="M59,2 L13,2 C12.4477153,2 12,1.55228475 12,1 C12,0.44771525 12.4477153,1.01453063e-16 13,0 L59,0 C59.5522847,3.38176876e-17 60,0.44771525 60,1 C60,1.55228475 59.5522847,2 59,2 Z" id="Shape" fill="#2C3E50"/><path d="M29.677,34.024 L28.323,36.224 C28.125291,36.5453594 28.125291,36.9506406 28.323,37.272 L29.677,39.472 C29.874709,39.7933594 29.874709,40.1986406 29.677,40.52 L28.323,42.72 C28.125291,43.0413594 28.125291,43.4466406 28.323,43.768 L29.677,45.968 C29.874709,46.2893594 29.874709,46.6946406 29.677,47.016 L28.323,49.216 C28.125291,49.5373594 28.125291,49.9426406 28.323,50.264 L29.852,52.749 C29.948852,52.9066147 30.0000847,53.0880062 30,53.273 L30.0000001,59 L21.336,51.3 C21.1219617,51.1099305 20.9996374,50.8372493 21,50.551 L20.9999992,27 L30.0000001,27 L28.323,29.726 C28.125291,30.0473594 28.125291,30.4526406 28.323,30.774 L29.677,32.974 C29.8755304,33.2958469 29.8755304,33.7021531 29.677,34.024 Z" id="Shape" fill="#D1D4D1"/><path d="M59,52 C59.0015155,55.6717835 56.1637691,58.7197813 52.5012364,58.9802631 C48.8387037,59.240745 45.5981508,56.6250401 45.08,52.99 C44.9733399,52.3343092 44.9733399,51.6656908 45.08,51.01 C45.5981508,47.3749599 48.8387037,44.759255 52.5012364,45.0197369 C56.1637691,45.2802187 59.0015155,48.3282165 59,52 Z" id="Shape" fill="#F18D46"/><path d="M40,49 C40,49.5522847 39.5522847,50 39,50 L34.29,50 C34.498406,49.2834686 34.8263529,48.6072894 35.26,48 L39,48 C39.5522847,48 40,48.4477153 40,49 Z" id="Shape" fill="#CB8252"/><path d="M40,55 C40,55.5522847 39.5522847,56 39,56 L35.26,56 C34.8263529,55.3927106 34.498406,54.7165314 34.29,54 L39,54 C39.5522847,54 40,54.4477153 40,55 Z" id="Shape" fill="#CB8252"/><path d="M45,52 C44.995997,52.3317638 45.0227784,52.6631837 45.08,52.99 C45.054177,52.9982328 45.027055,53.0016231 45,53 L42,53 C41.4477153,53 41,52.5522847 41,52 C41,51.4477153 41.4477153,51 42,51 L45,51 C45.027055,50.9983769 45.054177,51.0017672 45.08,51.01 C45.0227784,51.3368163 44.995997,51.6682362 45,52 Z" id="Shape" fill="#CB8252"/><rect id="Rectangle-path" fill="#95A5A5" x="18" y="19" width="15" height="8" rx="2"/><path d="M29,22 L27,22 C26.4477153,22 26,22.4477153 26,23 C26,23.5522847 26.4477153,24 27,24 L29,24 C29.5522847,24 30,23.5522847 30,23 C30,22.4477153 29.5522847,22 29,22 Z" id="Shape" fill="#BDC3C7"/><path d="M23,22 L22,22 C21.4477153,22 21,22.4477153 21,23 C21,23.5522847 21.4477153,24 22,24 L23,24 C23.5522847,24 24,23.5522847 24,23 C24,22.4477153 23.5522847,22 23,22 Z" id="Shape" fill="#BDC3C7"/><path d="M31,28 L20,28 C18.3431458,28 17,26.6568542 17,25 L17,21 C17,19.3431458 18.3431458,18 20,18 L31,18 C32.6568542,18 34,19.3431458 34,21 L34,25 C34,26.6568542 32.6568542,28 31,28 Z M20,20 C19.4477153,20 19,20.4477153 19,21 L19,25 C19,25.5522847 19.4477153,26 20,26 L31,26 C31.5522847,26 32,25.5522847 32,25 L32,21 C32,20.4477153 31.5522847,20 31,20 L20,20 Z" id="Shape" fill="#547580"/></g></g></svg>
