<?xml version="1.0" encoding="UTF-8"?>
<svg xmlns="http://www.w3.org/2000/svg" xmlns:xlink="http://www.w3.org/1999/xlink" width="512" height="512" viewBox="0 0 58 58" version="1.1"><!-- Generator: Sketch 50.2 (55047) - http://www.bohemiancoding.com/sketch --><title>077 - Dam Gear</title><desc>Created with Sketch.</desc><defs/><g id="Page-1" stroke="none" stroke-width="1" fill="none" fill-rule="evenodd"><g id="077---Dam-Gear" fill-rule="nonzero"><path d="M29,2 C15.745166,2 5,12.745166 5,26 C5,39.254834 15.745166,50 29,50 C42.254834,50 53,39.254834 53,26 C53,19.6348042 50.4714358,13.5303103 45.9705627,9.02943725 C41.4696897,4.52856417 35.3651958,2 29,2 Z M29,44 C19.0588745,44 11,35.9411255 11,26 C11,16.0588745 19.0588745,8 29,8 C38.9411255,8 47,16.0588745 47,26 C46.985131,35.93496 38.93496,43.985131 29,44 Z" id="Shape" fill="#F29C1F"/><path d="M31,4.09 L31,14.18 C29.6774688,13.9399758 28.3225312,13.9399758 27,14.18 L27,4.09 C27.65,4.03 28.32,4 29,4 C29.68,4 30.35,4.03 31,4.09 Z" id="Shape" fill="#E57E25"/><path d="M22.76,15.94 C21.6576857,16.7023133 20.7023133,17.6576857 19.94,18.76 L12.57,11.39 C13.4516133,10.3866013 14.4296408,9.47221258 15.49,8.66 L22.76,15.94 Z" id="Shape" fill="#E57E25"/><path d="M18.18,23 C18.0592634,23.6598001 17.9990134,24.3292448 18,25 L18,27 L7.03,27 C7.01,26.67 7,26.34 7,26 C6.9988574,24.9962884 7.06903411,23.993764 7.21,23 L18.18,23 Z" id="Shape" fill="#E57E25"/><path d="M51,26 C51,26.34 50.99,26.67 50.97,27 L40,27 L40,25 C40.0009866,24.3292448 39.9407366,23.6598001 39.82,23 L50.79,23 C50.9309659,23.993764 51.0011426,24.9962884 51,26 Z" id="Shape" fill="#E57E25"/><path d="M45.43,11.39 L38.06,18.76 C37.6804774,18.2092455 37.252077,17.6938262 36.78,17.22 L35.24,15.94 L42.51,8.66 C43.5703592,9.47221258 44.5483867,10.3866013 45.43,11.39 Z" id="Shape" fill="#E57E25"/><path d="M29,0 C14.6405965,4.6629367e-15 3,11.6405965 3,26 C3,40.3594035 14.6405965,52 29,52 C43.3594035,52 55,40.3594035 55,26 C55,19.1043713 52.2607222,12.4911695 47.3847763,7.61522369 C42.5088305,2.73927785 35.8956287,1.11022302e-15 29,0 Z M29,48 C16.8497355,48 7,38.1502645 7,26 C7,13.8497355 16.8497355,4 29,4 C41.1502645,4 51,13.8497355 51,26 C50.985673,38.1443251 41.1443251,47.985673 29,48 Z" id="Shape" fill="#F0C419"/><path d="M56,55 L56,32 C56,31.4477153 55.5522847,31 55,31 L3,31 C2.44771525,31 2,31.4477153 2,32 L2,55 L56,55 Z" id="Shape" fill="#24AE5F"/><path d="M1,53 L57,53 C57.5522847,53 58,53.4477153 58,54 L58,58 L0,58 L0,54 C-1.11022302e-16,53.4477153 0.44771525,53 1,53 Z" id="Shape" fill="#4C8056"/><path d="M29,14 C35.0751322,14 40,18.9248678 40,25 L40,50 L18,50 L18,25 C18,18.9248678 22.9248678,14 29,14 Z" id="Shape" fill="#4FBA6F"/><circle id="Oval" fill="#F0C419" cx="29" cy="25" r="6"/><path d="M17,48 L41,48 C42.1045695,48 43,48.8954305 43,50 L43,53 L15,53 L15,50 C15,48.8954305 15.8954305,48 17,48 Z" id="Shape" fill="#14A085"/><path d="M30,26 L28,26 C27.4477153,26 27,25.5522847 27,25 C27,24.4477153 27.4477153,24 28,24 L30,24 C30.5522847,24 31,24.4477153 31,25 C31,25.5522847 30.5522847,26 30,26 Z" id="Shape" fill="#F29C1F"/></g></g></svg>
