<?xml version="1.0" encoding="UTF-8"?>
<svg xmlns="http://www.w3.org/2000/svg" xmlns:xlink="http://www.w3.org/1999/xlink" width="512" height="512" viewBox="0 0 32 58" version="1.1"><!-- Generator: Sketch 50.2 (55047) - http://www.bohemiancoding.com/sketch --><title>075 - Bolt</title><desc>Created with Sketch.</desc><defs/><g id="Page-1" stroke="none" stroke-width="1" fill="none" fill-rule="evenodd"><g id="075---Bolt" fill-rule="nonzero"><path d="M20.707,53.293 L16.707,57.293 C16.3165001,57.6833819 15.6834999,57.6833819 15.293,57.293 L11,53 L11,25 L21,25 L21,52.586 C20.9999434,52.8511948 20.8945494,53.1055073 20.707,53.293 Z" id="Shape" fill="#BDC3C7"/><path d="M9,21 L23,21 L23,26 C23,26.5522847 22.5522847,27 22,27 L10,27 C9.44771525,27 9,26.5522847 9,26 L9,21 Z" id="Shape" fill="#7F8C8D"/><path d="M11,33.9 C10.4764698,33.9000442 10.0415205,33.496291 10.0026724,32.9742041 C9.96382433,32.4521173 10.3342286,31.9884382 10.852,31.911 C14.2098181,31.3528773 17.4865779,30.3853315 20.609,29.03 C21.117102,28.8135044 21.7045044,29.049898 21.921,29.558 C22.1374956,30.066102 21.901102,30.6535044 21.393,30.87 C18.1149675,32.2916286 14.6749557,33.3058662 11.15,33.89 C11.1002404,33.896283 11.0501533,33.8996222 11,33.9 Z" id="Shape" fill="#95A5A5"/><path d="M11,39.1 C10.473764,39.1037417 10.0346744,38.6989923 9.99564402,38.1741923 C9.95661367,37.6493923 10.3309998,37.1841432 10.852,37.11 C14.2100414,36.5533595 17.4869397,35.5861086 20.609,34.23 C21.117102,34.0135044 21.7045044,34.249898 21.921,34.758 C22.1374956,35.266102 21.901102,35.8535044 21.393,36.07 C18.1149845,37.4914562 14.6749528,38.5053639 11.15,39.089 C11.1003119,39.0961065 11.0501933,39.0997819 11,39.1 Z" id="Shape" fill="#95A5A5"/><path d="M11,44.3 C10.4764698,44.3000442 10.0415205,43.896291 10.0026724,43.3742041 C9.96382433,42.8521173 10.3342286,42.3884382 10.852,42.311 C14.2096127,41.7533876 17.486103,40.7858221 20.608,39.43 C21.116102,39.2129521 21.7039521,39.448898 21.921,39.957 C22.1380479,40.465102 21.902102,41.0529521 21.394,41.27 C18.115783,42.6918573 14.6753705,43.7057782 11.15,44.289 C11.1003119,44.2961065 11.0501933,44.2997819 11,44.3 Z" id="Shape" fill="#95A5A5"/><path d="M11,49.49 C10.4768508,49.4890042 10.0428847,49.084955 10.0045866,48.5632086 C9.96628849,48.0414621 10.3366035,47.5783757 10.854,47.501 C14.2114908,46.9507897 17.4878138,45.9864343 20.608,44.63 C21.116102,44.4129521 21.703952,44.6488981 21.9209999,45.157 C22.1380478,45.665102 21.9021019,46.2529521 21.394,46.47 C18.1162543,47.8928862 14.6746335,48.9036062 11.148,49.479 C11.0989786,49.4860685 11.0495277,49.4897439 11,49.49 Z" id="Shape" fill="#95A5A5"/><path d="M11.6,54.6 C11.0781377,54.6022636 10.6422796,54.2028415 10.5990925,53.6827643 C10.5559055,53.1626871 10.9199121,52.6968445 11.435,52.613 C14.5914348,52.0478038 17.6705392,51.113735 20.609,49.83 C21.117102,49.6135044 21.7045044,49.849898 21.921,50.358 C22.1374956,50.866102 21.901102,51.4535044 21.393,51.67 C18.3096395,53.015721 15.0788161,53.994433 11.767,54.586 C11.7117926,54.5950876 11.6559498,54.599769 11.6,54.6 Z" id="Shape" fill="#95A5A5"/><path d="M0,8 L0,12 L7.4,22.176 C7.77639109,22.6937688 8.3778791,23.000089 9.018,23 L22.982,23 C23.6217684,22.9997691 24.2228162,22.6934837 24.599,22.176 L32,12 L32,8 L0,8 Z" id="Shape" fill="#3F5C6C"/><path d="M1,0 L31,0 C31.5522847,0 32,0.44771525 32,1 L32,12 L0,12 L0,1 C0,0.44771525 0.44771525,0 1,0 Z" id="Shape" fill="#35495E"/><path d="M9.868,15.5 C9.5874818,15.0349957 8.98711421,14.8788676 8.51560185,15.1483032 C8.04408949,15.4177389 7.87379784,16.0142437 8.132,16.492 L9.846,19.492 C10.0251631,19.8023233 10.3566721,19.993065 10.715,19.992 C10.8904301,19.9931715 11.0630085,19.9476108 11.215,19.86 C11.694615,19.5863086 11.8616015,18.9756663 11.588,18.496 L9.868,15.5 Z" id="Shape" fill="#547580"/><path d="M23.5,15.132 C23.0205957,14.8582327 22.4100357,15.0247491 22.136,15.504 L20.421,18.504 C20.1473985,18.9836663 20.314385,19.5943086 20.794,19.868 C20.9445242,19.9547566 21.1152641,20.0002873 21.289,20 C21.6473279,20.001065 21.9788369,19.8103233 22.158,19.5 L23.872,16.5 C24.0047431,16.2694126 24.0401211,15.995432 23.970305,15.738689 C23.900489,15.481946 23.7312356,15.2636107 23.5,15.132 Z" id="Shape" fill="#547580"/><path d="M16,15 C15.4477153,15 15,15.4477153 15,16 L15,19 C15,19.5522847 15.4477153,20 16,20 C16.5522847,20 17,19.5522847 17,19 L17,16 C17,15.4477153 16.5522847,15 16,15 Z" id="Shape" fill="#547580"/><path d="M5,3 L4,3 C3.44771525,3 3,3.44771525 3,4 C3,4.55228475 3.44771525,5 4,5 L5,5 C5.55228475,5 6,4.55228475 6,4 C6,3.44771525 5.55228475,3 5,3 Z" id="Shape" fill="#3F5C6C"/><path d="M14,3 L9,3 C8.44771525,3 8,3.44771525 8,4 C8,4.55228475 8.44771525,5 9,5 L14,5 C14.5522847,5 15,4.55228475 15,4 C15,3.44771525 14.5522847,3 14,3 Z" id="Shape" fill="#3F5C6C"/></g></g></svg>
