<?xml version="1.0" encoding="UTF-8"?>
<svg xmlns="http://www.w3.org/2000/svg" xmlns:xlink="http://www.w3.org/1999/xlink" width="512" height="512" viewBox="0 0 59 38" version="1.1"><!-- Generator: Sketch 50.2 (55047) - http://www.bohemiancoding.com/sketch --><title>074 - Drill </title><desc>Created with Sketch.</desc><defs/><g id="Page-1" stroke="none" stroke-width="1" fill="none" fill-rule="evenodd"><g id="074---Drill-" fill-rule="nonzero"><rect id="Rectangle-path" fill="#C03A2B" x="29" y="9" width="4" height="16"/><path d="M58,7.375 L48,7.375 C47.4477153,7.375 47,6.92728475 47,6.375 C47,5.82271525 47.4477153,5.375 48,5.375 L58,5.375 C58.5522847,5.375 59,5.82271525 59,6.375 C59,6.92728475 58.5522847,7.375 58,7.375 Z" id="Shape" fill="#D1D4D1"/><path d="M47.312,3.94 L43,2 L41,2 L41,11 L43,11 L47.312,9.06 C47.7443867,8.84552823 48.0128718,8.39948389 48,7.917 L48,5.083 C48.0128718,4.60051611 47.7443867,4.15447177 47.312,3.94 Z" id="Shape" fill="#5E5F62"/><rect id="Rectangle-path" fill="#A5A5A4" x="37" y="2" width="6" height="9"/><path d="M14,28 L11,28 C10.4477153,28 10,27.5522847 10,27 C10,26.4477153 10.4477153,26 11,26 L14,26 C17.533,26 20,23.284 20,19.4 L20,13 C20,12.4477153 20.4477153,12 21,12 C21.5522847,12 22,12.4477153 22,13 L22,19.4 C22,24.382 18.636,28 14,28 Z" id="Shape" fill="#C03A2B"/><path d="M14.81,11 L13,13.72 L13,15.91 C12.9983518,16.5113064 12.5113064,16.9983518 11.91,17 L8,17 L8,10 L15,10 L14.81,11 Z" id="Shape" fill="#2C3E50"/><rect id="Rectangle-path" fill="#E64C3C" x="2" y="9" width="7" height="19"/><path d="M35,21.25 C34.9981615,21.316285 34.9734269,21.3798883 34.93,21.43 C34.9057048,21.4501907 34.8787952,21.4670093 34.85,21.48 C34.3221468,21.8650345 34.0070582,22.4766771 34,23.13 L34,36.91 C33.9983518,37.5113064 33.5113064,37.9983518 32.91,38 L28.09,38 C27.4886936,37.9983518 27.0016482,37.5113064 27,36.91 L27,23.13 C26.9929418,22.4766771 26.6778532,21.8650345 26.15,21.48 C26.1212048,21.4670093 26.0942952,21.4501907 26.07,21.43 C26.0265731,21.3798883 26.0018385,21.316285 26,21.25 C25.9994618,21.1835323 26.0256281,21.1196307 26.0726294,21.0726294 C26.1196307,21.0256281 26.1835323,20.9994618 26.25,21 L34.75,21 C34.8164677,20.9994618 34.8803693,21.0256281 34.9273706,21.0726294 C34.9743719,21.1196307 35.0005382,21.1835323 35,21.25 Z" id="Shape" fill="#F0C419"/><path d="M20,11 L3,11 C2.54466933,11.0001242 2.14674332,10.6926359 2.032,10.252 L0.1,2.832 C-0.100641137,2.16307906 0.0282299779,1.43862731 0.447248296,0.879936222 C0.866266614,0.321245131 1.52565638,-0.00531762946 2.224,1.11022302e-16 L20,-6.39535847e-05 L20,11 Z" id="Shape" fill="#C03A2B"/><path d="M12,26 L12,30.717 C10.1868492,30.717 8.717,32.1868492 8.717,34 L1.094,34 C0.489800484,34 2.22044605e-16,33.5101995 0,32.906 L0,27.094 C0,26.4898005 0.489800484,26 1.094,26 L12,26 Z" id="Shape" fill="#C03A2B"/><path d="M20,0 L38,0 C38.5522847,0 39,0.44771525 39,1 L39,12 C39,12.5522847 38.5522847,13 38,13 L20,13 L20,0 Z" id="Shape" fill="#E64C3C"/><path d="M5,5 L4,5 C3.44771525,5 3,4.55228475 3,4 C3,3.44771525 3.44771525,3 4,3 L5,3 C5.55228475,3 6,3.44771525 6,4 C6,4.55228475 5.55228475,5 5,5 Z" id="Shape" fill="#E64C3C"/><path d="M13,5 L10,5 C9.44771525,5 9,4.55228475 9,4 C9,3.44771525 9.44771525,3 10,3 L13,3 C13.5522847,3 14,3.44771525 14,4 C14,4.55228475 13.5522847,5 13,5 Z" id="Shape" fill="#E64C3C"/><path d="M27,4 C26.4477153,4 26,4.44771525 26,5 L26,7 C26,7.55228475 26.4477153,8 27,8 C27.5522847,8 28,7.55228475 28,7 L28,5 C28,4.44771525 27.5522847,4 27,4 Z" id="Shape" fill="#FB7B76"/><path d="M33,5 L32,5 C31.4477153,5 31,5.44771525 31,6 C31,6.55228475 31.4477153,7 32,7 L33,7 C33.5522847,7 34,6.55228475 34,6 C34,5.44771525 33.5522847,5 33,5 Z" id="Shape" fill="#FB7B76"/><path d="M34,25 L34,27 L32,27 C31.4477153,27 31,26.5522847 31,26 C31,25.4477153 31.4477153,25 32,25 L34,25 Z" id="Shape" fill="#E57E25"/><path d="M34,31 L34,33 L32,33 C31.4477153,33 31,32.5522847 31,32 C31,31.4477153 31.4477153,31 32,31 L34,31 Z" id="Shape" fill="#E57E25"/></g></g></svg>
