<?xml version="1.0" encoding="UTF-8"?>
<svg xmlns="http://www.w3.org/2000/svg" xmlns:xlink="http://www.w3.org/1999/xlink" width="512" height="512" viewBox="0 0 37 58" version="1.1"><!-- Generator: Sketch 50.2 (55047) - http://www.bohemiancoding.com/sketch --><title>073 - Sanding Bench </title><desc>Created with Sketch.</desc><defs/><g id="Page-1" stroke="none" stroke-width="1" fill="none" fill-rule="evenodd"><g id="073---Sanding-Bench-" fill-rule="nonzero"><path d="M9,1 L6,1 C5.44771525,1 5,1.44771525 5,2 L5,34 L32,34 L32,2 C32,1.44771525 31.5522847,1 31,1 L9,1 Z" id="Shape" fill="#2FA8CC"/><path d="M2.5,7.5 L35.5,7.5 L35.5,26.5 L2.5,26.5 C1.94771525,26.5 1.5,26.0522847 1.5,25.5 L1.5,8.5 C1.5,7.94771525 1.94771525,7.5 2.5,7.5 Z" id="Shape" fill="#804537" transform="translate(18.500000, 17.000000) rotate(90.000000) translate(-18.500000, -17.000000) "/><path d="M14,3 L13,3 C12.4477153,3 12,3.44771525 12,4 C12,4.55228475 12.4477153,5 13,5 L14,5 C14.5522847,5 15,4.55228475 15,4 C15,3.44771525 14.5522847,3 14,3 Z" id="Shape" fill="#CC6F56"/><path d="M14,7 L13,7 C12.4477153,7 12,7.44771525 12,8 C12,8.55228475 12.4477153,9 13,9 L14,9 C14.5522847,9 15,8.55228475 15,8 C15,7.44771525 14.5522847,7 14,7 Z" id="Shape" fill="#CC6F56"/><path d="M14,11 L13,11 C12.4477153,11 12,11.4477153 12,12 C12,12.5522847 12.4477153,13 13,13 L14,13 C14.5522847,13 15,12.5522847 15,12 C15,11.4477153 14.5522847,11 14,11 Z" id="Shape" fill="#CC6F56"/><path d="M14,15 L13,15 C12.4477153,15 12,15.4477153 12,16 C12,16.5522847 12.4477153,17 13,17 L14,17 C14.5522847,17 15,16.5522847 15,16 C15,15.4477153 14.5522847,15 14,15 Z" id="Shape" fill="#CC6F56"/><path d="M14,19 L13,19 C12.4477153,19 12,19.4477153 12,20 C12,20.5522847 12.4477153,21 13,21 L14,21 C14.5522847,21 15,20.5522847 15,20 C15,19.4477153 14.5522847,19 14,19 Z" id="Shape" fill="#CC6F56"/><path d="M14,23 L13,23 C12.4477153,23 12,23.4477153 12,24 C12,24.5522847 12.4477153,25 13,25 L14,25 C14.5522847,25 15,24.5522847 15,24 C15,23.4477153 14.5522847,23 14,23 Z" id="Shape" fill="#CC6F56"/><path d="M14,27 L13,27 C12.4477153,27 12,27.4477153 12,28 C12,28.5522847 12.4477153,29 13,29 L14,29 C14.5522847,29 15,28.5522847 15,28 C15,27.4477153 14.5522847,27 14,27 Z" id="Shape" fill="#CC6F56"/><path d="M19,3 L18,3 C17.4477153,3 17,3.44771525 17,4 C17,4.55228475 17.4477153,5 18,5 L19,5 C19.5522847,5 20,4.55228475 20,4 C20,3.44771525 19.5522847,3 19,3 Z" id="Shape" fill="#CC6F56"/><path d="M19,7 L18,7 C17.4477153,7 17,7.44771525 17,8 C17,8.55228475 17.4477153,9 18,9 L19,9 C19.5522847,9 20,8.55228475 20,8 C20,7.44771525 19.5522847,7 19,7 Z" id="Shape" fill="#CC6F56"/><path d="M19,11 L18,11 C17.4477153,11 17,11.4477153 17,12 C17,12.5522847 17.4477153,13 18,13 L19,13 C19.5522847,13 20,12.5522847 20,12 C20,11.4477153 19.5522847,11 19,11 Z" id="Shape" fill="#CC6F56"/><path d="M19,15 L18,15 C17.4477153,15 17,15.4477153 17,16 C17,16.5522847 17.4477153,17 18,17 L19,17 C19.5522847,17 20,16.5522847 20,16 C20,15.4477153 19.5522847,15 19,15 Z" id="Shape" fill="#CC6F56"/><path d="M19,19 L18,19 C17.4477153,19 17,19.4477153 17,20 C17,20.5522847 17.4477153,21 18,21 L19,21 C19.5522847,21 20,20.5522847 20,20 C20,19.4477153 19.5522847,19 19,19 Z" id="Shape" fill="#CC6F56"/><path d="M19,23 L18,23 C17.4477153,23 17,23.4477153 17,24 C17,24.5522847 17.4477153,25 18,25 L19,25 C19.5522847,25 20,24.5522847 20,24 C20,23.4477153 19.5522847,23 19,23 Z" id="Shape" fill="#CC6F56"/><path d="M19,27 L18,27 C17.4477153,27 17,27.4477153 17,28 C17,28.5522847 17.4477153,29 18,29 L19,29 C19.5522847,29 20,28.5522847 20,28 C20,27.4477153 19.5522847,27 19,27 Z" id="Shape" fill="#CC6F56"/><path d="M23,5 L24,5 C24.5522847,5 25,4.55228475 25,4 C25,3.44771525 24.5522847,3 24,3 L23,3 C22.4477153,3 22,3.44771525 22,4 C22,4.55228475 22.4477153,5 23,5 Z" id="Shape" fill="#CC6F56"/><path d="M24,7 L23,7 C22.4477153,7 22,7.44771525 22,8 C22,8.55228475 22.4477153,9 23,9 L24,9 C24.5522847,9 25,8.55228475 25,8 C25,7.44771525 24.5522847,7 24,7 Z" id="Shape" fill="#CC6F56"/><path d="M24,11 L23,11 C22.4477153,11 22,11.4477153 22,12 C22,12.5522847 22.4477153,13 23,13 L24,13 C24.5522847,13 25,12.5522847 25,12 C25,11.4477153 24.5522847,11 24,11 Z" id="Shape" fill="#CC6F56"/><path d="M24,15 L23,15 C22.4477153,15 22,15.4477153 22,16 C22,16.5522847 22.4477153,17 23,17 L24,17 C24.5522847,17 25,16.5522847 25,16 C25,15.4477153 24.5522847,15 24,15 Z" id="Shape" fill="#CC6F56"/><path d="M24,19 L23,19 C22.4477153,19 22,19.4477153 22,20 C22,20.5522847 22.4477153,21 23,21 L24,21 C24.5522847,21 25,20.5522847 25,20 C25,19.4477153 24.5522847,19 24,19 Z" id="Shape" fill="#CC6F56"/><path d="M24,23 L23,23 C22.4477153,23 22,23.4477153 22,24 C22,24.5522847 22.4477153,25 23,25 L24,25 C24.5522847,25 25,24.5522847 25,24 C25,23.4477153 24.5522847,23 24,23 Z" id="Shape" fill="#CC6F56"/><path d="M24,27 L23,27 C22.4477153,27 22,27.4477153 22,28 C22,28.5522847 22.4477153,29 23,29 L24,29 C24.5522847,29 25,28.5522847 25,28 C25,27.4477153 24.5522847,27 24,27 Z" id="Shape" fill="#CC6F56"/><rect id="Rectangle-path" fill="#2FA8CC" x="4" y="35" width="29" height="20"/><path d="M9,40 L8,40 C7.44771525,40 7,40.4477153 7,41 C7,41.5522847 7.44771525,42 8,42 L9,42 C9.55228475,42 10,41.5522847 10,41 C10,40.4477153 9.55228475,40 9,40 Z" id="Shape" fill="#67B9CC"/><path d="M20,40 L13,40 C12.4477153,40 12,40.4477153 12,41 C12,41.5522847 12.4477153,42 13,42 L20,42 C20.5522847,42 21,41.5522847 21,41 C21,40.4477153 20.5522847,40 20,40 Z" id="Shape" fill="#67B9CC"/><rect id="Rectangle-path" fill="#41767F" x="0" y="32" width="37" height="5" rx="1"/><rect id="Rectangle-path" fill="#41767F" x="2" y="53" width="33" height="5" rx="1"/></g></g></svg>
