<?xml version="1.0" encoding="UTF-8"?>
<svg xmlns="http://www.w3.org/2000/svg" xmlns:xlink="http://www.w3.org/1999/xlink" width="512" height="512" viewBox="0 0 58 50" version="1.1"><!-- Generator: Sketch 50.2 (55047) - http://www.bohemiancoding.com/sketch --><title>072 - Pump Motor</title><desc>Created with Sketch.</desc><defs/><g id="Page-1" stroke="none" stroke-width="1" fill="none" fill-rule="evenodd"><g id="072---Pump-Motor" fill-rule="nonzero"><polygon id="Shape" fill="#285680" points="30.002 12 36.002 12 36.002 2 30.002 2 14.002 2 14.002 12"/><polygon id="Shape" fill="#285680" points="12 34 12 46 34.909 46 39 46 39 34"/><path d="M45,10 L45,36 L13,36 C5.82029825,36 4.4408921e-15,30.1797017 3.55271368e-15,23 C2.66453526e-15,15.8202983 5.82029825,10 13,10 L45,10 Z" id="Shape" fill="#4482C3"/><path d="M45,26 L57,26 C57.5522847,26 58,25.5522847 58,25 L58,21 C58,20.4477153 57.5522847,20 57,20 L45,20 L45,26 Z" id="Shape" fill="#D1D4D1"/><path d="M49,14 L49,32 C49,34.209139 47.209139,36 45,36 L44,36 L44,10 L45,10 C47.209139,10 49,11.790861 49,14 Z" id="Shape" fill="#285680"/><path d="M37,30 L12,30 C11.4477153,30 11,30.4477153 11,31 C11,31.5522847 11.4477153,32 12,32 L37,32 C37.5522847,32 38,31.5522847 38,31 C38,30.4477153 37.5522847,30 37,30 Z" id="Shape" fill="#285680"/><path d="M12,16 L37,16 C37.5522847,16 38,15.5522847 38,15 C38,14.4477153 37.5522847,14 37,14 L12,14 C11.4477153,14 11,14.4477153 11,15 C11,15.5522847 11.4477153,16 12,16 Z" id="Shape" fill="#285680"/><path d="M37,25 L12,25 C11.4477153,25 11,25.4477153 11,26 C11,26.5522847 11.4477153,27 12,27 L37,27 C37.5522847,27 38,26.5522847 38,26 C38,25.4477153 37.5522847,25 37,25 Z" id="Shape" fill="#285680"/><path d="M37,19 L12,19 C11.4477153,19 11,19.4477153 11,20 C11,20.5522847 11.4477153,21 12,21 L37,21 C37.5522847,21 38,20.5522847 38,20 C38,19.4477153 37.5522847,19 37,19 Z" id="Shape" fill="#285680"/><path d="M45,46 L45,49 C44.9831112,49.5663139 44.512419,50.012891 43.946,50 L7.054,50 C6.48758105,50.012891 6.01688876,49.5663139 6,49 L6,46 C6.01688876,45.4336861 6.48758105,44.987109 7.054,45 L43.946,45 C44.512419,44.987109 44.9831112,45.4336861 45,46 Z" id="Shape" fill="#4482C3"/><path d="M36,4 L36.382,4 C36.7284401,3.99981504 37.0501037,3.82033216 37.2321945,3.52560567 C37.4142854,3.23087919 37.4308588,2.86290246 37.276,2.553 L36.276,0.553 C36.1070593,0.214913761 35.7619449,0.000958306247 35.384,-8.8817842e-16 L14.5,-8.8817842e-16 C14.1852427,-8.8817842e-16 13.8888544,0.148194157 13.7,0.4 L12.2,2.4 C11.9727368,2.70301765 11.9361808,3.10842957 12.1055728,3.4472136 C12.2749648,3.78599762 12.6212279,4 13,4 L36,4 Z" id="Shape" fill="#4482C3"/><path d="M8,31.484 C7.80227438,31.4843538 7.60897241,31.4254925 7.445,31.315 C4.66777345,29.4595363 3.00024752,26.3400199 3.00024752,23 C3.00024752,19.6599801 4.66777345,16.5404637 7.445,14.685 C7.74183744,14.4788246 8.12682526,14.448861 8.45198818,14.6066262 C8.7771511,14.7643913 8.9918842,15.0853323 9.0136519,15.4460912 C9.0354196,15.80685 8.86083422,16.151282 8.557,16.347 C6.33435434,17.8312251 4.99970087,20.3273463 4.99970087,23 C4.99970087,25.6726537 6.33435434,28.1687749 8.557,29.653 C8.92301601,29.8980113 9.08562769,30.3536512 8.95743982,30.7750371 C8.82925195,31.1964231 8.44045222,31.4843206 8,31.484 Z" id="Shape" fill="#9FC9D3"/></g></g></svg>
