<?xml version="1.0" encoding="UTF-8"?>
<svg xmlns="http://www.w3.org/2000/svg" xmlns:xlink="http://www.w3.org/1999/xlink" width="512" height="512" viewBox="0 0 58 58" version="1.1"><!-- Generator: Sketch 50.2 (55047) - http://www.bohemiancoding.com/sketch --><title>070 - Vaccuum Press</title><desc>Created with Sketch.</desc><defs/><g id="Page-1" stroke="none" stroke-width="1" fill="none" fill-rule="evenodd"><g id="070---Vaccuum-Press" fill-rule="nonzero"><path d="M58,39 L58,57 C58,57.5522847 57.5522847,58 57,58 L51.474,58 C51.1740125,57.9999545 50.8898921,57.8652359 50.7,57.633 L42.3,47.367 C42.1101079,47.1347641 41.8259875,47.0000455 41.526,47 L16.474,47 C16.1740125,47.0000455 15.8898921,47.1347641 15.7,47.367 L7.3,57.633 C7.11010788,57.8652359 6.82598755,57.9999545 6.526,58 L1,58 C0.44771525,58 0,57.5522847 0,57 L0,39 L1,37 L57,37 L58,39 Z" id="Shape" fill="#8697CB"/><path d="M5,42 L4,42 C3.44771525,42 3,42.4477153 3,43 C3,43.5522847 3.44771525,44 4,44 L5,44 C5.55228475,44 6,43.5522847 6,43 C6,42.4477153 5.55228475,42 5,42 Z" id="Shape" fill="#556080"/><path d="M54,42 L53,42 C52.4477153,42 52,42.4477153 52,43 C52,43.5522847 52.4477153,44 53,44 L54,44 C54.5522847,44 55,43.5522847 55,43 C55,42.4477153 54.5522847,42 54,42 Z" id="Shape" fill="#556080"/><path d="M8,0 L50,0 C50.5522847,0 51,0.44771525 51,1 L51,25 L7,25 L7,1 C7,0.44771525 7.44771525,0 8,0 Z" id="Shape" fill="#8697CB"/><rect id="Rectangle-path" fill="#FAC176" transform="translate(29.000000, 11.500000) rotate(90.000000) translate(-29.000000, -11.500000) " x="19.5" y="-8.5" width="19" height="40" rx="1"/><polygon id="Shape" fill="#556080" points="58 39 51 23 7 23 0 39"/><path d="M4.53,35.637 L8.423,25.637 C8.57265533,25.2528479 8.94272636,24.9999131 9.355,25 L48.645,25 C49.0572736,24.9999131 49.4273447,25.2528479 49.577,25.637 L53.47,35.637 C53.5898862,35.9447373 53.5500979,36.2918211 53.3636815,36.5644451 C53.1772651,36.8370691 52.868265,37.0000696 52.538,37 L5.462,37 C5.13173504,37.0000696 4.82273493,36.8370691 4.6363185,36.5644451 C4.44990207,36.2918211 4.41011381,35.9447373 4.53,35.637 Z" id="Shape" fill="#FAC176"/><rect id="Rectangle-path" fill="#F9EAB0" transform="translate(29.000000, 11.500000) rotate(90.000000) translate(-29.000000, -11.500000) " x="21.5" y="-6.5" width="15" height="36" rx="1"/><path d="M8.507,33.649 L10.757,27.649 C10.9032811,27.2587604 11.2762446,27.0001565 11.693,27 L46.307,27 C46.7237554,27.0001565 47.0967189,27.2587604 47.243,27.649 L49.493,33.649 C49.6080893,33.9560279 49.5653511,34.299971 49.3786196,34.5694948 C49.1918881,34.8390185 48.8848898,34.9998769 48.557,35 L9.443,35 C9.11511025,34.9998769 8.80811191,34.8390185 8.62138042,34.5694948 C8.43464894,34.299971 8.39191067,33.9560279 8.507,33.649 Z" id="Shape" fill="#F9EAB0"/><path d="M16,7 L15,7 C14.4477153,7 14,7.44771525 14,8 C14,8.55228475 14.4477153,9 15,9 L16,9 C16.5522847,9 17,8.55228475 17,8 C17,7.44771525 16.5522847,7 16,7 Z" id="Shape" fill="#FFFFFF"/><path d="M20,9 L27,9 C27.5522847,9 28,8.55228475 28,8 C28,7.44771525 27.5522847,7 27,7 L20,7 C19.4477153,7 19,7.44771525 19,8 C19,8.55228475 19.4477153,9 20,9 Z" id="Shape" fill="#FFFFFF"/><path d="M27,30 L20,30 C19.4477153,30 19,30.4477153 19,31 C19,31.5522847 19.4477153,32 20,32 L27,32 C27.5522847,32 28,31.5522847 28,31 C28,30.4477153 27.5522847,30 27,30 Z" id="Shape" fill="#FFFFFF"/><path d="M16,30 L15,30 C14.4477153,30 14,30.4477153 14,31 C14,31.5522847 14.4477153,32 15,32 L16,32 C16.5522847,32 17,31.5522847 17,31 C17,30.4477153 16.5522847,30 16,30 Z" id="Shape" fill="#FFFFFF"/></g></g></svg>
