<?xml version="1.0" encoding="UTF-8"?>
<svg xmlns="http://www.w3.org/2000/svg" xmlns:xlink="http://www.w3.org/1999/xlink" width="512" height="512" viewBox="0 0 58 58" version="1.1"><!-- Generator: Sketch 50.2 (55047) - http://www.bohemiancoding.com/sketch --><title>069 - Saw </title><desc>Created with Sketch.</desc><defs/><g id="Page-1" stroke="none" stroke-width="1" fill="none" fill-rule="evenodd"><g id="069---Saw-" transform="translate(0.000000, -1.000000)" fill-rule="nonzero"><path d="M46,19 L45.5,17 C45.5,16.14 41.98,15.59 41.83,14.77 C41.68,13.93 44.8,12.23 44.51,11.44 C44.22,10.65 40.71,11.32 40.28,10.59 C39.85,9.86 42.19,7.21 41.64,6.56 C41.09,5.91 38.03,7.72 37.37,7.18 C36.71,6.64 38,3.36 37.25,2.94 C36.5,2.52 34.27,5.24 33.46,4.95 C32.65,4.66 32.72,1.15 31.86,1 C31.03,0.86 29.87,4.18 29,4.18 C28.13,4.18 26.97,0.86 26.14,1 C25.28,1.15 25.34,4.66 24.54,4.95 C23.74,5.24 21.49,2.51 20.75,2.93 C20.01,3.35 21.28,6.64 20.63,7.18 C19.98,7.72 16.91,5.91 16.36,6.56 C15.81,7.21 18.15,9.86 17.72,10.59 C17.29,11.32 13.79,10.64 13.49,11.44 C13.19,12.24 16.32,13.93 16.17,14.77 C16.02,15.59 12.5,16.14 12.5,17 L12,19 L23,19 L23,17 C23,13.6862915 25.6862915,11 29,11 C32.3137085,11 35,13.6862915 35,17 L35,19 L46,19 Z" id="Shape" fill="#D1D4D1"/><rect id="Rectangle-path" fill="#CB8252" x="5" y="48" width="48" height="4"/><path d="M2,23 L8,23 L8,58 C8,58.5522847 7.55228475,59 7,59 L3,59 C2.44771525,59 2,58.5522847 2,58 L2,23 Z" id="Shape" fill="#805333"/><path d="M50,23 L56,23 L56,58 C56,58.5522847 55.5522847,59 55,59 L51,59 C50.4477153,59 50,58.5522847 50,58 L50,23 Z" id="Shape" fill="#805333"/><path d="M12,22 L46,22 L46,40 C46,40.5522847 45.5522847,41 45,41 L13,41 C12.4477153,41 12,40.5522847 12,40 L12,22 Z" id="Shape" fill="#35495E"/><path d="M19,28 L17,28 C16.4477153,28 16,28.4477153 16,29 C16,29.5522847 16.4477153,30 17,30 L19,30 C19.5522847,30 20,29.5522847 20,29 C20,28.4477153 19.5522847,28 19,28 Z" id="Shape" fill="#3F5C6C"/><path d="M33,28 L23,28 C22.4477153,28 22,28.4477153 22,29 C22,29.5522847 22.4477153,30 23,30 L33,30 C33.5522847,30 34,29.5522847 34,29 C34,28.4477153 33.5522847,28 33,28 Z" id="Shape" fill="#3F5C6C"/><path d="M19,35 L39,35 C39.5522847,35 40,35.4477153 40,36 L40,41 L18,41 L18,36 C18,35.4477153 18.4477153,35 19,35 Z" id="Shape" fill="#2C3E50"/><rect id="Rectangle-path" fill="#CB8252" x="0" y="17" width="58" height="8" rx="1"/><path d="M7,20 L5,20 C4.44771525,20 4,20.4477153 4,21 C4,21.5522847 4.44771525,22 5,22 L7,22 C7.55228475,22 8,21.5522847 8,21 C8,20.4477153 7.55228475,20 7,20 Z" id="Shape" fill="#FAC176"/><path d="M21,20 L11,20 C10.4477153,20 10,20.4477153 10,21 C10,21.5522847 10.4477153,22 11,22 L21,22 C21.5522847,22 22,21.5522847 22,21 C22,20.4477153 21.5522847,20 21,20 Z" id="Shape" fill="#FAC176"/></g></g></svg>
