<?xml version="1.0" encoding="UTF-8"?>
<svg xmlns="http://www.w3.org/2000/svg" xmlns:xlink="http://www.w3.org/1999/xlink" width="512" height="512" viewBox="0 0 38 58" version="1.1"><!-- Generator: Sketch 50.2 (55047) - http://www.bohemiancoding.com/sketch --><title>068 - Drill </title><desc>Created with Sketch.</desc><defs/><g id="Page-1" stroke="none" stroke-width="1" fill="none" fill-rule="evenodd"><g id="068---Drill-" fill-rule="nonzero"><path d="M33,56 L33,36 C33,34.8954305 32.1045695,34 31,34 L13,34 L13,56 L33,56 Z" id="Shape" fill="#E64C3C"/><path d="M29,31 C28.4477153,31 28,30.5522847 28,30 L28,23 C28,22.4477153 28.4477153,22 29,22 C29.5522847,22 30,22.4477153 30,23 L30,30 C30,30.5522847 29.5522847,31 29,31 Z" id="Shape" fill="#D1D4D1"/><path d="M31,10.55 L31,23 C31,23.5522847 30.5522847,24 30,24 L28,24 C27.4477153,24 27,23.5522847 27,23 L27,11 L31,10.55 Z" id="Shape" fill="#5E5F62"/><path d="M32,0 L12,0 L12,18 L15,18 L32.11,16.1 C32.6166479,16.0439285 33.0000349,15.6157412 33,15.106 L33,1 C33,0.44771525 32.5522847,0 32,0 Z" id="Shape" fill="#E64C3C"/><path d="M6,0 L15,0 L15,56 L5,56 L5,1 C5,0.44771525 5.44771525,0 6,0 Z" id="Shape" fill="#C03A2B"/><rect id="Rectangle-path" fill="#802D40" x="0" y="52" width="38" height="6" rx="1"/><path d="M20,3 L19,3 C18.4477153,3 18,3.44771525 18,4 C18,4.55228475 18.4477153,5 19,5 L20,5 C20.5522847,5 21,4.55228475 21,4 C21,3.44771525 20.5522847,3 20,3 Z" id="Shape" fill="#FB7B76"/><path d="M29,3 L24,3 C23.4477153,3 23,3.44771525 23,4 C23,4.55228475 23.4477153,5 24,5 L29,5 C29.5522847,5 30,4.55228475 30,4 C30,3.44771525 29.5522847,3 29,3 Z" id="Shape" fill="#FB7B76"/><path d="M20,37 L19,37 C18.4477153,37 18,37.4477153 18,38 C18,38.5522847 18.4477153,39 19,39 L20,39 C20.5522847,39 21,38.5522847 21,38 C21,37.4477153 20.5522847,37 20,37 Z" id="Shape" fill="#FB7B76"/><path d="M29,37 L24,37 C23.4477153,37 23,37.4477153 23,38 C23,38.5522847 23.4477153,39 24,39 L29,39 C29.5522847,39 30,38.5522847 30,38 C30,37.4477153 29.5522847,37 29,37 Z" id="Shape" fill="#FB7B76"/></g></g></svg>
