<?xml version="1.0" encoding="UTF-8"?>
<svg xmlns="http://www.w3.org/2000/svg" xmlns:xlink="http://www.w3.org/1999/xlink" width="512" height="512" viewBox="0 0 42 58" version="1.1"><!-- Generator: Sketch 50.2 (55047) - http://www.bohemiancoding.com/sketch --><title>066 - Drill Desk</title><desc>Created with Sketch.</desc><defs/><g id="Page-1" stroke="none" stroke-width="1" fill="none" fill-rule="evenodd"><g id="066---Drill-Desk" fill-rule="nonzero"><path d="M2,15 L12,15 L12,23 C12,24.1045695 11.1045695,25 10,25 L4,25 C2.8954305,25 2,24.1045695 2,23 L2,15 Z" id="Shape" fill="#5E5F62"/><path d="M8,22 L6,22 C5.44771525,22 5,21.5522847 5,21 C5,20.4477153 5.44771525,20 6,20 L8,20 C8.55228475,20 9,20.4477153 9,21 C9,21.5522847 8.55228475,22 8,22 Z" id="Shape" fill="#A5A5A4"/><path d="M1,9 L19,9 L19,17 L1,17 C0.44771525,17 0,16.5522847 0,16 L0,10 C0,9.44771525 0.44771525,9 1,9 Z" id="Shape" fill="#285680"/><path d="M12,12 L4,12 C3.44771525,12 3,12.4477153 3,13 C3,13.5522847 3.44771525,14 4,14 L12,14 C12.5522847,14 13,13.5522847 13,13 C13,12.4477153 12.5522847,12 12,12 Z" id="Shape" fill="#4482C3"/><path d="M34,39 C33.4477153,39 33,38.5522847 33,38 L33,28 C33,27.4477153 33.4477153,27 34,27 C34.5522847,27 35,27.4477153 35,28 L35,38 C35,38.5522847 34.5522847,39 34,39 Z" id="Shape" fill="#D1D4D1"/><path d="M29,23 L29,25 L30.749,29.371 C30.9006748,29.7506505 31.2681728,29.9997412 31.677,30 L36.323,30 C36.7318272,29.9997412 37.0993252,29.7506505 37.251,29.371 L39,25 L39,23 L29,23 Z" id="Shape" fill="#5E5F62"/><rect id="Rectangle-path" fill="#A5A5A4" x="29" y="17" width="10" height="8"/><path d="M28,48 L22,48 C21.4477153,48 21,47.5522847 21,47 C21,46.4477153 21.4477153,46 22,46 L28,46 C28.5522847,46 29,46.4477153 29,47 C29,47.5522847 28.5522847,48 28,48 Z" id="Shape" fill="#A5A5A4"/><rect id="Rectangle-path" fill="#3B97D3" x="18" y="17" width="6" height="37"/><path d="M2,52 L40,52 C41.1045695,52 42,52.8954305 42,54 L42,58 L0,58 L0,54 C0,52.8954305 0.8954305,52 2,52 Z" id="Shape" fill="#2980BA"/><path d="M29,44 L39,44 C39.5522847,44 40,44.4477153 40,45 L40,47 C40,47.5522847 39.5522847,48 39,48 L28,48 L28,45 C28,44.4477153 28.4477153,44 29,44 Z" id="Shape" fill="#2980BA"/><path d="M16,3 L39,3 L39,19 L17,19 C16.4477153,19 16,18.5522847 16,18 L16,3 Z" id="Shape" fill="#2980BA"/><path d="M2,0 L38,0 C39.1045695,0 40,0.8954305 40,2 L40,4 C40,4.55228475 39.5522847,5 39,5 L1,5 C0.44771525,5 0,4.55228475 0,4 L0,2 C0,0.8954305 0.8954305,2.22044605e-16 2,0 Z" id="Shape" fill="#A5A5A4"/><path d="M23,8 L21,8 C20.4477153,8 20,8.44771525 20,9 C20,9.55228475 20.4477153,10 21,10 L23,10 C23.5522847,10 24,9.55228475 24,9 C24,8.44771525 23.5522847,8 23,8 Z" id="Shape" fill="#3B97D3"/><path d="M34,8 L27,8 C26.4477153,8 26,8.44771525 26,9 C26,9.55228475 26.4477153,10 27,10 L34,10 C34.5522847,10 35,9.55228475 35,9 C35,8.44771525 34.5522847,8 34,8 Z" id="Shape" fill="#3B97D3"/></g></g></svg>
