<?xml version="1.0" encoding="UTF-8"?>
<svg xmlns="http://www.w3.org/2000/svg" xmlns:xlink="http://www.w3.org/1999/xlink" width="512" height="512" viewBox="0 0 58 58" version="1.1"><!-- Generator: Sketch 50.2 (55047) - http://www.bohemiancoding.com/sketch --><title>064 - Compressor</title><desc>Created with Sketch.</desc><defs/><g id="Page-1" stroke="none" stroke-width="1" fill="none" fill-rule="evenodd"><g id="064---Compressor" transform="translate(0.000000, -1.000000)" fill-rule="nonzero"><path d="M53,24 L53,12 C53,11.4477153 52.5522847,11 52,11 L6,11 C5.44771525,11 5,11.4477153 5,12 L5,24 L53,24 Z" id="Shape" fill="#C03A2B"/><path d="M48,49 L53.19,49 C55.1487508,49.0050081 56.8199519,47.5840631 57.13,45.65 C57.695473,42.1279002 57.9863489,38.5671782 58,35 C57.9863489,31.4328218 57.695473,27.8720998 57.13,24.35 C56.8199519,22.4159369 55.1487508,20.9949919 53.19,21 L4.81,21 C2.85124921,20.9949919 1.18004813,22.4159369 0.87,24.35 C0.304527031,27.8720998 0.0136511416,31.4328218 -1.0658141e-14,35 C0.0136511416,38.5671782 0.304527031,42.1279002 0.87,45.65 C1.18004813,47.5840631 2.85124921,49.0050081 4.81,49 L48,49 Z" id="Shape" fill="#E64C3C"/><circle id="Oval" fill="#3F5C6C" cx="19" cy="49" r="10"/><circle id="Oval" fill="#E6E7E8" cx="19" cy="49" r="4"/><path d="M40,47 C38.8954305,47 38,47.8954305 38,49 L38,56 C38,57.1045695 38.8954305,58 40,58 L46,58 C47.1045695,58 48,57.1045695 48,56 L48,49 C48,47.8954305 47.1045695,47 46,47 L40,47 Z" id="Shape" fill="#C03A2B"/><path d="M48,55 L48,57 C48,58.1045695 47.1045695,59 46,59 L40,59 C38.8954305,59 38,58.1045695 38,57 L38,55 L48,55 Z" id="Shape" fill="#802F34"/><path d="M12,25 L9,25 C8.44771525,25 8,25.4477153 8,26 C8,26.5522847 8.44771525,27 9,27 L12,27 C12.5522847,27 13,26.5522847 13,26 C13,25.4477153 12.5522847,25 12,25 Z" id="Shape" fill="#FB7B76"/><path d="M49,25 L16,25 C15.4477153,25 15,25.4477153 15,26 C15,26.5522847 15.4477153,27 16,27 L49,27 C49.5522847,27 50,26.5522847 50,26 C50,25.4477153 49.5522847,25 49,25 Z" id="Shape" fill="#FB7B76"/><path d="M27.505,8.057 C26.7250997,5.80700992 25.0839058,3.95864367 22.942,2.918 L22.942,2.909 C20.7976368,1.86273806 18.3252325,1.71215096 16.0697417,2.49043034 C13.8142509,3.26870972 11.9608298,4.91196563 10.918,7.058 L10.909,7.058 C9.86273806,9.20236317 9.71215096,11.6747675 10.4904303,13.9302583 C11.2687097,16.1857491 12.9119656,18.0391702 15.058,19.082 L15.058,19.091 C17.2023632,20.1372619 19.6747675,20.287849 21.9302583,19.5095697 C24.1857491,18.7312903 26.0391702,17.0880344 27.082,14.942 L27.091,14.942 C28.1378426,12.7930438 28.2867942,10.3159135 27.505,8.057 Z" id="Shape" fill="#35495E"/><path d="M22.27,20.45 C19.7600961,21.3186602 17.0077291,21.1531584 14.62,19.99 L14.62,19.98 C13.6183444,17.4211647 14.4540434,14.5085077 16.66,12.87 C17.1543939,13.4941525 17.8784232,13.8939895 18.67,13.98 C18.2616428,16.70392 19.7400711,19.3609842 22.27,20.45 Z" id="Shape" fill="#3F5C6C"/><path d="M17.13,8.66 C16.5058475,9.15439394 16.1060105,9.87842319 16.02,10.67 C13.29608,10.2616428 10.6390158,11.7400711 9.55,14.27 C8.68133976,11.7600961 8.84684156,9.00772913 10.01,6.62 L10.02,6.62 C12.5788353,5.61834437 15.4914923,6.45404342 17.13,8.66 Z" id="Shape" fill="#3F5C6C"/><path d="M29,11 C29.0038305,12.5181524 28.6582464,14.0168242 27.99,15.38 L27.98,15.38 C25.4211647,16.3816556 22.5085077,15.5459566 20.87,13.34 C21.4941525,12.8456061 21.8939895,12.1215768 21.98,11.33 C24.70392,11.7383572 27.3609842,10.2599289 28.45,7.73 C28.8177475,8.78084533 29.0037427,9.8866716 29,11 Z" id="Shape" fill="#3F5C6C"/><circle id="Oval" fill="#D1D4D1" cx="39" cy="11" r="9"/><path d="M45,12 C44.4477153,12 44,11.5522847 44,11 C44.0002898,10.7208942 43.9772092,10.4422542 43.931,10.167 C43.8496507,9.80598794 43.9743234,9.42956456 44.2550872,9.18848552 C44.535851,8.94740648 44.9267986,8.88109034 45.2713574,9.01609637 C45.6159162,9.1511024 45.8577479,9.46535592 45.9,9.833 C45.9660123,10.2185059 45.9994637,10.6088835 46,11 C46,11.5522847 45.5522847,12 45,12 Z" id="Shape" fill="#14A085"/><path d="M40.166,4.1 C38.1348028,3.75686669 36.0555816,4.32583655 34.4821034,5.65537362 C32.9086251,6.98491069 32.0006491,8.94002376 32,11 C32,11.5522847 32.4477153,12 33,12 C33.5522847,12 34,11.5522847 34,11 C34.0017777,9.5286425 34.6507622,8.13257168 35.7744958,7.18277222 C36.8982293,6.23297276 38.3829076,5.82563398 39.834,6.069 C39.8888778,6.07803489 39.9443841,6.08271615 40,6.083 C40.5134132,6.07435067 40.9368353,5.67825794 40.9796702,5.16656165 C41.022505,4.65486535 40.6708296,4.19388802 40.166,4.1 Z" id="Shape" fill="#D25627"/><path d="M40.41,10.59 C40.0050579,10.5911299 39.6394071,10.3479344 39.4838929,9.9740431 C39.3283786,9.60015181 39.4137033,9.16938007 39.7,8.883 L42.29,6.293 C42.5410745,6.03304342 42.9128779,5.9287874 43.2625073,6.02030284 C43.6121368,6.11181828 43.8851817,6.38486324 43.9766972,6.73449268 C44.0682126,7.08412211 43.9639566,7.45592553 43.704,7.707 L41.114,10.297 C40.927243,10.4838162 40.6741548,10.5891498 40.41,10.59 Z" id="Shape" fill="#5E5F62"/><circle id="Oval" fill="#A5A5A4" cx="39" cy="11" r="2"/><path d="M22,11 C22,11.11 21.99,11.22 21.98,11.33 C21.8939895,12.1215768 21.4941525,12.8456061 20.87,13.34 C20.3427853,13.7714807 19.6812535,14.0049625 19,14 C18.89,14 18.78,13.99 18.67,13.98 C17.8784232,13.8939895 17.1543939,13.4941525 16.66,12.87 C16.2285193,12.3427853 15.9950375,11.6812535 16,11 C16,10.89 16.01,10.78 16.02,10.67 C16.1060105,9.87842319 16.5058475,9.15439394 17.13,8.66 C17.6572147,8.22851926 18.3187465,7.99503747 19,8 C19.11,8 19.22,8.01 19.33,8.02 C20.1215768,8.10601049 20.8456061,8.50584754 21.34,9.13 C21.7714807,9.65721473 22.0049625,10.3187465 22,11 Z" id="Shape" fill="#2C3E50"/><path d="M21.34,9.13 C20.8456061,8.50584754 20.1215768,8.10601049 19.33,8.02 C19.7383572,5.29608001 18.2599289,2.63901581 15.73,1.55 C18.2399039,0.681339756 20.9922709,0.846841564 23.38,2.01 L23.38,2.02 C24.3816556,4.57883529 23.5459566,7.49149226 21.34,9.13 Z" id="Shape" fill="#3F5C6C"/><path d="M19,21 C17.4806778,21.0008359 15.9812278,20.6547037 14.616,19.988 L14.058,19.688 C11.9508081,18.4860431 10.3496045,16.5623254 9.55,14.272 C8.68057308,11.760332 8.84681211,9.00587349 10.012,6.617 L10.312,6.059 C12.91596,1.46964544 18.6405521,-0.302481545 23.382,2.013 L23.94,2.313 C26.0462596,3.51440606 27.6470202,5.43695251 28.447,7.726 C29.3175724,10.2384367 29.1516831,12.9941428 27.986,15.384 L27.686,15.942 C26.4843587,18.0490655 24.5609987,19.6502671 22.271,20.45 C21.219731,20.8174432 20.1136289,21.003428 19,21 Z M15.879,18.368 C19.7925245,20.0249599 24.3183356,18.3288793 26.179,14.508 L26.365,14.121 C27.1346751,12.3000622 27.2037732,10.2588182 26.559,8.39 L26.559,8.384 C25.8635786,6.38672996 24.4066787,4.74542599 22.506,3.818 L22.12,3.632 C18.2064755,1.97504007 13.6806644,3.67112073 11.82,7.492 L11.634,7.879 C10.8643249,9.69993777 10.7952268,11.7411818 11.44,13.61 C12.1349224,15.6096593 13.5926451,17.2532372 15.495,18.182 L15.879,18.368 Z" id="Shape" fill="#2C3E50"/><path d="M39,21 C37.4806778,21.0008359 35.9812278,20.6547037 34.616,19.988 L34.058,19.688 C31.9508081,18.4860431 30.3496045,16.5623254 29.55,14.272 C28.6805731,11.760332 28.8468121,9.00587349 30.012,6.617 L30.312,6.059 C32.91596,1.46964544 38.6405521,-0.302481545 43.382,2.013 L43.94,2.313 C46.0462596,3.51440606 47.6470202,5.43695251 48.447,7.726 C49.3175724,10.2384367 49.1516831,12.9941428 47.986,15.384 L47.686,15.942 C46.4843587,18.0490655 44.5609987,19.6502671 42.271,20.45 C41.219731,20.8174432 40.1136289,21.003428 39,21 Z M35.879,18.368 C39.7925245,20.0249599 44.3183356,18.3288793 46.179,14.508 L46.365,14.121 C47.1346751,12.3000622 47.2037732,10.2588182 46.559,8.39 L46.559,8.384 C45.8635786,6.38672996 44.4066787,4.74542599 42.506,3.818 L42.12,3.632 C38.2064755,1.97504007 33.6806644,3.67112073 31.82,7.492 L31.634,7.879 C30.8643249,9.69993777 30.7952268,11.7411818 31.44,13.61 C32.1349224,15.6096593 33.5926451,17.2532372 35.495,18.182 L35.879,18.368 Z" id="Shape" fill="#A5A5A4"/></g></g></svg>
