<?xml version="1.0" encoding="UTF-8"?>
<svg xmlns="http://www.w3.org/2000/svg" xmlns:xlink="http://www.w3.org/1999/xlink" width="512" height="512" viewBox="0 0 54 58" version="1.1"><!-- Generator: Sketch 50.2 (55047) - http://www.bohemiancoding.com/sketch --><title>063 - Drill </title><desc>Created with Sketch.</desc><defs/><g id="Page-1" stroke="none" stroke-width="1" fill="none" fill-rule="evenodd"><g id="063---Drill-" fill-rule="nonzero"><path d="M3,2.22044605e-16 L13,0 L13,12 L3,12 C1.34314575,12 0,10.6568542 0,9 L0,3 C-4.4408921e-16,1.34314575 1.34314575,2.22044605e-16 3,2.22044605e-16 Z" id="Shape" fill="#24AE5F"/><path d="M19,18 L19,49 L30,49 L30,22 C29.9983286,21.2606472 30.2729499,20.547345 30.77,20 C30.84,19.92 30.92,19.84 31,19.76 L31,18 L19,18 Z" id="Shape" fill="#4FBA6F"/><path d="M51.172,9 L38,9 L38,3 L51.172,3 C51.7023896,3.00011327 52.2110145,3.21090125 52.586,3.586 L53.414,4.414 C53.7890987,4.78898546 53.9998867,5.29761037 54,5.828 L54,6.172 C53.9998867,6.70238963 53.7890987,7.21101454 53.414,7.586 L52.586,8.414 C52.2110145,8.78909875 51.7023896,8.99988673 51.172,9 Z" id="Shape" fill="#BDC3C7"/><path d="M33,1 L39,1 C39.5522847,1 40,1.44771525 40,2 L40,10 C40,10.5522847 39.5522847,11 39,11 L33,11 L33,1 Z" id="Shape" fill="#3F5C6C"/><path d="M31,52 C30.6398357,51.9995715 30.3077259,51.8054983 30.130552,51.4919254 C29.9533781,51.1783525 29.958515,50.7937294 30.144,50.485 L35.715,41.2 C35.9018447,40.8885832 36.0003687,40.5321684 36,40.169 L36,21 C36,19.8954305 35.1045695,19 34,19 L33,19 C32.4477153,19 32,18.5522847 32,18 C32,17.4477153 32.4477153,17 33,17 L34,17 C36.209139,17 38,18.790861 38,21 L38,40.169 C38.0000116,40.8939789 37.80299,41.6053306 37.43,42.227 L31.857,51.515 C31.6762425,51.8158613 31.3509854,51.9999332 31,52 Z" id="Shape" fill="#24AE5F"/><path d="M17,46 L33,46 C33.5522847,46 34,46.4477153 34,47 L34,56 C34,57.1045695 33.1045695,58 32,58 L18,58 C16.8954305,58 16,57.1045695 16,56 L16,47 C16,46.4477153 16.4477153,46 17,46 Z" id="Shape" fill="#3F5C6C"/><path d="M33,9 L33,19 C32.2618407,18.9948156 31.5484349,19.2659098 31,19.76 C30.92,19.84 30.84,19.92 30.77,20 L16,20 C14.8967981,19.9967052 14.0032948,19.1032019 14,18 L14,9 L33,9 Z" id="Shape" fill="#24AE5F"/><path d="M11,0 L35,0 C35.5522847,0 36,0.44771525 36,1 L36,11 C36,11.5522847 35.5522847,12 35,12 L11,12 L11,0 Z" id="Shape" fill="#4FBA6F"/><path d="M16,3 L15,3 C14.4477153,3 14,3.44771525 14,4 C14,4.55228475 14.4477153,5 15,5 L16,5 C16.5522847,5 17,4.55228475 17,4 C17,3.44771525 16.5522847,3 16,3 Z" id="Shape" fill="#71C285"/><path d="M32.706,3.293 C32.651365,3.23326271 32.5825914,3.18821603 32.506,3.162 C32.3556511,3.06205632 32.1804384,3.00596054 32,3 C29.544,3 27.581,3 26,3 C24.419,3 22.455,3 20,3 C19.8178489,3.00503395 19.640781,3.061169 19.489,3.162 C19.4124086,3.18821603 19.343635,3.23326271 19.289,3.293 C19.0025722,3.5795085 18.91731,4.0105244 19.0730814,4.38450738 C19.2288529,4.75849036 19.5948758,5.00153691 20,5 L26,5 L32,5 C32.4042139,4.99950976 32.7683824,4.75572054 32.92287,4.38219314 C33.0773576,4.00866574 32.9917798,3.57886548 32.706,3.293 Z" id="Shape" fill="#71C285"/><path d="M21,49 L20,49 C19.4477153,49 19,49.4477153 19,50 C19,50.5522847 19.4477153,51 20,51 L21,51 C21.5522847,51 22,50.5522847 22,50 C22,49.4477153 21.5522847,49 21,49 Z" id="Shape" fill="#67B9CC"/><path d="M30,49 C28.071,49 26.838,48.994 26.027,49.006 C26.017,49.006 26.008,49 25.998,49 L25,49 C24.8441278,49.0028577 24.6912026,49.0429748 24.554,49.117 C24.4531857,49.1509165 24.3633715,49.2113684 24.294,49.292 C24.0075052,49.5777714 23.9214724,50.0080359 24.0760506,50.3820013 C24.2306288,50.7559668 24.5953464,50.999914 25,51 L26,51 C26.00912,50.9985843 26.0181388,50.9965801 26.027,50.994 C27.094,50.994 28.798,50.994 29.998,51 C30.5502847,51 30.998,50.5522847 30.998,50 C30.998,49.4477153 30.5502847,49 29.998,49 L30,49 Z" id="Shape" fill="#67B9CC"/><path d="M30,26 L26,26 C25.4477153,26 25,26.4477153 25,27 L25,38 C25,38.5522847 25.4477153,39 26,39 L30,39 L30,26 Z" id="Shape" fill="#3F5C6C"/></g></g></svg>
