<?xml version="1.0" encoding="UTF-8"?>
<svg xmlns="http://www.w3.org/2000/svg" xmlns:xlink="http://www.w3.org/1999/xlink" width="512" height="512" viewBox="0 0 58 58" version="1.1"><!-- Generator: Sketch 50.2 (55047) - http://www.bohemiancoding.com/sketch --><title>062 - Radios </title><desc>Created with Sketch.</desc><defs/><g id="Page-1" stroke="none" stroke-width="1" fill="none" fill-rule="evenodd"><g id="062---Radios-" fill-rule="nonzero"><path d="M53,50 L56,50 C57.1032019,50.0032948 57.9967052,50.8967981 58,52 L58,57.5 C58,57.7761424 57.7761424,58 57.5,58 L0.5,58 C0.223857625,58 0,57.7761424 0,57.5 L0,52 C0.00329480111,50.8967981 0.896798134,50.0032948 2,50 L53,50 Z" id="Shape" fill="#3F5C6C"/><path d="M12,17 L6,17 L6.811,12.757 C6.92245909,12.3120689 7.32232061,12.0000121 7.781,12 L10.219,12 C10.6776794,12.0000121 11.0775409,12.3120689 11.189,12.757 L12,17 Z" id="Shape" fill="#3F5C6C"/><path d="M23,18 L22.059,0.938 C22.0262059,0.41006538 21.5879512,-0.00101756418 21.059,6.23514293e-16 L18.939,6.23514293e-16 C18.4100488,-0.00101756418 17.9717941,0.41006538 17.939,0.938 L17,18 L23,18 Z" id="Shape" fill="#3F5C6C"/><path d="M25,40 L25,52 C25,53.1045695 24.1045695,54 23,54 L7,54 C5.8954305,54 5,53.1045695 5,52 L5,40 L3,36 L3,18 C3,16.8954305 3.8954305,16 5,16 L25,16 C26.1045695,16 27,16.8954305 27,18 L27,36 L25,40 Z" id="Shape" fill="#F0C419"/><rect id="Rectangle-path" fill="#14A085" x="7" y="20" width="16" height="10" rx="1"/><rect id="Rectangle-path" fill="#2C3E50" x="9" y="34" width="12" height="16" rx="1"/><path d="M13,39 L17,39 C17.5522847,39 18,38.5522847 18,38 C18,37.4477153 17.5522847,37 17,37 L13,37 C12.4477153,37 12,37.4477153 12,38 C12,38.5522847 12.4477153,39 13,39 Z" id="Shape" fill="#3F5C6C"/><path d="M17,41 L13,41 C12.4477153,41 12,41.4477153 12,42 C12,42.5522847 12.4477153,43 13,43 L17,43 C17.5522847,43 18,42.5522847 18,42 C18,41.4477153 17.5522847,41 17,41 Z" id="Shape" fill="#3F5C6C"/><path d="M17,45 L13,45 C12.4477153,45 12,45.4477153 12,46 C12,46.5522847 12.4477153,47 13,47 L17,47 C17.5522847,47 18,46.5522847 18,46 C18,45.4477153 17.5522847,45 17,45 Z" id="Shape" fill="#3F5C6C"/><rect id="Rectangle-path" fill="#46B29D" x="8" y="21" width="14" height="8" rx="0.5"/><path d="M12,23 L11,23 C10.4477153,23 10,23.4477153 10,24 C10,24.5522847 10.4477153,25 11,25 L12,25 C12.5522847,25 13,24.5522847 13,24 C13,23.4477153 12.5522847,23 12,23 Z" id="Shape" fill="#65DDB9"/><path d="M19,23 L16,23 C15.4477153,23 15,23.4477153 15,24 C15,24.5522847 15.4477153,25 16,25 L19,25 C19.5522847,25 20,24.5522847 20,24 C20,23.4477153 19.5522847,23 19,23 Z" id="Shape" fill="#65DDB9"/><path d="M40,17 L34,17 L34.811,12.757 C34.9224591,12.3120689 35.3223206,12.0000121 35.781,12 L38.219,12 C38.6776794,12.0000121 39.0775409,12.3120689 39.189,12.757 L40,17 Z" id="Shape" fill="#3F5C6C"/><path d="M51,18 L50.059,0.938 C50.0262059,0.41006538 49.5879512,-0.00101756418 49.059,6.23514293e-16 L46.939,6.23514293e-16 C46.4100488,-0.00101756418 45.9717941,0.41006538 45.939,0.938 L45,18 L51,18 Z" id="Shape" fill="#3F5C6C"/><path d="M53,40 L53,52 C53,53.1045695 52.1045695,54 51,54 L35,54 C33.8954305,54 33,53.1045695 33,52 L33,40 L31,36 L31,18 C31,16.8954305 31.8954305,16 33,16 L53,16 C54.1045695,16 55,16.8954305 55,18 L55,36 L53,40 Z" id="Shape" fill="#F0C419"/><rect id="Rectangle-path" fill="#14A085" x="35" y="20" width="16" height="10" rx="1"/><rect id="Rectangle-path" fill="#2C3E50" x="37" y="34" width="12" height="16" rx="1"/><path d="M41,39 L45,39 C45.5522847,39 46,38.5522847 46,38 C46,37.4477153 45.5522847,37 45,37 L41,37 C40.4477153,37 40,37.4477153 40,38 C40,38.5522847 40.4477153,39 41,39 Z" id="Shape" fill="#3F5C6C"/><path d="M45,41 L41,41 C40.4477153,41 40,41.4477153 40,42 C40,42.5522847 40.4477153,43 41,43 L45,43 C45.5522847,43 46,42.5522847 46,42 C46,41.4477153 45.5522847,41 45,41 Z" id="Shape" fill="#3F5C6C"/><path d="M45,45 L41,45 C40.4477153,45 40,45.4477153 40,46 C40,46.5522847 40.4477153,47 41,47 L45,47 C45.5522847,47 46,46.5522847 46,46 C46,45.4477153 45.5522847,45 45,45 Z" id="Shape" fill="#3F5C6C"/><rect id="Rectangle-path" fill="#46B29D" x="36" y="21" width="14" height="8" rx="0.5"/><path d="M40,23 L39,23 C38.4477153,23 38,23.4477153 38,24 C38,24.5522847 38.4477153,25 39,25 L40,25 C40.5522847,25 41,24.5522847 41,24 C41,23.4477153 40.5522847,23 40,23 Z" id="Shape" fill="#65DDB9"/><path d="M47,23 L44,23 C43.4477153,23 43,23.4477153 43,24 C43,24.5522847 43.4477153,25 44,25 L47,25 C47.5522847,25 48,24.5522847 48,24 C48,23.4477153 47.5522847,23 47,23 Z" id="Shape" fill="#65DDB9"/></g></g></svg>
