<?xml version="1.0" encoding="UTF-8"?>
<svg xmlns="http://www.w3.org/2000/svg" xmlns:xlink="http://www.w3.org/1999/xlink" width="512" height="512" viewBox="0 0 58 58" version="1.1"><!-- Generator: Sketch 50.2 (55047) - http://www.bohemiancoding.com/sketch --><title>060 - On Off Switch </title><desc>Created with Sketch.</desc><defs/><g id="Page-1" stroke="none" stroke-width="1" fill="none" fill-rule="evenodd"><g id="060---On-Off-Switch-" fill-rule="nonzero"><path d="M13,0 L17,0 C17.5522847,0 18,0.44771525 18,1 L18,13 L12,13 L12,1 C12,0.44771525 12.4477153,0 13,0 Z" id="Shape" fill="#A5A5A4"/><path d="M12,11 L18,11 C18.5522847,11 19,11.4477153 19,12 L19,17 L11,17 L11,12 C11,11.4477153 11.4477153,11 12,11 Z" id="Shape" fill="#5E5F62"/><path d="M30,29.95 L30,57 C30,57.5522847 29.5522847,58 29,58 L1,58 C0.44771525,58 0,57.5522847 0,57 L0,17 C-1.11022302e-16,16.4477153 0.44771525,16 1,16 L30,16 L30,29.95 Z" id="Shape" fill="#A5A5A4"/><circle id="Oval" fill="#14A085" cx="15" cy="28" r="7"/><circle id="Oval" fill="#E64C3C" cx="15" cy="46" r="7"/><path d="M15,49 C13.7866133,49 12.6927044,48.2690735 12.2283614,47.1480503 C11.7640184,46.0270271 12.0206857,44.7366736 12.8786797,43.8786797 C13.7366736,43.0206857 15.0270271,42.7640184 16.1480503,43.2283614 C17.2690735,43.6927044 18,44.7866133 18,46 C18,47.6568542 16.6568542,49 15,49 Z M15,45 C14.4477153,45 14,45.4477153 14,46 C14,46.5522847 14.4477153,47 15,47 C15.5522847,47 16,46.5522847 16,46 C16,45.4477153 15.5522847,45 15,45 Z" id="Shape" fill="#FB7B76"/><path d="M15,31 C14.4477153,31 14,30.5522847 14,30 L14,26 C14,25.4477153 14.4477153,25 15,25 C15.5522847,25 16,25.4477153 16,26 L16,30 C16,30.5522847 15.5522847,31 15,31 Z" id="Shape" fill="#65DDB9"/><path d="M57.338,19.172 C57.6780689,19.0289744 57.9117671,18.71033 57.946,18.343 C57.982,17.9 58,17.45 58,17 C58,16.55 57.982,16.1 57.946,15.657 C57.9117671,15.28967 57.6780689,14.9710256 57.338,14.828 L54.1,13.437 C53.8393145,13.322411 53.640443,13.1013212 53.554,12.83 C53.3541088,12.2278351 53.1108038,11.640962 52.826,11.074 C52.6957287,10.8209386 52.6804322,10.524112 52.784,10.259 L54.092,6.983 C54.2316338,6.64166156 54.1720616,6.25117526 53.937,5.967 C53.648,5.628 53.343,5.297 53.025,4.979 C52.707,4.661 52.376,4.356 52.037,4.067 C51.7528247,3.8319384 51.3623384,3.77236618 51.021,3.912 L47.739,5.22 C47.4674538,5.32767859 47.1624009,5.31123861 46.904,5.175 C46.4673112,4.94843282 46.0175147,4.74807802 45.557,4.575 C45.289,4.475 45.015,4.4 44.741,4.321 L43.172,0.662 C43.0289744,0.321931063 42.71033,0.0882328658 42.343,0.054 C41.9,0.018 41.45,0 41,0 C40.55,0 40.1,0.018 39.657,0.054 C39.28967,0.0882328658 38.9710256,0.321931063 38.828,0.662 L37.259,4.317 C36.985,4.396 36.711,4.475 36.443,4.571 C35.9824853,4.74407802 35.5326888,4.94443282 35.096,5.171 C34.8375991,5.30723861 34.5325462,5.32367859 34.261,5.216 L30.983,3.912 C30.6416616,3.77236618 30.2511753,3.8319384 29.967,4.067 C29.628,4.356 29.297,4.661 28.979,4.979 C28.661,5.297 28.356,5.628 28.067,5.967 C27.8319384,6.25117526 27.7723662,6.64166156 27.912,6.983 L29.22,10.259 C29.3235678,10.524112 29.3082713,10.8209386 29.178,11.074 C28.8931962,11.640962 28.6498912,12.2278351 28.45,12.83 C28.363557,13.1013212 28.1646855,13.322411 27.904,13.437 L24.662,14.828 C24.3219311,14.9710256 24.0882329,15.28967 24.054,15.657 C24.018,16.1 24,16.55 24,17 C24,17.45 24.018,17.9 24.054,18.343 C24.0882329,18.71033 24.3219311,19.0289744 24.662,19.172 L27.9,20.563 C28.1606855,20.677589 28.359557,20.8986788 28.446,21.17 C28.6457148,21.7719068 28.8890258,22.3584601 29.174,22.925 C29.3043143,23.1784064 29.3196086,23.4755534 29.216,23.741 L27.908,27.017 C27.7683662,27.3583384 27.8279384,27.7488247 28.063,28.033 C28.352,28.372 28.657,28.703 28.975,29.021 C29.293,29.339 29.624,29.644 29.963,29.933 C30.2471753,30.1680616 30.6376616,30.2276338 30.979,30.088 L34.255,28.78 C34.5204466,28.6763914 34.8175936,28.6916857 35.071,28.822 C35.6375399,29.1069742 36.2240932,29.3502852 36.826,29.55 C37.0973212,29.636443 37.318411,29.8353145 37.433,30.096 L38.824,33.338 C38.9670256,33.6780689 39.28567,33.9117671 39.653,33.946 C40.1,33.982 40.55,34 41,34 C41.45,34 41.9,33.982 42.343,33.946 C42.71033,33.9117671 43.0289744,33.6780689 43.172,33.338 L44.563,30.1 C44.677589,29.8393145 44.8986788,29.640443 45.17,29.554 C45.7719068,29.3542852 46.3584601,29.1109742 46.925,28.826 C47.1784064,28.6956857 47.4755534,28.6803914 47.741,28.784 L51.017,30.092 C51.3583384,30.2316338 51.7488247,30.1720616 52.033,29.937 C52.372,29.648 52.703,29.343 53.021,29.025 C53.339,28.707 53.644,28.376 53.933,28.037 C54.1680616,27.7528247 54.2276338,27.3623384 54.088,27.021 L52.78,23.741 C52.6763914,23.4755534 52.6916857,23.1784064 52.822,22.925 C53.1069742,22.3584601 53.3502852,21.7719068 53.55,21.17 C53.636443,20.8986788 53.8353145,20.677589 54.096,20.563 L57.338,19.172 Z" id="Shape" fill="#35495E"/><path d="M50,17 C49.9829358,21.548054 46.5697592,25.3659237 42.0520112,25.8903649 C37.5342631,26.4148062 33.3372466,23.4803632 32.2787576,19.0571645 C31.2202685,14.6339657 33.6342494,10.1174848 37.9,8.54 C39.9041289,7.82098761 42.0958711,7.82098761 44.1,8.54 C47.6374999,9.85493831 49.9884989,13.2260318 50,17 Z" id="Shape" fill="#547580"/><path d="M45,17 C45.0003866,18.8106033 43.7844973,20.3956825 42.0356318,20.8644621 C40.2867664,21.3332417 38.441095,20.5688072 37.5358395,19.000752 C36.6305841,17.4326968 36.8915168,15.4520966 38.172,14.172 C38.5820597,13.7598979 39.0768217,13.4418854 39.622,13.24 C40.5128001,12.9199993 41.4871999,12.9199993 42.378,13.24 C42.9231783,13.4418854 43.4179403,13.7598979 43.828,14.172 C44.5814872,14.9197676 45.0036573,15.9384511 45,17 Z" id="Shape" fill="#35495E"/></g></g></svg>
