<?xml version="1.0" encoding="UTF-8"?>
<svg xmlns="http://www.w3.org/2000/svg" xmlns:xlink="http://www.w3.org/1999/xlink" width="512" height="512" viewBox="0 0 58 58" version="1.1"><!-- Generator: Sketch 50.2 (55047) - http://www.bohemiancoding.com/sketch --><title>059 - Bearing </title><desc>Created with Sketch.</desc><defs/><g id="Page-1" stroke="none" stroke-width="1" fill="none" fill-rule="evenodd"><g id="059---Bearing-" fill-rule="nonzero"><path d="M29,0 C12.9837423,-2.66453526e-15 -1.55431223e-15,12.9837423 -3.55271368e-15,29 C-5.55111512e-15,45.0162577 12.9837423,58 29,58 C45.0162577,58 58,45.0162577 58,29 C58,12.9837423 45.0162577,6.66133815e-15 29,0 Z M29,42 C21.8202983,42 16,36.1797017 16,29 C16,21.8202983 21.8202983,16 29,16 C36.1797017,16 42,21.8202983 42,29 C41.9933843,36.1769596 36.1769596,41.9933843 29,42 Z" id="Shape" fill="#556080"/><path d="M29,4 C15.1928813,4 4,15.1928813 4,29 C4,42.8071187 15.1928813,54 29,54 C42.8071187,54 54,42.8071187 54,29 C53.9878702,15.1979087 42.8020913,4.01212984 29,4 Z M29,42 C21.8202983,42 16,36.1797017 16,29 C16,21.8202983 21.8202983,16 29,16 C36.1797017,16 42,21.8202983 42,29 C41.9933843,36.1769596 36.1769596,41.9933843 29,42 Z" id="Shape" fill="#2C3E50"/><path d="M29,12 C19.6111593,12 12,19.6111593 12,29 C12,38.3888407 19.6111593,46 29,46 C38.3888407,46 46,38.3888407 46,29 C45.9867809,19.6166402 38.3833598,12.0132191 29,12 Z M29,42 C21.8202983,42 16,36.1797017 16,29 C16,21.8202983 21.8202983,16 29,16 C36.1797017,16 42,21.8202983 42,29 C41.9933843,36.1769596 36.1769596,41.9933843 29,42 Z" id="Shape" fill="#556080"/><circle id="Oval" fill="#2FA8CC" cx="29" cy="8" r="4"/><circle id="Oval" fill="#2FA8CC" cx="14.151" cy="14.151" r="4"/><circle id="Oval" fill="#2FA8CC" cx="8" cy="29" r="4"/><circle id="Oval" fill="#2FA8CC" cx="14.151" cy="43.849" r="4"/><circle id="Oval" fill="#2FA8CC" cx="29" cy="50" r="4"/><circle id="Oval" fill="#2FA8CC" cx="43.849" cy="43.849" r="4"/><circle id="Oval" fill="#2FA8CC" cx="50" cy="29" r="4"/><circle id="Oval" fill="#2FA8CC" cx="43.849" cy="14.151" r="4"/></g></g></svg>
