<?xml version="1.0" encoding="UTF-8"?>
<svg xmlns="http://www.w3.org/2000/svg" xmlns:xlink="http://www.w3.org/1999/xlink" width="512" height="512" viewBox="0 0 58 58" version="1.1"><!-- Generator: Sketch 50.2 (55047) - http://www.bohemiancoding.com/sketch --><title>058 - Pick Axe </title><desc>Created with Sketch.</desc><defs/><g id="Page-1" stroke="none" stroke-width="1" fill="none" fill-rule="evenodd"><g id="058---Pick-Axe-" fill-rule="nonzero"><path d="M39.556,24.119 C39.556,24.119 18.422,42.176 5.878,57.629 C5.69969339,57.8485396 5.43676057,57.9823078 5.15432489,57.9971729 C4.8718892,58.0120379 4.59636708,57.9066094 4.396,57.707 L0.296,53.607 C0.0963905856,53.4066329 -0.00903789457,53.1311108 0.00582714157,52.8486751 C0.0206921777,52.5662394 0.154460391,52.3033066 0.374,52.125 C15.827,39.581 33.884,18.447 33.884,18.447 L41.684,10.647 L43.815,8.51 C44.2054999,8.11961806 44.8385001,8.11961806 45.229,8.51 L49.49,12.771 C49.8803819,13.1614999 49.8803819,13.7945001 49.49,14.185 L47.359,16.316 L39.556,24.119 Z" id="Shape" fill="#805333"/><path d="M48.778,17.734 C48.778,17.734 57.278,26.234 57.993,36.866 C57.9926694,36.8736229 57.9951618,36.8811 58,36.887 L57.993,36.866 C57.823,36.455 55.056,29.985 45.678,20.324 L37.678,12.324 C28.015,2.944 21.545,0.177 21.134,0.007 L21.113,0 C21.1189,0.00483820564 21.1263771,0.00733056384 21.134,0.007 C31.767,0.724 40.266,9.222 40.266,9.222 L48.778,17.734 Z" id="Shape" fill="#35495E"/><path d="M39.565,10.063 L33.757,17.033 C33.4260428,17.4302499 33.4524916,18.0142901 33.818,18.38 L39.618,24.18 C39.9837099,24.5455084 40.5677501,24.5719572 40.965,24.241 L47.935,18.433 C48.1498196,18.2528826 48.2791697,17.9908647 48.2915283,17.7107986 C48.303887,17.4307325 48.1981192,17.1583394 48,16.96 L41.04,10 C40.8418741,9.80097136 40.5691903,9.6944246 40.2886147,9.70640851 C40.0080392,9.71839241 39.7454335,9.84780238 39.565,10.063 Z" id="Shape" fill="#7F8C8D"/></g></g></svg>
