<?xml version="1.0" encoding="UTF-8"?>
<svg xmlns="http://www.w3.org/2000/svg" xmlns:xlink="http://www.w3.org/1999/xlink" width="512" height="512" viewBox="0 0 60 59" version="1.1"><!-- Generator: Sketch 50.2 (55047) - http://www.bohemiancoding.com/sketch --><title>057 - Roller </title><desc>Created with Sketch.</desc><defs/><g id="Page-1" stroke="none" stroke-width="1" fill="none" fill-rule="evenodd"><g id="057---Roller-" fill-rule="nonzero"><path d="M14,14 L7,14 C6.44771525,14 6,14.4477153 6,15 C6,15.5522847 6.44771525,16 7,16 L14,16 C14.5522847,16 15,15.5522847 15,15 C15,14.4477153 14.5522847,14 14,14 Z" id="Shape" fill="#F29C1F"/><path d="M14.5,22.132 L7.5,18.132 C7.02061684,17.8558577 6.4081424,18.0206169 6.13200004,18.5 C5.85585767,18.9793832 6.02061686,19.5918576 6.5,19.868 L13.5,23.868 C13.9794043,24.1417673 14.5899643,23.9752509 14.864,23.496 C15.1391065,23.018689 14.9763441,22.4087773 14.5,22.132 Z" id="Shape" fill="#F29C1F"/><path d="M54,14 L45,14 C44.4477153,14 44,14.4477153 44,15 C44,15.5522847 44.4477153,16 45,16 L54,16 C54.5522847,16 55,15.5522847 55,15 C55,14.4477153 54.5522847,14 54,14 Z" id="Shape" fill="#F29C1F"/><path d="M52.5,18.132 L45.5,22.132 C45.1059379,22.3574282 44.9131754,22.8200224 45.0305596,23.2585697 C45.1479438,23.697117 45.5460172,24.0015645 46,24 C46.1754301,24.0011715 46.3480085,23.9556108 46.5,23.868 L53.5,19.868 C53.9650043,19.5874818 54.1211324,18.9871142 53.8516968,18.5156019 C53.5822611,18.0440895 52.9857563,17.8737978 52.508,18.132 L52.5,18.132 Z" id="Shape" fill="#F29C1F"/><rect id="Rectangle-path" fill="#F0C419" x="52" y="13" width="5" height="8" rx="1"/><path d="M46,0 L14,0 C13.4477153,0 13,0.44771525 13,1 L13,27 L17.25,34 L17,38 L43,38 L42.75,34 L47,27 L47,1 C47,0.44771525 46.5522847,0 46,0 Z" id="Shape" fill="#F0C419"/><polygon id="Shape" fill="#F29C1F" points="30 27 47 27 42.75 34 30 34 17.25 34 13 27"/><path d="M4.36,42 C4.79322816,39.404371 5.8131232,36.9418478 7.342,34.8 C7.71739459,34.2936233 8.31166187,33.9964896 8.942,34 L51.061,34 C51.6913381,33.9964896 52.2856054,34.2936233 52.661,34.8 C54.1888109,36.9421198 55.2076721,39.4046241 55.64,42 L55.64,50 C55.2067718,52.595629 54.1868768,55.0581522 52.658,57.2 C52.2826054,57.7063767 51.6883381,58.0035104 51.058,58 L8.939,58 C8.30866187,58.0035104 7.71439459,57.7063767 7.339,57.2 C5.81118906,55.0578802 4.79232789,52.5953759 4.36,50 L4.36,42 Z" id="Shape" fill="#3F5C6C"/><rect id="Rectangle-path" fill="#67B9CC" x="17" y="4" width="26" height="15" rx="2"/><rect id="Rectangle-path" fill="#F0C419" x="1" y="42" width="58" height="8" rx="1"/><path d="M59,59 L1,59 C0.44771525,59 6.76353751e-17,58.5522847 0,58 C-6.76353751e-17,57.4477153 0.44771525,57 1,57 L59,57 C59.5522847,57 60,57.4477153 60,58 C60,58.5522847 59.5522847,59 59,59 Z" id="Shape" fill="#805333"/><path d="M34,19 C34,16.790861 32.209139,15 30,15 C27.790861,15 26,16.790861 26,19 L34,19 Z" id="Shape" fill="#547580"/><path d="M43,37 L32,37 C31.4477153,37 31,37.4477153 31,38 C31,38.5522847 31.4477153,39 32,39 L43,39 C43.5522847,39 44,38.5522847 44,38 C44,37.4477153 43.5522847,37 43,37 Z" id="Shape" fill="#547580"/><path d="M49,37 L47,37 C46.4477153,37 46,37.4477153 46,38 C46,38.5522847 46.4477153,39 47,39 L49,39 C49.5522847,39 50,38.5522847 50,38 C50,37.4477153 49.5522847,37 49,37 Z" id="Shape" fill="#547580"/><path d="M28,53 L17,53 C16.4477153,53 16,53.4477153 16,54 C16,54.5522847 16.4477153,55 17,55 L28,55 C28.5522847,55 29,54.5522847 29,54 C29,53.4477153 28.5522847,53 28,53 Z" id="Shape" fill="#547580"/><path d="M13,53 L11,53 C10.4477153,53 10,53.4477153 10,54 C10,54.5522847 10.4477153,55 11,55 L13,55 C13.5522847,55 14,54.5522847 14,54 C14,53.4477153 13.5522847,53 13,53 Z" id="Shape" fill="#547580"/><path d="M33,8 C33,8.55228475 32.5522847,9 32,9 L28,9 C27.4477153,9 27,8.55228475 27,8 C27,7.44771525 27.4477153,7 28,7 L29,7 L29,4 L31,4 L31,7 L32,7 C32.5522847,7 33,7.44771525 33,8 Z" id="Shape" fill="#547580"/><path d="M5,46 C5,46.5522847 4.55228475,47 4,47 L1,47 L1,45 L4,45 C4.55228475,45 5,45.4477153 5,46 Z" id="Shape" fill="#F29C1F"/><path d="M59,45 L59,47 L56,47 C55.4477153,47 55,46.5522847 55,46 C55,45.4477153 55.4477153,45 56,45 L59,45 Z" id="Shape" fill="#F29C1F"/><path d="M19,22 L17,22 C16.4477153,22 16,22.4477153 16,23 C16,23.5522847 16.4477153,24 17,24 L19,24 C19.5522847,24 20,23.5522847 20,23 C20,22.4477153 19.5522847,22 19,22 Z" id="Shape" fill="#E6E7E8"/><path d="M43,22 L41,22 C40.4477153,22 40,22.4477153 40,23 C40,23.5522847 40.4477153,24 41,24 L43,24 C43.5522847,24 44,23.5522847 44,23 C44,22.4477153 43.5522847,22 43,22 Z" id="Shape" fill="#E6E7E8"/><rect id="Rectangle-path" fill="#F0C419" x="3" y="13" width="5" height="8" rx="1"/></g></g></svg>
