<?xml version="1.0" encoding="UTF-8"?>
<svg xmlns="http://www.w3.org/2000/svg" xmlns:xlink="http://www.w3.org/1999/xlink" width="512" height="512" viewBox="0 0 60 59" version="1.1"><!-- Generator: Sketch 50.2 (55047) - http://www.bohemiancoding.com/sketch --><title>055 - Crane </title><desc>Created with Sketch.</desc><defs/><g id="Page-1" stroke="none" stroke-width="1" fill="none" fill-rule="evenodd"><g id="055---Crane-" fill-rule="nonzero"><path d="M48,38 C47.4477153,38 47,37.5522847 47,37 L47,9 C47,8.44771525 47.4477153,8 48,8 C48.5522847,8 49,8.44771525 49,9 L49,37 C49,37.5522847 48.5522847,38 48,38 Z" id="Shape" fill="#95A5A5"/><path d="M49,41.8 L49,38 C49,37.4477153 48.5522847,37 48,37 C47.4477153,37 47,37.4477153 47,38 L47,42.62 C47,43.1722847 47.4477153,43.62 48,43.62 C48.4851707,43.620473 48.9000069,43.9691365 48.9839455,44.4469912 C49.0678841,44.924846 48.7967056,45.3940129 48.3407402,45.5598031 C47.8847749,45.7255933 47.3755857,45.5401702 47.133,45.12 C46.8486124,44.6603179 46.250411,44.50983 45.7823603,44.7802232 C45.3143096,45.0506164 45.1458472,45.6440067 45.402,46.12 C46.0628895,47.2755438 47.4062154,47.8573808 48.701185,47.5489816 C49.9961546,47.2405823 50.9330254,46.1157125 51.0021232,44.786321 C51.071221,43.4569294 50.2560185,42.240992 49,41.8 Z" id="Shape" fill="#BDC3C7"/><path d="M51,38.62 C51,39.1722847 50.5522847,39.62 50,39.62 L46,39.62 C45.4477153,39.62 45,39.1722847 45,38.62 L45,36.62 C45,36.0677153 45.4477153,35.62 46,35.62 L50,35.62 C50.5522847,35.62 51,36.0677153 51,36.62 L51,38.62 Z" id="Shape" fill="#E64C3C"/><path d="M29,4.97 L57.79,5.96 C58.3959798,5.91572859 58.929346,6.3565271 59,6.96 L59,9.04 C58.929346,9.6434729 58.3959798,10.0842714 57.79,10.04 L29,11.03 L11,11.65 L2.32,11.95 C2.01364375,11.99396 1.70237894,11.9143183 1.45478362,11.7286218 C1.20718829,11.5429254 1.0435782,11.2664108 1,10.96 L1,5.04 C1.0435782,4.73358921 1.20718829,4.45707465 1.45478362,4.27137815 C1.70237894,4.08568166 2.01364375,4.00604005 2.32,4.05 L11,4.35 L29,4.97 Z" id="Shape" fill="#E64C3C"/><path d="M26,17 C26,16.984 25.992,16.971 25.991,16.956 C25.9842931,16.8861296 25.9705569,16.8171138 25.95,16.75 C25.9381836,16.6913666 25.9214581,16.6338306 25.9,16.578 C25.8713336,16.5256692 25.8378557,16.4761219 25.8,16.43 C25.7621446,16.3709659 25.7178754,16.3163001 25.668,16.267 C25.657,16.256 25.652,16.242 25.64,16.231 C25.6016319,16.2067385 25.5615226,16.1853468 25.52,16.167 C25.4628545,16.1270521 25.4014849,16.0935168 25.337,16.067 C25.2719208,16.0464913 25.2048993,16.0327518 25.137,16.026 C25.0919883,16.0141812 25.0462121,16.0054938 25,16 L15,16 C14.9544373,16.0059128 14.9093321,16.0149339 14.865,16.027 C14.7971007,16.0337518 14.7300792,16.0474913 14.665,16.068 C14.6003312,16.0941297 14.538919,16.1276882 14.482,16.168 C14.4404774,16.1863468 14.4003681,16.2077385 14.362,16.232 C14.35,16.243 14.345,16.257 14.334,16.268 C14.2841246,16.3173001 14.2398554,16.3719659 14.202,16.431 C14.1641443,16.4771219 14.1306664,16.5266692 14.102,16.579 C14.0805419,16.6348306 14.0638164,16.6923666 14.052,16.751 C14.0314431,16.8181138 14.0177069,16.8871296 14.011,16.957 C14.011,16.972 14.002,16.985 14.002,17.001 L14.002,52 C14.002,52.016 14.01,52.029 14.011,52.044 C14.0172244,52.1139405 14.0309704,52.1830062 14.052,52.25 C14.0638164,52.3086334 14.0805419,52.3661694 14.102,52.422 C14.1711097,52.5315548 14.2486794,52.6355383 14.334,52.733 C14.345,52.744 14.35,52.758 14.362,52.769 C14.4107978,52.8031211 14.4626923,52.8325838 14.517,52.857 C14.658649,52.9549164 14.8278754,53.0050186 15,53 L25,53 C25.1728021,53.0054487 25.3427956,52.9553269 25.485,52.857 C25.5393077,52.8325838 25.5912022,52.8031211 25.64,52.769 C25.652,52.758 25.657,52.744 25.668,52.733 C25.7533206,52.6355383 25.8308903,52.5315548 25.9,52.422 C25.9214581,52.3661694 25.9381836,52.3086334 25.95,52.25 C25.9710296,52.1830062 25.9847756,52.1139405 25.991,52.044 C25.991,52.029 26,52.016 26,52 L26,17 Z M24,37.413 L21.351,34.5 L24,31.587 L24,37.413 Z M20,33.013 L16.326,28.972 L20,24.562 L23.674,28.972 L20,33.013 Z M16,31.587 L18.649,34.5 L16,37.413 L16,31.587 Z M20,35.987 L23.674,40.028 L20,44.438 L16.326,40.028 L20,35.987 Z M21.3,23 L24,19.762 L24,26.238 L21.3,23 Z M20,21.438 L17.135,18 L22.865,18 L20,21.438 Z M18.7,23 L16,26.238 L16,19.762 L18.7,23 Z M16,42.762 L18.7,46 L16,49.238 L16,42.762 Z M20,47.562 L22.865,51 L17.135,51 L20,47.562 Z M21.3,46 L24,42.762 L24,49.238 L21.3,46 Z" id="Shape" fill="#E64C3C"/><rect id="Rectangle-path" fill="#C03A2B" x="11" y="0" width="18" height="18" rx="1"/><rect id="Rectangle-path" fill="#B0D3F0" transform="translate(20.000000, 7.000000) rotate(90.000000) translate(-20.000000, -7.000000) " x="17" y="2" width="6" height="10" rx="1"/><path d="M21,15 L19,15 C18.4477153,15 18,14.5522847 18,14 C18,13.4477153 18.4477153,13 19,13 L21,13 C21.5522847,13 22,13.4477153 22,14 C22,14.5522847 21.5522847,15 21,15 Z" id="Shape" fill="#E64C3C"/><path d="M15,51 L25,51 C26.6568542,51 28,52.3431458 28,54 L28,58 L12,58 L12,54 C12,52.3431458 13.3431458,51 15,51 Z" id="Shape" fill="#C03A2B"/><path d="M46,59 L1,59 C0.44771525,59 6.76353751e-17,58.5522847 0,58 C-6.76353751e-17,57.4477153 0.44771525,57 1,57 L46,57 C46.5522847,57 47,57.4477153 47,58 C47,58.5522847 46.5522847,59 46,59 Z" id="Shape" fill="#CB8252"/><path d="M59,59 L50,59 C49.4477153,59 49,58.5522847 49,58 C49,57.4477153 49.4477153,57 50,57 L59,57 C59.5522847,57 60,57.4477153 60,58 C60,58.5522847 59.5522847,59 59,59 Z" id="Shape" fill="#CB8252"/><polygon id="Shape" fill="#E6E7E8" points="21 10 23 4 19 4 17 10"/></g></g></svg>
