<?xml version="1.0" encoding="UTF-8"?>
<svg xmlns="http://www.w3.org/2000/svg" xmlns:xlink="http://www.w3.org/1999/xlink" width="512" height="512" viewBox="0 0 58 59" version="1.1"><!-- Generator: Sketch 50.2 (55047) - http://www.bohemiancoding.com/sketch --><title>053 - Digger</title><desc>Created with Sketch.</desc><defs/><g id="Page-1" stroke="none" stroke-width="1" fill="none" fill-rule="evenodd"><g id="053---Digger" fill-rule="nonzero"><polygon id="Shape" fill="#67B9CC" points="39 18 37 1 29 1 21 1 19 18"/><polygon id="Shape" fill="#B0D3F0" points="27 17 33 2 28 2 22 17"/><path d="M40,2 L18,2 C17.4477153,2 17,1.55228475 17,1 C17,0.44771525 17.4477153,1.01453063e-16 18,0 L40,0 C40.5522847,3.38176876e-17 41,0.44771525 41,1 C41,1.55228475 40.5522847,2 40,2 Z" id="Shape" fill="#E57E25"/><rect id="Rectangle-path" fill="#F0C419" x="14" y="23" width="29" height="10"/><rect id="Rectangle-path" fill="#F29C1F" x="14" y="18" width="30" height="7"/><path d="M17,24 L17,33 L5,33 L5,24 C5.0032948,22.8967981 5.89679813,22.0032948 7,22 L15,22 C16.1032019,22.0032948 16.9967052,22.8967981 17,24 Z" id="Shape" fill="#35495E"/><path d="M53,24 L53,33 L41,33 L41,24 C41.0032948,22.8967981 41.8967981,22.0032948 43,22 L51,22 C52.1032019,22.0032948 52.9967052,22.8967981 53,24 Z" id="Shape" fill="#35495E"/><path d="M0.247,57.8 C1.8196523,49.3103856 2.42717922,40.6701518 2.058,32.044 C2.04598703,31.7712453 2.14601638,31.5054382 2.33487055,31.3082745 C2.52372472,31.1111107 2.784981,30.9997356 3.058,31 L54.944,31 C55.217019,30.9997356 55.4782753,31.1111107 55.6671294,31.3082745 C55.8559836,31.5054382 55.956013,31.7712453 55.944,32.044 C55.5741616,40.6700763 56.1810175,49.3103095 57.753,57.8 C57.8128273,58.0930575 57.7383342,58.3975089 57.549956,58.6298356 C57.3615778,58.8621622 57.0790951,58.9979687 56.78,59 L1.22,59 C0.920904877,58.9979687 0.638422195,58.8621622 0.450043999,58.6298356 C0.261665804,58.3975089 0.187172698,58.0930575 0.247,57.8 Z" id="Shape" fill="#F29C1F"/><path d="M10,26 C10,26.5522847 9.55228475,27 9,27 L5,27 L5,25 L9,25 C9.55228475,25 10,25.4477153 10,26 Z" id="Shape" fill="#3F5C6C"/><path d="M17,26 L17,28 L13,28 C12.4477153,28 12,27.5522847 12,27 C12,26.4477153 12.4477153,26 13,26 L17,26 Z" id="Shape" fill="#3F5C6C"/><path d="M53,25 L53,27 L49,27 C48.4477153,27 48,26.5522847 48,26 C48,25.4477153 48.4477153,25 49,25 L53,25 Z" id="Shape" fill="#3F5C6C"/><path d="M46,27 C46,27.5522847 45.5522847,28 45,28 L41,28 L41,26 L45,26 C45.5522847,26 46,26.4477153 46,27 Z" id="Shape" fill="#3F5C6C"/><path d="M47,19 L11,19 C10.4477153,19 10,18.5522847 10,18 C10,17.4477153 10.4477153,17 11,17 L47,17 C47.5522847,17 48,17.4477153 48,18 C48,18.5522847 47.5522847,19 47,19 Z" id="Shape" fill="#F0C419"/><path d="M33,31 L32.67,25 L32.05,13.94 C32.0182202,13.4112761 31.5796773,12.9990458 31.05,13 L26.95,13 C26.4203227,12.9990458 25.9817798,13.4112761 25.95,13.94 L25.33,25 L25,31 L33,31 Z" id="Shape" fill="#E57E25"/><path d="M7,37 L51,37 C51.5522847,37 52,36.5522847 52,36 C52,35.4477153 51.5522847,35 51,35 L7,35 C6.44771525,35 6,35.4477153 6,36 C6,36.5522847 6.44771525,37 7,37 Z" id="Shape" fill="#F0C419"/><path d="M52,53 L6,53 C5.44771525,53 5,53.4477153 5,54 C5,54.5522847 5.44771525,55 6,55 L52,55 C52.5522847,55 53,54.5522847 53,54 C53,53.4477153 52.5522847,53 52,53 Z" id="Shape" fill="#F0C419"/></g></g></svg>
