<?xml version="1.0" encoding="UTF-8"?>
<svg xmlns="http://www.w3.org/2000/svg" xmlns:xlink="http://www.w3.org/1999/xlink" width="512" height="512" viewBox="0 0 58 57" version="1.1"><!-- Generator: Sketch 50.2 (55047) - http://www.bohemiancoding.com/sketch --><title>050 - Plan Manager </title><desc>Created with Sketch.</desc><defs/><g id="Page-1" stroke="none" stroke-width="1" fill="none" fill-rule="evenodd"><g id="050---Plan-Manager-" fill-rule="nonzero"><path d="M54,10 L53,10 L53,17 L4,17 C1.790861,17 2.22044605e-16,18.790861 0,21 L0,53 C0,55.21 1.79,56 4,56 L7,56 L7,49 L54,49 C56.209139,49 58,47.209139 58,45 L58,14 C58,11.790861 56.209139,10 54,10 Z" id="Shape" fill="#2980BA"/><path d="M7,49 L7,57 L4,57 C1.790861,57 2.22044605e-16,55.209139 0,53 C-2.22044605e-16,50.790861 1.790861,49 4,49 L7,49 Z" id="Shape" fill="#3B97D3"/><path d="M58,13 L58,45 C58,42.790861 56.209139,41 54,41 L52,41 L52,9 L54,9 C56.209139,9 58,10.790861 58,13 Z" id="Shape" fill="#3B97D3"/><path d="M37.96,14.62 L37.81,14.29 C37.62,13.92 37.07,13.1 37.01,13 L37,13 L37,11 L21,11 L21,13 L20.99,13 C20.93,13.1 20.38,13.92 20.19,14.29 L20.04,14.62 C19.9277138,15.0446143 19.9140316,15.4892856 20,15.92 L20,18.55 C20.0016207,19.3314883 20.3147352,20.080084 20.87,20.63 C21.3016232,21.0608736 21.5942098,21.6112152 21.71,22.21 C22.0931488,23.8580232 22.8226402,25.4056358 23.85,26.75 C23.9454111,26.8846144 23.9977166,27.0450179 24,27.21 L24,31.47 C24.0032776,31.5819949 23.9755955,31.6927234 23.92,31.79 L29,34 L34.08,31.79 C34.0244045,31.6927234 33.9967224,31.5819949 34,31.47 L34,27.21 C34.0022834,27.0450179 34.0545889,26.8846144 34.15,26.75 C35.1773598,25.4056358 35.9068512,23.8580232 36.29,22.21 C36.4057902,21.6112152 36.6983768,21.0608736 37.13,20.63 C37.6852648,20.080084 37.9983793,19.3314883 38,18.55 L38,15.92 C38.0859684,15.4892856 38.0722862,15.0446143 37.96,14.62 Z" id="Shape" fill="#FDD7AD"/><path d="M20,13 L20,9.241 C19.868992,5.37920427 22.888521,2.14003253 26.75,2 L31.25,2 C35.111479,2.14003253 38.131008,5.37920427 38,9.241 L38,13 L20,13 Z" id="Shape" fill="#F29C1F"/><path d="M27,11 L27,0.75 C26.9783631,0.359152847 27.2762996,0.0241417998 27.667,0 L30.333,0 C30.7237004,0.0241417998 31.0216369,0.359152847 31,0.75 L31,11 L27,11 Z" id="Shape" fill="#E57E25"/><path d="M38.273,32.227 L43.373,35.469 C45.0019025,36.4459078 45.9990434,38.205613 46,40.105 L46,44 L12,44 L12,40.1 C12.0009566,38.200613 12.9980975,36.4409078 14.627,35.464 L19.727,32.222 L38.273,32.227 Z" id="Shape" fill="#E6E7E8"/><rect id="Rectangle-path" fill="#F0C419" x="17" y="10" width="24" height="4" rx="2"/><path d="M23.171,29.636 L29,32.227 L26.14,35.66 C25.8751329,35.9775976 25.4940636,36.1758385 25.0819626,36.2104152 C24.6698615,36.2449918 24.2610864,36.1130215 23.947,35.844 L19.727,32.227 L21.307,30.121 C21.7394284,29.5447632 22.5125583,29.3436001 23.171,29.636 Z" id="Shape" fill="#D1D4D1"/><path d="M34.829,29.636 L29,32.227 L31.86,35.66 C32.1248671,35.9775976 32.5059364,36.1758385 32.9180374,36.2104152 C33.3301385,36.2449918 33.7389136,36.1130215 34.053,35.844 L38.273,32.227 L36.693,30.121 C36.2605716,29.5447632 35.4874417,29.3436001 34.829,29.636 Z" id="Shape" fill="#D1D4D1"/><path d="M31.96,35.76 L31.95,35.77 L30,38 L28,38 L26.05,35.77 L26.04,35.76 C26.0781762,35.7318894 26.1118894,35.6981762 26.14,35.66 L29,32.23 L31.86,35.66 C31.8881106,35.6981762 31.9218238,35.7318894 31.96,35.76 Z" id="Shape" fill="#DF4D60"/><polygon id="Shape" fill="#FF5364" points="32.86 43.82 32.86 44 25.14 44 25.14 43.82 28 38 30 38"/><path d="M49,45 L9,45 C8.44771525,45 8,44.5522847 8,44 C8,43.4477153 8.44771525,43 9,43 L49,43 C49.5522847,43 50,43.4477153 50,44 C50,44.5522847 49.5522847,45 49,45 Z" id="Shape" fill="#285680"/></g></g></svg>
