<?xml version="1.0" encoding="UTF-8"?>
<svg xmlns="http://www.w3.org/2000/svg" xmlns:xlink="http://www.w3.org/1999/xlink" width="512" height="512" viewBox="0 0 46 58" version="1.1"><!-- Generator: Sketch 50.2 (55047) - http://www.bohemiancoding.com/sketch --><title>049 - Screw </title><desc>Created with Sketch.</desc><defs/><g id="Page-1" stroke="none" stroke-width="1" fill="none" fill-rule="evenodd"><g id="049---Screw-" fill-rule="nonzero"><path d="M46,1 L46,3.06 C46.0030808,3.65533065 45.738794,4.22061082 45.28,4.6 L34,14 L12,14 L0.72,4.6 C0.261206016,4.22061082 -0.0030808149,3.65533065 1.88737914e-15,3.06 L1.88737914e-15,1 C9.99200722e-16,0.44771525 0.44771525,0 1,0 L18,0 C18.5522847,0 19,0.44771525 19,1 L19,5 C19,5.55228475 19.4477153,6 20,6 L26,6 C26.5522847,6 27,5.55228475 27,5 L27,1 C27,0.44771525 27.4477153,0 28,0 L45,0 C45.5522847,0 46,0.44771525 46,1 Z" id="Shape" fill="#95A5A5"/><path d="M14,28 L32,28 L32,49 C32,53.9705627 27.9705627,58 23,58 C18.0294373,58 14,53.9705627 14,49 L14,28 Z" id="Shape" fill="#BDC3C7"/><path d="M14,34.21 C13.4477153,34.21 13,33.7622847 13,33.21 C13,32.6577153 13.4477153,32.21 14,32.21 C22.617,32.21 31.412,27.194 31.5,27.144 C31.8095704,26.9625156 32.1926495,26.9608167 32.5038174,27.1395481 C32.8149854,27.3182796 33.006531,27.6500366 33.0057421,28.0088817 C33.0049532,28.3677268 32.8119508,28.6986384 32.5,28.876 C32.123,29.094 23.163,34.21 14,34.21 Z" id="Shape" fill="#95A5A5"/><path d="M14,39.41 C13.4477153,39.41 13,38.9622847 13,38.41 C13,37.8577153 13.4477153,37.41 14,37.41 C22.617,37.41 31.412,32.395 31.5,32.344 C31.97786,32.0723097 32.5854205,32.2372584 32.8602745,32.7133057 C33.1351286,33.189353 32.9742136,33.7979942 32.5,34.076 C32.123,34.294 23.163,39.41 14,39.41 Z" id="Shape" fill="#95A5A5"/><path d="M14,44.61 C13.4477153,44.61 13,44.1622847 13,43.61 C13,43.0577153 13.4477153,42.61 14,42.61 C22.617,42.61 31.412,37.595 31.5,37.544 C31.97786,37.2723097 32.5854205,37.4372584 32.8602745,37.9133057 C33.1351286,38.389353 32.9742136,38.9979942 32.5,39.276 C32.123,39.494 23.163,44.61 14,44.61 Z" id="Shape" fill="#95A5A5"/><path d="M14.609,49.8 C14.0567153,49.8066274 13.6036274,49.3642847 13.597,48.812 C13.5903726,48.2597153 14.0327153,47.8066274 14.585,47.8 C23.023,47.589 31.416,42.793 31.5,42.744 C31.8095706,42.5653672 32.1909252,42.5654577 32.500411,42.7442373 C32.8098969,42.9230169 33.0004958,43.2533249 33.000411,43.6107373 C33.0003262,43.9681497 32.8095706,44.2983672 32.5,44.477 C32.141,44.685 23.577,49.577 14.636,49.8 L14.609,49.8 Z" id="Shape" fill="#95A5A5"/><path d="M16.939,54.84 C16.4108241,54.8368495 15.9761755,54.4234792 15.94654,53.896126 C15.9169045,53.3687727 16.3025026,52.9093072 16.827,52.847 C21.7116777,52.1608786 26.4398013,50.6304053 30.8,48.324 C31.1165373,48.1578715 31.4976584,48.1732331 31.7997985,48.3642982 C32.1019387,48.5553633 32.2791957,48.8931046 32.2647985,49.2502982 C32.2504014,49.6074918 32.0465373,49.9298715 31.73,50.096 C27.1514787,52.5140876 22.1870938,54.1169975 17.059,54.833 C17.019204,54.8380411 16.9791122,54.8403797 16.939,54.84 Z" id="Shape" fill="#95A5A5"/><path d="M12,14 L34,14 L34,26 C34,27.1045695 33.1045695,28 32,28 L14,28 C12.8954305,28 12,27.1045695 12,26 L12,14 Z" id="Shape" fill="#547580"/></g></g></svg>
