<?xml version="1.0" encoding="UTF-8"?>
<svg xmlns="http://www.w3.org/2000/svg" xmlns:xlink="http://www.w3.org/1999/xlink" width="512" height="512" viewBox="0 0 46 59" version="1.1"><!-- Generator: Sketch 50.2 (55047) - http://www.bohemiancoding.com/sketch --><title>048 - Bolt </title><desc>Created with Sketch.</desc><defs/><g id="Page-1" stroke="none" stroke-width="1" fill="none" fill-rule="evenodd"><g id="048---Bolt-" fill-rule="nonzero"><path d="M12,16 L34,16 L34,29.862 C34,30.4290329 33.7747471,30.9728415 33.3737943,31.3737943 C32.9728415,31.7747471 32.4290329,32 31.862,32 L14.138,32 C13.5709671,32 13.0271585,31.7747471 12.6262057,31.3737943 C12.2252529,30.9728415 12,30.4290329 12,29.862 L12,16 Z" id="Shape" fill="#547580"/><rect id="Rectangle-path" fill="#7F8C8D" x="12" y="0" width="22" height="18"/><path d="M14,0 L14,18 L1,18 C0.44771525,18 0,17.5522847 0,17 L0,1 C0,0.44771525 0.44771525,0 1,0 L14,0 Z" id="Shape" fill="#95A5A5"/><path d="M46,1 L46,17 C46,17.5522847 45.5522847,18 45,18 L32,18 L32,0 L45,0 C45.5522847,0 46,0.44771525 46,1 Z" id="Shape" fill="#95A5A5"/><path d="M14,32 L32,32 L32,57 C32,57.5522847 31.5522847,58 31,58 L15,58 C14.4477153,58 14,57.5522847 14,57 L14,32 Z" id="Shape" fill="#BDC3C7"/><path d="M14,39 C13.4477153,39 13,38.5522847 13,38 C13,37.4477153 13.4477153,37 14,37 C22.626,37 31.427,32.175 31.515,32.126 C31.995358,31.8779775 32.5858622,32.0566248 32.8481759,32.5293303 C33.1104896,33.0020358 32.9496279,33.597631 32.485,33.874 C32.109,34.083 23.154,39 14,39 Z" id="Shape" fill="#95A5A5"/><path d="M14,44 C13.4477153,44 13,43.5522847 13,43 C13,42.4477153 13.4477153,42 14,42 C22.626,42 31.427,37.175 31.515,37.126 C31.995358,36.8779775 32.5858622,37.0566248 32.8481759,37.5293303 C33.1104896,38.0020358 32.9496279,38.597631 32.485,38.874 C32.109,39.083 23.154,44 14,44 Z" id="Shape" fill="#95A5A5"/><path d="M14,49 C13.4477153,49 13,48.5522847 13,48 C13,47.4477153 13.4477153,47 14,47 C22.626,47 31.427,42.175 31.515,42.126 C31.8281993,41.9397034 32.2179451,41.9385319 32.5322586,42.1229424 C32.8465722,42.3073528 33.0356848,42.6481454 33.0258532,43.0124303 C33.0160217,43.3767153 32.8088027,43.7068115 32.485,43.874 C32.109,44.083 23.154,49 14,49 Z" id="Shape" fill="#95A5A5"/><path d="M14,54 C13.4477153,54 13,53.5522847 13,53 C13,52.4477153 13.4477153,52 14,52 C22.626,52 31.427,47.175 31.515,47.126 C31.8281993,46.9397034 32.2179451,46.9385319 32.5322586,47.1229424 C32.8465722,47.3073528 33.0356848,47.6481454 33.0258532,48.0124303 C33.0160217,48.3767153 32.8088027,48.7068115 32.485,48.874 C32.109,49.083 23.154,54 14,54 Z" id="Shape" fill="#95A5A5"/><path d="M14.879,58.99 C14.3267153,58.999665 13.871165,58.5597847 13.8615,58.0075 C13.851835,57.4552153 14.2917153,56.999665 14.844,56.99 C23.208,56.69 31.432,52.171 31.515,52.125 C31.8281993,51.9387034 32.2179451,51.9375319 32.5322586,52.1219424 C32.8465722,52.3063528 33.0356848,52.6471454 33.0258532,53.0114303 C33.0160217,53.3757153 32.8088027,53.7058115 32.485,53.873 C32.134,54.073 23.754,58.673 14.916,58.988 L14.879,58.99 Z" id="Shape" fill="#95A5A5"/></g></g></svg>
