<?xml version="1.0" encoding="UTF-8"?>
<svg xmlns="http://www.w3.org/2000/svg" xmlns:xlink="http://www.w3.org/1999/xlink" width="512" height="512" viewBox="0 0 58 58" version="1.1"><!-- Generator: Sketch 50.2 (55047) - http://www.bohemiancoding.com/sketch --><title>047 - Planning </title><desc>Created with Sketch.</desc><defs/><g id="Page-1" stroke="none" stroke-width="1" fill="none" fill-rule="evenodd"><g id="047---Planning-" fill-rule="nonzero"><path d="M7,50 L7,58 L4,58 C1.790861,58 2.22044605e-16,56.209139 0,54 C-2.22044605e-16,51.790861 1.790861,50 4,50 L7,50 Z" id="Shape" fill="#F29C1F"/><path d="M58,14 L58,46 C58,43.790861 56.209139,42 54,42 L52,42 L52,10 L54,10 C56.209139,10 58,11.790861 58,14 Z" id="Shape" fill="#F3D55B"/><path d="M58,46 C58,48.209139 56.209139,50 54,50 L4,50 C1.790861,50 2.22044605e-16,51.790861 0,54 L0,22 C-2.22044605e-16,19.790861 1.790861,18 4,18 L52,18 L52,42 L54,42 C56.209139,42 58,43.790861 58,46 Z" id="Shape" fill="#F0C419"/><path d="M26.96,16.64 L18.66,43.45 L17.22,42.17 C16.08,41.16 15.69,39.08 16.25,37 L23.63,13.68 L26.96,16.64 Z" id="Shape" fill="#2980BA"/><path d="M18,47 C17.690353,47.0003137 17.3980282,46.8571644 17.2084113,46.6123649 C17.0187944,46.3675654 16.9532784,46.0487344 17.031,45.749 L17.693,43.197 C17.77596,42.844154 18.0433595,42.5638236 18.3918976,42.4643052 C18.7404356,42.3647868 19.1155392,42.4616627 19.3722994,42.7175081 C19.6290596,42.9733536 19.7272737,43.348109 19.629,43.697 L18.967,46.249 C18.8535005,46.6904666 18.4558228,46.9993145 18,47 Z" id="Shape" fill="#FFFFFF"/><path d="M34.33,13.76 L41.69,37 C42.25,39.08 41.86,41.16 40.72,42.17 L39.28,43.45 L30.98,16.66" id="Shape" fill="#2980BA"/><path d="M40,47 C39.5438047,46.9997703 39.1455926,46.6908268 39.032,46.249 L38.375,43.7 C38.2369288,43.1651122 38.5586122,42.6195712 39.0935,42.4815 C39.6283878,42.3434288 40.1739288,42.6651122 40.312,43.2 L40.969,45.752 C41.0351723,46.0090009 40.9964738,46.2817653 40.8614277,46.5102183 C40.7263816,46.7386713 40.5060644,46.904075 40.249,46.97 C40.167552,46.990215 40.0839187,47.0002913 40,47 Z" id="Shape" fill="#FFFFFF"/><polygon id="Shape" fill="#35495E" points="22.82 30 35.11 30 33.88 26 24.06 26"/><path d="M27,5.35 L27,1 C27,0.44771525 27.4477153,0 28,0 L30,0 C30.5522847,0 31,0.44771525 31,1 L31,5.35" id="Shape" fill="#35495E"/><circle id="Oval" fill="#95A5A5" cx="29.001" cy="10.999" r="5.999"/></g></g></svg>
