<?xml version="1.0" encoding="UTF-8"?>
<svg xmlns="http://www.w3.org/2000/svg" xmlns:xlink="http://www.w3.org/1999/xlink" width="512" height="512" viewBox="0 0 58 58" version="1.1"><!-- Generator: Sketch 50.2 (55047) - http://www.bohemiancoding.com/sketch --><title>046 - ID Badge</title><desc>Created with Sketch.</desc><defs/><g id="Page-1" stroke="none" stroke-width="1" fill="none" fill-rule="evenodd"><g id="046---ID-Badge" fill-rule="nonzero"><path d="M35,14 L55,14 C56.6568542,14 58,15.3431458 58,17 L58,55 C58,56.6568542 56.6568542,58 55,58 L3,58 C1.34314575,58 2.22044605e-16,56.6568542 0,55 L0,17 C-2.22044605e-16,15.3431458 1.34314575,14 3,14 L35,14 Z" id="Shape" fill="#41767F"/><path d="M7,32 C7,34.954 8.025,37.529 10.105,38.917 C10.673817,39.3114297 11.0092834,39.9628718 11,40.655 L11,42 L17,42 L17,40.655 C16.9907166,39.9628718 17.326183,39.3114297 17.895,38.917 C19.975,37.529 21,34.954 21,32 L7,32 Z" id="Shape" fill="#FDD7AD"/><path d="M23,45 L23,50 L19,50 L19,42 L20,42 C21.6568542,42 23,43.3431458 23,45 Z" id="Shape" fill="#FDD7AD"/><path d="M9,42 L9,50 L5,50 L5,45 C5,43.3431458 6.34314575,42 8,42 L9,42 Z" id="Shape" fill="#FDD7AD"/><rect id="Rectangle-path" fill="#F0C419" x="9" y="42" width="10" height="8"/><rect id="Rectangle-path" fill="#2FA8CC" x="30" y="27" width="12" height="4" rx="1"/><rect id="Rectangle-path" fill="#2FA8CC" x="30" y="46" width="23" height="4" rx="1"/><path d="M34,0 L24,0 C23.4477153,0 23,0.44771525 23,1 L23,15 C23,15.5522847 23.4477153,16 24,16 L34,16 C34.5522847,16 35,15.5522847 35,15 L35,1 C35,0.44771525 34.5522847,0 34,0 Z M29,8 C27.8954305,8 27,7.1045695 27,6 C27,4.8954305 27.8954305,4 29,4 C30.1045695,4 31,4.8954305 31,6 C31,6.53043298 30.7892863,7.03914081 30.4142136,7.41421356 C30.0391408,7.78928632 29.530433,8 29,8 Z" id="Shape" fill="#2FA8CC"/><path d="M30,37 L53,37 C53.5522847,37 54,36.5522847 54,36 C54,35.4477153 53.5522847,35 53,35 L30,35 C29.4477153,35 29,35.4477153 29,36 C29,36.5522847 29.4477153,37 30,37 Z" id="Shape" fill="#67B9CC"/><path d="M53,40 L30,40 C29.4477153,40 29,40.4477153 29,41 C29,41.5522847 29.4477153,42 30,42 L53,42 C53.5522847,42 54,41.5522847 54,41 C54,40.4477153 53.5522847,40 53,40 Z" id="Shape" fill="#67B9CC"/><path d="M16.353,23.08 C19.6857438,23.6759711 22.0844716,26.6154428 22,30 L22,32 L6,32 L6,30 C5.91552835,26.6154428 8.31425617,23.6759711 11.647,23.08 L16.353,23.08 Z" id="Shape" fill="#F29C1F"/><path d="M12,32 L12,22 C12,21.4477153 12.4477153,21 13,21 L15,21 C15.5522847,21 16,21.4477153 16,22 L16,32 L12,32 Z" id="Shape" fill="#E57E25"/><path d="M24,33 L4,33 C3.44771525,33 3,32.5522847 3,32 C3,31.4477153 3.44771525,31 4,31 L24,31 C24.5522847,31 25,31.4477153 25,32 C25,32.5522847 24.5522847,33 24,33 Z" id="Shape" fill="#F0C419"/></g></g></svg>
