<?xml version="1.0" encoding="UTF-8"?>
<svg xmlns="http://www.w3.org/2000/svg" xmlns:xlink="http://www.w3.org/1999/xlink" width="512" height="512" viewBox="0 0 58 44" version="1.1"><!-- Generator: Sketch 50.2 (55047) - http://www.bohemiancoding.com/sketch --><title>045 - Machine Data </title><desc>Created with Sketch.</desc><defs/><g id="Page-1" stroke="none" stroke-width="1" fill="none" fill-rule="evenodd"><g id="045---Machine-Data-" fill-rule="nonzero"><rect id="Rectangle-path" fill="#3D324C" x="0" y="0" width="58" height="44" rx="2"/><rect id="Rectangle-path" fill="#67B9CC" x="34" y="29" width="19" height="10" rx="1"/><polygon id="Shape" fill="#B0D3F0" points="43 39 49 29 44 29 38 39"/><path d="M52,22 L40,22 C39.4477153,22 39,22.4477153 39,23 C39,23.5522847 39.4477153,24 40,24 L52,24 C52.5522847,24 53,23.5522847 53,23 C53,22.4477153 52.5522847,22 52,22 Z" id="Shape" fill="#F0C419"/><path d="M36,22 L32,22 C31.4477153,22 31,22.4477153 31,23 C31,23.5522847 31.4477153,24 32,24 L36,24 C36.5522847,24 37,23.5522847 37,23 C37,22.4477153 36.5522847,22 36,22 Z" id="Shape" fill="#F0C419"/><path d="M52,17 L48,17 C47.4477153,17 47,17.4477153 47,18 C47,18.5522847 47.4477153,19 48,19 L52,19 C52.5522847,19 53,18.5522847 53,18 C53,17.4477153 52.5522847,17 52,17 Z" id="Shape" fill="#F0C419"/><path d="M32,19 L44,19 C44.5522847,19 45,18.5522847 45,18 C45,17.4477153 44.5522847,17 44,17 L32,17 C31.4477153,17 31,17.4477153 31,18 C31,18.5522847 31.4477153,19 32,19 Z" id="Shape" fill="#F0C419"/><path d="M52,12 L42,12 C41.4477153,12 41,12.4477153 41,13 C41,13.5522847 41.4477153,14 42,14 L52,14 C52.5522847,14 53,13.5522847 53,13 C53,12.4477153 52.5522847,12 52,12 Z" id="Shape" fill="#F0C419"/><path d="M32,14 L38,14 C38.5522847,14 39,13.5522847 39,13 C39,12.4477153 38.5522847,12 38,12 L32,12 C31.4477153,12 31,12.4477153 31,13 C31,13.5522847 31.4477153,14 32,14 Z" id="Shape" fill="#F0C419"/><path d="M47,9 L52,9 C52.5522847,9 53,8.55228475 53,8 C53,7.44771525 52.5522847,7 52,7 L47,7 C46.4477153,7 46,7.44771525 46,8 C46,8.55228475 46.4477153,9 47,9 Z" id="Shape" fill="#F0C419"/><path d="M32,9 L43,9 C43.5522847,9 44,8.55228475 44,8 C44,7.44771525 43.5522847,7 43,7 L32,7 C31.4477153,7 31,7.44771525 31,8 C31,8.55228475 31.4477153,9 32,9 Z" id="Shape" fill="#F0C419"/><circle id="Oval" fill="#FF5364" cx="17" cy="35" r="3"/><circle id="Oval" fill="#FF5364" cx="7" cy="35" r="3"/><circle id="Oval" fill="#FF5364" cx="27" cy="35" r="3"/><path d="M26.3,17.565 C26.6766254,17.4445198 26.9442454,17.1098963 26.979,16.716 C26.996,16.479 27.004,16.241 27.004,16 C27.004,15.759 26.996,15.521 26.979,15.284 C26.9442454,14.8901037 26.6766254,14.5554802 26.3,14.435 L25.256,14.087 C24.9437766,13.9785569 24.704368,13.7242086 24.615,13.406 C24.4414631,12.8313244 24.2106377,12.2755343 23.926,11.747 C23.7643663,11.4582958 23.7539128,11.1088497 23.898,10.811 L24.391,9.826 C24.572147,9.47434418 24.5248599,9.04836644 24.271,8.745 C24.115,8.56566667 23.952,8.39133333 23.782,8.222 C23.612,8.05266667 23.4376667,7.88966667 23.259,7.733 C22.9555241,7.47939649 22.5297064,7.43212718 22.178,7.613 L21.193,8.106 C20.8950411,8.24957476 20.5458439,8.23912869 20.257,8.078 C19.7284657,7.79336232 19.1726756,7.5625369 18.598,7.389 C18.2797914,7.29963204 18.0254431,7.06022341 17.917,6.748 L17.565,5.7 C17.4445198,5.32337458 17.1098963,5.05575458 16.716,5.021 C16.479,5.008 16.241,5 16,5 C15.759,5 15.521,5.008 15.284,5.025 C14.8901037,5.05975458 14.5554802,5.32737458 14.435,5.704 L14.087,6.748 C13.9785569,7.06022341 13.7242086,7.29963204 13.406,7.389 C12.8313244,7.5625369 12.2755343,7.79336232 11.747,8.078 C11.4581561,8.23912869 11.1089589,8.24957476 10.811,8.106 L9.826,7.613 C9.47429362,7.43212718 9.04847589,7.47939649 8.745,7.733 C8.56633333,7.889 8.392,8.052 8.222,8.222 C8.052,8.392 7.889,8.56633333 7.733,8.745 C7.47914011,9.04836644 7.43185304,9.47434418 7.613,9.826 L8.106,10.811 C8.25008717,11.1088497 8.23963366,11.4582958 8.078,11.747 C7.79336232,12.2755343 7.5625369,12.8313244 7.389,13.406 C7.29963204,13.7242086 7.06022341,13.9785569 6.748,14.087 L5.7,14.435 C5.32337458,14.5554802 5.05575458,14.8901037 5.021,15.284 C5.008,15.521 5,15.759 5,16 C5,16.241 5.008,16.479 5.025,16.716 C5.05975458,17.1098963 5.32737458,17.4445198 5.704,17.565 L6.748,17.913 C7.06022341,18.0214431 7.29963204,18.2757914 7.389,18.594 C7.5625369,19.1686756 7.79336232,19.7244657 8.078,20.253 C8.23963366,20.5417042 8.25008717,20.8911503 8.106,21.189 L7.613,22.174 C7.43212718,22.5257064 7.47939649,22.9515241 7.733,23.255 C7.889,23.4343333 8.052,23.6086667 8.222,23.778 C8.392,23.9473333 8.56633333,24.1103333 8.745,24.267 C9.04836644,24.5208599 9.47434418,24.568147 9.826,24.387 L10.811,23.894 C11.1088497,23.7499128 11.4582958,23.7603663 11.747,23.922 C12.2755343,24.2066377 12.8313244,24.4374631 13.406,24.611 C13.7242086,24.700368 13.9785569,24.9397766 14.087,25.252 L14.435,26.296 C14.5554802,26.6726254 14.8901037,26.9402454 15.284,26.975 C15.521,26.992 15.759,27 16,27 C16.241,27 16.479,26.992 16.716,26.975 C17.1098963,26.9402454 17.4445198,26.6726254 17.565,26.296 L17.913,25.252 C18.0214431,24.9397766 18.2757914,24.700368 18.594,24.611 C19.1686756,24.4374631 19.7244657,24.2066377 20.253,23.922 C20.5417042,23.7603663 20.8911503,23.7499128 21.189,23.894 L22.174,24.387 C22.5256558,24.568147 22.9516336,24.5208599 23.255,24.267 C23.4343333,24.111 23.6086667,23.948 23.778,23.778 C23.9473333,23.608 24.1103333,23.4336667 24.267,23.255 C24.5206035,22.9515241 24.5678728,22.5257064 24.387,22.174 L23.894,21.189 C23.7499128,20.8911503 23.7603663,20.5417042 23.922,20.253 C24.2066377,19.7244657 24.4374631,19.1686756 24.611,18.594 C24.700368,18.2757914 24.9397766,18.0214431 25.252,17.913 L26.3,17.565 Z" id="Shape" fill="#67B9CC"/><circle id="Oval" fill="#7D6599" cx="16" cy="16" r="5"/><path d="M16,17 C15.8693227,16.99842 15.7402223,16.971241 15.62,16.92 C15.3687697,16.8290762 15.1709238,16.6312303 15.08,16.38 C14.9733951,16.1378817 14.9733951,15.8621183 15.08,15.62 C15.1709238,15.3687697 15.3687697,15.1709238 15.62,15.08 C15.8023679,15.0000893 16.0051358,14.9791133 16.2,15.02 C16.2626625,15.0308873 16.3233376,15.0511123 16.38,15.08 C16.4437381,15.1018554 16.5042729,15.1321227 16.56,15.17 C16.6123935,15.2069128 16.6624865,15.2469872 16.71,15.29 C16.7982527,15.3872607 16.8692709,15.4988607 16.92,15.62 C17.0267285,15.8620922 17.0267285,16.1379078 16.92,16.38 C16.8692709,16.5011393 16.7982527,16.6127393 16.71,16.71 C16.6624865,16.7530128 16.6123935,16.7930872 16.56,16.83 C16.5042729,16.8678773 16.4437381,16.8981446 16.38,16.92 C16.3233376,16.9488877 16.2626625,16.9691127 16.2,16.98 C16.1339204,16.9916089 16.0670699,16.9982939 16,17 Z" id="Shape" fill="#67B9CC"/></g></g></svg>
