<?xml version="1.0" encoding="UTF-8"?>
<svg xmlns="http://www.w3.org/2000/svg" xmlns:xlink="http://www.w3.org/1999/xlink" width="512" height="512" viewBox="0 0 58 44" version="1.1"><!-- Generator: Sketch 50.2 (55047) - http://www.bohemiancoding.com/sketch --><title>044 - Machine Data </title><desc>Created with Sketch.</desc><defs/><g id="Page-1" stroke="none" stroke-width="1" fill="none" fill-rule="evenodd"><g id="044---Machine-Data-" fill-rule="nonzero"><rect id="Rectangle-path" fill="#3D324C" x="0" y="0" width="58" height="44" rx="2"/><rect id="Rectangle-path" fill="#67B9CC" x="31" y="29" width="22" height="10" rx="1"/><polygon id="Shape" fill="#B0D3F0" points="41 39 47 29 42 29 36 39"/><path d="M27,16 C27,22.0751322 22.0751322,27 16,27 C9.92486775,27 5,22.0751322 5,16 C5,9.92486775 9.92486775,5 16,5 L16,11 C13.2385763,11 11,13.2385763 11,16 C11,18.7614237 13.2385763,21 16,21 C18.7614237,21 21,18.7614237 21,16 L27,16 Z" id="Shape" fill="#FF5364"/><path d="M27.0000016,16 L21,16 C21,13.2385763 18.7614237,11 16,11 L16,4.99999836 C18.9178694,4.99840713 21.716688,6.15682085 23.7799336,8.22006641 C25.8431791,10.283312 27.0015929,13.0821306 27.0000016,16 Z" id="Shape" fill="#F0C419"/><path d="M52,22 L40,22 C39.4477153,22 39,22.4477153 39,23 C39,23.5522847 39.4477153,24 40,24 L52,24 C52.5522847,24 53,23.5522847 53,23 C53,22.4477153 52.5522847,22 52,22 Z" id="Shape" fill="#F0C419"/><path d="M36,22 L32,22 C31.4477153,22 31,22.4477153 31,23 C31,23.5522847 31.4477153,24 32,24 L36,24 C36.5522847,24 37,23.5522847 37,23 C37,22.4477153 36.5522847,22 36,22 Z" id="Shape" fill="#F0C419"/><path d="M52,17 L48,17 C47.4477153,17 47,17.4477153 47,18 C47,18.5522847 47.4477153,19 48,19 L52,19 C52.5522847,19 53,18.5522847 53,18 C53,17.4477153 52.5522847,17 52,17 Z" id="Shape" fill="#F0C419"/><path d="M32,19 L44,19 C44.5522847,19 45,18.5522847 45,18 C45,17.4477153 44.5522847,17 44,17 L32,17 C31.4477153,17 31,17.4477153 31,18 C31,18.5522847 31.4477153,19 32,19 Z" id="Shape" fill="#F0C419"/><path d="M32,14 L38,14 C38.5522847,14 39,13.5522847 39,13 C39,12.4477153 38.5522847,12 38,12 L32,12 C31.4477153,12 31,12.4477153 31,13 C31,13.5522847 31.4477153,14 32,14 Z" id="Shape" fill="#F0C419"/><path d="M47,9 L52,9 C52.5522847,9 53,8.55228475 53,8 C53,7.44771525 52.5522847,7 52,7 L47,7 C46.4477153,7 46,7.44771525 46,8 C46,8.55228475 46.4477153,9 47,9 Z" id="Shape" fill="#F0C419"/><path d="M32,9 L43,9 C43.5522847,9 44,8.55228475 44,8 C44,7.44771525 43.5522847,7 43,7 L32,7 C31.4477153,7 31,7.44771525 31,8 C31,8.55228475 31.4477153,9 32,9 Z" id="Shape" fill="#F0C419"/><path d="M9,40 C8.44771525,40 8,39.5522847 8,39 L8,32 C8,31.4477153 8.44771525,31 9,31 C9.55228475,31 10,31.4477153 10,32 L10,39 C10,39.5522847 9.55228475,40 9,40 Z" id="Shape" fill="#FF5364"/><path d="M13,40 C12.4477153,40 12,39.5522847 12,39 L12,34 C12,33.4477153 12.4477153,33 13,33 C13.5522847,33 14,33.4477153 14,34 L14,39 C14,39.5522847 13.5522847,40 13,40 Z" id="Shape" fill="#F0C419"/><path d="M17,40 C16.4477153,40 16,39.5522847 16,39 L16,31 C16,30.4477153 16.4477153,30 17,30 C17.5522847,30 18,30.4477153 18,31 L18,39 C18,39.5522847 17.5522847,40 17,40 Z" id="Shape" fill="#FF5364"/><path d="M21,40 C20.4477153,40 20,39.5522847 20,39 L20,36 C20,35.4477153 20.4477153,35 21,35 C21.5522847,35 22,35.4477153 22,36 L22,39 C22,39.5522847 21.5522847,40 21,40 Z" id="Shape" fill="#F0C419"/><path d="M24,40 L6,40 C5.44771525,40 5,39.5522847 5,39 C5,38.4477153 5.44771525,38 6,38 L24,38 C24.5522847,38 25,38.4477153 25,39 C25,39.5522847 24.5522847,40 24,40 Z" id="Shape" fill="#5E5F62"/></g></g></svg>
