<?xml version="1.0" encoding="UTF-8"?>
<svg xmlns="http://www.w3.org/2000/svg" xmlns:xlink="http://www.w3.org/1999/xlink" width="512" height="512" viewBox="0 0 58 58" version="1.1"><!-- Generator: Sketch 50.2 (55047) - http://www.bohemiancoding.com/sketch --><title>043 - Plan Options </title><desc>Created with Sketch.</desc><defs/><g id="Page-1" stroke="none" stroke-width="1" fill="none" fill-rule="evenodd"><g id="043---Plan-Options-" fill-rule="nonzero"><path d="M54,11 L53,11 L53,18 L4,18 C1.790861,18 2.22044605e-16,19.790861 0,22 L0,54 C0,56.21 1.79,57 4,57 L7,57 L7,50 L54,50 C56.209139,50 58,48.209139 58,46 L58,15 C58,12.790861 56.209139,11 54,11 Z" id="Shape" fill="#2980BA"/><path d="M7,50 L7,58 L4,58 C1.790861,58 2.22044605e-16,56.209139 0,54 C-2.22044605e-16,51.790861 1.790861,50 4,50 L7,50 Z" id="Shape" fill="#3B97D3"/><path d="M58,14 L58,46 C58,43.790861 56.209139,42 54,42 L52,42 L52,10 L54,10 C56.209139,10 58,11.790861 58,14 Z" id="Shape" fill="#3B97D3"/><path d="M43.338,19.172 C43.6780689,19.0289744 43.9117671,18.71033 43.946,18.343 C43.982,17.9 44,17.45 44,17 C44,16.55 43.982,16.1 43.946,15.657 C43.9117671,15.28967 43.6780689,14.9710256 43.338,14.828 L40.1,13.437 C39.8393145,13.322411 39.640443,13.1013212 39.554,12.83 C39.3541088,12.2278351 39.1108038,11.640962 38.826,11.074 C38.6957287,10.8209386 38.6804322,10.524112 38.784,10.259 L40.092,6.983 C40.2316338,6.64166156 40.1720616,6.25117526 39.937,5.967 C39.648,5.628 39.343,5.297 39.025,4.979 C38.707,4.661 38.376,4.356 38.037,4.067 C37.7528247,3.8319384 37.3623384,3.77236618 37.021,3.912 L33.739,5.22 C33.4674538,5.32767859 33.1624009,5.31123861 32.904,5.175 C32.4673112,4.94843282 32.0175147,4.74807802 31.557,4.575 C31.289,4.475 31.015,4.4 30.741,4.321 L29.172,0.662 C29.0289744,0.321931063 28.71033,0.0882328658 28.343,0.054 C27.9,0.018 27.45,0 27,0 C26.55,0 26.1,0.018 25.657,0.054 C25.28967,0.0882328658 24.9710256,0.321931063 24.828,0.662 L23.259,4.317 C22.985,4.396 22.711,4.475 22.443,4.571 C21.9824853,4.74407802 21.5326888,4.94443282 21.096,5.171 C20.8375991,5.30723861 20.5325462,5.32367859 20.261,5.216 L16.983,3.912 C16.6416616,3.77236618 16.2511753,3.8319384 15.967,4.067 C15.628,4.356 15.297,4.661 14.979,4.979 C14.661,5.297 14.356,5.628 14.067,5.967 C13.8319384,6.25117526 13.7723662,6.64166156 13.912,6.983 L15.22,10.259 C15.3235678,10.524112 15.3082713,10.8209386 15.178,11.074 C14.8931962,11.640962 14.6498912,12.2278351 14.45,12.83 C14.363557,13.1013212 14.1646855,13.322411 13.904,13.437 L10.662,14.828 C10.3219311,14.9710256 10.0882329,15.28967 10.054,15.657 C10.018,16.1 10,16.55 10,17 C10,17.45 10.018,17.9 10.054,18.343 C10.0882329,18.71033 10.3219311,19.0289744 10.662,19.172 L13.9,20.563 C14.1606855,20.677589 14.359557,20.8986788 14.446,21.17 C14.6457148,21.7719068 14.8890258,22.3584601 15.174,22.925 C15.3043143,23.1784064 15.3196086,23.4755534 15.216,23.741 L13.908,27.017 C13.7683662,27.3583384 13.8279384,27.7488247 14.063,28.033 C14.352,28.372 14.657,28.703 14.975,29.021 C15.293,29.339 15.624,29.644 15.963,29.933 C16.2471753,30.1680616 16.6376616,30.2276338 16.979,30.088 L20.255,28.78 C20.5204466,28.6763914 20.8175936,28.6916857 21.071,28.822 C21.6375399,29.1069742 22.2240932,29.3502852 22.826,29.55 C23.0973212,29.636443 23.318411,29.8353145 23.433,30.096 L24.824,33.338 C24.9670256,33.6780689 25.28567,33.9117671 25.653,33.946 C26.1,33.982 26.55,34 27,34 C27.45,34 27.9,33.982 28.343,33.946 C28.71033,33.9117671 29.0289744,33.6780689 29.172,33.338 L30.563,30.1 C30.677589,29.8393145 30.8986788,29.640443 31.17,29.554 C31.7719068,29.3542852 32.3584601,29.1109742 32.925,28.826 C33.1784064,28.6956857 33.4755534,28.6803914 33.741,28.784 L37.017,30.092 C37.3583384,30.2316338 37.7488247,30.1720616 38.033,29.937 C38.372,29.648 38.703,29.343 39.021,29.025 C39.339,28.707 39.644,28.376 39.933,28.037 C40.1680616,27.7528247 40.2276338,27.3623384 40.088,27.021 L38.78,23.741 C38.6763914,23.4755534 38.6916857,23.1784064 38.822,22.925 C39.1069742,22.3584601 39.3502852,21.7719068 39.55,21.17 C39.636443,20.8986788 39.8353145,20.677589 40.096,20.563 L43.338,19.172 Z" id="Shape" fill="#35495E"/><path d="M36,17 C35.9829358,21.548054 32.5697592,25.3659237 28.0520112,25.8903649 C23.5342631,26.4148062 19.3372466,23.4803632 18.2787576,19.0571645 C17.2202685,14.6339657 19.6342494,10.1174848 23.9,8.54 C25.9041289,7.82098761 28.0958711,7.82098761 30.1,8.54 C33.6374999,9.85493831 35.9884989,13.2260318 36,17 Z" id="Shape" fill="#547580"/><path d="M31,17 C31.0003866,18.8106033 29.7844973,20.3956825 28.0356318,20.8644621 C26.2867664,21.3332417 24.441095,20.5688072 23.5358395,19.000752 C22.6305841,17.4326968 22.8915168,15.4520966 24.172,14.172 C24.5820597,13.7598979 25.0768217,13.4418854 25.622,13.24 C26.5128001,12.9199993 27.4871999,12.9199993 28.378,13.24 C28.9231783,13.4418854 29.4179403,13.7598979 29.828,14.172 C30.5814872,14.9197676 31.0036573,15.9384511 31,17 Z" id="Shape" fill="#35495E"/></g></g></svg>
