<?xml version="1.0" encoding="UTF-8"?>
<svg xmlns="http://www.w3.org/2000/svg" xmlns:xlink="http://www.w3.org/1999/xlink" width="512" height="512" viewBox="0 0 58 58" version="1.1"><!-- Generator: Sketch 50.2 (55047) - http://www.bohemiancoding.com/sketch --><title>042 - Cherry Picker </title><desc>Created with Sketch.</desc><defs/><g id="Page-1" stroke="none" stroke-width="1" fill="none" fill-rule="evenodd"><g id="042---Cherry-Picker-" fill-rule="nonzero"><path d="M29,37.82 L37.844,43 L45.724,43 L32.95,35.49 L29,33.16 L21.97,29 L29,24.58 L32.84,22.17 L45.375,14.281 L37.765,14.281 L29,19.77 L25.16,22.17 L16.99,27.27 C16.3768903,27.6305733 16.0004227,28.2887219 16.0004227,29 C16.0004227,29.7112781 16.3768903,30.3694267 16.99,30.73 L25.05,35.49 L29,37.82 Z" id="Shape" fill="#F0C419"/><path d="M42,29 C41.9982982,29.7109343 41.6220838,30.3683595 41.01,30.73 L32.95,35.49 L29,37.82 L20.88,42.594 L13,42.594 L25.05,35.494 L29,33.16 L36.03,29 L29,24.58 L25.16,22.17 L13.327,14.781 L20.937,14.781 L29,19.77 L32.84,22.17 L41.01,27.27 C41.6220838,27.6316405 41.9982982,28.2890657 42,29 Z" id="Shape" fill="#F29C1F"/><path d="M46,0 L12,0 C10.8954305,-1.11022302e-16 10,0.8954305 10,2 L10,12 C10,12.5522847 10.4477153,13 11,13 L47,13 C47.5522847,13 48,12.5522847 48,12 L48,2 C48,0.8954305 47.1045695,0 46,0 Z M24,2 L28,2 L28,11 L24,11 L24,2 Z M22,11 L18,11 L18,2 L22,2 L22,11 Z M30,2 L34,2 L34,11 L30,11 L30,2 Z M36,2 L40,2 L40,11 L36,11 L36,2 Z M12,2 L16,2 L16,11 L12,11 L12,2 Z M46,11 L42,11 L42,2 L46,2 L46,11 Z" id="Shape" fill="#E57E25"/><path d="M54,45 L54,54 L4,54 L4,45 C4,43.3431458 5.34314575,42 7,42 L51,42 C52.6568542,42 54,43.3431458 54,45 Z" id="Shape" fill="#95A5A5"/><circle id="Oval" fill="#BDC3C7" cx="4" cy="54" r="4"/><circle id="Oval" fill="#BDC3C7" cx="54" cy="54" r="4"/><path d="M48,11 L48,14 C47.965147,15.1329432 47.0231856,16.0257976 45.89,16 L12.11,16 C10.9768144,16.0257976 10.034853,15.1329432 10,14 L10,11 L48,11 Z" id="Shape" fill="#D25627"/><path d="M14,47 L44,47 C44.5522847,47 45,47.4477153 45,48 L45,54 L13,54 L13,48 C13,47.4477153 13.4477153,47 14,47 Z" id="Shape" fill="#7F8C8D"/></g></g></svg>
