<?xml version="1.0" encoding="UTF-8"?>
<svg xmlns="http://www.w3.org/2000/svg" xmlns:xlink="http://www.w3.org/1999/xlink" width="512" height="512" viewBox="0 0 58 58" version="1.1"><!-- Generator: Sketch 50.2 (55047) - http://www.bohemiancoding.com/sketch --><title>041 - Work Force </title><desc>Created with Sketch.</desc><defs/><g id="Page-1" stroke="none" stroke-width="1" fill="none" fill-rule="evenodd"><g id="041---Work-Force-" fill-rule="nonzero"><path d="M32.9999793,7 L33,5.49 C32.9935437,3.34502359 34.4990515,1.49241264 36.6,1.06 L41.4,1.06 C43.5009485,1.49241264 45.0064563,3.34502359 45,5.49 L45.0000207,7 L32.9999793,7 Z" id="Shape" fill="#F29C1F"/><path d="M37,6 L37,0.433 C37,0.194 37.3,0 37.667,0 L40.333,0 C40.702,0 41,0.194 41,0.433 L41,6 L37,6 Z" id="Shape" fill="#E57E25"/><path d="M44.725,8 L44.808,10.164 C44.8828805,10.4052743 44.8915152,10.6622433 44.833,10.908 L44.833,12.422 C44.8306947,12.8788304 44.6339457,13.3130602 44.292,13.616 C44.0288742,13.8550855 43.845598,14.1692732 43.767,14.516 C43.3562711,15.4723386 42.7903119,16.3542214 42.092,17.126 C42.0334021,17.2008652 42.0010722,17.292935 42,17.388 L42,19 L43.455,20.3 L46.455,22.067 C47.4066805,22.6218657 47.9942355,23.6383928 48,24.74 L48,28 L30,28 L30,24.74 C30.003997,23.6366052 30.5917866,22.61777 31.545,22.062 L34.545,20.295 L36,19 L36,17.388 C35.9989278,17.292935 35.9665979,17.2008652 35.908,17.126 C35.2096881,16.3542214 34.6437289,15.4723386 34.233,14.516 C34.154402,14.1692732 33.9711258,13.8550855 33.708,13.616 C33.3660543,13.3130602 33.1693053,12.8788304 33.167,12.422 L33.167,10.908 C33.1084848,10.6622433 33.1171195,10.4052743 33.192,10.164 L33.275,8 L44.725,8 Z" id="Shape" fill="#CB8252"/><path d="M49,24.74 L49,30 L29,30 L29,24.74 C29.0057453,23.6352496 29.5952896,22.6159086 30.55,22.06 L33.55,20.3 L36,19 C36,19 35,22 39,22 C43,22 42,19 42,19 L44.45,20.3 L47.45,22.06 C48.4047104,22.6159086 48.9942547,23.6352496 49,24.74 Z" id="Shape" fill="#F0C419"/><rect id="Rectangle-path" fill="#F0C419" x="32" y="6" width="14" height="4" rx="1.636"/><path d="M35,25 C34.4477153,25 34,24.5522847 34,24 L34,19.53 C34,18.9777153 34.4477153,18.53 35,18.53 C35.5522847,18.53 36,18.9777153 36,19.53 L36,24 C36,24.5522847 35.5522847,25 35,25 Z" id="Shape" fill="#2980BA"/><path d="M43,25 C42.4477153,25 42,24.5522847 42,24 L42,19.53 C42,18.9777153 42.4477153,18.53 43,18.53 C43.5522847,18.53 44,18.9777153 44,19.53 L44,24 C44,24.5522847 43.5522847,25 43,25 Z" id="Shape" fill="#2980BA"/><path d="M46,28 L46,26 C45.9011351,24.8069926 44.8611044,23.9154104 43.667,24 L34.333,24 C33.1388956,23.9154104 32.0988649,24.8069926 32,26 L32,28" id="Shape" fill="#3B97D3"/><path d="M12.9999793,7 L13,5.49 C12.9935437,3.34502359 14.4990515,1.49241264 16.6,1.06 L21.4,1.06 C23.5009485,1.49241264 25.0064563,3.34502359 25,5.49 L25.0000207,7 L12.9999793,7 Z" id="Shape" fill="#F29C1F"/><path d="M24.725,8 L24.808,10.164 C24.8828805,10.4052743 24.8915152,10.6622433 24.833,10.908 L24.833,12.422 C24.8306947,12.8788304 24.6339457,13.3130602 24.292,13.616 C24.0288742,13.8550855 23.845598,14.1692732 23.767,14.516 C23.3562711,15.4723386 22.7903119,16.3542214 22.092,17.126 C22.0334021,17.2008652 22.0010722,17.292935 22,17.388 L22,19 L24.455,20.3 L27.455,22.067 C28.4066805,22.6218657 28.9942355,23.6383928 29,24.74 L29,28 L9,28 L9,24.74 C9.00399702,23.6366052 9.59178657,22.61777 10.545,22.062 L13.545,20.295 L16,19 L16,17.388 C15.9989278,17.292935 15.9665979,17.2008652 15.908,17.126 C15.2096881,16.3542214 14.6437289,15.4723386 14.233,14.516 C14.154402,14.1692732 13.9711258,13.8550855 13.708,13.616 C13.3660543,13.3130602 13.1693053,12.8788304 13.167,12.422 L13.167,10.908 C13.1084848,10.6622433 13.1171195,10.4052743 13.192,10.164 L13.275,8 L24.725,8 Z" id="Shape" fill="#FDD7AD"/><path d="M29,24.74 L29,31 L9,31 L9,24.74 C9.00574535,23.6352496 9.59528958,22.6159086 10.55,22.06 L13.55,20.3 L16,19 C16,19 15,22 19,22 C23,22 22,19 22,19 L24.45,20.3 L27.45,22.06 C28.4047104,22.6159086 28.9942547,23.6352496 29,24.74 Z" id="Shape" fill="#F0C419"/><rect id="Rectangle-path" fill="#F0C419" x="12" y="6" width="14" height="4" rx="1.636"/><path d="M15,25 C14.4477153,25 14,24.5522847 14,24 L14,19.53 C14,18.9777153 14.4477153,18.53 15,18.53 C15.5522847,18.53 16,18.9777153 16,19.53 L16,24 C16,24.5522847 15.5522847,25 15,25 Z" id="Shape" fill="#2980BA"/><path d="M23,25 C22.4477153,25 22,24.5522847 22,24 L22,19.53 C22,18.9777153 22.4477153,18.53 23,18.53 C23.5522847,18.53 24,18.9777153 24,19.53 L24,24 C24,24.5522847 23.5522847,25 23,25 Z" id="Shape" fill="#2980BA"/><path d="M10,47 L48,47 L48,56 C48,57.1045695 47.1045695,58 46,58 L12,58 C10.8954305,58 10,57.1045695 10,56 L10,47 Z" id="Shape" fill="#2C3E50"/><path d="M40,55 L18,55 C17.4477153,55 17,54.5522847 17,54 C17,53.4477153 17.4477153,53 18,53 L40,53 C40.5522847,53 41,53.4477153 41,54 C41,54.5522847 40.5522847,55 40,55 Z" id="Shape" fill="#35495E"/><path d="M58,36 L58,42 L-7.59432575e-06,42 L7.73141181e-16,36 C-0.00292464858,33.8773728 0.838990861,31.8408418 2.33991634,30.3399163 C3.84084182,28.8389909 5.87737284,27.9970754 8,28 L50,28 C54.418278,28 58,31.581722 58,36 Z" id="Shape" fill="#7F8C8D"/><path d="M10,28 L10,34 C10,34.5522847 9.55228475,35 9,35 C8.44771525,35 8,34.5522847 8,34 L8,28 L10,28 Z" id="Shape" fill="#5E5F62"/><path d="M20,28 L20,34 C20,34.5522847 19.5522847,35 19,35 C18.4477153,35 18,34.5522847 18,34 L18,28 L20,28 Z" id="Shape" fill="#5E5F62"/><path d="M30,28 L30,34 C30,34.5522847 29.5522847,35 29,35 C28.4477153,35 28,34.5522847 28,34 L28,28 L30,28 Z" id="Shape" fill="#5E5F62"/><path d="M40,28 L40,34 C40,34.5522847 39.5522847,35 39,35 C38.4477153,35 38,34.5522847 38,34 L38,28 L40,28 Z" id="Shape" fill="#5E5F62"/><path d="M50,28 L50,34 C50,34.5522847 49.5522847,35 49,35 C48.4477153,35 48,34.5522847 48,34 L48,28 L50,28 Z" id="Shape" fill="#5E5F62"/><path d="M58,42 C58.0029246,44.1226272 57.1610091,46.1591582 55.6600837,47.6600837 C54.1591582,49.1610091 52.1226272,50.0029246 50,50 L8,50 C3.581722,50 4.4408921e-16,46.418278 0,42 C-5.55111512e-16,37.581722 3.581722,34 8,34 L50,34 C54.418278,34 58,37.581722 58,42 Z" id="Shape" fill="#95A5A5"/><circle id="Oval" fill="#2C3E50" cx="9" cy="42" r="3"/><circle id="Oval" fill="#2C3E50" cx="19" cy="42" r="3"/><circle id="Oval" fill="#2C3E50" cx="29" cy="42" r="3"/><circle id="Oval" fill="#2C3E50" cx="39" cy="42" r="3"/><circle id="Oval" fill="#2C3E50" cx="49" cy="42" r="3"/><path d="M17,6 L17,0.433 C17,0.194 17.3,0 17.667,0 L20.333,0 C20.702,0 21,0.194 21,0.433 L21,6 L17,6 Z" id="Shape" fill="#E57E25"/><path d="M26,28 L26,26 C25.9011351,24.8069926 24.8611044,23.9154104 23.667,24 L14.333,24 C13.1388956,23.9154104 12.0988649,24.8069926 12,26 L12,28" id="Shape" fill="#3B97D3"/></g></g></svg>
