<?xml version="1.0" encoding="UTF-8"?>
<svg xmlns="http://www.w3.org/2000/svg" xmlns:xlink="http://www.w3.org/1999/xlink" width="512" height="512" viewBox="0 0 58 58" version="1.1"><!-- Generator: Sketch 50.2 (55047) - http://www.bohemiancoding.com/sketch --><title>039 - Bottle Manufacturing </title><desc>Created with Sketch.</desc><defs/><g id="Page-1" stroke="none" stroke-width="1" fill="none" fill-rule="evenodd"><g id="039---Bottle-Manufacturing-" fill-rule="nonzero"><path d="M33,8 L37,8 L37,14 C37,15.1045695 36.1045695,16 35,16 C33.8954305,16 33,15.1045695 33,14 L33,8 Z" id="Shape" fill="#F29C1F"/><path d="M31,4 L31,8.8 C30.950087,9.40584474 31.3950864,9.93984406 32,10 L38,10 C38.6049136,9.93984406 39.049913,9.40584474 39,8.8 L39,4 L31,4 Z" id="Shape" fill="#95A5A5"/><path d="M6,48 L52,48 L52,57 C52,57.5522847 51.5522847,58 51,58 L7,58 C6.44771525,58 6,57.5522847 6,57 L6,48 Z" id="Shape" fill="#2C3E50"/><rect id="Rectangle-path" fill="#95A5A5" x="0" y="38" width="58" height="12" rx="6"/><circle id="Oval" fill="#2C3E50" cx="25" cy="44" r="2"/><circle id="Oval" fill="#2C3E50" cx="17" cy="44" r="2"/><circle id="Oval" fill="#2C3E50" cx="9" cy="44" r="2"/><circle id="Oval" fill="#2C3E50" cx="33" cy="44" r="2"/><circle id="Oval" fill="#2C3E50" cx="41" cy="44" r="2"/><circle id="Oval" fill="#2C3E50" cx="49" cy="44" r="2"/><path d="M44,55 L14,55 C13.4477153,55 13,54.5522847 13,54 C13,53.4477153 13.4477153,53 14,53 L44,53 C44.5522847,53 45,53.4477153 45,54 C45,54.5522847 44.5522847,55 44,55 Z" id="Shape" fill="#35495E"/><path d="M15,29.239 L15,35 C15,36.6568542 13.6568542,38 12,38 L10,38 C8.34314575,38 7,36.6568542 7,35 L7,29.239 C6.99948418,28.175759 7.35112562,27.1422848 8,26.3 C8.64866523,25.4579865 9.00029488,24.4248985 9,23.362 L9,20 L13,20 L13,23.361 C12.9994842,24.424241 13.3511256,25.4577152 14,26.3 C14.6488744,27.1422848 15.0005158,28.175759 15,29.239 Z" id="Shape" fill="#71C285"/><path d="M27,29.239 L27,35 C27,36.6568542 25.6568542,38 24,38 L22,38 C20.3431458,38 19,36.6568542 19,35 L19,29.239 C18.9994842,28.175759 19.3511256,27.1422848 20,26.3 C20.6486652,25.4579865 21.0002949,24.4248985 21,23.362 L21,20 L25,20 L25,23.361 C24.9994842,24.424241 25.3511256,25.4577152 26,26.3 C26.6488744,27.1422848 27.0005158,28.175759 27,29.239 Z" id="Shape" fill="#71C285"/><path d="M39,29.239 L39,35 C39,36.6568542 37.6568542,38 36,38 L34,38 C32.3431458,38 31,36.6568542 31,35 L31,29.239 C30.9994842,28.175759 31.3511256,27.1422848 32,26.3 C32.6486652,25.4579865 33.0002949,24.4248985 33,23.362 L33,20 L37,20 L37,23.361 C36.9994842,24.424241 37.3511256,25.4577152 38,26.3 C38.6488744,27.1422848 39.0005158,28.175759 39,29.239 Z" id="Shape" fill="#71C285"/><path d="M51,29.239 L51,35 C51,36.6568542 49.6568542,38 48,38 L46,38 C44.3431458,38 43,36.6568542 43,35 L43,29.239 C42.9994842,28.175759 43.3511256,27.1422848 44,26.3 C44.6486652,25.4579865 45.0002949,24.4248985 45,23.362 L45,20 L49,20 L49,23.361 C48.9994842,24.424241 49.3511256,25.4577152 50,26.3 C50.6488744,27.1422848 51.0005158,28.175759 51,29.239 Z" id="Shape" fill="#71C285"/><path d="M0,0 L58,0 L58,3 C58,4.1045695 57.1045695,5 56,5 L2,5 C0.8954305,5 2.22044605e-16,4.1045695 0,3 L0,0 Z" id="Shape" fill="#2C3E50"/></g></g></svg>
