<?xml version="1.0" encoding="UTF-8"?>
<svg xmlns="http://www.w3.org/2000/svg" xmlns:xlink="http://www.w3.org/1999/xlink" width="512" height="512" viewBox="0 0 58 58" version="1.1"><!-- Generator: Sketch 50.2 (55047) - http://www.bohemiancoding.com/sketch --><title>038 - Tools </title><desc>Created with Sketch.</desc><defs/><g id="Page-1" stroke="none" stroke-width="1" fill="none" fill-rule="evenodd"><g id="038---Tools-" fill-rule="nonzero"><path d="M33.3,48.565 C33.6766254,48.4445198 33.9442454,48.1098963 33.979,47.716 C33.996,47.479 34.004,47.241 34.004,47 C34.004,46.759 33.996,46.521 33.979,46.284 C33.9442454,45.8901037 33.6766254,45.5554802 33.3,45.435 L32.256,45.087 C31.9437766,44.9785569 31.704368,44.7242086 31.615,44.406 C31.4414631,43.8313244 31.2106377,43.2755343 30.926,42.747 C30.7643663,42.4582958 30.7539128,42.1088497 30.898,41.811 L31.391,40.826 C31.572147,40.4743442 31.5248599,40.0483664 31.271,39.745 C31.115,39.5663333 30.952,39.392 30.782,39.222 C30.612,39.052 30.4376667,38.889 30.259,38.733 C29.9555241,38.4793965 29.5297064,38.4321272 29.178,38.613 L28.193,39.106 C27.8950411,39.2495748 27.5458439,39.2391287 27.257,39.078 C26.7284657,38.7933623 26.1726756,38.5625369 25.598,38.389 C25.2797914,38.299632 25.0254431,38.0602234 24.917,37.748 L24.565,36.7 C24.4445198,36.3233746 24.1098963,36.0557546 23.716,36.021 C23.479,36.008 23.241,36 23,36 C22.759,36 22.521,36.008 22.284,36.025 C21.8901037,36.0597546 21.5554802,36.3273746 21.435,36.704 L21.087,37.748 C20.9785569,38.0602234 20.7242086,38.299632 20.406,38.389 C19.8313244,38.5625369 19.2755343,38.7933623 18.747,39.078 C18.4581561,39.2391287 18.1089589,39.2495748 17.811,39.106 L16.826,38.613 C16.4742936,38.4321272 16.0484759,38.4793965 15.745,38.733 C15.5656667,38.889 15.3913333,39.052 15.222,39.222 C15.0526667,39.392 14.8896667,39.5663333 14.733,39.745 C14.4791401,40.0483664 14.431853,40.4743442 14.613,40.826 L15.106,41.811 C15.2500872,42.1088497 15.2396337,42.4582958 15.078,42.747 C14.7933623,43.2755343 14.5625369,43.8313244 14.389,44.406 C14.299632,44.7242086 14.0602234,44.9785569 13.748,45.087 L12.704,45.435 C12.3273746,45.5554802 12.0597546,45.8901037 12.025,46.284 C12.008,46.521 12,46.759 12,47 C12,47.241 12.008,47.479 12.025,47.716 C12.0597546,48.1098963 12.3273746,48.4445198 12.704,48.565 L13.748,48.913 C14.0602234,49.0214431 14.299632,49.2757914 14.389,49.594 C14.5625369,50.1686756 14.7933623,50.7244657 15.078,51.253 C15.2396337,51.5417042 15.2500872,51.8911503 15.106,52.189 L14.613,53.174 C14.4321272,53.5257064 14.4793965,53.9515241 14.733,54.255 C14.889,54.4336667 15.052,54.608 15.222,54.778 C15.392,54.948 15.5663333,55.111 15.745,55.267 C16.0483664,55.5208599 16.4743442,55.568147 16.826,55.387 L17.811,54.894 C18.1088497,54.7499128 18.4582958,54.7603663 18.747,54.922 C19.2755343,55.2066377 19.8313244,55.4374631 20.406,55.611 C20.7242086,55.700368 20.9785569,55.9397766 21.087,56.252 L21.435,57.296 C21.5554802,57.6726254 21.8901037,57.9402454 22.284,57.975 C22.521,57.992 22.759,58 23,58 C23.241,58 23.479,57.992 23.716,57.975 C24.1098963,57.9402454 24.4445198,57.6726254 24.565,57.296 L24.913,56.252 C25.0214431,55.9397766 25.2757914,55.700368 25.594,55.611 C26.1686756,55.4374631 26.7244657,55.2066377 27.253,54.922 C27.5417042,54.7603663 27.8911503,54.7499128 28.189,54.894 L29.174,55.387 C29.5256558,55.568147 29.9516336,55.5208599 30.255,55.267 C30.4343333,55.111 30.6086667,54.948 30.778,54.778 C30.9473333,54.608 31.1103333,54.4336667 31.267,54.255 C31.5206035,53.9515241 31.5678728,53.5257064 31.387,53.174 L30.894,52.189 C30.7499128,51.8911503 30.7603663,51.5417042 30.922,51.253 C31.2066377,50.7244657 31.4374631,50.1686756 31.611,49.594 C31.700368,49.2757914 31.9397766,49.0214431 32.252,48.913 L33.3,48.565 Z" id="Shape" fill="#35495E"/><path d="M45.338,19.172 C45.6780689,19.0289744 45.9117671,18.71033 45.946,18.343 C45.982,17.9 46,17.45 46,17 C46,16.55 45.982,16.1 45.946,15.657 C45.9117671,15.28967 45.6780689,14.9710256 45.338,14.828 L42.1,13.437 C41.8393145,13.322411 41.640443,13.1013212 41.554,12.83 C41.3541088,12.2278351 41.1108038,11.640962 40.826,11.074 C40.6957287,10.8209386 40.6804322,10.524112 40.784,10.259 L42.092,6.983 C42.2316338,6.64166156 42.1720616,6.25117526 41.937,5.967 C41.648,5.628 41.343,5.297 41.025,4.979 C40.707,4.661 40.376,4.356 40.037,4.067 C39.7528247,3.8319384 39.3623384,3.77236618 39.021,3.912 L35.739,5.22 C35.4674538,5.32767859 35.1624009,5.31123861 34.904,5.175 C34.4673112,4.94843282 34.0175147,4.74807802 33.557,4.575 C33.289,4.475 33.015,4.4 32.741,4.321 L31.172,0.662 C31.0289744,0.321931063 30.71033,0.0882328658 30.343,0.054 C29.9,0.018 29.45,0 29,0 C28.55,0 28.1,0.018 27.657,0.054 C27.28967,0.0882328658 26.9710256,0.321931063 26.828,0.662 L25.259,4.317 C24.985,4.396 24.711,4.475 24.443,4.571 C23.9824853,4.74407802 23.5326888,4.94443282 23.096,5.171 C22.8375991,5.30723861 22.5325462,5.32367859 22.261,5.216 L18.983,3.912 C18.6416616,3.77236618 18.2511753,3.8319384 17.967,4.067 C17.628,4.356 17.297,4.661 16.979,4.979 C16.661,5.297 16.356,5.628 16.067,5.967 C15.8319384,6.25117526 15.7723662,6.64166156 15.912,6.983 L17.22,10.259 C17.3235678,10.524112 17.3082713,10.8209386 17.178,11.074 C16.8931962,11.640962 16.6498912,12.2278351 16.45,12.83 C16.363557,13.1013212 16.1646855,13.322411 15.904,13.437 L12.662,14.828 C12.3219311,14.9710256 12.0882329,15.28967 12.054,15.657 C12.018,16.1 12,16.55 12,17 C12,17.45 12.018,17.9 12.054,18.343 C12.0882329,18.71033 12.3219311,19.0289744 12.662,19.172 L15.9,20.563 C16.1606855,20.677589 16.359557,20.8986788 16.446,21.17 C16.6457148,21.7719068 16.8890258,22.3584601 17.174,22.925 C17.3043143,23.1784064 17.3196086,23.4755534 17.216,23.741 L15.908,27.017 C15.7683662,27.3583384 15.8279384,27.7488247 16.063,28.033 C16.352,28.372 16.657,28.703 16.975,29.021 C17.293,29.339 17.624,29.644 17.963,29.933 C18.2471753,30.1680616 18.6376616,30.2276338 18.979,30.088 L22.255,28.78 C22.5204466,28.6763914 22.8175936,28.6916857 23.071,28.822 C23.6375399,29.1069742 24.2240932,29.3502852 24.826,29.55 C25.0973212,29.636443 25.318411,29.8353145 25.433,30.096 L26.824,33.338 C26.9670256,33.6780689 27.28567,33.9117671 27.653,33.946 C28.1,33.982 28.55,34 29,34 C29.45,34 29.9,33.982 30.343,33.946 C30.71033,33.9117671 31.0289744,33.6780689 31.172,33.338 L32.563,30.1 C32.677589,29.8393145 32.8986788,29.640443 33.17,29.554 C33.7719068,29.3542852 34.3584601,29.1109742 34.925,28.826 C35.1784064,28.6956857 35.4755534,28.6803914 35.741,28.784 L39.017,30.092 C39.3583384,30.2316338 39.7488247,30.1720616 40.033,29.937 C40.372,29.648 40.703,29.343 41.021,29.025 C41.339,28.707 41.644,28.376 41.933,28.037 C42.1680616,27.7528247 42.2276338,27.3623384 42.088,27.021 L40.78,23.741 C40.6763914,23.4755534 40.6916857,23.1784064 40.822,22.925 C41.1069742,22.3584601 41.3502852,21.7719068 41.55,21.17 C41.636443,20.8986788 41.8353145,20.677589 42.096,20.563 L45.338,19.172 Z" id="Shape" fill="#35495E"/><rect id="Rectangle-path" fill="#D1D4D1" x="50" y="43" width="8" height="10"/><path d="M54.928,2.321 C54.7758244,1.94197019 54.4084373,1.69358019 54,1.69358019 C53.5915627,1.69358019 53.2241756,1.94197019 53.072,2.321 L50,10 L50,13 L58,13 L58,10 L54.928,2.321 Z" id="Shape" fill="#CB8252"/><rect id="Rectangle-path" fill="#95A5A5" x="0" y="0" width="8" height="58" rx="1"/><path d="M0,5 L2,5 C2.55228475,5 3,4.55228475 3,4 C3,3.44771525 2.55228475,3 2,3 L0,3 L0,5 Z" id="Shape" fill="#5E5F62"/><path d="M0,10 L2,10 C2.55228475,10 3,9.55228475 3,9 C3,8.44771525 2.55228475,8 2,8 L0,8 L0,10 Z" id="Shape" fill="#5E5F62"/><path d="M0,20 L2,20 C2.55228475,20 3,19.5522847 3,19 C3,18.4477153 2.55228475,18 2,18 L0,18 L0,20 Z" id="Shape" fill="#5E5F62"/><path d="M0,25 L2,25 C2.55228475,25 3,24.5522847 3,24 C3,23.4477153 2.55228475,23 2,23 L0,23 L0,25 Z" id="Shape" fill="#5E5F62"/><path d="M0,35 L2,35 C2.55228475,35 3,34.5522847 3,34 C3,33.4477153 2.55228475,33 2,33 L0,33 L0,35 Z" id="Shape" fill="#5E5F62"/><path d="M0,40 L2,40 C2.55228475,40 3,39.5522847 3,39 C3,38.4477153 2.55228475,38 2,38 L0,38 L0,40 Z" id="Shape" fill="#5E5F62"/><path d="M0,15 L3,15 C3.55228475,15 4,14.5522847 4,14 C4,13.4477153 3.55228475,13 3,13 L0,13 L0,15 Z" id="Shape" fill="#5E5F62"/><path d="M0,30 L3,30 C3.55228475,30 4,29.5522847 4,29 C4,28.4477153 3.55228475,28 3,28 L0,28 L0,30 Z" id="Shape" fill="#5E5F62"/><path d="M0,45 L3,45 C3.55228475,45 4,44.5522847 4,44 C4,43.4477153 3.55228475,43 3,43 L0,43 L0,45 Z" id="Shape" fill="#5E5F62"/><path d="M0,50 L2,50 C2.55228475,50 3,49.5522847 3,49 C3,48.4477153 2.55228475,48 2,48 L0,48 L0,50 Z" id="Shape" fill="#5E5F62"/><path d="M0,55 L2,55 C2.55228475,55 3,54.5522847 3,54 C3,53.4477153 2.55228475,53 2,53 L0,53 L0,55 Z" id="Shape" fill="#5E5F62"/><rect id="Rectangle-path" fill="#F29C1F" x="50" y="10" width="8" height="36"/><path d="M58,51 L58,54 C58,56.209139 56.209139,58 54,58 C51.790861,58 50,56.209139 50,54 L50,51 L58,51 Z" id="Shape" fill="#DF4D60"/><path d="M38,17 C37.9829358,21.548054 34.5697592,25.3659237 30.0520112,25.8903649 C25.5342631,26.4148062 21.3372466,23.4803632 20.2787576,19.0571645 C19.2202685,14.6339657 21.6342494,10.1174848 25.9,8.54 C27.9041289,7.82098761 30.0958711,7.82098761 32.1,8.54 C35.6374999,9.85493831 37.9884989,13.2260318 38,17 Z" id="Shape" fill="#547580"/><path d="M33,17 C33.0003866,18.8106033 31.7844973,20.3956825 30.0356318,20.8644621 C28.2867664,21.3332417 26.441095,20.5688072 25.5358395,19.000752 C24.6305841,17.4326968 24.8915168,15.4520966 26.172,14.172 C26.5820597,13.7598979 27.0768217,13.4418854 27.622,13.24 C28.5128001,12.9199993 29.4871999,12.9199993 30.378,13.24 C30.9231783,13.4418854 31.4179403,13.7598979 31.828,14.172 C32.5814872,14.9197676 33.0036573,15.9384511 33,17 Z" id="Shape" fill="#35495E"/><circle id="Oval" fill="#547580" cx="23" cy="47" r="5"/><path d="M23,48 C22.8693227,47.99842 22.7402223,47.971241 22.62,47.92 C22.3687697,47.8290762 22.1709238,47.6312303 22.08,47.38 C21.9733951,47.1378817 21.9733951,46.8621183 22.08,46.62 C22.1709238,46.3687697 22.3687697,46.1709238 22.62,46.08 C22.8023679,46.0000893 23.0051358,45.9791133 23.2,46.02 C23.2626625,46.0308873 23.3233376,46.0511123 23.38,46.08 C23.4437381,46.1018554 23.5042729,46.1321227 23.56,46.17 C23.6123935,46.2069128 23.6624865,46.2469872 23.71,46.29 C23.7982527,46.3872607 23.8692709,46.4988607 23.92,46.62 C24.0267285,46.8620922 24.0267285,47.1379078 23.92,47.38 C23.8692709,47.5011393 23.7982527,47.6127393 23.71,47.71 C23.6624865,47.7530128 23.6123935,47.7930872 23.56,47.83 C23.5042729,47.8678773 23.4437381,47.8981446 23.38,47.92 C23.3233376,47.9488877 23.2626625,47.9691127 23.2,47.98 C23.1339204,47.9916089 23.0670699,47.9982939 23,48 Z" id="Shape" fill="#35495E"/><path d="M56.31,5.77 C55.5498542,5.92521516 54.7758274,6.00228277 54,6 C53.2241726,6.00228277 52.4501458,5.92521516 51.69,5.77 L53.072,2.319 C53.2241756,1.93997019 53.5915627,1.69158019 54,1.69158019 C54.4084373,1.69158019 54.7758244,1.93997019 54.928,2.319 L56.31,5.77 Z" id="Shape" fill="#35495E"/></g></g></svg>
