<?xml version="1.0" encoding="UTF-8"?>
<svg xmlns="http://www.w3.org/2000/svg" xmlns:xlink="http://www.w3.org/1999/xlink" width="512" height="512" viewBox="0 0 46 58" version="1.1"><!-- Generator: Sketch 50.2 (55047) - http://www.bohemiancoding.com/sketch --><title>036 - Truck </title><desc>Created with Sketch.</desc><defs/><g id="Page-1" stroke="none" stroke-width="1" fill="none" fill-rule="evenodd"><g id="036---Truck-" fill-rule="nonzero"><path d="M41,7.957 C40.9921087,6.51813125 40.2083911,5.19550183 38.9501153,4.49754226 C37.6918395,3.79958268 36.1548579,3.83493138 34.93,4.59 C33.8129915,2.96800437 31.9694105,1.99946991 30,2 C29.8195842,2.00002257 29.6393081,2.0100379 29.46,2.03 C28.8510887,0.943649443 27.7679157,0.205774733 26.5340677,0.036808287 C25.3002197,-0.132158159 24.058552,0.287346649 23.18,1.17 C21.955845,0.13580526 20.3071072,-0.242499299 18.7545461,0.154575153 C17.201985,0.551649605 15.93732,1.67506998 15.36,3.17 C14.6749296,2.27244732 13.540668,1.84026103 12.4320271,2.05435804 C11.3233861,2.26845505 10.4316085,3.0919032 10.13,4.18 C9.76432989,4.0643536 9.38350371,4.00369102 9,4 C6.80754517,3.99987331 5.02356889,5.76467186 5,7.957 L5,11.043 L41,11.043 L41,7.957 Z" id="Shape" fill="#805333"/><path d="M42,33 L42,12.2 C42,12.0895431 42.0895431,12 42.2,12 L45,12 C45.5522847,12 46,11.5522847 46,11 L46,9 C46,8.44771525 45.5522847,8 45,8 L1,8 C0.44771525,8 0,8.44771525 0,9 L0,11 C0,11.5522847 0.44771525,12 1,12 L3.8,12 C3.91045695,12 4,12.0895431 4,12.2 L4,33 L42,33 Z" id="Shape" fill="#F0C419"/><path d="M1,48 L9,48 L9,56 C9,57.1045695 8.1045695,58 7,58 L3,58 C1.8954305,58 1,57.1045695 1,56 L1,48 Z" id="Shape" fill="#3F5C6C"/><path d="M39,48 L43,48 C44.1045695,48 45,48.8954305 45,50 L45,58 L37,58 L37,50 C37,48.8954305 37.8954305,48 39,48 Z" id="Shape" fill="#3F5C6C" transform="translate(41.000000, 53.000000) rotate(-180.000000) translate(-41.000000, -53.000000) "/><rect id="Rectangle-path" fill="#2C2F38" x="1" y="41" width="44" height="9"/><path d="M42,33 L4,33 C2.34314575,33 1,34.3431458 1,36 L1,44 L45,44 L45,36 C45,34.3431458 43.6568542,33 42,33 Z" id="Shape" fill="#285680"/><rect id="Rectangle-path" fill="#4482C3" x="8" y="27" width="30" height="17"/><rect id="Rectangle-path" fill="#67B9CC" x="10" y="14" width="26" height="12.78"/><polygon id="Shape" fill="#B0D3F0" points="22.78 24.93 29 15 22 15 15.56 25.29 15.55 25.29"/><path d="M38,26.79 L38.0000012,28 L7.99999884,28 L8,26.79 C7.99891002,25.7697536 8.7659442,24.9122266 9.78,24.8 C12.54,24.51 18.03,24 23,24 C27.97,24 33.46,24.51 36.22,24.8 C37.2340558,24.9122266 38.00109,25.7697536 38,26.79 Z" id="Shape" fill="#285680"/><path d="M32,44 L32,33 C32,32.4477153 31.5522847,32 31,32 L15,32 C14.4477153,32 14,32.4477153 14,33 L14,44" id="Shape" fill="#5E5F62"/><path d="M21,35 L18,35 C17.4477153,35 17,35.4477153 17,36 C17,36.5522847 17.4477153,37 18,37 L21,37 C21.5522847,37 22,36.5522847 22,36 C22,35.4477153 21.5522847,35 21,35 Z" id="Shape" fill="#A5A5A4"/><path d="M21,39 L18,39 C17.4477153,39 17,39.4477153 17,40 C17,40.5522847 17.4477153,41 18,41 L21,41 C21.5522847,41 22,40.5522847 22,40 C22,39.4477153 21.5522847,39 21,39 Z" id="Shape" fill="#A5A5A4"/><path d="M25,37 L28,37 C28.5522847,37 29,36.5522847 29,36 C29,35.4477153 28.5522847,35 28,35 L25,35 C24.4477153,35 24,35.4477153 24,36 C24,36.5522847 24.4477153,37 25,37 Z" id="Shape" fill="#A5A5A4"/><path d="M28,39 L25,39 C24.4477153,39 24,39.4477153 24,40 C24,40.5522847 24.4477153,41 25,41 L28,41 C28.5522847,41 29,40.5522847 29,40 C29,39.4477153 28.5522847,39 28,39 Z" id="Shape" fill="#A5A5A4"/><path d="M38,14 L38,15.5 C38,15.7761424 37.7761424,16 37.5,16 L8.5,16 C8.22385763,16 8,15.7761424 8,15.5 L8,14 C8.0032948,12.8967981 8.89679813,12.0032948 10,12 L36,12 C37.1032019,12.0032948 37.9967052,12.8967981 38,14 Z" id="Shape" fill="#4482C3"/></g></g></svg>
