<?xml version="1.0" encoding="UTF-8"?>
<svg xmlns="http://www.w3.org/2000/svg" xmlns:xlink="http://www.w3.org/1999/xlink" width="512" height="512" viewBox="0 0 58 58" version="1.1"><!-- Generator: Sketch 50.2 (55047) - http://www.bohemiancoding.com/sketch --><title>035 - Truck </title><desc>Created with Sketch.</desc><defs/><g id="Page-1" stroke="none" stroke-width="1" fill="none" fill-rule="evenodd"><g id="035---Truck-" fill-rule="nonzero"><polygon id="Shape" fill="#F0C419" points="3 8 3 22.368 3 25.684 3 50 55 50 55 25.684 55 22.368 55 8"/><path d="M18,18 L1,18 C0.44771525,18 0,18.4477153 0,19 C-1.11022302e-16,19.5522847 0.44771525,20 1,20 L7,20 L7,28 C7,28.5522847 7.44771525,29 8,29 C8.55228475,29 9,28.5522847 9,28 L9,20 L12,20 L12,28 C12,28.5522847 12.4477153,29 13,29 C13.5522847,29 14,28.5522847 14,28 L14,20 L17,20 L17,26 C17,26.5522847 17.4477153,27 18,27 C18.5522847,27 19,26.5522847 19,26 L19,19 C19,18.4477153 18.5522847,18 18,18 Z" id="Shape" fill="#2C3E50"/><path d="M57,18 L40,18 C39.4477153,18 39,18.4477153 39,19 L39,26 C39,26.5522847 39.4477153,27 40,27 C40.5522847,27 41,26.5522847 41,26 L41,20 L44,20 L44,28 C44,28.5522847 44.4477153,29 45,29 C45.5522847,29 46,28.5522847 46,28 L46,20 L49,20 L49,28 C49,28.5522847 49.4477153,29 50,29 C50.5522847,29 51,28.5522847 51,28 L51,20 L57,20 C57.5522847,20 58,19.5522847 58,19 C58,18.4477153 57.5522847,18 57,18 Z" id="Shape" fill="#2C3E50"/><polygon id="Shape" fill="#F29C1F" points="0 4 0 6 3 12 55 12 58 6 58 4"/><path d="M2,0 L56,0 C57.1045695,0 58,0.8954305 58,2 L58,6 L0,6 L0,2 C-1.11022302e-16,0.8954305 0.8954305,2.22044605e-16 2,0 Z" id="Shape" fill="#F0C419"/><path d="M56,34 L57,34 C57.5522847,34 58,33.5522847 58,33 L58,29 C58,28.4477153 57.5522847,28 57,28 L1,28 C0.44771525,28 0,28.4477153 0,29 L0,33 C0,33.5522847 0.44771525,34 1,34 L56,34 Z" id="Shape" fill="#E57E25"/><path d="M12,34 L12,57 C12,57.5522847 11.5522847,58 11,58 L3,58 C2.44771525,58 2,57.5522847 2,57 L2,34 L12,34 Z" id="Shape" fill="#3F5C6C"/><path d="M56,34 L56,57 C56,57.5522847 55.5522847,58 55,58 L47,58 C46.4477153,58 46,57.5522847 46,57 L46,34 L56,34 Z" id="Shape" fill="#3F5C6C"/><path d="M6,38 C6,38.5522847 5.55228475,39 5,39 L2,39 L2,37 L5,37 C5.55228475,37 6,37.4477153 6,38 Z" id="Shape" fill="#2C3E50"/><path d="M12,40 L12,42 L9,42 C8.44771525,42 8,41.5522847 8,41 C8,40.4477153 8.44771525,40 9,40 L12,40 Z" id="Shape" fill="#2C3E50"/><path d="M6,44 C6,44.5522847 5.55228475,45 5,45 L2,45 L2,43 L5,43 C5.55228475,43 6,43.4477153 6,44 Z" id="Shape" fill="#2C3E50"/><path d="M12,46 L12,48 L9,48 C8.44771525,48 8,47.5522847 8,47 C8,46.4477153 8.44771525,46 9,46 L12,46 Z" id="Shape" fill="#2C3E50"/><path d="M6,50 C6,50.5522847 5.55228475,51 5,51 L2,51 L2,49 L5,49 C5.55228475,49 6,49.4477153 6,50 Z" id="Shape" fill="#2C3E50"/><path d="M12,52 L12,54 L9,54 C8.44771525,54 8,53.5522847 8,53 C8,52.4477153 8.44771525,52 9,52 L12,52 Z" id="Shape" fill="#2C3E50"/><path d="M50,38 C50,38.5522847 49.5522847,39 49,39 L46,39 L46,37 L49,37 C49.5522847,37 50,37.4477153 50,38 Z" id="Shape" fill="#2C3E50"/><path d="M56,40 L56,42 L53,42 C52.4477153,42 52,41.5522847 52,41 C52,40.4477153 52.4477153,40 53,40 L56,40 Z" id="Shape" fill="#2C3E50"/><path d="M50,44 C50,44.5522847 49.5522847,45 49,45 L46,45 L46,43 L49,43 C49.5522847,43 50,43.4477153 50,44 Z" id="Shape" fill="#2C3E50"/><path d="M56,46 L56,48 L53,48 C52.4477153,48 52,47.5522847 52,47 C52,46.4477153 52.4477153,46 53,46 L56,46 Z" id="Shape" fill="#2C3E50"/><path d="M50,50 C50,50.5522847 49.5522847,51 49,51 L46,51 L46,49 L49,49 C49.5522847,49 50,49.4477153 50,50 Z" id="Shape" fill="#2C3E50"/><path d="M56,52 L56,54 L53,54 C52.4477153,54 52,53.5522847 52,53 C52,52.4477153 52.4477153,52 53,52 L56,52 Z" id="Shape" fill="#2C3E50"/><rect id="Rectangle-path" fill="#35495E" x="23" y="18" width="12" height="9"/><path d="M34,17 L24,17 C22.8954305,17 22,17.8954305 22,19 L22,26 C22,26.5522847 22.4477153,27 23,27 C23.5522847,27 24,26.5522847 24,26 L24,19 L34,19 L34,26 C34,26.5522847 34.4477153,27 35,27 C35.5522847,27 36,26.5522847 36,26 L36,19 C36,17.8954305 35.1045695,17 34,17 Z" id="Shape" fill="#2C3E50"/><polygon id="Shape" fill="#F29C1F" points="41 26 41 51 37 51 23.55 51 17 51 17 26"/><polygon id="Shape" fill="#D25627" points="37 35.67 37 48 23.55 48"/><polygon id="Shape" fill="#D25627" points="36.64 30 21 44.33 21 30"/><rect id="Rectangle-path" fill="#E57E25" x="16" y="48" width="26" height="5" rx="1"/></g></g></svg>
