<?xml version="1.0" encoding="UTF-8"?>
<svg xmlns="http://www.w3.org/2000/svg" xmlns:xlink="http://www.w3.org/1999/xlink" width="512" height="512" viewBox="0 0 58 58" version="1.1"><!-- Generator: Sketch 50.2 (55047) - http://www.bohemiancoding.com/sketch --><title>034 - Cogs </title><desc>Created with Sketch.</desc><defs/><g id="Page-1" stroke="none" stroke-width="1" fill="none" fill-rule="evenodd"><g id="034---Cogs-" transform="translate(-1.000000, 0.000000)" fill-rule="nonzero"><circle id="Oval" fill="#3D324C" cx="30" cy="29" r="18"/><path d="M59,28.925 C59,28.484 58.987,28.043 58.957,27.605 C58.9199288,27.1777737 58.6145872,26.8217431 58.198,26.72 L53.34,25.492 C52.9638827,25.3937453 52.6787908,25.0864232 52.609,24.704 C52.3960161,23.5780895 52.0991896,22.4696697 51.721,21.388 C51.5883615,21.0220183 51.6818017,20.6122889 51.96,20.34 L56.04,16.385 C56.025,16.35 56.006,16.317 55.991,16.285 L56.04,16.237 C55.7640305,15.6167793 55.4535443,15.0124999 55.11,14.427 C54.891,14.046 54.663,13.674 54.422,13.31 C54.1776191,12.9529159 53.7312983,12.7935156 53.316,12.915 L48.486,14.291 C48.1115216,14.3959505 47.7102332,14.2728679 47.459,13.976 C46.6958814,13.0910461 45.8686455,12.263476 44.984,11.5 C44.6868641,11.2493775 44.5636896,10.8481805 44.669,10.474 L46.012,5.761 C46.1324692,5.34460427 45.9709511,4.89800681 45.612,4.655 C45.248,4.414 44.876,4.186 44.495,3.967 C44.114,3.748 43.748,3.547 43.367,3.356 C42.9740027,3.15608665 42.4967419,3.23421332 42.188,3.549 L38.7,7.152 C38.4264171,7.43163519 38.0142523,7.52479304 37.647,7.39 C36.5310185,6.99365976 35.3858979,6.68472795 34.222,6.466 C33.8395768,6.39620924 33.5322547,6.1111173 33.434,5.735 L32.205,0.877 C32.1032569,0.460412788 31.7472263,0.15507123 31.32,0.118 C30.882,0.088 30.441,0.075 30,0.075 C29.559,0.075 29.118,0.088 28.68,0.118 C28.2527737,0.15507123 27.8967431,0.460412788 27.795,0.877 L26.567,5.735 C26.4687453,6.1111173 26.1614232,6.39620924 25.779,6.466 C24.6151021,6.68472795 23.4699815,6.99365976 22.354,7.39 C21.9864589,7.52522795 21.5737708,7.43204032 21.3,7.152 L17.806,3.552 C17.4972581,3.23721332 17.0199973,3.15908665 16.627,3.359 C16.246,3.55 15.87,3.759 15.499,3.97 C15.128,4.181 14.746,4.417 14.382,4.658 C14.0249159,4.90238094 13.8655156,5.34870172 13.987,5.764 L15.33,10.477 C15.4353104,10.8511805 15.3121359,11.2523775 15.015,11.503 C14.1303545,12.266476 13.3031186,13.0940461 12.54,13.979 C12.2887668,14.2758679 11.8874784,14.3989505 11.513,14.294 L6.683,12.918 C6.26770172,12.7965156 5.82138094,12.9559159 5.577,13.313 C5.336,13.677 5.108,14.049 4.889,14.43 C4.54545565,15.0154999 4.23496955,15.6197793 3.959,16.24 L4.008,16.288 C3.993,16.322 3.974,16.355 3.959,16.388 L8.04,20.34 C8.31819828,20.6122889 8.41163848,21.0220183 8.279,21.388 C7.90100223,22.4683666 7.60417756,23.5754425 7.391,24.7 C7.32120924,25.0824232 7.0361173,25.3897453 6.66,25.488 L1.8,26.72 C1.38341279,26.8217431 1.07807123,27.1777737 1.041,27.605 C1.011,28.043 0.998,28.484 0.998,28.925 C0.998,28.95 0.998,28.975 0.998,29 C0.998,29.025 0.998,29.05 0.998,29.075 C0.998,29.516 1.011,29.957 1.041,30.395 C1.07807123,30.8222263 1.38341279,31.1782569 1.8,31.28 L6.66,32.508 C7.0361173,32.6062547 7.32120924,32.9135768 7.391,33.296 C7.60398386,34.4219105 7.90081041,35.5303303 8.279,36.612 C8.41163848,36.9779817 8.31819828,37.3877111 8.04,37.66 L3.96,41.615 C3.975,41.65 3.994,41.683 4.009,41.715 L3.96,41.763 C4.23596955,42.3832207 4.54645565,42.9875001 4.89,43.573 C5.109,43.954 5.337,44.326 5.578,44.69 C5.82100681,45.0489511 6.26760427,45.2104692 6.684,45.09 L11.514,43.714 C11.8884784,43.6090495 12.2897668,43.7321321 12.541,44.029 C13.3040179,44.9124973 14.1312697,45.7384121 15.016,46.5 C15.3128679,46.7512332 15.4359505,47.1525216 15.331,47.527 L13.988,52.24 C13.8665156,52.6552983 14.0259159,53.1016191 14.383,53.346 C14.747,53.587 15.119,53.815 15.5,54.034 C15.881,54.253 16.247,54.454 16.628,54.645 C17.0209973,54.8449133 17.4982581,54.7667867 17.807,54.452 L21.3,50.848 C21.5735829,50.5683648 21.9857477,50.475207 22.353,50.61 C23.4689815,51.0063402 24.6141021,51.315272 25.778,51.534 C26.1604232,51.6037908 26.4677453,51.8888827 26.566,52.265 L27.8,57.123 C27.9017431,57.5395872 28.2577737,57.8449288 28.685,57.882 C29.123,57.912 29.564,57.925 30.005,57.925 C30.446,57.925 30.887,57.912 31.325,57.882 C31.7522263,57.8449288 32.1082569,57.5395872 32.21,57.123 L33.438,52.265 C33.5362547,51.8888827 33.8435768,51.6037908 34.226,51.534 C35.3898979,51.315272 36.5350185,51.0063402 37.651,50.61 C38.0182523,50.475207 38.4304171,50.5683648 38.704,50.848 L42.198,54.453 C42.5067419,54.7677867 42.9840027,54.8459133 43.377,54.646 C43.758,54.455 44.134,54.246 44.505,54.035 C44.876,53.824 45.258,53.588 45.622,53.347 C45.9809511,53.1039932 46.1424692,52.6573957 46.022,52.241 L44.679,47.528 C44.5740495,47.1535216 44.6971321,46.7522332 44.994,46.501 C45.8788764,45.7381318 46.7061318,44.9108764 47.469,44.026 C47.7202332,43.7291321 48.1215216,43.6060495 48.496,43.711 L53.326,45.087 C53.7423957,45.2074692 54.1889932,45.0459511 54.432,44.687 C54.673,44.323 54.901,43.951 55.12,43.57 C55.4635443,42.9845001 55.7740305,42.3802207 56.05,41.76 L56.001,41.712 C56.016,41.678 56.035,41.645 56.05,41.612 L51.96,37.66 C51.6818017,37.3877111 51.5883615,36.9779817 51.721,36.612 C52.0991896,35.5303303 52.3960161,34.4219105 52.609,33.296 C52.6787908,32.9135768 52.9638827,32.6062547 53.34,32.508 L58.2,31.28 C58.6165872,31.1782569 58.9219288,30.8222263 58.959,30.395 C58.989,29.957 59.002,29.516 59.002,29.075 C59.002,29.05 59.002,29.025 59.002,29 C59.002,28.975 59,28.95 59,28.925 Z M16.89,33.032 C16.6153297,33.1905996 16.28199,33.2105253 15.9903822,33.0857754 C15.6987744,32.9610255 15.4829816,32.7061808 15.408,32.398 C15.1355937,31.2604601 14.998643,30.094701 15,28.925 C15.0020506,22.2968181 19.3510377,16.4545433 25.7,14.551 C26.0046961,14.4596601 26.3346184,14.517198 26.5904084,14.7062858 C26.8461983,14.8953736 26.997964,15.1939142 27,15.512 L27,19.762 C26.9934128,20.1719422 26.7427108,20.5383529 26.363,20.693 C23.0477928,22.125752 20.898192,25.3884478 20.89,29 C20.8906364,29.3342737 20.9113403,29.6682077 20.952,30 C20.995854,30.3908669 20.8022559,30.7701933 20.46,30.964 L16.89,33.032 Z M30,43.925 C26.1666626,43.9304199 22.478327,42.4600989 19.7,39.819 C19.4680189,39.6012271 19.3535193,39.2860548 19.3916239,38.9701618 C19.4297284,38.6542689 19.6158886,38.3753637 19.893,38.219 L23.436,36.174 C23.7949239,35.9744379 24.2384373,36.0090997 24.562,36.262 C27.7849608,38.6753378 32.2130392,38.6753378 35.436,36.262 C35.7595627,36.0090997 36.2030761,35.9744379 36.562,36.174 L40.105,38.219 C40.3821114,38.3753637 40.5682716,38.6542689 40.6063761,38.9701618 C40.6444807,39.2860548 40.5299811,39.6012271 40.298,39.819 C37.5201737,42.4596216 33.8326463,43.9299058 30,43.925 Z M43.11,33.032 L39.54,30.966 C39.1970202,30.7718961 39.0033052,30.3915531 39.048,30 C39.0886597,29.6682077 39.1093636,29.3342737 39.11,29 C39.0990258,25.3909919 36.9498818,22.1317382 33.637,20.7 C33.2549663,20.544365 33.0037904,20.1745017 33,19.762 L33,15.512 C33.002036,15.1939142 33.1538017,14.8953736 33.4095916,14.7062858 C33.6653816,14.517198 33.9953039,14.4596601 34.3,14.551 C40.6489623,16.4545433 44.9979494,22.2968181 45,28.925 C45.001357,30.094701 44.8644063,31.2604601 44.592,32.398 C44.5170184,32.7061808 44.3012256,32.9610255 44.0096178,33.0857754 C43.71801,33.2105253 43.3846703,33.1905996 43.11,33.032 Z" id="Shape" fill="#7D6599"/><circle id="Oval" fill="#3D324C" cx="30" cy="28.925" r="4"/><path d="M30,9.925 C29.7340684,9.92720439 29.4783433,9.8227533 29.29,9.635 C29.201963,9.53757495 29.1309694,9.42601357 29.08,9.305 C29.028759,9.18477769 29.00158,9.05567726 29,8.925 C29.0038804,8.66027314 29.107435,8.40674298 29.29,8.215 L29.44,8.095 C29.4957271,8.05712275 29.5562619,8.02685535 29.62,8.005 C29.6766624,7.97611232 29.7373375,7.95588731 29.8,7.945 C29.9948642,7.9041133 30.1976321,7.92508928 30.38,8.005 C30.5011393,8.05572915 30.6127393,8.12674734 30.71,8.215 C30.892565,8.40674298 30.9961196,8.66027314 31,8.925 C31.0034547,9.05618332 30.9760524,9.18634449 30.92,9.305 C30.8690306,9.42601357 30.798037,9.53757495 30.71,9.635 C30.5216567,9.8227533 30.2659316,9.92720439 30,9.925 Z" id="Shape" fill="#3D324C"/><path d="M20.5,12.471 C20.2702624,12.6047119 19.9965066,12.6407325 19.74,12.571 C19.6149613,12.5311155 19.4976202,12.4702469 19.393,12.391 C19.2887454,12.3123706 19.2007788,12.2142149 19.134,12.102 C19.0062713,11.8702588 18.9705654,11.5988942 19.034,11.342 C19.057,11.282 19.08,11.222 19.104,11.163 C19.1323415,11.1041966 19.1683187,11.0493902 19.211,11 C19.2459764,10.9468757 19.2880301,10.8987663 19.336,10.857 C19.4849644,10.7249085 19.6711389,10.6421254 19.869,10.62 C19.9993448,10.603225 20.131603,10.6089754 20.26,10.637 C20.5138972,10.7119238 20.7302595,10.8797295 20.866,11.107 C20.93491,11.2187175 20.9763754,11.3451699 20.987,11.476 C21.0027669,11.6060523 20.9970235,11.7378129 20.97,11.866 C20.9004641,12.1223652 20.731211,12.3402336 20.5,12.471 Z" id="Shape" fill="#3D324C"/><path d="M13.546,19.425 C13.4147706,19.6566314 13.1961091,19.8259409 12.939,19.895 C12.810603,19.9230246 12.6783448,19.928775 12.548,19.912 C12.4182751,19.896166 12.2929117,19.8550577 12.179,19.791 C11.9520404,19.6551457 11.7845881,19.4387787 11.71,19.185 C11.7,19.122 11.69,19.059 11.681,18.995 C11.6758014,18.9280986 11.6798393,18.8607999 11.693,18.795 C11.6962308,18.7315316 11.7086952,18.668873 11.73,18.609 C11.792475,18.4198297 11.9123707,18.2548421 12.073,18.137 C12.1775701,18.0574326 12.2949093,17.9962268 12.42,17.956 C12.676558,17.8924265 12.9476631,17.9281453 13.179,18.056 C13.2943588,18.1184077 13.3933725,18.2071431 13.468,18.315 C13.5473719,18.419694 13.6085597,18.5369987 13.649,18.662 C13.7186745,18.9198355 13.6815469,19.194868 13.546,19.425 Z" id="Shape" fill="#3D324C"/><path d="M11,28.925 C11.0022044,29.1909316 10.8977533,29.4466567 10.71,29.635 C10.6125749,29.723037 10.5010136,29.7940306 10.38,29.845 C10.2597777,29.896241 10.1306773,29.92342 10,29.925 C9.73523302,29.9213165 9.48163379,29.8177337 9.29,29.635 L9.17,29.485 C9.13212275,29.4292729 9.10185535,29.3687381 9.08,29.305 C9.05111232,29.2483376 9.03088731,29.1876625 9.02,29.125 C8.97863764,28.9301607 8.99962881,28.7272461 9.08,28.545 C9.13072915,28.4238607 9.20174734,28.3122607 9.29,28.215 C9.48163379,28.0322663 9.73523302,27.9286835 10,27.925 C10.1311833,27.9215453 10.2613445,27.9489476 10.38,28.005 C10.5010136,28.0559694 10.6125749,28.126963 10.71,28.215 C10.8977533,28.4033433 11.0022044,28.6590684 11,28.925 Z" id="Shape" fill="#3D324C"/><path d="M13.546,38.425 C13.6797119,38.6547376 13.7157325,38.9284934 13.646,39.185 C13.6061155,39.3100387 13.5452469,39.4273798 13.466,39.532 C13.3872101,39.6364758 13.2886813,39.7244722 13.176,39.791 C12.9446631,39.9188547 12.673558,39.9545735 12.417,39.891 L12.238,39.821 C12.1772164,39.7918056 12.1206961,39.7544618 12.07,39.71 C12.0166311,39.6753462 11.9684793,39.6332554 11.927,39.585 C11.7949085,39.4360356 11.7121254,39.2498611 11.69,39.052 C11.673225,38.9216552 11.6789754,38.789397 11.707,38.661 C11.7818545,38.4073575 11.9492391,38.191078 12.176,38.055 C12.2881412,37.9862164 12.4148859,37.9447675 12.546,37.934 C12.6760523,37.9182331 12.8078129,37.9239765 12.936,37.951 C13.1949248,38.020293 13.4148914,38.1912178 13.546,38.425 Z" id="Shape" fill="#3D324C"/><path d="M20.5,45.38 C20.7315706,45.510825 20.9009071,45.729161 20.97,45.986 C20.9980246,46.114397 21.003775,46.2466552 20.987,46.377 C20.971166,46.5067249 20.9300577,46.6320883 20.866,46.746 C20.7301457,46.9729596 20.5137787,47.1404119 20.26,47.215 L20.07,47.244 C20.0030986,47.2491986 19.9357999,47.2451607 19.87,47.232 C19.8065316,47.2287692 19.743873,47.2163048 19.684,47.195 C19.4948297,47.132525 19.3298421,47.0126293 19.212,46.852 C19.1324326,46.7474299 19.0712268,46.6300907 19.031,46.505 C18.9674265,46.248442 19.0031453,45.9773369 19.131,45.746 C19.1934077,45.6306412 19.2821431,45.5316275 19.39,45.457 C19.494694,45.3776281 19.6119987,45.3164403 19.737,45.276 C19.9949391,45.2061623 20.2701616,45.2436763 20.5,45.38 Z" id="Shape" fill="#3D324C"/><path d="M30,47.925 C30.2659316,47.9227956 30.5216567,48.0272467 30.71,48.215 C30.798037,48.3124251 30.8690306,48.4239864 30.92,48.545 C30.971241,48.6652223 30.99842,48.7943227 31,48.925 C30.9963165,49.189767 30.8927337,49.4433662 30.71,49.635 L30.56,49.755 C30.5042729,49.7928773 30.4437381,49.8231446 30.38,49.845 C30.3233376,49.8738877 30.2626625,49.8941127 30.2,49.905 C30.0051607,49.9463624 29.8022461,49.9253712 29.62,49.845 C29.4988607,49.7942709 29.3872607,49.7232527 29.29,49.635 C29.1072663,49.4433662 29.0036835,49.189767 29,48.925 C28.9965453,48.7938167 29.0239476,48.6636555 29.08,48.545 C29.1309694,48.4239864 29.201963,48.3124251 29.29,48.215 C29.4783433,48.0272467 29.7340684,47.9227956 30,47.925 Z" id="Shape" fill="#3D324C"/><path d="M39.5,45.38 C39.7295891,45.2458537 40.0035245,45.2098095 40.26,45.28 C40.3850387,45.3198845 40.5023798,45.3807531 40.607,45.46 C40.7114758,45.5387899 40.7994722,45.6373187 40.866,45.75 C40.9938547,45.9813369 41.0295735,46.252442 40.966,46.509 C40.943,46.569 40.92,46.629 40.896,46.688 C40.8668056,46.7487836 40.8294618,46.8053039 40.785,46.856 C40.7500236,46.9091243 40.7079699,46.9572337 40.66,46.999 C40.5110356,47.1310915 40.3248611,47.2138746 40.127,47.236 C39.9966552,47.252775 39.864397,47.2470246 39.736,47.219 C39.4823575,47.1441455 39.266078,46.9767609 39.13,46.75 C39.0612164,46.6378588 39.0197675,46.5111141 39.009,46.38 C38.9932331,46.2499477 38.9989765,46.1181871 39.026,45.99 C39.0950846,45.7309717 39.2660661,45.5109323 39.5,45.38 Z" id="Shape" fill="#3D324C"/><path d="M46.454,38.425 C46.5852294,38.1933686 46.8038909,38.0240591 47.061,37.955 C47.189397,37.9269754 47.3216552,37.921225 47.452,37.938 C47.5817249,37.953834 47.7070883,37.9949423 47.821,38.059 C48.0479596,38.1948543 48.2154119,38.4112213 48.29,38.665 C48.3,38.728 48.31,38.791 48.319,38.855 C48.3241986,38.9219014 48.3201607,38.9892001 48.307,39.055 C48.3037692,39.1184684 48.2913048,39.181127 48.27,39.241 C48.207525,39.4301703 48.0876293,39.5951579 47.927,39.713 C47.8224299,39.7925674 47.7050907,39.8537732 47.58,39.894 C47.323442,39.9575735 47.0523369,39.9218547 46.821,39.794 C46.7056412,39.7315923 46.6066275,39.6428569 46.532,39.535 C46.4526281,39.430306 46.3914403,39.3130013 46.351,39.188 C46.2813255,38.9301645 46.3184531,38.655132 46.454,38.425 Z" id="Shape" fill="#3D324C"/><path d="M49,28.925 C48.9977956,28.6590684 49.1022467,28.4033433 49.29,28.215 C49.3874251,28.126963 49.4989864,28.0559694 49.62,28.005 C49.7402223,27.953759 49.8693227,27.92658 50,27.925 C50.264767,27.9286835 50.5183662,28.0322663 50.71,28.215 L50.83,28.365 C50.8678773,28.4207271 50.8981446,28.4812619 50.92,28.545 C50.9488877,28.6016624 50.9691127,28.6623375 50.98,28.725 C51.0213624,28.9198393 51.0003712,29.1227539 50.92,29.305 C50.8692709,29.4261393 50.7982527,29.5377393 50.71,29.635 C50.5183662,29.8177337 50.264767,29.9213165 50,29.925 C49.8688167,29.9284547 49.7386555,29.9010524 49.62,29.845 C49.4989864,29.7940306 49.3874251,29.723037 49.29,29.635 C49.1022467,29.4466567 48.9977956,29.1909316 49,28.925 Z" id="Shape" fill="#3D324C"/><path d="M46.454,19.425 C46.3202881,19.1952624 46.2842675,18.9215066 46.354,18.665 C46.3938845,18.5399613 46.4547531,18.4226202 46.534,18.318 C46.6127899,18.2135242 46.7113187,18.1255278 46.824,18.059 C47.0553369,17.9311453 47.326442,17.8954265 47.583,17.959 L47.762,18.029 C47.8227836,18.0581944 47.8793039,18.0955382 47.93,18.14 C47.9831243,18.1749764 48.0312337,18.2170301 48.073,18.265 C48.2050915,18.4139644 48.2878746,18.6001389 48.31,18.798 C48.326775,18.9283448 48.3210246,19.060603 48.293,19.189 C48.2181455,19.4426425 48.0507609,19.658922 47.824,19.795 C47.7118588,19.8637836 47.5851141,19.9052325 47.454,19.916 C47.3239477,19.9317669 47.1921871,19.9260235 47.064,19.899 C46.8050752,19.829707 46.5851086,19.6587822 46.454,19.425 Z" id="Shape" fill="#3D324C"/><path d="M39.5,12.471 C39.2683686,12.3397706 39.0990591,12.1211091 39.03,11.864 C39.0019754,11.735603 38.996225,11.6033448 39.013,11.473 C39.0287576,11.3435736 39.0698748,11.218523 39.134,11.105 C39.2695151,10.87753 39.4859657,10.7096558 39.74,10.635 L39.93,10.606 C39.9969014,10.6008014 40.0642001,10.6048393 40.13,10.618 C40.1934684,10.6212308 40.256127,10.6336952 40.316,10.655 C40.5051703,10.717475 40.6701579,10.8373707 40.788,10.998 C40.8675674,11.1025701 40.9287732,11.2199093 40.969,11.345 C41.0324346,11.6018942 40.9967287,11.8732588 40.869,12.105 C40.8062809,12.2198655 40.7175899,12.3184871 40.61,12.393 C40.505306,12.4723719 40.3880013,12.5335597 40.263,12.574 C40.0051645,12.6436745 39.730132,12.6065469 39.5,12.471 Z" id="Shape" fill="#3D324C"/></g></g></svg>
