<?xml version="1.0" encoding="UTF-8"?>
<svg xmlns="http://www.w3.org/2000/svg" xmlns:xlink="http://www.w3.org/1999/xlink" width="512" height="512" viewBox="0 0 58 58" version="1.1"><!-- Generator: Sketch 50.2 (55047) - http://www.bohemiancoding.com/sketch --><title>033 - Measuring Options </title><desc>Created with Sketch.</desc><defs/><g id="Page-1" stroke="none" stroke-width="1" fill="none" fill-rule="evenodd"><g id="033---Measuring-Options-" fill-rule="nonzero"><polygon id="Shape" fill="#35495E" points="22 30 36 30 34.599 26 23.413 26"/><path d="M34.33,13.76 L39.41,29.55 C39.97,31.63 39.58,33.71 38.44,34.72 L37,36 L30.98,16.66 L26.96,16.64 L21,36 L19.56,34.72 C18.42,33.71 18.03,31.63 18.59,29.55 L23.63,13.68 L34.33,13.76 Z" id="Shape" fill="#2980BA"/><path d="M27,5.35 L27,1 C27,0.44771525 27.4477153,0 28,0 L30,0 C30.5522847,0 31,0.44771525 31,1 L31,5.35" id="Shape" fill="#35495E"/><path d="M51.609,33.221 C51.390272,34.3848979 51.0813402,35.5300185 50.685,36.646 C50.550207,37.0132523 50.6433648,37.4254171 50.923,37.699 L54.523,41.193 C54.8377867,41.5017419 54.9159133,41.9790027 54.716,42.372 C54.525,42.753 54.316,43.129 54.105,43.5 C53.894,43.871 53.658,44.253 53.417,44.617 C53.1739932,44.9759511 52.7273957,45.1374692 52.311,45.017 L47.481,43.64 C47.1060384,43.5364184 46.7050358,43.6596838 46.453,43.956 C45.6804845,44.8525178 44.8425178,45.6904845 43.946,46.463 C43.6496838,46.7150358 43.5264184,47.1160384 43.63,47.491 L45.007,52.321 C45.1274692,52.7373957 44.9659511,53.1839932 44.607,53.427 C44.243,53.668 43.871,53.896 43.49,54.115 C43.109,54.334 42.743,54.535 42.362,54.726 C41.9690027,54.9259133 41.4917419,54.8477867 41.183,54.533 L37.689,50.933 C37.4154171,50.6533648 37.0032523,50.560207 36.636,50.695 C35.5200185,51.0913402 34.3748979,51.400272 33.211,51.619 C32.8285768,51.6887908 32.5212547,51.9738827 32.423,52.35 L31.205,57.2 C31.1032569,57.6165872 30.7472263,57.9219288 30.32,57.959 C29.882,57.989 29.441,58.002 29,58.002 C28.559,58.002 28.118,57.989 27.68,57.959 C27.2546764,57.9198938 26.9011413,57.6149698 26.8,57.2 L25.567,52.34 C25.4687453,51.9638827 25.1614232,51.6787908 24.779,51.609 C23.6151021,51.390272 22.4699815,51.0813402 21.354,50.685 C20.9867477,50.550207 20.5745829,50.6433648 20.301,50.923 L16.807,54.523 C16.4982581,54.8377867 16.0209973,54.9159133 15.628,54.716 C15.247,54.525 14.871,54.316 14.5,54.105 C14.129,53.894 13.747,53.658 13.383,53.417 C13.0259159,53.1726191 12.8665156,52.7262983 12.988,52.311 L14.365,47.481 C14.4685816,47.1060384 14.3453162,46.7050358 14.049,46.453 C13.1524822,45.6804845 12.3145155,44.8425178 11.542,43.946 C11.2899642,43.6496838 10.8889616,43.5264184 10.514,43.63 L5.684,45.007 C5.26760427,45.1274692 4.82100681,44.9659511 4.578,44.607 C4.337,44.243 4.109,43.871 3.89,43.49 C3.671,43.109 3.47,42.743 3.279,42.362 C3.07908665,41.9690027 3.15721332,41.4917419 3.472,41.183 L7.072,37.689 C7.35163519,37.4154171 7.44479304,37.0032523 7.31,36.636 C6.91365976,35.5200185 6.60472795,34.3748979 6.386,33.211 C6.31620924,32.8285768 6.0311173,32.5212547 5.655,32.423 L0.8,31.205 C0.383412788,31.1032569 0.0780712301,30.7472263 0.041,30.32 C0.013,29.882 0,29.441 0,29 C0,28.559 0.013,28.118 0.043,27.68 C0.0818386332,27.2552435 0.385816351,26.9018745 0.8,26.8 L5.66,25.567 C6.0361173,25.4687453 6.32120924,25.1614232 6.391,24.779 C6.60972795,23.6151021 6.91865976,22.4699815 7.315,21.354 C7.45022795,20.9864589 7.35704032,20.5737708 7.077,20.3 L3.477,16.806 C3.16221332,16.4972581 3.08408665,16.0199973 3.284,15.627 C3.475,15.245 3.684,14.87 3.895,14.499 C4.106,14.128 4.342,13.746 4.583,13.382 C4.82738094,13.0249159 5.27370172,12.8655156 5.689,12.987 L10.519,14.363 C10.8934784,14.4679505 11.2947668,14.3448679 11.546,14.048 C12.0965681,13.4084362 12.681076,12.7988923 13.297,12.222 C13.5534961,11.9819677 13.9165404,11.8929513 14.254978,11.9871093 C14.5934157,12.0812673 14.8583236,12.3449885 14.954,12.683 L16.2,17.149 C16.2891484,17.4670261 16.2141676,17.8085635 16,18.06 C11.166,23.797 10.066,32.749 16.4,41.282 C16.4651196,41.3684445 16.5418413,41.4455027 16.628,41.511 C30.626,52.1 46,42.346 46,29 C46.0066063,24.9957019 44.5919958,21.1189888 42.008,18.06 C41.7922536,17.8098003 41.7153766,17.4685412 41.803,17.15 L43.051,12.684 C43.1466764,12.3459885 43.4115843,12.0822673 43.750022,11.9881093 C44.0884596,11.8939513 44.4515039,11.9829677 44.708,12.223 C45.323924,12.7998923 45.9084319,13.4094362 46.459,14.049 C46.7102332,14.3458679 47.1115216,14.4689505 47.486,14.364 L52.316,12.988 C52.7312983,12.8665156 53.1776191,13.0259159 53.422,13.383 C53.663,13.747 53.891,14.119 54.11,14.5 C54.329,14.881 54.53,15.246 54.721,15.628 C54.9209133,16.0209973 54.8427867,16.4982581 54.528,16.807 L50.928,20.301 C50.6483648,20.5745829 50.555207,20.9867477 50.69,21.354 C51.0863402,22.4699815 51.395272,23.6151021 51.614,24.779 C51.6837908,25.1614232 51.9688827,25.4687453 52.345,25.567 L57.2,26.8 C57.6165872,26.9017431 57.9219288,27.2577737 57.959,27.685 C57.989,28.123 58.002,28.564 58.002,29.005 C58.002,29.446 57.989,29.887 57.959,30.325 C57.9219288,30.7522263 57.6165872,31.1082569 57.2,31.21 L52.34,32.433 C51.9638827,32.5312547 51.6787908,32.8385768 51.609,33.221 Z" id="Shape" fill="#7D6599"/><path d="M20.354,39 C20.2498208,38.9997099 20.1462958,38.9835236 20.047,38.952 C19.79447,38.8706415 19.5846218,38.6922644 19.4636506,38.4561361 C19.3426794,38.2200078 19.3205018,37.945485 19.402,37.693 L20.048,35.693 C20.1417402,35.3341533 20.4263894,35.0566624 20.7875066,34.9720901 C21.1486239,34.8875178 21.5268883,35.0097569 21.7702218,35.2896623 C22.0135553,35.5695676 22.0819852,35.9611588 21.948,36.307 L21.302,38.307 C21.1691818,38.7187509 20.7866395,38.9983941 20.354,39 Z" id="Shape" fill="#95A5A5"/><path d="M37.646,39 C37.2118852,39.0001261 36.8272732,38.7201512 36.694,38.307 L36.048,36.307 C35.9140148,35.9611588 35.9824447,35.5695676 36.2257782,35.2896623 C36.4691117,35.0097569 36.8473761,34.8875178 37.2084934,34.9720901 C37.5696106,35.0566624 37.8542598,35.3341533 37.948,35.693 L38.594,37.693 C38.6754982,37.945485 38.6533206,38.2200078 38.5323494,38.4561361 C38.4113782,38.6922644 38.20153,38.8706415 37.949,38.952 C37.8509833,38.9831243 37.7488373,38.9993058 37.646,39 Z" id="Shape" fill="#95A5A5"/><circle id="Oval" fill="#95A5A5" cx="29.001" cy="10.999" r="5.999"/></g></g></svg>
