<?xml version="1.0" encoding="UTF-8"?>
<svg xmlns="http://www.w3.org/2000/svg" xmlns:xlink="http://www.w3.org/1999/xlink" width="512" height="512" viewBox="0 0 58 58" version="1.1"><!-- Generator: Sketch 50.2 (55047) - http://www.bohemiancoding.com/sketch --><title>032 - Controls </title><desc>Created with Sketch.</desc><defs/><g id="Page-1" stroke="none" stroke-width="1" fill="none" fill-rule="evenodd"><g id="032---Controls-" fill-rule="nonzero"><path d="M51,27 L47.253,1.707 C47.1077271,0.726074787 46.2656241,-0.000286900294 45.274,4.38508957e-18 L11.79,4.38508957e-18 C10.7700957,-0.00114617506 9.91269886,0.765340712 9.8,1.779 L7,27 L6,29 L52,29 L51,27 Z" id="Shape" fill="#3F5C6C"/><path d="M5,50 L17,50 L17,56 C17,57.1045695 16.1045695,58 15,58 L7,58 C5.8954305,58 5,57.1045695 5,56 L5,50 Z" id="Shape" fill="#95A5A5"/><path d="M40,50 L52,50 L52,56 C52,57.1045695 51.1045695,58 50,58 L42,58 C40.8954305,58 40,57.1045695 40,56 L40,50 Z" id="Shape" fill="#95A5A5"/><path d="M57.733,40.159 L55.358,50.45 C55.1484553,51.3574298 54.3403098,52.0001315 53.409,52 L4.591,52 C3.65969025,52.0001315 2.85154469,51.3574298 2.642,50.45 L0.267,40.159 C0.0956153447,39.4145132 0.214713256,38.6326873 0.6,37.973 L7,27 L51,27 L57.4,37.973 C57.7852867,38.6326873 57.9043847,39.4145132 57.733,40.159 Z" id="Shape" fill="#41767F"/><path d="M23,9 C23.0023795,10.2655528 22.5233261,11.4846365 21.66,12.41 C21.0311417,10.9474825 19.5919862,9.9997395 18,9.9997395 C16.4080138,9.9997395 14.9688583,10.9474825 14.34,12.41 C12.8136016,10.7700223 12.5644471,8.31487793 13.7302605,6.40168748 C14.896074,4.48849702 17.1922304,3.58435229 19.3494923,4.18903386 C21.5067542,4.79371543 22.9984415,6.75959461 23,9 Z" id="Shape" fill="#B0D3F0"/><path d="M18,12 C17.4477153,12 17,11.5522847 17,11 L17,8 C17,7.44771525 17.4477153,7 18,7 C18.5522847,7 19,7.44771525 19,8 L19,11 C19,11.5522847 18.5522847,12 18,12 Z" id="Shape" fill="#4482C3"/><path d="M13.56,18.17 C13.5042729,18.1321227 13.4437381,18.1018554 13.38,18.08 C13.3233376,18.0511123 13.2626625,18.0308873 13.2,18.02 C13.0051607,17.9786376 12.8022461,17.9996288 12.62,18.08 C12.4976187,18.128323 12.3856071,18.1996032 12.29,18.29 C12.1072663,18.4816338 12.0036835,18.735233 12,19 C11.9955278,19.2634308 12.1005414,19.5169119 12.29,19.7 C12.4764103,19.8918336 12.7325137,20.0000725 13,20.0000725 C13.2674863,20.0000725 13.5235897,19.8918336 13.71,19.7 C13.8913331,19.5114889 13.9948921,19.2615187 14,19 C13.9963165,18.735233 13.8927337,18.4816338 13.71,18.29 C13.6624865,18.2469872 13.6123935,18.2069128 13.56,18.17 Z" id="Shape" fill="#2C3E50"/><path d="M13.56,22.17 C13.5042729,22.1321227 13.4437381,22.1018554 13.38,22.08 C13.3233376,22.0511123 13.2626625,22.0308873 13.2,22.02 C13.0051607,21.9786376 12.8022461,21.9996288 12.62,22.08 C12.4976187,22.128323 12.3856071,22.1996032 12.29,22.29 C12.1072663,22.4816338 12.0036835,22.735233 12,23 C11.9955278,23.2634308 12.1005414,23.5169119 12.29,23.7 C12.4764103,23.8918336 12.7325137,24.0000725 13,24.0000725 C13.2674863,24.0000725 13.5235897,23.8918336 13.71,23.7 C13.8913331,23.5114889 13.9948921,23.2615187 14,23 C13.9963165,22.735233 13.8927337,22.4816338 13.71,22.29 C13.6624865,22.2469872 13.6123935,22.2069128 13.56,22.17 Z" id="Shape" fill="#2C3E50"/><path d="M17.56,18.17 C17.5042729,18.1321227 17.4437381,18.1018554 17.38,18.08 C17.3233376,18.0511123 17.2626625,18.0308873 17.2,18.02 C17.0051607,17.9786376 16.8022461,17.9996288 16.62,18.08 C16.4976187,18.128323 16.3856071,18.1996032 16.29,18.29 C16.1072663,18.4816338 16.0036835,18.735233 16,19 C15.9955278,19.2634308 16.1005414,19.5169119 16.29,19.7 C16.4764103,19.8918336 16.7325137,20.0000725 17,20.0000725 C17.2674863,20.0000725 17.5235897,19.8918336 17.71,19.7 C17.8913331,19.5114889 17.9948921,19.2615187 18,19 C17.9963165,18.735233 17.8927337,18.4816338 17.71,18.29 C17.6624865,18.2469872 17.6123935,18.2069128 17.56,18.17 Z" id="Shape" fill="#2C3E50"/><path d="M17.56,22.17 C17.5042729,22.1321227 17.4437381,22.1018554 17.38,22.08 C17.3233376,22.0511123 17.2626625,22.0308873 17.2,22.02 C17.0051607,21.9786376 16.8022461,21.9996288 16.62,22.08 C16.4976187,22.128323 16.3856071,22.1996032 16.29,22.29 C16.1072663,22.4816338 16.0036835,22.735233 16,23 C15.9955278,23.2634308 16.1005414,23.5169119 16.29,23.7 C16.4764103,23.8918336 16.7325137,24.0000725 17,24.0000725 C17.2674863,24.0000725 17.5235897,23.8918336 17.71,23.7 C17.8913331,23.5114889 17.9948921,23.2615187 18,23 C17.9963165,22.735233 17.8927337,22.4816338 17.71,22.29 C17.6624865,22.2469872 17.6123935,22.2069128 17.56,22.17 Z" id="Shape" fill="#2C3E50"/><path d="M21.56,18.17 C21.5042729,18.1321227 21.4437381,18.1018554 21.38,18.08 C21.3233376,18.0511123 21.2626625,18.0308873 21.2,18.02 C21.0051607,17.9786376 20.8022461,17.9996288 20.62,18.08 C20.4976187,18.128323 20.3856071,18.1996032 20.29,18.29 C20.1072663,18.4816338 20.0036835,18.735233 20,19 C19.9955278,19.2634308 20.1005414,19.5169119 20.29,19.7 C20.4764103,19.8918336 20.7325137,20.0000725 21,20.0000725 C21.2674863,20.0000725 21.5235897,19.8918336 21.71,19.7 C21.8913331,19.5114889 21.9948921,19.2615187 22,19 C21.9963165,18.735233 21.8927337,18.4816338 21.71,18.29 C21.6624865,18.2469872 21.6123935,18.2069128 21.56,18.17 Z" id="Shape" fill="#2C3E50"/><path d="M21.56,22.17 C21.5042729,22.1321227 21.4437381,22.1018554 21.38,22.08 C21.3233376,22.0511123 21.2626625,22.0308873 21.2,22.02 C21.0051607,21.9786376 20.8022461,21.9996288 20.62,22.08 C20.4976187,22.128323 20.3856071,22.1996032 20.29,22.29 C20.1072663,22.4816338 20.0036835,22.735233 20,23 C19.9955278,23.2634308 20.1005414,23.5169119 20.29,23.7 C20.4764103,23.8918336 20.7325137,24.0000725 21,24.0000725 C21.2674863,24.0000725 21.5235897,23.8918336 21.71,23.7 C21.8913331,23.5114889 21.9948921,23.2615187 22,23 C21.9963165,22.735233 21.8927337,22.4816338 21.71,22.29 C21.6624865,22.2469872 21.6123935,22.2069128 21.56,22.17 Z" id="Shape" fill="#2C3E50"/><path d="M25,20 C25.2680871,20.0030824 25.525348,19.8943807 25.71,19.7 C25.8913331,19.5114889 25.9948921,19.2615187 26,19 C25.9963165,18.735233 25.8927337,18.4816338 25.71,18.29 C25.6624865,18.2469872 25.6123935,18.2069128 25.56,18.17 C25.5042729,18.1321227 25.4437381,18.1018554 25.38,18.08 C25.3233376,18.0511123 25.2626625,18.0308873 25.2,18.02 C25.0051607,17.9786376 24.8022461,17.9996288 24.62,18.08 C24.4976187,18.128323 24.3856071,18.1996032 24.29,18.29 C24.1072663,18.4816338 24.0036835,18.735233 24,19 C23.9955278,19.2634308 24.1005414,19.5169119 24.29,19.7 C24.474652,19.8943807 24.7319129,20.0030824 25,20 Z" id="Shape" fill="#2C3E50"/><path d="M25.56,22.17 C25.5042729,22.1321227 25.4437381,22.1018554 25.38,22.08 C25.3233376,22.0511123 25.2626625,22.0308873 25.2,22.02 C25.0051607,21.9786376 24.8022461,21.9996288 24.62,22.08 C24.4976187,22.128323 24.3856071,22.1996032 24.29,22.29 C24.1072663,22.4816338 24.0036835,22.735233 24,23 C23.9955278,23.2634308 24.1005414,23.5169119 24.29,23.7 C24.4764103,23.8918336 24.7325137,24.0000725 25,24.0000725 C25.2674863,24.0000725 25.5235897,23.8918336 25.71,23.7 C25.8913331,23.5114889 25.9948921,23.2615187 26,23 C25.9963165,22.735233 25.8927337,22.4816338 25.71,22.29 C25.6624865,22.2469872 25.6123935,22.2069128 25.56,22.17 Z" id="Shape" fill="#2C3E50"/><path d="M45,18 L32,18 C31.4477153,18 31,18.4477153 31,19 C31,19.5522847 31.4477153,20 32,20 L45,20 C45.5522847,20 46,19.5522847 46,19 C46,18.4477153 45.5522847,18 45,18 Z" id="Shape" fill="#9FC9D3"/><path d="M40,22 L32,22 C31.4477153,22 31,22.4477153 31,23 C31,23.5522847 31.4477153,24 32,24 L40,24 C40.5522847,24 41,23.5522847 41,23 C41,22.4477153 40.5522847,22 40,22 Z" id="Shape" fill="#9FC9D3"/><circle id="Oval" fill="#2C3E50" cx="13" cy="33" r="2"/><circle id="Oval" fill="#2C3E50" cx="23" cy="33" r="2"/><circle id="Oval" fill="#2C3E50" cx="33" cy="33" r="2"/><circle id="Oval" fill="#2C3E50" cx="43" cy="33" r="2"/><path d="M53,40 L5,40 C4.44771525,40 4,39.5522847 4,39 C4,38.4477153 4.44771525,38 5,38 L53,38 C53.5522847,38 54,38.4477153 54,39 C54,39.5522847 53.5522847,40 53,40 Z" id="Shape" fill="#9FC9D3"/><path d="M21.66,12.41 C20.7130658,13.424338 19.3876476,14.0002107 18,14.0002107 C16.6123524,14.0002107 15.2869342,13.424338 14.34,12.41 C14.9688583,10.9474825 16.4080138,9.9997395 18,9.9997395 C19.5919862,9.9997395 21.0311417,10.9474825 21.66,12.41 Z" id="Shape" fill="#FF5364"/><path d="M43,9 C43.0023795,10.2655528 42.5233261,11.4846365 41.66,12.41 C41.0311417,10.9474825 39.5919862,9.9997395 38,9.9997395 C36.4080138,9.9997395 34.9688583,10.9474825 34.34,12.41 C32.8136016,10.7700223 32.5644471,8.31487793 33.7302605,6.40168748 C34.896074,4.48849702 37.1922304,3.58435229 39.3494923,4.18903386 C41.5067542,4.79371543 42.9984415,6.75959461 43,9 Z" id="Shape" fill="#B0D3F0"/><path d="M38,12 C37.4477153,12 37,11.5522847 37,11 L37,8 C37,7.44771525 37.4477153,7 38,7 C38.5522847,7 39,7.44771525 39,8 L39,11 C39,11.5522847 38.5522847,12 38,12 Z" id="Shape" fill="#4482C3"/><path d="M41.66,12.41 C40.7130658,13.424338 39.3876476,14.0002107 38,14.0002107 C36.6123524,14.0002107 35.2869342,13.424338 34.34,12.41 C34.9688583,10.9474825 36.4080138,9.9997395 38,9.9997395 C39.5919862,9.9997395 41.0311417,10.9474825 41.66,12.41 Z" id="Shape" fill="#FF5364"/></g></g></svg>
