<?xml version="1.0" encoding="UTF-8"?>
<svg xmlns="http://www.w3.org/2000/svg" xmlns:xlink="http://www.w3.org/1999/xlink" width="512" height="512" viewBox="0 0 30 58" version="1.1"><!-- Generator: Sketch 50.2 (55047) - http://www.bohemiancoding.com/sketch --><title>030 - Pipe </title><desc>Created with Sketch.</desc><defs/><g id="Page-1" stroke="none" stroke-width="1" fill="none" fill-rule="evenodd"><g id="030---Pipe-" fill-rule="nonzero"><polygon id="Shape" fill="#71C285" points="7 40.841 7 50 23 50 23 40.841 23 16.159 23 7 7 7 7 16.159"/><circle id="Oval" fill="#B0D3F0" cx="15" cy="29" r="14"/><path d="M15,44 C6.71572875,44 0,37.2842712 0,29 C-1.77635684e-15,20.7157288 6.71572875,14 15,14 C23.2842712,14 30,20.7157288 30,29 C29.9906315,37.2803876 23.2803876,43.9906315 15,44 Z M15,16 C7.82029825,16 2,21.8202983 2,29 C2,36.1797017 7.82029825,42 15,42 C22.1797017,42 28,36.1797017 28,29 C27.991734,21.8237249 22.1762751,16.008266 15,16 Z" id="Shape" fill="#556080"/><path d="M20.994,38 C20.5635696,38 20.1814307,37.7245699 20.0453167,37.3162278 C19.9092027,36.9078856 20.0496557,36.4582582 20.394,36.2 C22.6710288,34.5086974 24.0093946,31.8364197 24,29 C24.0000119,28.3954569 23.939375,27.7924375 23.819,27.2 C23.7378348,26.8461831 23.8547833,26.4761673 24.1245491,26.2332669 C24.394315,25.9903665 24.7745276,25.9127325 25.1179232,26.030434 C25.4613188,26.1481355 25.7139624,26.4426859 25.778,26.8 C26.6282583,30.9672853 24.9988166,35.2511904 21.594,37.8 C21.4209038,37.9298221 21.2103702,38 20.994,38 Z" id="Shape" fill="#C03A2B"/><path d="M23,24 C22.6852427,24 22.3888544,23.8518058 22.2,23.6 C20.5022283,21.3335037 17.8358606,19.9993307 15.004,19.9993307 C12.1721394,19.9993307 9.50577166,21.3335037 7.808,23.6 C7.59364065,23.8858125 7.2430853,24.0355548 6.88838475,23.9928204 C6.5336842,23.9500859 6.22872591,23.7213672 6.08838473,23.3928203 C5.94804355,23.0642734 5.99364063,22.6858125 6.208,22.4 C8.28337373,19.6310854 11.5416439,18.0013325 15.002,18.0013325 C18.4623561,18.0013325 21.7206263,19.6310854 23.796,22.4 C24.0228358,22.7024414 24.0597205,23.1069499 23.8913267,23.44543 C23.7229329,23.7839101 23.3780515,23.99849 23,24 Z" id="Shape" fill="#E57E25"/><path d="M9.006,38 C8.78962979,38 8.57909617,37.9298221 8.406,37.8 C5.00118345,35.2511904 3.37174171,30.9672853 4.222,26.8 C4.28603765,26.4426859 4.53868115,26.1481355 4.88207679,26.030434 C5.22547242,25.9127325 5.60568502,25.9903665 5.87545086,26.2332669 C6.1452167,26.4761673 6.26216522,26.8461831 6.181,27.2 C6.060625,27.7924375 5.99998805,28.3954569 6,29 C5.99084013,31.8365972 7.32959403,34.5089088 9.607,36.2 C9.95134433,36.4582582 10.0917973,36.9078856 9.9556833,37.3162278 C9.81956925,37.7245699 9.43743041,38 9.007,38 L9.006,38 Z" id="Shape" fill="#24AE5F"/><path d="M21,30 L12,30 C11.4477153,30 11,29.5522847 11,29 C11,28.4477153 11.4477153,28 12,28 L21,28 C21.5522847,28 22,28.4477153 22,29 C22,29.5522847 21.5522847,30 21,30 Z" id="Shape" fill="#2C3E50"/><rect id="Rectangle-path" fill="#4C8056" x="3" y="0" width="24" height="9" rx="2"/><rect id="Rectangle-path" fill="#4C8056" transform="translate(15.000000, 53.500000) rotate(180.000000) translate(-15.000000, -53.500000) " x="3" y="49" width="24" height="9" rx="2"/><circle id="Oval" fill="#4482C3" cx="15" cy="29" r="2"/></g></g></svg>
