<?xml version="1.0" encoding="UTF-8"?>
<svg xmlns="http://www.w3.org/2000/svg" xmlns:xlink="http://www.w3.org/1999/xlink" width="512" height="512" viewBox="0 0 58 48" version="1.1"><!-- Generator: Sketch 50.2 (55047) - http://www.bohemiancoding.com/sketch --><title>028 - Mask </title><desc>Created with Sketch.</desc><defs/><g id="Page-1" stroke="none" stroke-width="1" fill="none" fill-rule="evenodd"><g id="028---Mask-" transform="translate(-4.000000, 0.000000)" fill-rule="nonzero"><rect id="Rectangle-path" fill="#5E5F62" x="30" y="3" width="6" height="13"/><path d="M21.047,23.508 L27.692,14.408 C27.8808428,14.1509114 28.1810083,13.9993427 28.5,14 L37.5,14 C37.818997,14.0001287 38.1187918,14.1524408 38.307,14.41 L44.952,23.51 C45.1704685,23.8093349 45.2054882,24.2049423 45.043,24.538 L38.273,38.438 C38.1053136,38.7821691 37.7558459,39.0003923 37.373,39 L28.623,39 C28.2401541,39.0003923 27.8906864,38.7821691 27.723,38.438 L20.953,24.538 C20.7905632,24.2038625 20.8267623,23.8072138 21.047,23.508 Z" id="Shape" fill="#F0C419"/><circle id="Oval" fill="#D25627" cx="33" cy="26" r="4"/><path d="M59.9,27.459 L51.889,22.849 C50.147,21.831 47.689,22.541 45.304,24.467 C43.4952887,25.982429 41.9807562,27.8176302 40.836,29.881 C39.2157201,32.5476033 38.3403077,35.5999783 38.301,38.72 C38.375,40.743 39.05,42.331 40.348,43.084 L40.548,43.195 L48.1,47.541 L59.9,27.459 Z" id="Shape" fill="#E57E25"/><path d="M6.1,27.459 L14.111,22.849 C15.853,21.831 18.311,22.541 20.696,24.467 C22.5047113,25.982429 24.0192438,27.8176302 25.164,29.881 C26.7846308,32.5475036 27.6603905,35.5998852 27.7,38.72 C27.626,40.743 26.951,42.331 25.653,43.084 L25.453,43.195 L17.9,47.541 L6.1,27.459 Z" id="Shape" fill="#E57E25"/><ellipse id="Oval" fill="#D25627" transform="translate(54.000317, 37.500018) rotate(-59.199000) translate(-54.000317, -37.500018) " cx="54.0003174" cy="37.5000178" rx="11.647" ry="6.207"/><ellipse id="Oval" fill="#2C3E50" transform="translate(54.000317, 37.500018) rotate(-59.199000) translate(-54.000317, -37.500018) " cx="54.0003174" cy="37.5000178" rx="6.26" ry="2.503"/><path d="M25.04,18.04 L14,6 C14,6 10.56,8.24 11,10 C11.38,11.53 20,19.78 22.23,21.89" id="Shape" fill="#5E5F62"/><path d="M43.77,21.89 C46,19.78 54.62,11.53 55,10 C55.44,8.24 52,6 52,6 L40.96,18.04" id="Shape" fill="#5E5F62"/><path d="M48.45,9.88 C45.2728029,8.03764914 41.8575312,6.64058429 38.3,5.728 C34.8367714,4.75701475 31.1732286,4.75701475 27.71,5.728 C24.1490164,6.63971864 20.7303254,8.03680576 17.55,9.88 L14,6 C14,6 22.547,0 33,0 C43.453,0 52,6 52,6 L48.45,9.88 Z" id="Shape" fill="#7F8C8D"/><ellipse id="Oval" fill="#D25627" transform="translate(12.000075, 37.499846) rotate(-30.801000) translate(-12.000075, -37.499846) " cx="12.0000754" cy="37.4998461" rx="6.207" ry="11.647"/><ellipse id="Oval" fill="#2C3E50" transform="translate(12.000075, 37.499846) rotate(-30.801000) translate(-12.000075, -37.499846) " cx="12.0000754" cy="37.4998461" rx="2.503" ry="6.26"/></g></g></svg>
