<?xml version="1.0" encoding="UTF-8"?>
<svg xmlns="http://www.w3.org/2000/svg" xmlns:xlink="http://www.w3.org/1999/xlink" width="512" height="512" viewBox="0 0 58 58" version="1.1"><!-- Generator: Sketch 50.2 (55047) - http://www.bohemiancoding.com/sketch --><title>026 - Technical Maintinence </title><desc>Created with Sketch.</desc><defs/><g id="Page-1" stroke="none" stroke-width="1" fill="none" fill-rule="evenodd"><g id="026---Technical-Maintinence-" transform="translate(0.000000, -1.000000)" fill-rule="nonzero"><path d="M5,48 L5,14 C5.0032948,12.8967981 5.89679813,12.0032948 7,12 L51,12 C52.1032019,12.0032948 52.9967052,12.8967981 53,14 L53,48 L5,48 Z" id="Shape" fill="#67B9CC"/><path d="M39.74,28.81 L36.82,31.74 L29.97,24.9 L25.1,20.03 L16.54,11.46 L16.64,11.36 L11.36,6.08 C11.1101,5.82813647 11.1101,5.42186353 11.36,5.17 L13.17,3.36 C13.2876952,3.23872978 13.4489351,3.16946613 13.6179177,3.16758855 C13.7869002,3.16571097 13.9496393,3.23137485 14.07,3.35 L19.36,8.64 L19.46,8.54 L28.03,17.1 L36.26,25.33 L39.74,28.81 Z" id="Shape" fill="#2C3E50"/><path d="M26.168,2.168 C26.168,2.168 22.168,3.168 20.733,5.368 C20.4897675,5.63380713 20.4757775,6.03697203 20.7,6.319 L22.529,8.148 C23.033859,8.66518863 23.0253635,9.49327801 22.51,10 L18.265,14.245 C18.1422054,14.3636807 17.9768994,14.4280859 17.8061806,14.4237615 C17.6354618,14.4194371 17.4736285,14.3467454 17.357,14.222 C17.1137029,13.9800475 16.7820109,13.8481656 16.439,13.857 C16.0886837,13.8571544 15.7530236,13.997613 15.507,14.247 L15.245,14.51 C14.842794,14.9091256 14.7376275,15.5192523 14.983,16.03 L15.27,16.604 C15.3965756,16.8601214 15.3445662,17.1685496 15.141,17.369 L14.072,18.44 C13.5636708,18.9552844 12.7347716,18.9637699 12.216,18.459 L8.542,14.785 C8.03656607,14.2661076 8.04505484,13.4364421 8.561,12.928 L9.63,11.86 C9.83051529,11.6566734 10.1385757,11.6043233 10.395,11.73 L10.969,12.018 C11.4797916,12.2630576 12.0897276,12.1579239 12.489,11.756 L12.751,11.494 C13.0106944,11.2592778 13.1615169,10.9274387 13.1675807,10.5774402 C13.1736446,10.2274418 13.0344077,9.89057721 12.783,9.647 C12.6514717,9.52652813 12.5765754,9.35636243 12.5765754,9.178 C12.5765754,8.99963757 12.6514717,8.82947187 12.783,8.709 L17.939,3.553 C17.939,3.553 21.608,-1.066 26.168,2.168 Z" id="Shape" fill="#BDC3C7"/><path d="M53,46 L5,46 L0,55 L0,57 C0.00329480111,58.1032019 0.896798134,58.9967052 2,59 L56,59 C57.1032019,58.9967052 57.9967052,58.1032019 58,57 L58,55 L53,46 Z" id="Shape" fill="#95A5A5"/><path d="M58,55 L58,57 C57.9967052,58.1032019 57.1032019,58.9967052 56,59 L2,59 C0.896798134,58.9967052 0.00329480111,58.1032019 0,57 L0,55 L58,55 Z" id="Shape" fill="#7F8C8D"/><path d="M20,55 L21.724,51.553 C21.8932635,51.2142706 22.2393343,51.0002022 22.618,51 L35.382,51 C35.7606657,51.0002022 36.1067365,51.2142706 36.276,51.553 L38,55 L20,55 Z" id="Shape" fill="#BDC3C7"/><path d="M48.54,4.38 L45.62,7.31 C44.8034872,8.07325231 43.5288903,8.05177241 42.7385589,7.26144106 C41.9482276,6.47110972 41.9267477,5.19651282 42.69,4.38 L45.62,1.46 C43.5998224,0.563848018 41.2372706,0.991961429 39.66,2.54 C38.501367,3.70084198 37.9472145,5.3337445 38.16,6.96 L15.12,30 C12.793124,29.7444612 10.5584412,30.9856985 9.54574983,33.0961743 C8.53305843,35.20665 8.96302331,37.7264928 10.6182653,39.3817347 C12.2735072,41.0369767 14.79335,41.4669416 16.9038257,40.4542502 C19.0143015,39.4415588 20.2555388,37.206876 20,34.88 L43,12 C44.6616121,12.1526617 46.3025548,11.5419072 47.46,10.34 C49.0080386,8.7627294 49.436152,6.40017761 48.54,4.38 Z M13.18,36.86 C12.4000443,36.0739841 12.4000443,34.8060159 13.18,34.02 C13.5517154,33.6456536 14.0574514,33.4351254 14.585,33.4351254 C15.1125486,33.4351254 15.6182846,33.6456536 15.99,34.02 C16.7699557,34.8060159 16.7699557,36.0739841 15.99,36.86 C15.6182846,37.2343464 15.1125486,37.4448746 14.585,37.4448746 C14.0574514,37.4448746 13.5517154,37.2343464 13.18,36.86 Z" id="Shape" fill="#41767F"/><path d="M38.2196403,24.2621198 L44.4956403,24.2621198 C45.0479251,24.2621198 45.4956403,24.7098351 45.4956403,25.2621198 L45.4956403,38.3131198 C45.4956403,40.5984741 43.6429946,42.4511198 41.3576403,42.4511198 C39.0722861,42.4511198 37.2196403,40.5984741 37.2196403,38.3131198 L37.2196403,25.2621198 C37.2196403,24.7098351 37.6673556,24.2621198 38.2196403,24.2621198 Z" id="Shape" fill="#7F5B53" transform="translate(41.357640, 33.356620) rotate(-44.999000) translate(-41.357640, -33.356620) "/><path d="M21,30 C20.5956041,29.9999137 20.2310659,29.7562725 20.076322,29.3826546 C19.9215781,29.0090366 20.0070921,28.5789943 20.293,28.293 L36.293,12.293 C36.6853789,11.9140278 37.3090848,11.9194476 37.6948186,12.3051814 C38.0805524,12.6909152 38.0859722,13.3146211 37.707,13.707 L21.707,29.707 C21.5195073,29.8945494 21.2651948,29.9999434 21,30 Z" id="Shape" fill="#9FC9D3"/></g></g></svg>
