<?xml version="1.0" encoding="UTF-8"?>
<svg xmlns="http://www.w3.org/2000/svg" xmlns:xlink="http://www.w3.org/1999/xlink" width="512" height="512" viewBox="0 0 59 58" version="1.1"><!-- Generator: Sketch 50.2 (55047) - http://www.bohemiancoding.com/sketch --><title>025 - Tools </title><desc>Created with Sketch.</desc><defs/><g id="Page-1" stroke="none" stroke-width="1" fill="none" fill-rule="evenodd"><g id="025---Tools-" transform="translate(0.000000, -1.000000)" fill-rule="nonzero"><path d="M38.555,34.956 L27.94,24.351 L16.294,12.706 L16.24,12.76 L8.76,5.28 C8.57735721,5.09897037 8.33007146,4.99823703 8.07292054,5.00011404 C7.81576962,5.00199106 7.5699807,5.10632348 7.39,5.29 L4.64,8.04 C4.45302715,8.22086449 4.34745786,8.46986386 4.34745786,8.73 C4.34745786,8.99013614 4.45302715,9.23913551 4.64,9.42 L12.11,16.89 L12.054,16.946 L23.7,28.591 L30.76,35.651 L38.055,42.945 L42.3,38.7 L38.555,34.956 Z" id="Shape" fill="#2C3E50"/><path d="M57.68,5.91 L53.44,10.15 C52.257961,11.2514354 50.4159611,11.2189355 49.2735128,10.0764872 C48.1310645,8.93403889 48.0985646,7.09203902 49.2,5.91 L53.44,1.67 C50.5168479,0.360862846 47.0898476,0.980343773 44.81,3.23 C43.129761,4.91740832 42.3280716,7.2892267 42.64,9.65 L9.22,43.06 C5.84356568,42.6857624 2.59897629,44.4847449 1.12779902,47.5467703 C-0.343378253,50.6087958 0.279717748,54.2660419 2.6818379,56.6681621 C5.08395806,59.0702823 8.74120421,59.6933783 11.8032297,58.222201 C14.8652551,56.7510237 16.6642376,53.5064343 16.29,50.13 L49.7,16.71 C52.0607733,17.0219284 54.4325917,16.220239 56.12,14.54 C58.3696562,12.2601524 58.9891372,8.83315211 57.68,5.91 Z M10.47,53.12 C9.61229995,53.9787681 8.32165368,54.2361198 7.20017218,53.7719956 C6.07869068,53.3078715 5.34736013,52.2137265 5.34736013,51 C5.34736013,49.7862735 6.07869068,48.6921285 7.20017218,48.2280044 C8.32165368,47.7638802 9.61229995,48.0212319 10.47,48.88 C11.6398135,50.0512702 11.6398135,51.9487298 10.47,53.12 Z" id="Shape" fill="#41767F"/><path d="M41.057,18.293 C40.6665001,17.9026181 40.0334999,17.9026181 39.643,18.293 L17.643,40.293 C17.3830434,40.5440745 17.2787874,40.9158779 17.3703028,41.2655073 C17.4618183,41.6151368 17.7348632,41.8881817 18.0844927,41.9796972 C18.4341221,42.0712126 18.8059255,41.9669566 19.057,41.707 L41.057,19.707 C41.4473819,19.3165001 41.4473819,18.6834999 41.057,18.293 Z" id="Shape" fill="#9FC9D3"/><path d="M41.610164,33.1411228 L51.610164,33.1411228 C52.1624487,33.1411228 52.610164,33.588838 52.610164,34.1411228 L52.610164,55.3761228 C52.610164,58.6898313 49.9238725,61.3761228 46.610164,61.3761228 C43.2964555,61.3761228 40.610164,58.6898313 40.610164,55.3761228 L40.610164,34.1411228 C40.610164,33.588838 41.0578792,33.1411228 41.610164,33.1411228 Z" id="Shape" fill="#7F5B53" transform="translate(46.610164, 47.258623) rotate(-44.999000) translate(-46.610164, -47.258623) "/><path d="M28.6,2.456 C28.6,2.456 24.33,2.014 18.569,8.537 C18.1848909,8.90916559 18.1641216,9.5185455 18.522,9.916 L21.174,12.568 C21.5279894,12.9280553 21.7241029,13.4142054 21.719037,13.9191041 C21.7139711,14.4240027 21.5081426,14.9061199 21.147,15.259 L14.991,21.415 C14.8129294,21.5872954 14.5730626,21.6807596 14.3253653,21.674365 C14.077668,21.6679704 13.8429433,21.562254 13.674,21.381 C13.3209822,21.0307317 12.8401317,20.8399811 12.343,20.853 C11.8352638,20.8532545 11.3487515,21.0567182 10.992,21.418 L10.611,21.799 C10.0300578,22.3773169 9.87805962,23.2596284 10.232,23.999 L10.649,24.831 C10.8310154,25.2030081 10.7553635,25.6496759 10.461,25.941 L8.911,27.49 C8.17421964,28.23751 6.97217492,28.2500173 6.22,27.518 L0.892,22.194 C0.157988286,21.4414637 0.170505617,20.2371176 0.92,19.5 L2.469,17.95 C2.76026092,17.6554 3.20729356,17.5800891 3.579,17.763 L4.412,18.179 C5.15124054,18.5338827 6.03412199,18.3817863 6.612,17.8 L7,17.423 C7.37630797,17.0823051 7.59476864,16.601015 7.60348353,16.0934672 C7.61219843,15.5859194 7.41038973,15.0974131 7.046,14.744 C6.85559107,14.5693707 6.74718837,14.3228621 6.74718837,14.0645 C6.74718837,13.8061379 6.85559107,13.5596293 7.046,13.385 L14.524,5.908 C14.524,5.908 21.985,-2.234 28.6,2.456 Z" id="Shape" fill="#BDC3C7"/></g></g></svg>
