<?xml version="1.0" encoding="UTF-8"?>
<svg xmlns="http://www.w3.org/2000/svg" xmlns:xlink="http://www.w3.org/1999/xlink" width="512" height="512" viewBox="0 0 58 58" version="1.1"><!-- Generator: Sketch 50.2 (55047) - http://www.bohemiancoding.com/sketch --><title>024 - Robotic Arm </title><desc>Created with Sketch.</desc><defs/><g id="Page-1" stroke="none" stroke-width="1" fill="none" fill-rule="evenodd"><g id="024---Robotic-Arm-" fill-rule="nonzero"><path d="M10,43 L48,43 L48,56 C48,57.1045695 47.1045695,58 46,58 L12,58 C10.8954305,58 10,57.1045695 10,56 L10,43 Z" id="Shape" fill="#2C3E50"/><path d="M40,53 L18,53 C17.4477153,53 17,52.5522847 17,52 C17,51.4477153 17.4477153,51 18,51 L40,51 C40.5522847,51 41,51.4477153 41,52 C41,52.5522847 40.5522847,53 40,53 Z" id="Shape" fill="#35495E"/><path d="M58,32 L58,38 L-7.59432575e-06,38 L7.73141181e-16,32 C-0.00292464858,29.8773728 0.838990861,27.8408418 2.33991634,26.3399163 C3.84084182,24.8389909 5.87737284,23.9970754 8,24 L50,24 C54.418278,24 58,27.581722 58,32 Z" id="Shape" fill="#7F8C8D"/><path d="M10,24 L10,30 C10,30.5522847 9.55228475,31 9,31 C8.44771525,31 8,30.5522847 8,30 L8,24 L10,24 Z" id="Shape" fill="#5E5F62"/><path d="M20,24 L20,30 C20,30.5522847 19.5522847,31 19,31 C18.4477153,31 18,30.5522847 18,30 L18,24 L20,24 Z" id="Shape" fill="#5E5F62"/><path d="M30,24 L30,30 C30,30.5522847 29.5522847,31 29,31 C28.4477153,31 28,30.5522847 28,30 L28,24 L30,24 Z" id="Shape" fill="#5E5F62"/><path d="M40,24 L40,30 C40,30.5522847 39.5522847,31 39,31 C38.4477153,31 38,30.5522847 38,30 L38,24 L40,24 Z" id="Shape" fill="#5E5F62"/><path d="M50,24 L50,30 C50,30.5522847 49.5522847,31 49,31 C48.4477153,31 48,30.5522847 48,30 L48,24 L50,24 Z" id="Shape" fill="#5E5F62"/><path d="M31.99,11.83 L35.25,14.44 C35.7229114,14.8199324 35.9986057,15.3933767 36,16 L36,18 C36,19.1045695 35.1045695,20 34,20 L32,20 L32,16.96 L29.49,14.96 L28.51,14.96 L26,16.96 L26,20 L24,20 C22.8954305,20 22,19.1045695 22,18 L22,16 C22.0013943,15.3933767 22.2770886,14.8199324 22.75,14.44 L26.01,11.83 L31.99,11.83 Z" id="Shape" fill="#285680"/><rect id="Rectangle-path" fill="#95A5A5" x="27" y="4" width="4" height="7"/><circle id="Oval" fill="#CC66A1" cx="29" cy="12" r="3"/><path d="M58,38 C58.0029246,40.1226272 57.1610091,42.1591582 55.6600837,43.6600837 C54.1591582,45.1610091 52.1226272,46.0029246 50,46 L8,46 C3.581722,46 4.4408921e-16,42.418278 0,38 C-5.55111512e-16,33.581722 3.581722,30 8,30 L50,30 C54.418278,30 58,33.581722 58,38 Z" id="Shape" fill="#95A5A5"/><circle id="Oval" fill="#2C3E50" cx="9" cy="38" r="3"/><circle id="Oval" fill="#2C3E50" cx="19" cy="38" r="3"/><circle id="Oval" fill="#2C3E50" cx="29" cy="38" r="3"/><circle id="Oval" fill="#2C3E50" cx="39" cy="38" r="3"/><circle id="Oval" fill="#2C3E50" cx="49" cy="38" r="3"/><path d="M0,0 L58,0 L58,3 C58,4.1045695 57.1045695,5 56,5 L2,5 C0.8954305,5 2.22044605e-16,4.1045695 0,3 L0,0 Z" id="Shape" fill="#285680"/></g></g></svg>
