<?xml version="1.0" encoding="UTF-8"?>
<svg xmlns="http://www.w3.org/2000/svg" xmlns:xlink="http://www.w3.org/1999/xlink" width="512" height="512" viewBox="0 0 59 42" version="1.1"><!-- Generator: Sketch 50.2 (55047) - http://www.bohemiancoding.com/sketch --><title>023 - Tape Measure </title><desc>Created with Sketch.</desc><defs/><g id="Page-1" stroke="none" stroke-width="1" fill="none" fill-rule="evenodd"><g id="023---Tape-Measure-" fill-rule="nonzero"><rect id="Rectangle-path" fill="#F0C419" x="43" y="32" width="15" height="5"/><path d="M39,42 L12,42 C5.372583,42 4.4408921e-15,36.627417 3.55271368e-15,30 L3.55271368e-15,18 C4.88498131e-15,8.0588745 8.0588745,1.77635684e-15 18,0 L25.858,0 C28.5101511,3.59695346e-05 31.0536639,1.05362796 32.929,2.929 L41.071,11.071 C42.946372,12.9463361 43.999964,15.4898489 44,18.142 L44,37 C44,39.7614237 41.7614237,42 39,42 Z" id="Shape" fill="#285680"/><path d="M58,42 C57.4477153,42 57,41.5522847 57,41 L57,32 C57,31.4477153 57.4477153,31 58,31 C58.5522847,31 59,31.4477153 59,32 L59,41 C59,41.5522847 58.5522847,42 58,42 Z" id="Shape" fill="#7F8C8D"/><path d="M33,3 L38.172,3 C38.7023896,3.00011327 39.2110145,3.21090125 39.586,3.586 L41.414,5.414 C41.7890987,5.78898546 41.9998867,6.29761037 42,6.828 L42,12.15 L34,10 L33,3 Z" id="Shape" fill="#C03A2B"/><path d="M44,18.14 L44,31 L31.18,31 C30.6615748,31.0089358 30.165442,31.2123859 29.79,31.57 C25.5074956,35.5072994 19.1305398,36.1201708 14.1765435,33.0705657 C9.22254725,30.0209605 6.89765836,24.0513653 8.48424256,18.4544982 C10.0708267,12.857631 15.1825989,8.9961596 21,9 L24.69,9 C25.5313156,8.99729303 26.2817433,8.47039696 26.57,7.68 L29,1 L29.14,0.55 C30.5666846,1.04729584 31.8623642,1.86094157 32.93,2.93 L41.07,11.07 C42.9463325,12.9443666 44.0004232,15.4878549 44,18.14 Z" id="Shape" fill="#4482C3"/><circle id="Oval" fill="#67B9CC" cx="21" cy="22" r="7"/></g></g></svg>
