<?xml version="1.0" encoding="UTF-8"?>
<svg xmlns="http://www.w3.org/2000/svg" xmlns:xlink="http://www.w3.org/1999/xlink" width="512" height="512" viewBox="0 0 50 59" version="1.1"><!-- Generator: Sketch 50.2 (55047) - http://www.bohemiancoding.com/sketch --><title>022 - Forklift </title><desc>Created with Sketch.</desc><defs/><g id="Page-1" stroke="none" stroke-width="1" fill="none" fill-rule="evenodd"><g id="022---Forklift-" fill-rule="nonzero"><path d="M16,48 L20,48 L20,56.5 C20,57.6045695 19.1045695,58.5 18,58.5 C16.8954305,58.5 16,57.6045695 16,56.5 L16,48 Z" id="Shape" fill="#95A5A5"/><path d="M30,48 L34,48 L34,56.5 C34,57.6045695 33.1045695,58.5 32,58.5 C30.8954305,58.5 30,57.6045695 30,56.5 L30,48 Z" id="Shape" fill="#95A5A5"/><path d="M39,27.5 L11,27.5 L11.92,7.41 C11.960919,6.34139944 12.8406203,5.497063 13.91,5.5 L36.09,5.5 C37.1593797,5.497063 38.039081,6.34139944 38.08,7.41 L39,27.5 Z" id="Shape" fill="#B0D3F0"/><path d="M39,28.5 L11,28.5 C10.7266177,28.5002894 10.4650362,28.3886417 10.2761195,28.1910349 C10.0872028,27.9934281 9.98742425,27.7270931 10,27.454 L10.92,7.364 C10.9809419,5.75908688 12.303951,4.49182997 13.91,4.5 L36.09,4.5 C37.6987868,4.4935644 39.0222472,5.76523731 39.08,7.373 L40,27.454 C40.0125757,27.7270931 39.9127972,27.9934281 39.7238805,28.1910349 C39.5349638,28.3886417 39.2733823,28.5002894 39,28.5 Z M12.047,26.5 L37.953,26.5 L37.081,7.456 C37.0642089,6.92148218 36.624776,6.49756903 36.09,6.5 L13.91,6.5 C13.3780126,6.49690736 12.9394939,6.9163985 12.919,7.448 L12.047,26.5 Z" id="Shape" fill="#E57E25"/><path d="M45,29.5 L45,41 L4,41 L4,29.5 C4.0032948,28.3967981 4.89679813,27.5032948 6,27.5 L43,27.5 C44.1032019,27.5032948 44.9967052,28.3967981 45,29.5 Z" id="Shape" fill="#D25627"/><rect id="Rectangle-path" fill="#D25627" x="9" y="39.521" width="32" height="11.948"/><path d="M39,42.5 C39.3415766,42.4978744 39.6806042,42.5588994 40,42.68 L40,39.5 L10,39.5 L10,42.68 C10.3193958,42.5588994 10.6584234,42.4978744 11,42.5 C12.6568542,42.5 14,43.8431458 14,45.5 C14,47.1568542 12.6568542,48.5 11,48.5 C10.6584234,48.5021256 10.3193958,48.4411006 10,48.32 L10,51.5 L40,51.5 L40,48.32 C39.6806042,48.4411006 39.3415766,48.5021256 39,48.5 C37.3431458,48.4999999 36.0000001,47.1568542 36.0000001,45.5 C36.0000001,43.8431458 37.3431458,42.5000001 39,42.5 Z M28.41,46.91 C28.0395388,47.2898589 27.5305905,47.5028231 27,47.5 L23,47.5 C21.8967981,47.4967052 21.0032948,46.6032019 21,45.5 C21.0081672,44.3988312 21.8988312,43.5081672 23,43.5 L27,43.5 C28.1032019,43.5032948 28.9967052,44.3967981 29,45.5 C29.0028231,46.0305905 28.7898589,46.5395388 28.41,46.91 Z" id="Shape" fill="#F29C1F"/><rect id="Rectangle-path" fill="#2C3E50" x="0" y="36.5" width="10" height="22" rx="2"/><rect id="Rectangle-path" fill="#F0C419" x="16" y="1.5" width="4" height="40.5"/><rect id="Rectangle-path" fill="#2C3E50" transform="translate(45.000000, 47.500000) rotate(-180.000000) translate(-45.000000, -47.500000) " x="40" y="36.5" width="10" height="22" rx="2"/><rect id="Rectangle-path" fill="#F0C419" transform="translate(32.000000, 21.750000) rotate(-180.000000) translate(-32.000000, -21.750000) " x="30" y="1.5" width="4" height="40.5"/><path d="M38,0.5 L12,0.5 C11.4477153,0.5 11,0.94771525 11,1.5 C11,2.05228475 11.4477153,2.5 12,2.5 L38,2.5 C38.5522847,2.5 39,2.05228475 39,1.5 C39,0.94771525 38.5522847,0.5 38,0.5 Z" id="Shape" fill="#D25627"/><path d="M25,25.5 L29.8,25.5 C30.4058447,25.450087 30.9398441,25.8950864 31,26.5 L31,28.5 C30.9398441,29.1049136 30.4058447,29.549913 29.8,29.5 L20.2,29.5 C19.5941553,29.549913 19.0601559,29.1049136 19,28.5 L19,26.5 C19.0601559,25.8950864 19.5941553,25.450087 20.2,25.5 L25,25.5 Z" id="Shape" fill="#F0C419"/><path d="M9,27.5 L9,30.5 C9,31.0522847 8.55228475,31.5 8,31.5 L4,31.5 L4,29.5 C4.0032948,28.3967981 4.89679813,27.5032948 6,27.5 L9,27.5 Z" id="Shape" fill="#F3D55B"/><path d="M45,29.5 L45,31.5 L41,31.5 C40.4477153,31.5 40,31.0522847 40,30.5 L40,27.5 L43,27.5 C44.1032019,27.5032948 44.9967052,28.3967981 45,29.5 Z" id="Shape" fill="#F3D55B"/></g></g></svg>
