<?xml version="1.0" encoding="UTF-8"?>
<svg xmlns="http://www.w3.org/2000/svg" xmlns:xlink="http://www.w3.org/1999/xlink" width="512" height="512" viewBox="0 0 58 58" version="1.1"><!-- Generator: Sketch 50.2 (55047) - http://www.bohemiancoding.com/sketch --><title>021 - Tools </title><desc>Created with Sketch.</desc><defs/><g id="Page-1" stroke="none" stroke-width="1" fill="none" fill-rule="evenodd"><g id="021---Tools-" fill-rule="nonzero"><path d="M34,51 L34,55 L8,55 L4.243,55.939 C4.08346481,55.9789649 3.91653519,55.9789649 3.757,55.939 L0.757,55.189 C0.312068938,55.0775409 1.20579426e-05,54.6776794 0,54.219 L0,51.781 C1.20579426e-05,51.3223206 0.312068938,50.9224591 0.757,50.811 L3.757,50.061 C3.91653519,50.0210351 4.08346481,50.0210351 4.243,50.061 L8,51 L34,51 Z" id="Shape" fill="#95A5A5"/><path d="M34,2.59 C38.2742981,3.53101598 42.1869952,5.68352014 45.27,8.79 C49.5858599,13.1119699 52.00691,18.9721343 52,25.08 L52.0000148,28 L5.99999491,28 L6,25.08 C5.99287476,14.2930859 13.4735943,4.94634243 24,2.59" id="Shape" fill="#F0C419"/><path d="M36,19 C36.0020874,22.8185785 32.9381313,25.9315223 29.12,25.99 C29.0805677,25.9982848 29.0402597,26.0016438 29,26 C28.3470578,26.0028671 27.6970885,25.9119387 27.07,25.73 C23.7504556,24.7645571 21.6328279,21.5203555 22.0849838,18.0929643 C22.5371396,14.6655732 25.4236526,12.0815388 28.88,12.01 C28.9194323,12.0017152 28.9597403,11.9983562 29,12 C29.6529422,11.9971329 30.3029115,12.0880613 30.93,12.27 C33.9343307,13.1278809 36.004298,15.875589 36,19 Z" id="Shape" fill="#F9EAB0"/><path d="M24,9 L24,2 C24,0.8954305 24.8954305,2.22044605e-16 26,0 L32,0 C33.1045695,0 34,0.8954305 34,2 L34,9" id="Shape" fill="#F29C1F"/><path d="M28.039,26.92 C27.6927379,26.9194691 27.3713922,26.7398474 27.1895421,26.445181 C27.007692,26.1505146 26.9912202,25.7827434 27.146,25.473 L30.106,19.557 C30.3545281,19.0632575 30.9562574,18.8644719 31.45,19.113 C31.9437425,19.3615282 32.1425281,19.9632574 31.894,20.457 L28.934,26.373 C28.7629058,26.7097215 28.4166941,26.9213168 28.039,26.92 Z" id="Shape" fill="#FFFFFF"/><path d="M30.93,12.27 C30.9172132,12.3603436 30.8902127,12.4480951 30.85,12.53 L27.89,18.44 C27.7249918,18.7816454 27.3794054,18.999093 27,19 C26.8437416,18.9968285 26.6901005,18.9592718 26.55,18.89 C26.059687,18.6404244 25.8630757,18.0416536 26.11,17.55 L28.88,12.01 C28.9194323,12.0017152 28.9597403,11.9983562 29,12 C29.6529422,11.9971329 30.3029115,12.0880613 30.93,12.27 Z" id="Shape" fill="#FFFFFF"/><path d="M1,26 L57,26 C57.5522847,26 58,26.4477153 58,27 L58,30 C58,31.1045695 57.1045695,32 56,32 L2,32 C0.8954305,32 2.22044605e-16,31.1045695 0,30 L0,27 C-1.11022302e-16,26.4477153 0.44771525,26 1,26 Z" id="Shape" fill="#F29C1F"/><rect id="Rectangle-path" fill="#95A5A5" x="0" y="36" width="58" height="8" rx="1"/><path d="M5,36 L5,38 C5,38.5522847 4.55228475,39 4,39 C3.44771525,39 3,38.5522847 3,38 L3,36 L5,36 Z" id="Shape" fill="#5E5F62"/><path d="M10,36 L10,38 C10,38.5522847 9.55228475,39 9,39 C8.44771525,39 8,38.5522847 8,38 L8,36 L10,36 Z" id="Shape" fill="#5E5F62"/><path d="M15,36 L15,38 C15,38.5522847 14.5522847,39 14,39 C13.4477153,39 13,38.5522847 13,38 L13,36 L15,36 Z" id="Shape" fill="#5E5F62"/><path d="M20,36 L20,38 C20,38.5522847 19.5522847,39 19,39 C18.4477153,39 18,38.5522847 18,38 L18,36 L20,36 Z" id="Shape" fill="#5E5F62"/><path d="M25,36 L25,38 C25,38.5522847 24.5522847,39 24,39 C23.4477153,39 23,38.5522847 23,38 L23,36 L25,36 Z" id="Shape" fill="#5E5F62"/><path d="M30,36 L30,38 C30,38.5522847 29.5522847,39 29,39 C28.4477153,39 28,38.5522847 28,38 L28,36 L30,36 Z" id="Shape" fill="#5E5F62"/><path d="M35,36 L35,38 C35,38.5522847 34.5522847,39 34,39 C33.4477153,39 33,38.5522847 33,38 L33,36 L35,36 Z" id="Shape" fill="#5E5F62"/><path d="M40,36 L40,38 C40,38.5522847 39.5522847,39 39,39 C38.4477153,39 38,38.5522847 38,38 L38,36 L40,36 Z" id="Shape" fill="#5E5F62"/><path d="M45,36 L45,38 C45,38.5522847 44.5522847,39 44,39 C43.4477153,39 43,38.5522847 43,38 L43,36 L45,36 Z" id="Shape" fill="#5E5F62"/><path d="M50,36 L50,38 C50,38.5522847 49.5522847,39 49,39 C48.4477153,39 48,38.5522847 48,38 L48,36 L50,36 Z" id="Shape" fill="#5E5F62"/><path d="M55,36 L55,38 C55,38.5522847 54.5522847,39 54,39 C53.4477153,39 53,38.5522847 53,38 L53,36 L55,36 Z" id="Shape" fill="#5E5F62"/><path d="M37.444,49.537 C38.0198559,50.1514411 38.8243908,50.500067 39.6665,50.500067 C40.5086092,50.500067 41.3131441,50.1514411 41.889,49.537 C42.0587738,49.3665291 42.2111891,49.1796109 42.344,48.979 C42.7262516,48.3768568 43.3868246,48.0085761 44.1,48 L53.556,48 C56.1595206,48.1625227 58.1440972,50.3953946 58,53 C58.1440972,55.6046054 56.1595206,57.8374773 53.556,58 L44.1,58 C43.3868246,57.9914239 42.7262516,57.6231432 42.344,57.021 C42.2111891,56.8203891 42.0587738,56.6334709 41.889,56.463 C41.3131441,55.8485589 40.5086092,55.499933 39.6665,55.499933 C38.8243908,55.499933 38.0198559,55.8485589 37.444,56.463 C37.2745159,56.6337319 37.1221248,56.8206203 36.989,57.021 C36.6069414,57.6228484 35.9468189,57.9910876 35.234,58 L34.111,58 C33.4601844,57.9592367 32.964115,57.4011028 33,56.75 L33,49.25 C32.964115,48.5988972 33.4601844,48.0407633 34.111,48 L35.234,48 C35.9468189,48.0089124 36.6069414,48.3771516 36.989,48.979 C37.1221248,49.1793797 37.2745159,49.3662681 37.444,49.537 Z" id="Shape" fill="#C03A2B"/><path d="M54,54 L46,54 C45.4477153,54 45,53.5522847 45,53 C45,52.4477153 45.4477153,52 46,52 L54,52 C54.5522847,52 55,52.4477153 55,53 C55,53.5522847 54.5522847,54 54,54 Z" id="Shape" fill="#802D40"/><path d="M40,20 C39.4477153,20 39,19.5522847 39,19 C39,13.4771525 34.5228475,9 29,9 C23.4771525,9 19,13.4771525 19,19 C19,19.5522847 18.5522847,20 18,20 C17.4477153,20 17,19.5522847 17,19 C17,12.372583 22.372583,7 29,7 C35.627417,7 41,12.372583 41,19 C41,19.2652165 40.8946432,19.5195704 40.7071068,19.7071068 C40.5195704,19.8946432 40.2652165,20 40,20 Z" id="Shape" fill="#D25627"/></g></g></svg>
