<?xml version="1.0" encoding="UTF-8"?>
<svg xmlns="http://www.w3.org/2000/svg" xmlns:xlink="http://www.w3.org/1999/xlink" width="512" height="512" viewBox="0 0 60 59" version="1.1"><!-- Generator: Sketch 50.2 (55047) - http://www.bohemiancoding.com/sketch --><title>019 - Conveyor </title><desc>Created with Sketch.</desc><defs/><g id="Page-1" stroke="none" stroke-width="1" fill="none" fill-rule="evenodd"><g id="019---Conveyor-" fill-rule="nonzero"><path d="M45.075,0 L58,0 C58.5522847,0 59,0.44771525 59,1 L59,14 L43,14 L43,2.075 C43,0.929009144 43.9290091,2.22044605e-16 45.075,0 Z" id="Shape" fill="#4482C3"/><path d="M40,18 L35.2,18 C34.5941553,17.950087 34.0601559,18.3950864 34,19 L34,33 L40,33" id="Shape" fill="#556080"/><path d="M8,55 C7.44771525,55 7,54.5522847 7,54 L7,43 C7,42.4477153 7.44771525,42 8,42 C8.55228475,42 9,42.4477153 9,43 L9,54 C9,54.5522847 8.55228475,55 8,55 Z" id="Shape" fill="#2C3E50"/><path d="M8,51 C7.5956041,50.9999137 7.23106595,50.7562725 7.07632202,50.3826546 C6.92157809,50.0090366 7.00709208,49.5789943 7.293,49.293 L14.293,42.293 C14.6853789,41.9140278 15.3090848,41.9194476 15.6948186,42.3051814 C16.0805524,42.6909152 16.0859722,43.3146211 15.707,43.707 L8.707,50.707 C8.51950727,50.8945494 8.26519481,50.9999434 8,51 Z" id="Shape" fill="#2C3E50"/><path d="M27,55 C26.4477153,55 26,54.5522847 26,54 L26,43 C26,42.4477153 26.4477153,42 27,42 C27.5522847,42 28,42.4477153 28,43 L28,54 C28,54.5522847 27.5522847,55 27,55 Z" id="Shape" fill="#2C3E50"/><path d="M27,51 C26.7348052,50.9999434 26.4804927,50.8945494 26.293,50.707 L19.293,43.707 C18.9140278,43.3146211 18.9194476,42.6909152 19.3051814,42.3051814 C19.6909152,41.9194476 20.3146211,41.9140278 20.707,42.293 L27.707,49.293 C27.9929079,49.5789943 28.0784219,50.0090366 27.923678,50.3826546 C27.7689341,50.7562725 27.4043959,50.9999137 27,51 Z" id="Shape" fill="#2C3E50"/><path d="M27,51 C26.5956041,50.9999137 26.2310659,50.7562725 26.076322,50.3826546 C25.9215781,50.0090366 26.0070921,49.5789943 26.293,49.293 L33.293,42.293 C33.6853789,41.9140278 34.3090848,41.9194476 34.6948186,42.3051814 C35.0805524,42.6909152 35.0859722,43.3146211 34.707,43.707 L27.707,50.707 C27.5195073,50.8945494 27.2651948,50.9999434 27,51 Z" id="Shape" fill="#2C3E50"/><path d="M41,43 L3.105,43 C1.97289513,43.0252089 1.03270147,42.1319132 1,41 L1,35 C1.03270147,33.8680868 1.97289513,32.9747911 3.105,33 L41,33" id="Shape" fill="#95A5A5"/><path d="M9,40 C8.73480519,39.9999434 8.48049273,39.8945494 8.293,39.707 L6.293,37.707 C5.91402779,37.3146211 5.91944763,36.6909152 6.30518142,36.3051814 C6.69091522,35.9194476 7.31462111,35.9140278 7.707,36.293 L9.707,38.293 C9.99290792,38.5789943 10.0784219,39.0090366 9.92367798,39.3826546 C9.76893405,39.7562725 9.4043959,39.9999137 9,40 Z" id="Shape" fill="#BDC3C7"/><path d="M7,40 C6.5956041,39.9999137 6.23106595,39.7562725 6.07632202,39.3826546 C5.92157809,39.0090366 6.00709208,38.5789943 6.293,38.293 L8.293,36.293 C8.68537889,35.9140278 9.30908478,35.9194476 9.69481858,36.3051814 C10.0805524,36.6909152 10.0859722,37.3146211 9.707,37.707 L7.707,39.707 C7.51950727,39.8945494 7.26519481,39.9999434 7,40 Z" id="Shape" fill="#BDC3C7"/><path d="M33,40 C32.7348052,39.9999434 32.4804927,39.8945494 32.293,39.707 L30.293,37.707 C29.9140278,37.3146211 29.9194476,36.6909152 30.3051814,36.3051814 C30.6909152,35.9194476 31.3146211,35.9140278 31.707,36.293 L33.707,38.293 C33.9929079,38.5789943 34.0784219,39.0090366 33.923678,39.3826546 C33.7689341,39.7562725 33.4043959,39.9999137 33,40 Z" id="Shape" fill="#BDC3C7"/><path d="M31,40 C30.5956041,39.9999137 30.2310659,39.7562725 30.076322,39.3826546 C29.9215781,39.0090366 30.0070921,38.5789943 30.293,38.293 L32.293,36.293 C32.6853789,35.9140278 33.3090848,35.9194476 33.6948186,36.3051814 C34.0805524,36.6909152 34.0859722,37.3146211 33.707,37.707 L31.707,39.707 C31.5195073,39.8945494 31.2651948,39.9999434 31,40 Z" id="Shape" fill="#BDC3C7"/><path d="M14,39 L13,39 C12.4477153,39 12,38.5522847 12,38 C12,37.4477153 12.4477153,37 13,37 L14,37 C14.5522847,37 15,37.4477153 15,38 C15,38.5522847 14.5522847,39 14,39 Z" id="Shape" fill="#BDC3C7"/><path d="M27,39 L18,39 C17.4477153,39 17,38.5522847 17,38 C17,37.4477153 17.4477153,37 18,37 L27,37 C27.5522847,37 28,37.4477153 28,38 C28,38.5522847 27.5522847,39 27,39 Z" id="Shape" fill="#BDC3C7"/><path d="M39,44 L3,44 C1.34314575,44 2.02906125e-16,42.6568542 0,41 L0,35 C-2.02906125e-16,33.3431458 1.34314575,32 3,32 L39,32 C39.5522847,32 40,32.4477153 40,33 C40,33.5522847 39.5522847,34 39,34 L3,34 C2.44771525,34 2,34.4477153 2,35 L2,41 C2,41.5522847 2.44771525,42 3,42 L39,42 C39.5522847,42 40,42.4477153 40,43 C40,43.5522847 39.5522847,44 39,44 Z" id="Shape" fill="#547580"/><path d="M6,54 L10,54 C11.1045695,54 12,54.8954305 12,56 L12,58 L4,58 L4,56 C4,54.8954305 4.8954305,54 6,54 Z" id="Shape" fill="#95A5A5"/><path d="M23,54 L31,54 L31,56 C31,57.1045695 30.1045695,58 29,58 L25,58 C23.8954305,58 23,57.1045695 23,56 L23,54 Z" id="Shape" fill="#95A5A5" transform="translate(27.000000, 56.000000) rotate(-180.000000) translate(-27.000000, -56.000000) "/><path d="M59,13 L59,58 L39,58 L39,14 C39,13.4477153 39.4477153,13 40,13 L59,13 Z" id="Shape" fill="#35495E"/><rect id="Rectangle-path" fill="#41767F" x="39" y="20" width="20" height="31"/><path d="M59,59 L1,59 C0.44771525,59 6.76353751e-17,58.5522847 0,58 C-6.76353751e-17,57.4477153 0.44771525,57 1,57 L59,57 C59.5522847,57 60,57.4477153 60,58 C60,58.5522847 59.5522847,59 59,59 Z" id="Shape" fill="#285680"/><path d="M59,27 L59,42 L51,42 C49.8954305,42 49,41.1045695 49,40 L49,29 C49,27.8954305 49.8954305,27 51,27 L59,27 Z" id="Shape" fill="#2FA8CC"/><path d="M53,33 C52.5956041,32.9999137 52.2310659,32.7562725 52.076322,32.3826546 C51.9215781,32.0090366 52.0070921,31.5789943 52.293,31.293 L53.293,30.293 C53.6853789,29.9140278 54.3090848,29.9194476 54.6948186,30.3051814 C55.0805524,30.6909152 55.0859722,31.3146211 54.707,31.707 L53.707,32.707 C53.5195073,32.8945494 53.2651948,32.9999434 53,33 Z" id="Shape" fill="#B0D3F0"/><path d="M59,30.9999958 L59,33.42 L53.71,38.71 C53.3156639,39.0967403 52.6843361,39.0967403 52.29,38.71 C51.9000221,38.3169921 51.9000221,37.6830079 52.29,37.29 L58.29,31.29 C58.4791496,31.1034655 58.7343459,30.9992304 59,30.9999958 Z" id="Shape" fill="#B0D3F0"/></g></g></svg>
