<?xml version="1.0" encoding="UTF-8"?>
<svg xmlns="http://www.w3.org/2000/svg" xmlns:xlink="http://www.w3.org/1999/xlink" width="512" height="512" viewBox="0 0 60 58" version="1.1"><!-- Generator: Sketch 50.2 (55047) - http://www.bohemiancoding.com/sketch --><title>018 - Robotic Arm </title><desc>Created with Sketch.</desc><defs/><g id="Page-1" stroke="none" stroke-width="1" fill="none" fill-rule="evenodd"><g id="018---Robotic-Arm-" fill-rule="nonzero"><polygon id="Shape" fill="#95A5A5" points="25 23 21 33 13 33 17 23"/><path d="M34,19 C33.4477153,19 33,18.5522847 33,18 L33,12 C33,11.4477153 33.4477153,11 34,11 C34.5522847,11 35,11.4477153 35,12 L35,18 C35,18.5522847 34.5522847,19 34,19 Z" id="Shape" fill="#FF5364"/><path d="M36,6.23 L36,11 C36,11.5522847 35.5522847,12 35,12 L33,12 C32.4477153,12 32,11.5522847 32,11 L32,6.23 L36,6.23 Z" id="Shape" fill="#95A5A5"/><rect id="Rectangle-path" fill="#95A5A5" x="7" y="45" width="4" height="11"/><rect id="Rectangle-path" fill="#2C3E50" x="4" y="54" width="10" height="4" rx="1"/><rect id="Rectangle-path" fill="#95A5A5" x="49" y="45" width="4" height="11"/><rect id="Rectangle-path" fill="#2C3E50" x="46" y="54" width="10" height="4" rx="1"/><rect id="Rectangle-path" fill="#95A5A5" x="28" y="45" width="4" height="11"/><rect id="Rectangle-path" fill="#2C3E50" x="25" y="54" width="10" height="4" rx="1"/><path d="M12,47 L6,47 C4.8954305,47 4,46.1045695 4,45 L4,41 L14,41 L14,45 C14,46.1045695 13.1045695,47 12,47 Z" id="Shape" fill="#2C3E50"/><path d="M33,47 L27,47 C25.8954305,47 25,46.1045695 25,45 L25,41 L35,41 L35,45 C35,46.1045695 34.1045695,47 33,47 Z" id="Shape" fill="#2C3E50"/><path d="M54,47 L48,47 C46.8954305,47 46,46.1045695 46,45 L46,41 L56,41 L56,45 C56,46.1045695 55.1045695,47 54,47 Z" id="Shape" fill="#2C3E50"/><polygon id="Shape" fill="#95A5A5" points="23.49 15.66 18.21 6.37 13.18 7.56 16.52 17.79"/><rect id="Rectangle-path" fill="#95A5A5" x="16" y="2" width="18" height="4"/><circle id="Oval" fill="#285680" cx="34" cy="4" r="3"/><path d="M16,21 L11,21 C7.68766243,20.9966926 5.00330738,18.3123376 5,15 L5,9 C5.00330738,5.68766243 7.68766243,3.00330738 11,3 C11.5522847,3.00000001 12,3.44771526 12,4 C12,4.55228474 11.5522847,4.99999999 11,5 C8.790861,5 7,6.790861 7,9 L7,15 C7,17.209139 8.790861,19 11,19 L16,19 C16.5522847,19 17,19.4477153 17,20 C17,20.5522847 16.5522847,21 16,21 Z" id="Shape" fill="#CC66A1"/><rect id="Rectangle-path" fill="#FF5364" transform="translate(44.000000, 30.000000) rotate(-180.000000) translate(-44.000000, -30.000000) " x="38" y="27" width="12" height="6" rx="3"/><rect id="Rectangle-path" fill="#95A5A5" x="1" y="33" width="58" height="8" rx="2"/><path d="M57,42 L3,42 C1.34314575,42 2.02906125e-16,40.6568542 0,39 L0,35 C-2.02906125e-16,33.3431458 1.34314575,32 3,32 L57,32 C58.6568542,32 60,33.3431458 60,35 L60,39 C60,40.6568542 58.6568542,42 57,42 Z M3,34 C2.44771525,34 2,34.4477153 2,35 L2,39 C2,39.5522847 2.44771525,40 3,40 L57,40 C57.5522847,40 58,39.5522847 58,39 L58,35 C58,34.4477153 57.5522847,34 57,34 L3,34 Z" id="Shape" fill="#547580"/><path d="M7,39 C6.73480519,38.9999434 6.48049273,38.8945494 6.293,38.707 L4.293,36.707 C3.91402779,36.3146211 3.91944763,35.6909152 4.30518142,35.3051814 C4.69091522,34.9194476 5.31462111,34.9140278 5.707,35.293 L7.707,37.293 C7.99290792,37.5789943 8.07842191,38.0090366 7.92367798,38.3826546 C7.76893405,38.7562725 7.4043959,38.9999137 7,39 Z" id="Shape" fill="#BDC3C7"/><path d="M5,39 C4.5956041,38.9999137 4.23106595,38.7562725 4.07632202,38.3826546 C3.92157809,38.0090366 4.00709208,37.5789943 4.293,37.293 L6.293,35.293 C6.68537889,34.9140278 7.30908478,34.9194476 7.69481858,35.3051814 C8.08055237,35.6909152 8.08597221,36.3146211 7.707,36.707 L5.707,38.707 C5.51950727,38.8945494 5.26519481,38.9999434 5,39 Z" id="Shape" fill="#BDC3C7"/><path d="M31,39 C30.7348052,38.9999434 30.4804927,38.8945494 30.293,38.707 L28.293,36.707 C27.9140278,36.3146211 27.9194476,35.6909152 28.3051814,35.3051814 C28.6909152,34.9194476 29.3146211,34.9140278 29.707,35.293 L31.707,37.293 C31.9929079,37.5789943 32.0784219,38.0090366 31.923678,38.3826546 C31.7689341,38.7562725 31.4043959,38.9999137 31,39 Z" id="Shape" fill="#BDC3C7"/><path d="M29,39 C28.5956041,38.9999137 28.2310659,38.7562725 28.076322,38.3826546 C27.9215781,38.0090366 28.0070921,37.5789943 28.293,37.293 L30.293,35.293 C30.6853789,34.9140278 31.3090848,34.9194476 31.6948186,35.3051814 C32.0805524,35.6909152 32.0859722,36.3146211 31.707,36.707 L29.707,38.707 C29.5195073,38.8945494 29.2651948,38.9999434 29,39 Z" id="Shape" fill="#BDC3C7"/><path d="M55,39 C54.7348052,38.9999434 54.4804927,38.8945494 54.293,38.707 L52.293,36.707 C51.9140278,36.3146211 51.9194476,35.6909152 52.3051814,35.3051814 C52.6909152,34.9194476 53.3146211,34.9140278 53.707,35.293 L55.707,37.293 C55.9929079,37.5789943 56.0784219,38.0090366 55.923678,38.3826546 C55.7689341,38.7562725 55.4043959,38.9999137 55,39 Z" id="Shape" fill="#BDC3C7"/><path d="M53,39 C52.5956041,38.9999137 52.2310659,38.7562725 52.076322,38.3826546 C51.9215781,38.0090366 52.0070921,37.5789943 52.293,37.293 L54.293,35.293 C54.6853789,34.9140278 55.3090848,34.9194476 55.6948186,35.3051814 C56.0805524,35.6909152 56.0859722,36.3146211 55.707,36.707 L53.707,38.707 C53.5195073,38.8945494 53.2651948,38.9999434 53,39 Z" id="Shape" fill="#BDC3C7"/><path d="M12,38 L11,38 C10.4477153,38 10,37.5522847 10,37 C10,36.4477153 10.4477153,36 11,36 L12,36 C12.5522847,36 13,36.4477153 13,37 C13,37.5522847 12.5522847,38 12,38 Z" id="Shape" fill="#BDC3C7"/><path d="M25,38 L16,38 C15.4477153,38 15,37.5522847 15,37 C15,36.4477153 15.4477153,36 16,36 L25,36 C25.5522847,36 26,36.4477153 26,37 C26,37.5522847 25.5522847,38 25,38 Z" id="Shape" fill="#BDC3C7"/><path d="M36,38 L35,38 C34.4477153,38 34,37.5522847 34,37 C34,36.4477153 34.4477153,36 35,36 L36,36 C36.5522847,36 37,36.4477153 37,37 C37,37.5522847 36.5522847,38 36,38 Z" id="Shape" fill="#BDC3C7"/><path d="M49,38 L40,38 C39.4477153,38 39,37.5522847 39,37 C39,36.4477153 39.4477153,36 40,36 L49,36 C49.5522847,36 50,36.4477153 50,37 C50,37.5522847 49.5522847,38 49,38 Z" id="Shape" fill="#BDC3C7"/><circle id="Oval" fill="#285680" cx="21" cy="20" r="5"/><circle id="Oval" fill="#4482C3" cx="21" cy="20" r="3"/><circle id="Oval" fill="#285680" cx="15" cy="4" r="4"/><circle id="Oval" fill="#4482C3" cx="15" cy="4" r="2"/></g></g></svg>
