<?xml version="1.0" encoding="UTF-8"?>
<svg xmlns="http://www.w3.org/2000/svg" xmlns:xlink="http://www.w3.org/1999/xlink" width="512" height="512" viewBox="0 0 60 59" version="1.1"><!-- Generator: Sketch 50.2 (55047) - http://www.bohemiancoding.com/sketch --><title>017 - Robotic Arm </title><desc>Created with Sketch.</desc><defs/><g id="Page-1" stroke="none" stroke-width="1" fill="none" fill-rule="evenodd"><g id="017---Robotic-Arm-" fill-rule="nonzero"><path d="M24,19 C23.4477153,19 23,18.5522847 23,18 L23,12 C23,11.4477153 23.4477153,11 24,11 C24.5522847,11 25,11.4477153 25,12 L25,18 C25,18.5522847 24.5522847,19 24,19 Z" id="Shape" fill="#CC66A1"/><path d="M26,6.23 L26,11 C26,11.5522847 25.5522847,12 25,12 L23,12 C22.4477153,12 22,11.5522847 22,11 L22,6.23" id="Shape" fill="#547580"/><rect id="Rectangle-path" fill="#95A5A5" x="36" y="31" width="8" height="22"/><polygon id="Shape" fill="#95A5A5" points="37.51 23.66 46.79 6.37 51.82 7.56 44.48 25.79"/><polygon id="Shape" fill="#95A5A5" points="26 6 48 6 48 2 26.23 2"/><circle id="Oval" fill="#FF5364" cx="24" cy="4" r="3"/><path d="M54,29 L45,29 C44.4477153,29 44,28.5522847 44,28 C44,27.4477153 44.4477153,27 45,27 L54,27 C56.209139,27 58,25.209139 58,23 L58,9 C58,6.790861 56.209139,5 54,5 C53.4477153,5 53,4.55228475 53,4 C53,3.44771525 53.4477153,3 54,3 C57.3123376,3.00330738 59.9966926,5.68766243 60,9 L60,23 C59.9966926,26.3123376 57.3123376,28.9966926 54,29 Z" id="Shape" fill="#CC66A1"/><path d="M35,51 L45,51 C46.6568542,51 48,52.3431458 48,54 L48,58 L32,58 L32,54 C32,52.3431458 33.3431458,51 35,51 Z" id="Shape" fill="#285680"/><path d="M53,59 L1,59 C0.44771525,59 6.76353751e-17,58.5522847 0,58 C-6.76353751e-17,57.4477153 0.44771525,57 1,57 L53,57 C53.5522847,57 54,57.4477153 54,58 C54,58.5522847 53.5522847,59 53,59 Z" id="Shape" fill="#2C3E50"/><path d="M59,59 L57,59 C56.4477153,59 56,58.5522847 56,58 C56,57.4477153 56.4477153,57 57,57 L59,57 C59.5522847,57 60,57.4477153 60,58 C60,58.5522847 59.5522847,59 59,59 Z" id="Shape" fill="#2C3E50"/><circle id="Oval" fill="#547580" cx="40" cy="28" r="5"/><path d="M41,29 L39,29 C38.4477153,29 38,28.5522847 38,28 C38,27.4477153 38.4477153,27 39,27 L41,27 C41.5522847,27 42,27.4477153 42,28 C42,28.5522847 41.5522847,29 41,29 Z" id="Shape" fill="#BDC3C7"/><circle id="Oval" fill="#547580" cx="50" cy="4" r="4"/><path d="M40,50 C39.4477153,50 39,49.5522847 39,49 L39,35 C39,34.4477153 39.4477153,34 40,34 C40.5522847,34 41,34.4477153 41,35 L41,49 C41,49.5522847 40.5522847,50 40,50 Z" id="Shape" fill="#BDC3C7"/></g></g></svg>
