<?xml version="1.0" encoding="UTF-8"?>
<svg xmlns="http://www.w3.org/2000/svg" xmlns:xlink="http://www.w3.org/1999/xlink" width="512" height="512" viewBox="0 0 60 58" version="1.1"><!-- Generator: Sketch 50.2 (55047) - http://www.bohemiancoding.com/sketch --><title>016 - Bottle Manufacturing </title><desc>Created with Sketch.</desc><defs/><g id="Page-1" stroke="none" stroke-width="1" fill="none" fill-rule="evenodd"><g id="016---Bottle-Manufacturing-" fill-rule="nonzero"><path d="M12,18 C11.4477153,18 11,17.5522847 11,17 L11,13 C11,12.4477153 11.4477153,12 12,12 C12.5522847,12 13,12.4477153 13,13 L13,17 C13,17.5522847 12.5522847,18 12,18 Z" id="Shape" fill="#2FA8CC"/><path d="M24,18 C23.4477153,18 23,17.5522847 23,17 L23,13 C23,12.4477153 23.4477153,12 24,12 C24.5522847,12 25,12.4477153 25,13 L25,17 C25,17.5522847 24.5522847,18 24,18 Z" id="Shape" fill="#2FA8CC"/><path d="M36,18 C35.4477153,18 35,17.5522847 35,17 L35,13 C35,12.4477153 35.4477153,12 36,12 C36.5522847,12 37,12.4477153 37,13 L37,17 C37,17.5522847 36.5522847,18 36,18 Z" id="Shape" fill="#2FA8CC"/><path d="M48,18 C47.4477153,18 47,17.5522847 47,17 L47,13 C47,12.4477153 47.4477153,12 48,12 C48.5522847,12 49,12.4477153 49,13 L49,17 C49,17.5522847 48.5522847,18 48,18 Z" id="Shape" fill="#2FA8CC"/><path d="M1,0 L59,0 L59,4 C59,6.209139 57.209139,8 55,8 L5,8 C2.790861,8 1,6.209139 1,4 L1,0 Z" id="Shape" fill="#285680"/><path d="M9,5 L5,5 C4.44771525,5 4,4.55228475 4,4 C4,3.44771525 4.44771525,3 5,3 L9,3 C9.55228475,3 10,3.44771525 10,4 C10,4.55228475 9.55228475,5 9,5 Z" id="Shape" fill="#4482C3"/><path d="M37,5 L13,5 C12.4477153,5 12,4.55228475 12,4 C12,3.44771525 12.4477153,3 13,3 L37,3 C37.5522847,3 38,3.44771525 38,4 C38,4.55228475 37.5522847,5 37,5 Z" id="Shape" fill="#4482C3"/><polyline id="Shape" fill="#2C3E50" points="16 8 14 13 10 13 8 8"/><polyline id="Shape" fill="#2C3E50" points="28 8 26 13 22 13 20 8"/><polyline id="Shape" fill="#2C3E50" points="40 8 38 13 34 13 32 8"/><polyline id="Shape" fill="#2C3E50" points="52 8 50 13 46 13 44 8"/><path d="M16.0000001,32 L16,24.606 C16.0000886,24.2109354 15.8831722,23.8246937 15.664,23.496 L14,21 L10,21 L8.336,23.5 C8.11758255,23.8275598 8.0007,24.2122982 8,24.606 L8,32 L16.0000001,32 Z" id="Shape" fill="#67B9CC"/><path d="M16,22 L8,22 C7.44771525,22 7,21.5522847 7,21 C7,20.4477153 7.44771525,20 8,20 L16,20 C16.5522847,20 17,20.4477153 17,21 C17,21.5522847 16.5522847,22 16,22 Z" id="Shape" fill="#2FA8CC"/><path d="M28.0000001,32 L28,24.606 C28.0000886,24.2109354 27.8831722,23.8246937 27.664,23.496 L26,21 L22,21 L20.336,23.5 C20.1175826,23.8275598 20.0007,24.2122982 20,24.606 L20,32 L28.0000001,32 Z" id="Shape" fill="#67B9CC"/><path d="M28,22 L20,22 C19.4477153,22 19,21.5522847 19,21 C19,20.4477153 19.4477153,20 20,20 L28,20 C28.5522847,20 29,20.4477153 29,21 C29,21.5522847 28.5522847,22 28,22 Z" id="Shape" fill="#2FA8CC"/><path d="M40.0000001,32 L40,24.606 C40.0000886,24.2109354 39.8831722,23.8246937 39.664,23.496 L38,21 L34,21 L32.336,23.5 C32.1175826,23.8275598 32.0007,24.2122982 32,24.606 L32,32 L40.0000001,32 Z" id="Shape" fill="#67B9CC"/><path d="M40,22 L32,22 C31.4477153,22 31,21.5522847 31,21 C31,20.4477153 31.4477153,20 32,20 L40,20 C40.5522847,20 41,20.4477153 41,21 C41,21.5522847 40.5522847,22 40,22 Z" id="Shape" fill="#2FA8CC"/><path d="M52.0000001,32 L52,24.606 C52.0000886,24.2109354 51.8831722,23.8246937 51.664,23.496 L50,21 L46,21 L44.336,23.5 C44.1175826,23.8275598 44.0007,24.2122982 44,24.606 L44,32 L52.0000001,32 Z" id="Shape" fill="#67B9CC"/><path d="M52,22 L44,22 C43.4477153,22 43,21.5522847 43,21 C43,20.4477153 43.4477153,20 44,20 L52,20 C52.5522847,20 53,20.4477153 53,21 C53,21.5522847 52.5522847,22 52,22 Z" id="Shape" fill="#2FA8CC"/><rect id="Rectangle-path" fill="#95A5A5" x="8" y="49" width="4" height="6"/><rect id="Rectangle-path" fill="#95A5A5" x="48" y="49" width="4" height="6"/><rect id="Rectangle-path" fill="#95A5A5" x="28" y="49" width="4" height="6"/><path d="M6,46 L14,46 L14,48 C14,49.1045695 13.1045695,50 12,50 L8,50 C6.8954305,50 6,49.1045695 6,48 L6,46 Z" id="Shape" fill="#2C3E50"/><rect id="Rectangle-path" fill="#2C3E50" x="5" y="54" width="10" height="4" rx="1"/><path d="M46,46 L54,46 L54,48 C54,49.1045695 53.1045695,50 52,50 L48,50 C46.8954305,50 46,49.1045695 46,48 L46,46 Z" id="Shape" fill="#2C3E50"/><rect id="Rectangle-path" fill="#2C3E50" x="45" y="54" width="10" height="4" rx="1"/><path d="M26,46 L34,46 L34,48 C34,49.1045695 33.1045695,50 32,50 L28,50 C26.8954305,50 26,49.1045695 26,48 L26,46 Z" id="Shape" fill="#2C3E50"/><rect id="Rectangle-path" fill="#2C3E50" x="25" y="54" width="10" height="4" rx="1"/><rect id="Rectangle-path" fill="#95A5A5" x="1" y="32" width="58" height="14" rx="2"/><path d="M57,47 L3,47 C1.34314575,47 2.02906125e-16,45.6568542 0,44 L0,34 C-2.02906125e-16,32.3431458 1.34314575,31 3,31 L57,31 C58.6568542,31 60,32.3431458 60,34 L60,44 C60,45.6568542 58.6568542,47 57,47 Z M3,33 C2.44771525,33 2,33.4477153 2,34 L2,44 C2,44.5522847 2.44771525,45 3,45 L57,45 C57.5522847,45 58,44.5522847 58,44 L58,34 C58,33.4477153 57.5522847,33 57,33 L3,33 Z" id="Shape" fill="#547580"/><path d="M6,38 C5.73480519,37.9999434 5.48049273,37.8945494 5.293,37.707 L4.293,36.707 C3.91402779,36.3146211 3.91944763,35.6909152 4.30518142,35.3051814 C4.69091522,34.9194476 5.31462111,34.9140278 5.707,35.293 L6.707,36.293 C6.99290792,36.5789943 7.07842191,37.0090366 6.92367798,37.3826546 C6.76893405,37.7562725 6.4043959,37.9999137 6,38 Z" id="Shape" fill="#BDC3C7"/><path d="M10,38 C9.5956041,37.9999137 9.23106595,37.7562725 9.07632202,37.3826546 C8.92157809,37.0090366 9.00709208,36.5789943 9.293,36.293 L10.293,35.293 C10.6853789,34.9140278 11.3090848,34.9194476 11.6948186,35.3051814 C12.0805524,35.6909152 12.0859722,36.3146211 11.707,36.707 L10.707,37.707 C10.5195073,37.8945494 10.2651948,37.9999434 10,38 Z" id="Shape" fill="#BDC3C7"/><path d="M11,43 C10.7348052,42.9999434 10.4804927,42.8945494 10.293,42.707 L9.293,41.707 C8.91402779,41.3146211 8.91944763,40.6909152 9.30518142,40.3051814 C9.69091522,39.9194476 10.3146211,39.9140278 10.707,40.293 L11.707,41.293 C11.9929079,41.5789943 12.0784219,42.0090366 11.923678,42.3826546 C11.7689341,42.7562725 11.4043959,42.9999137 11,43 Z" id="Shape" fill="#BDC3C7"/><path d="M5,43 C4.5956041,42.9999137 4.23106595,42.7562725 4.07632202,42.3826546 C3.92157809,42.0090366 4.00709208,41.5789943 4.293,41.293 L5.293,40.293 C5.68537889,39.9140278 6.30908478,39.9194476 6.69481858,40.3051814 C7.08055237,40.6909152 7.08597221,41.3146211 6.707,41.707 L5.707,42.707 C5.51950727,42.8945494 5.26519481,42.9999434 5,43 Z" id="Shape" fill="#BDC3C7"/><path d="M17,38 C16.7348052,37.9999434 16.4804927,37.8945494 16.293,37.707 L15.293,36.707 C14.9140278,36.3146211 14.9194476,35.6909152 15.3051814,35.3051814 C15.6909152,34.9194476 16.3146211,34.9140278 16.707,35.293 L17.707,36.293 C17.9929079,36.5789943 18.0784219,37.0090366 17.923678,37.3826546 C17.7689341,37.7562725 17.4043959,37.9999137 17,38 Z" id="Shape" fill="#BDC3C7"/><path d="M21,38 C20.5956041,37.9999137 20.2310659,37.7562725 20.076322,37.3826546 C19.9215781,37.0090366 20.0070921,36.5789943 20.293,36.293 L21.293,35.293 C21.6853789,34.9140278 22.3090848,34.9194476 22.6948186,35.3051814 C23.0805524,35.6909152 23.0859722,36.3146211 22.707,36.707 L21.707,37.707 C21.5195073,37.8945494 21.2651948,37.9999434 21,38 Z" id="Shape" fill="#BDC3C7"/><path d="M22,43 C21.7348052,42.9999434 21.4804927,42.8945494 21.293,42.707 L20.293,41.707 C19.9140278,41.3146211 19.9194476,40.6909152 20.3051814,40.3051814 C20.6909152,39.9194476 21.3146211,39.9140278 21.707,40.293 L22.707,41.293 C22.9929079,41.5789943 23.0784219,42.0090366 22.923678,42.3826546 C22.7689341,42.7562725 22.4043959,42.9999137 22,43 Z" id="Shape" fill="#BDC3C7"/><path d="M16,43 C15.5956041,42.9999137 15.2310659,42.7562725 15.076322,42.3826546 C14.9215781,42.0090366 15.0070921,41.5789943 15.293,41.293 L16.293,40.293 C16.6853789,39.9140278 17.3090848,39.9194476 17.6948186,40.3051814 C18.0805524,40.6909152 18.0859722,41.3146211 17.707,41.707 L16.707,42.707 C16.5195073,42.8945494 16.2651948,42.9999434 16,43 Z" id="Shape" fill="#BDC3C7"/><path d="M28,38 C27.7348052,37.9999434 27.4804927,37.8945494 27.293,37.707 L26.293,36.707 C25.9140278,36.3146211 25.9194476,35.6909152 26.3051814,35.3051814 C26.6909152,34.9194476 27.3146211,34.9140278 27.707,35.293 L28.707,36.293 C28.9929079,36.5789943 29.0784219,37.0090366 28.923678,37.3826546 C28.7689341,37.7562725 28.4043959,37.9999137 28,38 Z" id="Shape" fill="#BDC3C7"/><path d="M32,38 C31.5956041,37.9999137 31.2310659,37.7562725 31.076322,37.3826546 C30.9215781,37.0090366 31.0070921,36.5789943 31.293,36.293 L32.293,35.293 C32.6853789,34.9140278 33.3090848,34.9194476 33.6948186,35.3051814 C34.0805524,35.6909152 34.0859722,36.3146211 33.707,36.707 L32.707,37.707 C32.5195073,37.8945494 32.2651948,37.9999434 32,38 Z" id="Shape" fill="#BDC3C7"/><path d="M33,43 C32.7348052,42.9999434 32.4804927,42.8945494 32.293,42.707 L31.293,41.707 C30.9140278,41.3146211 30.9194476,40.6909152 31.3051814,40.3051814 C31.6909152,39.9194476 32.3146211,39.9140278 32.707,40.293 L33.707,41.293 C33.9929079,41.5789943 34.0784219,42.0090366 33.923678,42.3826546 C33.7689341,42.7562725 33.4043959,42.9999137 33,43 Z" id="Shape" fill="#BDC3C7"/><path d="M27,43 C26.5956041,42.9999137 26.2310659,42.7562725 26.076322,42.3826546 C25.9215781,42.0090366 26.0070921,41.5789943 26.293,41.293 L27.293,40.293 C27.6853789,39.9140278 28.3090848,39.9194476 28.6948186,40.3051814 C29.0805524,40.6909152 29.0859722,41.3146211 28.707,41.707 L27.707,42.707 C27.5195073,42.8945494 27.2651948,42.9999434 27,43 Z" id="Shape" fill="#BDC3C7"/><path d="M39,38 C38.7348052,37.9999434 38.4804927,37.8945494 38.293,37.707 L37.293,36.707 C36.9140278,36.3146211 36.9194476,35.6909152 37.3051814,35.3051814 C37.6909152,34.9194476 38.3146211,34.9140278 38.707,35.293 L39.707,36.293 C39.9929079,36.5789943 40.0784219,37.0090366 39.923678,37.3826546 C39.7689341,37.7562725 39.4043959,37.9999137 39,38 Z" id="Shape" fill="#BDC3C7"/><path d="M43,38 C42.5956041,37.9999137 42.2310659,37.7562725 42.076322,37.3826546 C41.9215781,37.0090366 42.0070921,36.5789943 42.293,36.293 L43.293,35.293 C43.6853789,34.9140278 44.3090848,34.9194476 44.6948186,35.3051814 C45.0805524,35.6909152 45.0859722,36.3146211 44.707,36.707 L43.707,37.707 C43.5195073,37.8945494 43.2651948,37.9999434 43,38 Z" id="Shape" fill="#BDC3C7"/><path d="M44,43 C43.7348052,42.9999434 43.4804927,42.8945494 43.293,42.707 L42.293,41.707 C41.9140278,41.3146211 41.9194476,40.6909152 42.3051814,40.3051814 C42.6909152,39.9194476 43.3146211,39.9140278 43.707,40.293 L44.707,41.293 C44.9929079,41.5789943 45.0784219,42.0090366 44.923678,42.3826546 C44.7689341,42.7562725 44.4043959,42.9999137 44,43 Z" id="Shape" fill="#BDC3C7"/><path d="M38,43 C37.5956041,42.9999137 37.2310659,42.7562725 37.076322,42.3826546 C36.9215781,42.0090366 37.0070921,41.5789943 37.293,41.293 L38.293,40.293 C38.6853789,39.9140278 39.3090848,39.9194476 39.6948186,40.3051814 C40.0805524,40.6909152 40.0859722,41.3146211 39.707,41.707 L38.707,42.707 C38.5195073,42.8945494 38.2651948,42.9999434 38,43 Z" id="Shape" fill="#BDC3C7"/><path d="M50,38 C49.7348052,37.9999434 49.4804927,37.8945494 49.293,37.707 L48.293,36.707 C47.9140278,36.3146211 47.9194476,35.6909152 48.3051814,35.3051814 C48.6909152,34.9194476 49.3146211,34.9140278 49.707,35.293 L50.707,36.293 C50.9929079,36.5789943 51.0784219,37.0090366 50.923678,37.3826546 C50.7689341,37.7562725 50.4043959,37.9999137 50,38 Z" id="Shape" fill="#BDC3C7"/><path d="M54,38 C53.5956041,37.9999137 53.2310659,37.7562725 53.076322,37.3826546 C52.9215781,37.0090366 53.0070921,36.5789943 53.293,36.293 L54.293,35.293 C54.6853789,34.9140278 55.3090848,34.9194476 55.6948186,35.3051814 C56.0805524,35.6909152 56.0859722,36.3146211 55.707,36.707 L54.707,37.707 C54.5195073,37.8945494 54.2651948,37.9999434 54,38 Z" id="Shape" fill="#BDC3C7"/><path d="M55,43 C54.7348052,42.9999434 54.4804927,42.8945494 54.293,42.707 L53.293,41.707 C52.9140278,41.3146211 52.9194476,40.6909152 53.3051814,40.3051814 C53.6909152,39.9194476 54.3146211,39.9140278 54.707,40.293 L55.707,41.293 C55.9929079,41.5789943 56.0784219,42.0090366 55.923678,42.3826546 C55.7689341,42.7562725 55.4043959,42.9999137 55,43 Z" id="Shape" fill="#BDC3C7"/><path d="M49,43 C48.5956041,42.9999137 48.2310659,42.7562725 48.076322,42.3826546 C47.9215781,42.0090366 48.0070921,41.5789943 48.293,41.293 L49.293,40.293 C49.6853789,39.9140278 50.3090848,39.9194476 50.6948186,40.3051814 C51.0805524,40.6909152 51.0859722,41.3146211 50.707,41.707 L49.707,42.707 C49.5195073,42.8945494 49.2651948,42.9999434 49,43 Z" id="Shape" fill="#BDC3C7"/><path d="M8,40 C7.86932274,39.99842 7.74022231,39.971241 7.62,39.92 C7.36876974,39.8290762 7.1709238,39.6312303 7.08,39.38 C6.97327146,39.1379078 6.97327146,38.8620922 7.08,38.62 C7.12832305,38.4976187 7.19960316,38.3856071 7.29,38.29 C7.54365857,38.0363414 7.91337399,37.9372765 8.25987804,38.030122 C8.60638209,38.1229674 8.87703256,38.3936179 8.96987804,38.740122 C9.06272352,39.086626 8.96365857,39.4563414 8.71,39.71 C8.61273931,39.7982527 8.50113929,39.8692709 8.38,39.92 C8.25977769,39.971241 8.13067726,39.99842 8,40 Z" id="Shape" fill="#2C3E50"/><path d="M19,40 C18.8693227,39.99842 18.7402223,39.971241 18.62,39.92 C18.3687697,39.8290762 18.1709238,39.6312303 18.08,39.38 C17.9733951,39.1378817 17.9733951,38.8621183 18.08,38.62 C18.128323,38.4976187 18.1996032,38.3856071 18.29,38.29 C18.6821222,37.8978779 19.3178778,37.8978779 19.71,38.29 C20.1021221,38.6821222 20.1021221,39.3178778 19.71,39.71 C19.6127393,39.7982527 19.5011393,39.8692709 19.38,39.92 C19.2597777,39.971241 19.1306773,39.99842 19,40 Z" id="Shape" fill="#2C3E50"/><path d="M30,40 C29.8693227,39.99842 29.7402223,39.971241 29.62,39.92 C29.3687697,39.8290762 29.1709238,39.6312303 29.08,39.38 C28.9733951,39.1378817 28.9733951,38.8621183 29.08,38.62 C29.128323,38.4976187 29.1996032,38.3856071 29.29,38.29 C29.6821222,37.8978779 30.3178778,37.8978779 30.71,38.29 C31.1021221,38.6821222 31.1021221,39.3178778 30.71,39.71 C30.6127393,39.7982527 30.5011393,39.8692709 30.38,39.92 C30.2597777,39.971241 30.1306773,39.99842 30,40 Z" id="Shape" fill="#2C3E50"/><path d="M41,40 C40.8693227,39.99842 40.7402223,39.971241 40.62,39.92 C40.3687697,39.8290762 40.1709238,39.6312303 40.08,39.38 C39.9733951,39.1378817 39.9733951,38.8621183 40.08,38.62 C40.128323,38.4976187 40.1996032,38.3856071 40.29,38.29 C40.6821222,37.8978779 41.3178778,37.8978779 41.71,38.29 C42.1021221,38.6821222 42.1021221,39.3178778 41.71,39.71 C41.6127393,39.7982527 41.5011393,39.8692709 41.38,39.92 C41.2597777,39.971241 41.1306773,39.99842 41,40 Z" id="Shape" fill="#2C3E50"/><path d="M52,40 C51.8693227,39.99842 51.7402223,39.971241 51.62,39.92 C51.3687697,39.8290762 51.1709238,39.6312303 51.08,39.38 C50.9733951,39.1378817 50.9733951,38.8621183 51.08,38.62 C51.128323,38.4976187 51.1996032,38.3856071 51.29,38.29 C51.6821222,37.8978779 52.3178778,37.8978779 52.71,38.29 C53.1021221,38.6821222 53.1021221,39.3178778 52.71,39.71 C52.6127393,39.7982527 52.5011393,39.8692709 52.38,39.92 C52.2597777,39.971241 52.1306773,39.99842 52,40 Z" id="Shape" fill="#2C3E50"/></g></g></svg>
