<?xml version="1.0" encoding="UTF-8"?>
<svg xmlns="http://www.w3.org/2000/svg" xmlns:xlink="http://www.w3.org/1999/xlink" width="512" height="512" viewBox="0 0 60 59" version="1.1"><!-- Generator: Sketch 50.2 (55047) - http://www.bohemiancoding.com/sketch --><title>015 - Box Manufacturing </title><desc>Created with Sketch.</desc><defs/><g id="Page-1" stroke="none" stroke-width="1" fill="none" fill-rule="evenodd"><g id="015---Box-Manufacturing-" fill-rule="nonzero"><path d="M48.98,19 L47.98,19 C44.3217837,18.9887132 41.2849112,16.171122 41,12.524 C40.9735623,12.1667344 41.1397318,11.822503 41.4359141,11.6209746 C41.7320964,11.4194461 42.1132942,11.3912374 42.4359141,11.5469745 C42.758534,11.7027117 42.9735624,12.0187344 43,12.376 C43.2035099,14.9785496 45.3695259,16.9897259 47.98,17 L48.98,17 C51.7400532,16.9966939 53.9766939,14.7600532 53.98,12 L53.98,5 C53.98,4.44771525 54.4277153,4 54.98,4 C55.5322847,4 55.98,4.44771525 55.98,5 L55.98,12 C55.9755914,15.8641657 52.8441657,18.9955914 48.98,19 Z" id="Shape" fill="#CC66A1"/><path d="M48,1 L48,7 C47.9967052,8.10320187 47.1032019,8.9967052 46,9 L40,9 L40,1 L48,1 Z" id="Shape" fill="#95A5A5"/><path d="M16,19 C15.4477153,19 15,18.5522847 15,18 L15,13 C15,12.4477153 15.4477153,12 16,12 C16.5522847,12 17,12.4477153 17,13 L17,18 C17,18.5522847 16.5522847,19 16,19 Z" id="Shape" fill="#2C3E50"/><rect id="Rectangle-path" fill="#95A5A5" x="9" y="5" width="35" height="8" rx="4"/><path d="M40,14 L13,14 C10.2385763,14 8,11.7614237 8,9 C8,6.23857625 10.2385763,4 13,4 L40,4 C42.7614237,4 45,6.23857625 45,9 C45,11.7614237 42.7614237,14 40,14 Z M13,6 C11.3431458,6 10,7.34314575 10,9 C10,10.6568542 11.3431458,12 13,12 L40,12 C41.6568542,12 43,10.6568542 43,9 C43,7.34314575 41.6568542,6 40,6 L13,6 Z" id="Shape" fill="#547580"/><path d="M15,11 C14.7348052,10.9999434 14.4804927,10.8945494 14.293,10.707 L12.293,8.707 C12.0330434,8.45592553 11.9287874,8.08412211 12.0203028,7.73449268 C12.1118183,7.38486324 12.3848632,7.11181828 12.7344927,7.02030284 C13.0841221,6.9287874 13.4559255,7.03304342 13.707,7.293 L15.707,9.293 C15.9929079,9.57899425 16.0784219,10.0090366 15.923678,10.3826546 C15.7689341,10.7562725 15.4043959,10.9999137 15,11 Z" id="Shape" fill="#BDC3C7"/><path d="M13,11 C12.5956041,10.9999137 12.2310659,10.7562725 12.076322,10.3826546 C11.9215781,10.0090366 12.0070921,9.57899425 12.293,9.293 L14.293,7.293 C14.5440745,7.03304342 14.9158779,6.9287874 15.2655073,7.02030284 C15.6151368,7.11181828 15.8881817,7.38486324 15.9796972,7.73449268 C16.0712126,8.08412211 15.9669566,8.45592553 15.707,8.707 L13.707,10.707 C13.5195073,10.8945494 13.2651948,10.9999434 13,11 Z" id="Shape" fill="#BDC3C7"/><path d="M40,11 C39.7348052,10.9999434 39.4804927,10.8945494 39.293,10.707 L37.293,8.707 C37.0330434,8.45592553 36.9287874,8.08412211 37.0203028,7.73449268 C37.1118183,7.38486324 37.3848632,7.11181828 37.7344927,7.02030284 C38.0841221,6.9287874 38.4559255,7.03304342 38.707,7.293 L40.707,9.293 C40.9929079,9.57899425 41.0784219,10.0090366 40.923678,10.3826546 C40.7689341,10.7562725 40.4043959,10.9999137 40,11 Z" id="Shape" fill="#BDC3C7"/><path d="M38,11 C37.5956041,10.9999137 37.2310659,10.7562725 37.076322,10.3826546 C36.9215781,10.0090366 37.0070921,9.57899425 37.293,9.293 L39.293,7.293 C39.5440745,7.03304342 39.9158779,6.9287874 40.2655073,7.02030284 C40.6151368,7.11181828 40.8881817,7.38486324 40.9796972,7.73449268 C41.0712126,8.08412211 40.9669566,8.45592553 40.707,8.707 L38.707,10.707 C38.5195073,10.8945494 38.2651948,10.9999434 38,11 Z" id="Shape" fill="#BDC3C7"/><path d="M21,10 L18,10 C17.4477153,10 17,9.55228475 17,9 C17,8.44771525 17.4477153,8 18,8 L21,8 C21.5522847,8 22,8.44771525 22,9 C22,9.55228475 21.5522847,10 21,10 Z" id="Shape" fill="#BDC3C7"/><path d="M34,10 L25,10 C24.4477153,10 24,9.55228475 24,9 C24,8.44771525 24.4477153,8 25,8 L34,8 C34.5522847,8 35,8.44771525 35,9 C35,9.55228475 34.5522847,10 34,10 Z" id="Shape" fill="#BDC3C7"/><path d="M5,24 C4.91772731,24.0003241 4.83574379,23.9902442 4.756,23.97 C4.22029287,23.8357826 3.89480988,23.292714 4.029,22.757 L5.029,18.757 C5.12500736,18.3727662 5.43872993,18.0813964 5.829,18.014 L11.829,17.014 C12.1854798,16.9454895 12.5510917,17.0755399 12.7842298,17.3537811 C13.0173678,17.6320223 13.0814151,18.0147534 12.9515654,18.353738 C12.8217156,18.6927226 12.5183631,18.9347194 12.159,18.986 L6.805,19.878 L5.97,23.243 C5.85854091,23.6879311 5.45867939,23.9999879 5,24 Z" id="Shape" fill="#CC66A1"/><path d="M27,24 C26.5416935,23.9995296 26.1423683,23.6875697 26.031,23.243 L25.19,19.878 L19.836,18.986 C19.4766369,18.9347194 19.1732844,18.6927226 19.0434346,18.353738 C18.9135849,18.0147534 18.9776322,17.6320223 19.2107702,17.3537811 C19.4439083,17.0755399 19.8095202,16.9454895 20.166,17.014 L26.166,18.014 C26.5562701,18.0813964 26.8699926,18.3727662 26.966,18.757 L27.966,22.757 C28.1001901,23.292714 27.7747071,23.8357826 27.239,23.97 C27.1608777,23.9898302 27.0805998,23.9999069 27,24 Z" id="Shape" fill="#CC66A1"/><path d="M51.98,1 L57.98,1 L57.98,3 C57.98,4.1045695 57.0845695,5 55.98,5 L53.98,5 C52.8754305,5 51.98,4.1045695 51.98,3 L51.98,1 Z" id="Shape" fill="#547580"/><path d="M7,27 L25,27 C25.5522847,27 26,27.4477153 26,28 L26,47 L6,47 L6,28 C6,27.4477153 6.44771525,27 7,27 Z" id="Shape" fill="#E4C05C"/><path d="M14,38 C13.7348052,37.9999434 13.4804927,37.8945494 13.293,37.707 L12,36.414 L10.707,37.707 C10.3146211,38.0859722 9.69091522,38.0805524 9.30518142,37.6948186 C8.91944763,37.3090848 8.91402779,36.6853789 9.293,36.293 L11.293,34.293 C11.6834999,33.9026181 12.3165001,33.9026181 12.707,34.293 L14.707,36.293 C14.9929079,36.5789943 15.0784219,37.0090366 14.923678,37.3826546 C14.7689341,37.7562725 14.4043959,37.9999137 14,38 Z" id="Shape" fill="#805333"/><path d="M12,44 C11.4477153,44 11,43.5522847 11,43 L11,40 C11,39.4477153 11.4477153,39 12,39 C12.5522847,39 13,39.4477153 13,40 L13,43 C13,43.5522847 12.5522847,44 12,44 Z" id="Shape" fill="#805333"/><path d="M22,38 C21.7348052,37.9999434 21.4804927,37.8945494 21.293,37.707 L20,36.414 L18.707,37.707 C18.3146211,38.0859722 17.6909152,38.0805524 17.3051814,37.6948186 C16.9194476,37.3090848 16.9140278,36.6853789 17.293,36.293 L19.293,34.293 C19.6834999,33.9026181 20.3165001,33.9026181 20.707,34.293 L22.707,36.293 C22.9929079,36.5789943 23.0784219,37.0090366 22.923678,37.3826546 C22.7689341,37.7562725 22.4043959,37.9999137 22,38 Z" id="Shape" fill="#805333"/><path d="M20,44 C19.4477153,44 19,43.5522847 19,43 L19,40 C19,39.4477153 19.4477153,39 20,39 C20.5522847,39 21,39.4477153 21,40 L21,43 C21,43.5522847 20.5522847,44 20,44 Z" id="Shape" fill="#805333"/><rect id="Rectangle-path" fill="#FDD7AD" x="14" y="27" width="4" height="5"/><path d="M35,27 L53,27 C53.5522847,27 54,27.4477153 54,28 L54,47 L34,47 L34,28 C34,27.4477153 34.4477153,27 35,27 Z" id="Shape" fill="#E4C05C"/><path d="M42,38 C41.7348052,37.9999434 41.4804927,37.8945494 41.293,37.707 L40,36.414 L38.707,37.707 C38.3146211,38.0859722 37.6909152,38.0805524 37.3051814,37.6948186 C36.9194476,37.3090848 36.9140278,36.6853789 37.293,36.293 L39.293,34.293 C39.6834999,33.9026181 40.3165001,33.9026181 40.707,34.293 L42.707,36.293 C42.9929079,36.5789943 43.0784219,37.0090366 42.923678,37.3826546 C42.7689341,37.7562725 42.4043959,37.9999137 42,38 Z" id="Shape" fill="#805333"/><path d="M40,44 C39.4477153,44 39,43.5522847 39,43 L39,40 C39,39.4477153 39.4477153,39 40,39 C40.5522847,39 41,39.4477153 41,40 L41,43 C41,43.5522847 40.5522847,44 40,44 Z" id="Shape" fill="#805333"/><path d="M50,38 C49.7348052,37.9999434 49.4804927,37.8945494 49.293,37.707 L48,36.414 L46.707,37.707 C46.3146211,38.0859722 45.6909152,38.0805524 45.3051814,37.6948186 C44.9194476,37.3090848 44.9140278,36.6853789 45.293,36.293 L47.293,34.293 C47.6834999,33.9026181 48.3165001,33.9026181 48.707,34.293 L50.707,36.293 C50.9929079,36.5789943 51.0784219,37.0090366 50.923678,37.3826546 C50.7689341,37.7562725 50.4043959,37.9999137 50,38 Z" id="Shape" fill="#805333"/><path d="M48,44 C47.4477153,44 47,43.5522847 47,43 L47,40 C47,39.4477153 47.4477153,39 48,39 C48.5522847,39 49,39.4477153 49,40 L49,43 C49,43.5522847 48.5522847,44 48,44 Z" id="Shape" fill="#805333"/><rect id="Rectangle-path" fill="#FDD7AD" x="42" y="27" width="4" height="5"/><path d="M4,55 L12,55 L12,58 C12,58.5522847 11.5522847,59 11,59 L5,59 C4.44771525,59 4,58.5522847 4,58 L4,55 Z" id="Shape" fill="#2C3E50"/><path d="M26,55 L34,55 L34,58 C34,58.5522847 33.5522847,59 33,59 L27,59 C26.4477153,59 26,58.5522847 26,58 L26,55 Z" id="Shape" fill="#2C3E50"/><path d="M48,55 L56,55 L56,58 C56,58.5522847 55.5522847,59 55,59 L49,59 C48.4477153,59 48,58.5522847 48,58 L48,55 Z" id="Shape" fill="#2C3E50"/><rect id="Rectangle-path" fill="#95A5A5" x="1" y="47" width="58" height="8" rx="2"/><path d="M57,56 L3,56 C1.34314575,56 2.02906125e-16,54.6568542 0,53 L0,49 C-2.02906125e-16,47.3431458 1.34314575,46 3,46 L57,46 C58.6568542,46 60,47.3431458 60,49 L60,53 C60,54.6568542 58.6568542,56 57,56 Z M3,48 C2.44771525,48 2,48.4477153 2,49 L2,53 C2,53.5522847 2.44771525,54 3,54 L57,54 C57.5522847,54 58,53.5522847 58,53 L58,49 C58,48.4477153 57.5522847,48 57,48 L3,48 Z" id="Shape" fill="#547580"/><path d="M7,53 C6.73480519,52.9999434 6.48049273,52.8945494 6.293,52.707 L4.293,50.707 C3.91402779,50.3146211 3.91944763,49.6909152 4.30518142,49.3051814 C4.69091522,48.9194476 5.31462111,48.9140278 5.707,49.293 L7.707,51.293 C7.99290792,51.5789943 8.07842191,52.0090366 7.92367798,52.3826546 C7.76893405,52.7562725 7.4043959,52.9999137 7,53 Z" id="Shape" fill="#BDC3C7"/><path d="M5,53 C4.5956041,52.9999137 4.23106595,52.7562725 4.07632202,52.3826546 C3.92157809,52.0090366 4.00709208,51.5789943 4.293,51.293 L6.293,49.293 C6.68537889,48.9140278 7.30908478,48.9194476 7.69481858,49.3051814 C8.08055237,49.6909152 8.08597221,50.3146211 7.707,50.707 L5.707,52.707 C5.51950727,52.8945494 5.26519481,52.9999434 5,53 Z" id="Shape" fill="#BDC3C7"/><path d="M31,53 C30.7348052,52.9999434 30.4804927,52.8945494 30.293,52.707 L28.293,50.707 C27.9140278,50.3146211 27.9194476,49.6909152 28.3051814,49.3051814 C28.6909152,48.9194476 29.3146211,48.9140278 29.707,49.293 L31.707,51.293 C31.9929079,51.5789943 32.0784219,52.0090366 31.923678,52.3826546 C31.7689341,52.7562725 31.4043959,52.9999137 31,53 Z" id="Shape" fill="#BDC3C7"/><path d="M29,53 C28.5956041,52.9999137 28.2310659,52.7562725 28.076322,52.3826546 C27.9215781,52.0090366 28.0070921,51.5789943 28.293,51.293 L30.293,49.293 C30.6853789,48.9140278 31.3090848,48.9194476 31.6948186,49.3051814 C32.0805524,49.6909152 32.0859722,50.3146211 31.707,50.707 L29.707,52.707 C29.5195073,52.8945494 29.2651948,52.9999434 29,53 Z" id="Shape" fill="#BDC3C7"/><path d="M55,53 C54.7348052,52.9999434 54.4804927,52.8945494 54.293,52.707 L52.293,50.707 C51.9140278,50.3146211 51.9194476,49.6909152 52.3051814,49.3051814 C52.6909152,48.9194476 53.3146211,48.9140278 53.707,49.293 L55.707,51.293 C55.9929079,51.5789943 56.0784219,52.0090366 55.923678,52.3826546 C55.7689341,52.7562725 55.4043959,52.9999137 55,53 Z" id="Shape" fill="#BDC3C7"/><path d="M53,53 C52.5956041,52.9999137 52.2310659,52.7562725 52.076322,52.3826546 C51.9215781,52.0090366 52.0070921,51.5789943 52.293,51.293 L54.293,49.293 C54.6853789,48.9140278 55.3090848,48.9194476 55.6948186,49.3051814 C56.0805524,49.6909152 56.0859722,50.3146211 55.707,50.707 L53.707,52.707 C53.5195073,52.8945494 53.2651948,52.9999434 53,53 Z" id="Shape" fill="#BDC3C7"/><path d="M12,52 L11,52 C10.4477153,52 10,51.5522847 10,51 C10,50.4477153 10.4477153,50 11,50 L12,50 C12.5522847,50 13,50.4477153 13,51 C13,51.5522847 12.5522847,52 12,52 Z" id="Shape" fill="#BDC3C7"/><path d="M25,52 L16,52 C15.4477153,52 15,51.5522847 15,51 C15,50.4477153 15.4477153,50 16,50 L25,50 C25.5522847,50 26,50.4477153 26,51 C26,51.5522847 25.5522847,52 25,52 Z" id="Shape" fill="#BDC3C7"/><path d="M36,52 L35,52 C34.4477153,52 34,51.5522847 34,51 C34,50.4477153 34.4477153,50 35,50 L36,50 C36.5522847,50 37,50.4477153 37,51 C37,51.5522847 36.5522847,52 36,52 Z" id="Shape" fill="#BDC3C7"/><path d="M49,52 L40,52 C39.4477153,52 39,51.5522847 39,51 C39,50.4477153 39.4477153,50 40,50 L49,50 C49.5522847,50 50,50.4477153 50,51 C50,51.5522847 49.5522847,52 49,52 Z" id="Shape" fill="#BDC3C7"/><path d="M9,2 L1,2 C0.44771525,2 6.76353751e-17,1.55228475 0,1 C-6.76353751e-17,0.44771525 0.44771525,1.01453063e-16 1,0 L9,0 C9.55228475,3.38176876e-17 10,0.44771525 10,1 C10,1.55228475 9.55228475,2 9,2 Z" id="Shape" fill="#2C3E50"/><path d="M59,2 L13,2 C12.4477153,2 12,1.55228475 12,1 C12,0.44771525 12.4477153,1.01453063e-16 13,0 L59,0 C59.5522847,3.38176876e-17 60,0.44771525 60,1 C60,1.55228475 59.5522847,2 59,2 Z" id="Shape" fill="#2C3E50"/></g></g></svg>
