<?xml version="1.0" encoding="UTF-8"?>
<svg xmlns="http://www.w3.org/2000/svg" xmlns:xlink="http://www.w3.org/1999/xlink" width="512" height="512" viewBox="0 0 60 59" version="1.1"><!-- Generator: Sketch 50.2 (55047) - http://www.bohemiancoding.com/sketch --><title>014 - Car Manufacturing </title><desc>Created with Sketch.</desc><defs/><g id="Page-1" stroke="none" stroke-width="1" fill="none" fill-rule="evenodd"><g id="014---Car-Manufacturing-" fill-rule="nonzero"><path d="M49,36 C48.6486582,36.0002845 48.322941,35.8161669 48.142,35.515 L42.434,26 L17.566,26 L11.857,35.515 C11.5677598,35.9772053 10.9615684,36.1225113 10.4942161,35.8416637 C10.0268638,35.560816 9.87063638,34.957347 10.143,34.485 L16.143,24.485 C16.3237575,24.1841387 16.6490146,24.0000668 17,24 L43,24 C43.3509854,24.0000668 43.6762425,24.1841387 43.857,24.485 L49.857,34.485 C50.0425768,34.7938826 50.04762,35.1787205 49.8702014,35.4923601 C49.6927828,35.8059998 49.3603432,35.9999315 49,36 Z" id="Shape" fill="#C03A2B"/><path d="M21,36 C20.4477153,36 20,35.5522847 20,35 L20,29 C20,28.4477153 20.4477153,28 21,28 C21.5522847,28 22,28.4477153 22,29 L22,35 C22,35.5522847 21.5522847,36 21,36 Z" id="Shape" fill="#C03A2B"/><path d="M39,36 C38.4477153,36 38,35.5522847 38,35 L38,29 C38,28.4477153 38.4477153,28 39,28 C39.5522847,28 40,28.4477153 40,29 L40,35 C40,35.5522847 39.5522847,36 39,36 Z" id="Shape" fill="#C03A2B"/><path d="M51,1 L57,1 L57,3 C57,4.1045695 56.1045695,5 55,5 L53,5 C51.8954305,5 51,4.1045695 51,3 L51,1 Z" id="Shape" fill="#547580"/><path d="M48,23 C44.3429379,22.9871542 41.3078166,20.1699769 41.023,16.524 C40.9950841,15.9812752 41.4057092,15.5155996 41.9476607,15.4753745 C42.4896122,15.4351494 42.9644864,15.8351009 43.017,16.376 C43.2366124,19.0418005 45.5153698,21.0626145 48.1883059,20.961941 C50.8612419,20.8612675 52.9815349,18.6747675 53,16 L53,5 C53,4.44771525 53.4477153,4 54,4 C54.5522847,4 55,4.44771525 55,5 L55,16 C54.9955914,19.8641657 51.8641657,22.9955914 48,23 Z" id="Shape" fill="#CC66A1"/><path d="M20,21 C19.4477153,21 19,20.5522847 19,20 L19,14 C19,13.4477153 19.4477153,13 20,13 C20.5522847,13 21,13.4477153 21,14 L21,20 C21,20.5522847 20.5522847,21 20,21 Z" id="Shape" fill="#CC66A1"/><path d="M16,10 L16,8 C16.0256722,6.87054095 16.9615166,5.97542443 18.091,6 L39,6 L39,14 L17.045,14 C16.4805597,14.0117302 16.0131101,13.5644099 16,13 L16,10 Z" id="Shape" fill="#7F8C8D"/><path d="M38,1 L46,1 L46,12 C46,14.209139 44.209139,16 42,16 C39.790861,16 38,14.209139 38,12 L38,1 Z" id="Shape" fill="#95A5A5"/><path d="M42,13 C41.5937349,13.0023626 41.22642,12.7586962 41.070629,12.3834815 C40.9148381,12.0082668 41.0015401,11.5760905 41.29,11.29 C41.383926,11.197469 41.4963974,11.1258964 41.62,11.08 C41.9929737,10.9291234 42.4197788,11.0113519 42.71,11.29 C42.9984599,11.5760905 43.0851619,12.0082668 42.929371,12.3834815 C42.77358,12.7586962 42.4062651,13.0023626 42,13 Z" id="Shape" fill="#BDC3C7"/><path d="M42,9 C41.4477153,9 41,8.55228475 41,8 L41,5 C41,4.44771525 41.4477153,4 42,4 C42.5522847,4 43,4.44771525 43,5 L43,8 C43,8.55228475 42.5522847,9 42,9 Z" id="Shape" fill="#BDC3C7"/><rect id="Rectangle-path" fill="#2C3E50" x="24" y="47" width="12" height="9"/><path d="M9,2 L1,2 C0.44771525,2 6.76353751e-17,1.55228475 0,1 C-6.76353751e-17,0.44771525 0.44771525,1.01453063e-16 1,0 L9,0 C9.55228475,3.38176876e-17 10,0.44771525 10,1 C10,1.55228475 9.55228475,2 9,2 Z" id="Shape" fill="#2C3E50"/><path d="M59,2 L13,2 C12.4477153,2 12,1.55228475 12,1 C12,0.44771525 12.4477153,1.01453063e-16 13,0 L59,0 C59.5522847,3.38176876e-17 60,0.44771525 60,1 C60,1.55228475 59.5522847,2 59,2 Z" id="Shape" fill="#2C3E50"/><path d="M8,48 C8,45.2385763 10.2385763,43 13,43 C15.7614237,43 18,45.2385763 18,48 L42,48 C42,45.2385763 44.2385763,43 47,43 C49.7614237,43 52,45.2385763 52,48 L58,48 C58.5522847,48 59,47.5522847 59,47 L59,36 C59,35.4477153 58.5522847,35 58,35 L2,35 C1.44771525,35 1,35.4477153 1,36 L1,47 C1,47.5522847 1.44771525,48 2,48 L8,48 Z" id="Shape" fill="#E64C3C"/><path d="M25,41 L20,41 C19.4477153,41 19,40.5522847 19,40 C19,39.4477153 19.4477153,39 20,39 L25,39 C25.5522847,39 26,39.4477153 26,40 C26,40.5522847 25.5522847,41 25,41 Z" id="Shape" fill="#FB7B76"/><path d="M39,41 L29,41 C28.4477153,41 28,40.5522847 28,40 C28,39.4477153 28.4477153,39 29,39 L39,39 C39.5522847,39 40,39.4477153 40,40 C40,40.5522847 39.5522847,41 39,41 Z" id="Shape" fill="#FB7B76"/><path d="M55,41 L54,41 C53.4477153,41 53,40.5522847 53,40 C53,39.4477153 53.4477153,39 54,39 L55,39 C55.5522847,39 56,39.4477153 56,40 C56,40.5522847 55.5522847,41 55,41 Z" id="Shape" fill="#FB7B76"/><path d="M34,11 L28,11 C27.4477153,11 27,10.5522847 27,10 C27,9.44771525 27.4477153,9 28,9 L34,9 C34.5522847,9 35,9.44771525 35,10 C35,10.5522847 34.5522847,11 34,11 Z" id="Shape" fill="#BDC3C7"/><path d="M24,11 L20,11 C19.4477153,11 19,10.5522847 19,10 C19,9.44771525 19.4477153,9 20,9 L24,9 C24.5522847,9 25,9.44771525 25,10 C25,10.5522847 24.5522847,11 24,11 Z" id="Shape" fill="#BDC3C7"/><path d="M59,55 L1,55 L1,58 C1,58.5522847 1.44771525,59 2,59 L58,59 C58.5522847,59 59,58.5522847 59,58 L59,55 Z" id="Shape" fill="#547580"/></g></g></svg>
