<?xml version="1.0" encoding="UTF-8"?>
<svg xmlns="http://www.w3.org/2000/svg" xmlns:xlink="http://www.w3.org/1999/xlink" width="512" height="512" viewBox="0 0 60 59" version="1.1"><!-- Generator: Sketch 50.2 (55047) - http://www.bohemiancoding.com/sketch --><title>013 - Robotic Arm </title><desc>Created with Sketch.</desc><defs/><g id="Page-1" stroke="none" stroke-width="1" fill="none" fill-rule="evenodd"><g id="013---Robotic-Arm-" fill-rule="nonzero"><path d="M48,33 L47,33 C43.3429379,32.9871542 40.3078166,30.1699769 40.023,26.524 C39.9950841,25.9812752 40.4057092,25.5155996 40.9476607,25.4753745 C41.4896122,25.4351494 41.9644864,25.8351009 42.017,26.376 C42.2206051,28.9796943 44.3883716,30.9912842 47,31 L48,31 C50.7600532,30.9966939 52.9966939,28.7600532 53,26 L53,5 C53,4.44771525 53.4477153,4 54,4 C54.5522847,4 55,4.44771525 55,5 L55,26 C54.9955914,29.8641657 51.8641657,32.9955914 48,33 Z" id="Shape" fill="#CC66A1"/><path d="M51,1 L57,1 L57,3 C57,4.1045695 56.1045695,5 55,5 L53,5 C51.8954305,5 51,4.1045695 51,3 L51,1 Z" id="Shape" fill="#547580"/><path d="M47.707,9.293 L44.414,6 L47.707,2.707 C48.0859722,2.31462111 48.0805524,1.69091522 47.6948186,1.30518142 C47.3090848,0.919447626 46.6853789,0.91402779 46.293,1.293 L43,4.586 L42.707,4.293 C42.3146211,3.91402779 41.6909152,3.91944763 41.3051814,4.30518142 C40.9194476,4.69091522 40.9140278,5.31462111 41.293,5.707 L41.586,6 L38.293,9.293 C37.9026181,9.68349985 37.9026181,10.3165001 38.293,10.707 L41.586,14 L38.293,17.293 C38.0330434,17.5440745 37.9287874,17.9158779 38.0203028,18.2655073 C38.1118183,18.6151368 38.3848632,18.8881817 38.7344927,18.9796972 C39.0841221,19.0712126 39.4559255,18.9669566 39.707,18.707 L43,15.414 L46.293,18.707 C46.6853789,19.0859722 47.3090848,19.0805524 47.6948186,18.6948186 C48.0805524,18.3090848 48.0859722,17.6853789 47.707,17.293 L44.414,14 L47.707,10.707 C48.0973819,10.3165001 48.0973819,9.68349985 47.707,9.293 Z M40.414,10 L43,7.414 L45.586,10 L43,12.586 L40.414,10 Z" id="Shape" fill="#7F8C8D"/><path d="M4,53 L12,53 L12,58 C12,58.5522847 11.5522847,59 11,59 L5,59 C4.44771525,59 4,58.5522847 4,58 L4,53 Z" id="Shape" fill="#2C3E50"/><path d="M26,53 L34,53 L34,58 C34,58.5522847 33.5522847,59 33,59 L27,59 C26.4477153,59 26,58.5522847 26,58 L26,53 Z" id="Shape" fill="#2C3E50"/><path d="M48,53 L56,53 L56,58 C56,58.5522847 55.5522847,59 55,59 L49,59 C48.4477153,59 48,58.5522847 48,58 L48,53 Z" id="Shape" fill="#2C3E50"/><path d="M13,33 C12.4477153,33 12,32.5522847 12,32 L12,27 C12,26.4477153 12.4477153,26 13,26 C13.5522847,26 14,26.4477153 14,27 L14,32 C14,32.5522847 13.5522847,33 13,33 Z" id="Shape" fill="#2C3E50"/><path d="M13,37 C12.4477153,37 12,36.5522847 12,36 L12,35 C12,34.4477153 12.4477153,34 13,34 C13.5522847,34 14,34.4477153 14,35 L14,36 C14,36.5522847 13.5522847,37 13,37 Z" id="Shape" fill="#2C3E50"/><path d="M11,42 C10.8028084,41.999847 10.6100634,41.9413972 10.446,41.832 L7.446,39.832 C7.22531313,39.6848267 7.07214188,39.4560016 7.02019232,39.1958787 C6.96824276,38.9357558 7.02177176,38.6656502 7.169,38.445 L9.169,35.445 C9.3672824,35.147755 9.7090812,34.9788717 10.0656441,35.0019668 C10.422207,35.0250619 10.7393636,35.2366267 10.8976441,35.5569668 C11.0559246,35.8773069 11.0312824,36.257755 10.833,36.555 L9.387,38.723 L11.555,40.168 C11.9216557,40.4124851 12.0850428,40.8681723 11.9572708,41.2899349 C11.8294988,41.7116975 11.4406919,42.0000989 11,42 Z" id="Shape" fill="#CC66A1"/><path d="M15,42 C14.5591231,42.0005403 14.1699098,41.7122901 14.0418732,41.290414 C13.9138366,40.868538 14.0771898,40.4125875 14.444,40.168 L16.612,38.723 L15.167,36.555 C14.9687176,36.257755 14.9440754,35.8773069 15.1023559,35.5569669 C15.2606364,35.2366268 15.577793,35.025062 15.9343559,35.0019669 C16.2909188,34.9788718 16.6327176,35.147755 16.831,35.445 L18.831,38.445 C18.9782282,38.6656502 19.0317572,38.9357558 18.9798077,39.1958787 C18.9278581,39.4560016 18.7746869,39.6848267 18.554,39.832 L15.554,41.832 C15.3899366,41.9413972 15.1971916,41.999847 15,42 Z" id="Shape" fill="#CC66A1"/><rect id="Rectangle-path" fill="#95A5A5" x="1" y="45" width="58" height="8" rx="2"/><path d="M57,54 L3,54 C1.34314575,54 2.02906125e-16,52.6568542 0,51 L0,47 C-2.02906125e-16,45.3431458 1.34314575,44 3,44 L57,44 C58.6568542,44 60,45.3431458 60,47 L60,51 C60,52.6568542 58.6568542,54 57,54 Z M3,46 C2.44771525,46 2,46.4477153 2,47 L2,51 C2,51.5522847 2.44771525,52 3,52 L57,52 C57.5522847,52 58,51.5522847 58,51 L58,47 C58,46.4477153 57.5522847,46 57,46 L3,46 Z" id="Shape" fill="#547580"/><path d="M7,51 C6.73480519,50.9999434 6.48049273,50.8945494 6.293,50.707 L4.293,48.707 C3.91402779,48.3146211 3.91944763,47.6909152 4.30518142,47.3051814 C4.69091522,46.9194476 5.31462111,46.9140278 5.707,47.293 L7.707,49.293 C7.99290792,49.5789943 8.07842191,50.0090366 7.92367798,50.3826546 C7.76893405,50.7562725 7.4043959,50.9999137 7,51 Z" id="Shape" fill="#BDC3C7"/><path d="M5,51 C4.5956041,50.9999137 4.23106595,50.7562725 4.07632202,50.3826546 C3.92157809,50.0090366 4.00709208,49.5789943 4.293,49.293 L6.293,47.293 C6.68537889,46.9140278 7.30908478,46.9194476 7.69481858,47.3051814 C8.08055237,47.6909152 8.08597221,48.3146211 7.707,48.707 L5.707,50.707 C5.51950727,50.8945494 5.26519481,50.9999434 5,51 Z" id="Shape" fill="#BDC3C7"/><path d="M31,51 C30.7348052,50.9999434 30.4804927,50.8945494 30.293,50.707 L28.293,48.707 C27.9140278,48.3146211 27.9194476,47.6909152 28.3051814,47.3051814 C28.6909152,46.9194476 29.3146211,46.9140278 29.707,47.293 L31.707,49.293 C31.9929079,49.5789943 32.0784219,50.0090366 31.923678,50.3826546 C31.7689341,50.7562725 31.4043959,50.9999137 31,51 Z" id="Shape" fill="#BDC3C7"/><path d="M29,51 C28.5956041,50.9999137 28.2310659,50.7562725 28.076322,50.3826546 C27.9215781,50.0090366 28.0070921,49.5789943 28.293,49.293 L30.293,47.293 C30.6853789,46.9140278 31.3090848,46.9194476 31.6948186,47.3051814 C32.0805524,47.6909152 32.0859722,48.3146211 31.707,48.707 L29.707,50.707 C29.5195073,50.8945494 29.2651948,50.9999434 29,51 Z" id="Shape" fill="#BDC3C7"/><path d="M55,51 C54.7348052,50.9999434 54.4804927,50.8945494 54.293,50.707 L52.293,48.707 C51.9140278,48.3146211 51.9194476,47.6909152 52.3051814,47.3051814 C52.6909152,46.9194476 53.3146211,46.9140278 53.707,47.293 L55.707,49.293 C55.9929079,49.5789943 56.0784219,50.0090366 55.923678,50.3826546 C55.7689341,50.7562725 55.4043959,50.9999137 55,51 Z" id="Shape" fill="#BDC3C7"/><path d="M53,51 C52.5956041,50.9999137 52.2310659,50.7562725 52.076322,50.3826546 C51.9215781,50.0090366 52.0070921,49.5789943 52.293,49.293 L54.293,47.293 C54.6853789,46.9140278 55.3090848,46.9194476 55.6948186,47.3051814 C56.0805524,47.6909152 56.0859722,48.3146211 55.707,48.707 L53.707,50.707 C53.5195073,50.8945494 53.2651948,50.9999434 53,51 Z" id="Shape" fill="#BDC3C7"/><path d="M12,50 L11,50 C10.4477153,50 10,49.5522847 10,49 C10,48.4477153 10.4477153,48 11,48 L12,48 C12.5522847,48 13,48.4477153 13,49 C13,49.5522847 12.5522847,50 12,50 Z" id="Shape" fill="#BDC3C7"/><path d="M25,50 L16,50 C15.4477153,50 15,49.5522847 15,49 C15,48.4477153 15.4477153,48 16,48 L25,48 C25.5522847,48 26,48.4477153 26,49 C26,49.5522847 25.5522847,50 25,50 Z" id="Shape" fill="#BDC3C7"/><path d="M36,50 L35,50 C34.4477153,50 34,49.5522847 34,49 C34,48.4477153 34.4477153,48 35,48 L36,48 C36.5522847,48 37,48.4477153 37,49 C37,49.5522847 36.5522847,50 36,50 Z" id="Shape" fill="#BDC3C7"/><path d="M49,50 L40,50 C39.4477153,50 39,49.5522847 39,49 C39,48.4477153 39.4477153,48 40,48 L49,48 C49.5522847,48 50,48.4477153 50,49 C50,49.5522847 49.5522847,50 49,50 Z" id="Shape" fill="#BDC3C7"/><path d="M45,24 L43,24 C42.4477153,24 42,23.5522847 42,23 C42,22.4477153 42.4477153,22 43,22 L45,22 C45.5522847,22 46,21.5522847 46,21 L46,2 L40,2 L40,19 C40,19.5522847 39.5522847,20 39,20 C38.4477153,20 38,19.5522847 38,19 L38,1 C38,0.44771525 38.4477153,1.01453063e-16 39,0 L47,0 C47.5522847,3.38176876e-17 48,0.44771525 48,1 L48,21 C48,22.6568542 46.6568542,24 45,24 Z" id="Shape" fill="#A5A5A4"/><path d="M9,2 L1,2 C0.44771525,2 6.76353751e-17,1.55228475 0,1 C-6.76353751e-17,0.44771525 0.44771525,1.01453063e-16 1,0 L9,0 C9.55228475,3.38176876e-17 10,0.44771525 10,1 C10,1.55228475 9.55228475,2 9,2 Z" id="Shape" fill="#2C3E50"/><path d="M59,2 L13,2 C12.4477153,2 12,1.55228475 12,1 C12,0.44771525 12.4477153,1.01453063e-16 13,0 L59,0 C59.5522847,3.38176876e-17 60,0.44771525 60,1 C60,1.55228475 59.5522847,2 59,2 Z" id="Shape" fill="#2C3E50"/><rect id="Rectangle-path" fill="#95A5A5" x="8" y="19" width="35" height="8" rx="4"/><path d="M39,28 L12,28 C9.23857625,28 7,25.7614237 7,23 C7,20.2385763 9.23857625,18 12,18 L39,18 C41.7614237,18 44,20.2385763 44,23 C44,25.7614237 41.7614237,28 39,28 Z M12,20 C10.3431458,20 9,21.3431458 9,23 C9,24.6568542 10.3431458,26 12,26 L39,26 C40.6568542,26 42,24.6568542 42,23 C42,21.3431458 40.6568542,20 39,20 L12,20 Z" id="Shape" fill="#547580"/><path d="M14,25 C13.7348052,24.9999434 13.4804927,24.8945494 13.293,24.707 L11.293,22.707 C10.9140278,22.3146211 10.9194476,21.6909152 11.3051814,21.3051814 C11.6909152,20.9194476 12.3146211,20.9140278 12.707,21.293 L14.707,23.293 C14.9929079,23.5789943 15.0784219,24.0090366 14.923678,24.3826546 C14.7689341,24.7562725 14.4043959,24.9999137 14,25 Z" id="Shape" fill="#BDC3C7"/><path d="M12,25 C11.5956041,24.9999137 11.2310659,24.7562725 11.076322,24.3826546 C10.9215781,24.0090366 11.0070921,23.5789943 11.293,23.293 L13.293,21.293 C13.6853789,20.9140278 14.3090848,20.9194476 14.6948186,21.3051814 C15.0805524,21.6909152 15.0859722,22.3146211 14.707,22.707 L12.707,24.707 C12.5195073,24.8945494 12.2651948,24.9999434 12,25 Z" id="Shape" fill="#BDC3C7"/><path d="M39,25 C38.7348052,24.9999434 38.4804927,24.8945494 38.293,24.707 L36.293,22.707 C35.9140278,22.3146211 35.9194476,21.6909152 36.3051814,21.3051814 C36.6909152,20.9194476 37.3146211,20.9140278 37.707,21.293 L39.707,23.293 C39.9929079,23.5789943 40.0784219,24.0090366 39.923678,24.3826546 C39.7689341,24.7562725 39.4043959,24.9999137 39,25 Z" id="Shape" fill="#BDC3C7"/><path d="M37,25 C36.5956041,24.9999137 36.2310659,24.7562725 36.076322,24.3826546 C35.9215781,24.0090366 36.0070921,23.5789943 36.293,23.293 L38.293,21.293 C38.6853789,20.9140278 39.3090848,20.9194476 39.6948186,21.3051814 C40.0805524,21.6909152 40.0859722,22.3146211 39.707,22.707 L37.707,24.707 C37.5195073,24.8945494 37.2651948,24.9999434 37,25 Z" id="Shape" fill="#BDC3C7"/><path d="M20,24 L17,24 C16.4477153,24 16,23.5522847 16,23 C16,22.4477153 16.4477153,22 17,22 L20,22 C20.5522847,22 21,22.4477153 21,23 C21,23.5522847 20.5522847,24 20,24 Z" id="Shape" fill="#BDC3C7"/><path d="M33,24 L24,24 C23.4477153,24 23,23.5522847 23,23 C23,22.4477153 23.4477153,22 24,22 L33,22 C33.5522847,22 34,22.4477153 34,23 C34,23.5522847 33.5522847,24 33,24 Z" id="Shape" fill="#BDC3C7"/></g></g></svg>
