<?xml version="1.0" encoding="UTF-8"?>
<svg xmlns="http://www.w3.org/2000/svg" xmlns:xlink="http://www.w3.org/1999/xlink" width="512" height="512" viewBox="0 0 59 60" version="1.1"><!-- Generator: Sketch 50.2 (55047) - http://www.bohemiancoding.com/sketch --><title>009 - Water Mill </title><desc>Created with Sketch.</desc><defs/><g id="Page-1" stroke="none" stroke-width="1" fill="none" fill-rule="evenodd"><g id="009---Water-Mill-" fill-rule="nonzero"><polygon id="Shape" fill="#B19046" points="54 36.218 54 56 41 56 41 26.56"/><path d="M48,55 L48,44 C48,43.4477153 48.4477153,43 49,43 L54,43 L54,55 L48,55 Z" id="Shape" fill="#67B9CC"/><path d="M58,40 C57.7780225,39.9999763 57.5623623,39.926096 57.387,39.79 L41.387,27.35 C40.9509712,27.0108972 40.8723972,26.3825288 41.2115,25.9465 C41.5506028,25.5104712 42.1789712,25.4318972 42.615,25.771 L58.615,38.21 C58.9529211,38.4722538 59.0866217,38.9203973 58.9476328,39.3249339 C58.808644,39.7294705 58.4277465,40.0008108 58,40 Z" id="Shape" fill="#802D40"/><polygon id="Shape" fill="#F0C419" points="42 16.108 42 56 14 56 14 16.108 28 5"/><rect id="Rectangle-path" fill="#F29C1F" x="14" y="44" width="28" height="11"/><polygon id="Shape" fill="#F29C1F" points="32 8.11 32 1 40 1 40 14.33"/><path d="M41,2 L31,2 C30.4477153,2 30,1.55228475 30,1 C30,0.44771525 30.4477153,1.01453063e-16 31,0 L41,0 C41.5522847,3.38176876e-17 42,0.44771525 42,1 C42,1.55228475 41.5522847,2 41,2 Z" id="Shape" fill="#802D40"/><rect id="Rectangle-path" fill="#4C8056" x="0" y="55" width="58" height="4" rx="1"/><path d="M25,18 L31,18 L31,22 C31,22.5522847 30.5522847,23 30,23 L26,23 C25.4477153,23 25,22.5522847 25,22 L25,18 Z" id="Shape" fill="#67B9CC"/><path d="M32,19 L24,19 C23.4477153,19 23,18.5522847 23,18 C23,17.4477153 23.4477153,17 24,17 L32,17 C32.5522847,17 33,17.4477153 33,18 C33,18.5522847 32.5522847,19 32,19 Z" id="Shape" fill="#802D40"/><path d="M19,28 L25,28 L25,32 C25,32.5522847 24.5522847,33 24,33 L20,33 C19.4477153,33 19,32.5522847 19,32 L19,28 Z" id="Shape" fill="#67B9CC"/><path d="M26,29 L18,29 C17.4477153,29 17,28.5522847 17,28 C17,27.4477153 17.4477153,27 18,27 L26,27 C26.5522847,27 27,27.4477153 27,28 C27,28.5522847 26.5522847,29 26,29 Z" id="Shape" fill="#802D40"/><path d="M31,28 L37,28 L37,32 C37,32.5522847 36.5522847,33 36,33 L32,33 C31.4477153,33 31,32.5522847 31,32 L31,28 Z" id="Shape" fill="#67B9CC"/><path d="M38,29 L30,29 C29.4477153,29 29,28.5522847 29,28 C29,27.4477153 29.4477153,27 30,27 L38,27 C38.5522847,27 39,27.4477153 39,28 C39,28.5522847 38.5522847,29 38,29 Z" id="Shape" fill="#802D40"/><path d="M46,20 C45.7780225,19.9999763 45.5623623,19.926096 45.387,19.79 L28,6.267 L10.614,19.79 C10.177695,20.1291028 9.54910286,20.0503049 9.21000003,19.614 C8.8708972,19.177695 8.94969507,18.5491028 9.386,18.21 L27.386,4.21 C27.7471336,3.9290747 28.2528664,3.9290747 28.614,4.21 L46.614,18.21 C46.9517747,18.4721414 47.08552,18.9200284 46.9467933,19.3244598 C46.8080665,19.7288913 46.4275626,20.0003821 46,20 Z" id="Shape" fill="#802D40"/><path d="M34,45 L24.25,45 C23.6977153,45 23.25,44.5522847 23.25,44 C23.25,43.4477153 23.6977153,43 24.25,43 L34,43 C34.5522847,43 35,43.4477153 35,44 C35,44.5522847 34.5522847,45 34,45 Z" id="Shape" fill="#E57E25"/><path d="M42,43 L42,45 L38,45 C37.4477153,45 37,44.5522847 37,44 C37,43.4477153 37.4477153,43 38,43 L42,43 Z" id="Shape" fill="#E57E25"/><path d="M37,52 L36,52 C35.4477153,52 35,51.5522847 35,51 C35,50.4477153 35.4477153,50 36,50 L37,50 C37.5522847,50 38,50.4477153 38,51 C38,51.5522847 37.5522847,52 37,52 Z" id="Shape" fill="#E57E25"/><path d="M31,50 L30,50 C29.4477153,50 29,49.5522847 29,49 C29,48.4477153 29.4477153,48 30,48 L31,48 C31.5522847,48 32,48.4477153 32,49 C32,49.5522847 31.5522847,50 31,50 Z" id="Shape" fill="#E57E25"/><path d="M14,46 C13.4477153,46 13,45.5522847 13,45 L13,37 C13,36.4477153 13.4477153,36 14,36 C14.5522847,36 15,36.4477153 15,37 L15,45 C15,45.5522847 14.5522847,46 14,46 Z" id="Shape" fill="#E64C3C"/><path d="M11.88,46.88 C11.6148052,46.8799434 11.3604927,46.7745494 11.173,46.587 L5.513,40.927 C5.13402779,40.5346211 5.13944763,39.9109152 5.52518142,39.5251814 C5.91091522,39.1394476 6.53462111,39.1340278 6.927,39.513 L12.587,45.173 C12.8729079,45.4589943 12.9584219,45.8890366 12.803678,46.2626546 C12.6489341,46.6362725 12.2843959,46.8799137 11.88,46.88 Z" id="Shape" fill="#E64C3C"/><path d="M11,49 L3,49 C2.44771525,49 2,48.5522847 2,48 C2,47.4477153 2.44771525,47 3,47 L11,47 C11.5522847,47 12,47.4477153 12,48 C12,48.5522847 11.5522847,49 11,49 Z" id="Shape" fill="#E64C3C"/><path d="M6.22,56.78 C5.8156041,56.7799137 5.45106595,56.5362725 5.29632202,56.1626546 C5.14157809,55.7890366 5.22709208,55.3589943 5.513,55.073 L11.173,49.413 C11.5653789,49.0340278 12.1890848,49.0394476 12.5748186,49.4251814 C12.9605524,49.8109152 12.9659722,50.4346211 12.587,50.827 L6.927,56.487 C6.73950727,56.6745494 6.48519481,56.7799434 6.22,56.78 Z" id="Shape" fill="#E64C3C"/><path d="M14,60 C13.4477153,60 13,59.5522847 13,59 L13,51 C13,50.4477153 13.4477153,50 14,50 C14.5522847,50 15,50.4477153 15,51 L15,59 C15,59.5522847 14.5522847,60 14,60 Z" id="Shape" fill="#E64C3C"/><path d="M21.78,56.78 C21.5148052,56.7799434 21.2604927,56.6745494 21.073,56.487 L15.413,50.827 C15.0340278,50.4346211 15.0394476,49.8109152 15.4251814,49.4251814 C15.8109152,49.0394476 16.4346211,49.0340278 16.827,49.413 L22.487,55.073 C22.7729079,55.3589943 22.8584219,55.7890366 22.703678,56.1626546 C22.5489341,56.5362725 22.1843959,56.7799137 21.78,56.78 Z" id="Shape" fill="#E64C3C"/><path d="M25,49 L17,49 C16.4477153,49 16,48.5522847 16,48 C16,47.4477153 16.4477153,47 17,47 L25,47 C25.5522847,47 26,47.4477153 26,48 C26,48.5522847 25.5522847,49 25,49 Z" id="Shape" fill="#E64C3C"/><path d="M16.12,46.88 C15.7156041,46.8799137 15.3510659,46.6362725 15.196322,46.2626546 C15.0415781,45.8890366 15.1270921,45.4589943 15.413,45.173 L21.073,39.513 C21.3240745,39.2530434 21.6958779,39.1487874 22.0455073,39.2403028 C22.3951368,39.3318183 22.6681817,39.6048632 22.7596972,39.9544927 C22.8512126,40.3041221 22.7469566,40.6759255 22.487,40.927 L16.827,46.587 C16.6395073,46.7745494 16.3851948,46.8799434 16.12,46.88 Z" id="Shape" fill="#E64C3C"/><path d="M14,60 C7.372583,60 2,54.627417 2,48 C2,41.372583 7.372583,36 14,36 C20.627417,36 26,41.372583 26,48 C25.9928352,54.624447 20.624447,59.9928352 14,60 Z M14,38 C8.4771525,38 4,42.4771525 4,48 C4,53.5228475 8.4771525,58 14,58 C19.5228475,58 24,53.5228475 24,48 C23.9939376,42.4796656 19.5203344,38.0060624 14,38 Z" id="Shape" fill="#802D40"/><path d="M14,52 C11.790861,52 10,50.209139 10,48 C10,45.790861 11.790861,44 14,44 C16.209139,44 18,45.790861 18,48 C18,50.209139 16.209139,52 14,52 Z M14,46 C12.8954305,46 12,46.8954305 12,48 C12,49.1045695 12.8954305,50 14,50 C15.1045695,50 16,49.1045695 16,48 C16,46.8954305 15.1045695,46 14,46 Z" id="Shape" fill="#802D40"/></g></g></svg>
