<?xml version="1.0" encoding="UTF-8"?>
<svg xmlns="http://www.w3.org/2000/svg" xmlns:xlink="http://www.w3.org/1999/xlink" width="512" height="512" viewBox="0 0 59 59" version="1.1"><!-- Generator: Sketch 50.2 (55047) - http://www.bohemiancoding.com/sketch --><title>008 - Factory </title><desc>Created with Sketch.</desc><defs/><g id="Page-1" stroke="none" stroke-width="1" fill="none" fill-rule="evenodd"><g id="008---Factory-" fill-rule="nonzero"><path d="M19,19 L14,19 C13.4477153,19 13,18.5522847 13,18 C13,17.4477153 13.4477153,17 14,17 L19,17 C19.5522847,17 20,17.4477153 20,18 C20,18.5522847 19.5522847,19 19,19 Z" id="Shape" fill="#BDC3C7"/><path d="M19,24 L14,24 C13.4477153,24 13,23.5522847 13,23 C13,22.4477153 13.4477153,22 14,22 L19,22 C19.5522847,22 20,22.4477153 20,23 C20,23.5522847 19.5522847,24 19,24 Z" id="Shape" fill="#BDC3C7"/><path d="M19,29 L14,29 C13.4477153,29 13,28.5522847 13,28 C13,27.4477153 13.4477153,27 14,27 L19,27 C19.5522847,27 20,27.4477153 20,28 C20,28.5522847 19.5522847,29 19,29 Z" id="Shape" fill="#BDC3C7"/><path d="M19,34 L14,34 C13.4477153,34 13,33.5522847 13,33 C13,32.4477153 13.4477153,32 14,32 L19,32 C19.5522847,32 20,32.4477153 20,33 C20,33.5522847 19.5522847,34 19,34 Z" id="Shape" fill="#BDC3C7"/><path d="M18,39 C17.4477153,39 17,38.5522847 17,38 L17,15 C17,14.4477153 17.4477153,14 18,14 C18.5522847,14 19,14.4477153 19,15 L19,38 C19,38.5522847 18.5522847,39 18,39 Z" id="Shape" fill="#95A5A5"/><path d="M38,19 L33,19 C32.4477153,19 32,18.5522847 32,18 C32,17.4477153 32.4477153,17 33,17 L38,17 C38.5522847,17 39,17.4477153 39,18 C39,18.5522847 38.5522847,19 38,19 Z" id="Shape" fill="#BDC3C7"/><path d="M38,24 L33,24 C32.4477153,24 32,23.5522847 32,23 C32,22.4477153 32.4477153,22 33,22 L38,22 C38.5522847,22 39,22.4477153 39,23 C39,23.5522847 38.5522847,24 38,24 Z" id="Shape" fill="#BDC3C7"/><path d="M38,29 L33,29 C32.4477153,29 32,28.5522847 32,28 C32,27.4477153 32.4477153,27 33,27 L38,27 C38.5522847,27 39,27.4477153 39,28 C39,28.5522847 38.5522847,29 38,29 Z" id="Shape" fill="#BDC3C7"/><path d="M38,34 L33,34 C32.4477153,34 32,33.5522847 32,33 C32,32.4477153 32.4477153,32 33,32 L38,32 C38.5522847,32 39,32.4477153 39,33 C39,33.5522847 38.5522847,34 38,34 Z" id="Shape" fill="#BDC3C7"/><path d="M37,39 C36.4477153,39 36,38.5522847 36,38 L36,15 C36,14.4477153 36.4477153,14 37,14 C37.5522847,14 38,14.4477153 38,15 L38,38 C38,38.5522847 37.5522847,39 37,39 Z" id="Shape" fill="#95A5A5"/><path d="M4,13 C4,10.2385763 6.23857625,8 9,8 C11.7614237,8 14,10.2385763 14,13 L14,40 L4,40 L4,13 Z" id="Shape" fill="#71C285"/><path d="M23,13 C23,10.2385763 25.2385763,8 28,8 C30.7614237,8 33,10.2385763 33,13 L33,40 L23,40 L23,13 Z" id="Shape" fill="#71C285"/><path d="M10,14 L8,14 C7.44771525,14 7,13.5522847 7,13 C7,12.4477153 7.44771525,12 8,12 L10,12 C10.5522847,12 11,12.4477153 11,13 C11,13.5522847 10.5522847,14 10,14 Z" id="Shape" fill="#BBD1B5"/><path d="M10,19 L8,19 C7.44771525,19 7,18.5522847 7,18 C7,17.4477153 7.44771525,17 8,17 L10,17 C10.5522847,17 11,17.4477153 11,18 C11,18.5522847 10.5522847,19 10,19 Z" id="Shape" fill="#BBD1B5"/><path d="M10,24 L8,24 C7.44771525,24 7,23.5522847 7,23 C7,22.4477153 7.44771525,22 8,22 L10,22 C10.5522847,22 11,22.4477153 11,23 C11,23.5522847 10.5522847,24 10,24 Z" id="Shape" fill="#BBD1B5"/><path d="M10,29 L8,29 C7.44771525,29 7,28.5522847 7,28 C7,27.4477153 7.44771525,27 8,27 L10,27 C10.5522847,27 11,27.4477153 11,28 C11,28.5522847 10.5522847,29 10,29 Z" id="Shape" fill="#BBD1B5"/><path d="M10,34 L8,34 C7.44771525,34 7,33.5522847 7,33 C7,32.4477153 7.44771525,32 8,32 L10,32 C10.5522847,32 11,32.4477153 11,33 C11,33.5522847 10.5522847,34 10,34 Z" id="Shape" fill="#BBD1B5"/><path d="M29,14 L27,14 C26.4477153,14 26,13.5522847 26,13 C26,12.4477153 26.4477153,12 27,12 L29,12 C29.5522847,12 30,12.4477153 30,13 C30,13.5522847 29.5522847,14 29,14 Z" id="Shape" fill="#BBD1B5"/><path d="M29,19 L27,19 C26.4477153,19 26,18.5522847 26,18 C26,17.4477153 26.4477153,17 27,17 L29,17 C29.5522847,17 30,17.4477153 30,18 C30,18.5522847 29.5522847,19 29,19 Z" id="Shape" fill="#BBD1B5"/><path d="M29,24 L27,24 C26.4477153,24 26,23.5522847 26,23 C26,22.4477153 26.4477153,22 27,22 L29,22 C29.5522847,22 30,22.4477153 30,23 C30,23.5522847 29.5522847,24 29,24 Z" id="Shape" fill="#BBD1B5"/><path d="M29,29 L27,29 C26.4477153,29 26,28.5522847 26,28 C26,27.4477153 26.4477153,27 27,27 L29,27 C29.5522847,27 30,27.4477153 30,28 C30,28.5522847 29.5522847,29 29,29 Z" id="Shape" fill="#BBD1B5"/><path d="M29,34 L27,34 C26.4477153,34 26,33.5522847 26,33 C26,32.4477153 26.4477153,32 27,32 L29,32 C29.5522847,32 30,32.4477153 30,33 C30,33.5522847 29.5522847,34 29,34 Z" id="Shape" fill="#BBD1B5"/><path d="M3.054,38 L44,38 L44,56 L2,56 L2,39.054 C2,38.4718919 2.47189187,38 3.054,38 Z" id="Shape" fill="#41767F"/><polyline id="Shape" fill="#7F8C8D" points="42 56 42 1 56 1 56 56"/><rect id="Rectangle-path" fill="#4C8056" x="0" y="55" width="58" height="4" rx="1"/><path d="M7,46 L13,46 L13,50 C13,50.5522847 12.5522847,51 12,51 L8,51 C7.44771525,51 7,50.5522847 7,50 L7,46 Z" id="Shape" fill="#67B9CC"/><path d="M14,47 L6,47 C5.44771525,47 5,46.5522847 5,46 C5,45.4477153 5.44771525,45 6,45 L14,45 C14.5522847,45 15,45.4477153 15,46 C15,46.5522847 14.5522847,47 14,47 Z" id="Shape" fill="#2C3E50"/><path d="M19,46 L25,46 L25,50 C25,50.5522847 24.5522847,51 24,51 L20,51 C19.4477153,51 19,50.5522847 19,50 L19,46 Z" id="Shape" fill="#67B9CC"/><path d="M26,47 L18,47 C17.4477153,47 17,46.5522847 17,46 C17,45.4477153 17.4477153,45 18,45 L26,45 C26.5522847,45 27,45.4477153 27,46 C27,46.5522847 26.5522847,47 26,47 Z" id="Shape" fill="#2C3E50"/><path d="M31,46 L37,46 L37,50 C37,50.5522847 36.5522847,51 36,51 L32,51 C31.4477153,51 31,50.5522847 31,50 L31,46 Z" id="Shape" fill="#67B9CC"/><path d="M38,47 L30,47 C29.4477153,47 29,46.5522847 29,46 C29,45.4477153 29.4477153,45 30,45 L38,45 C38.5522847,45 39,45.4477153 39,46 C39,46.5522847 38.5522847,47 38,47 Z" id="Shape" fill="#2C3E50"/><path d="M46,9 L52,9 L52,13 C52,13.5522847 51.5522847,14 51,14 L47,14 C46.4477153,14 46,13.5522847 46,13 L46,9 Z" id="Shape" fill="#67B9CC"/><path d="M53,10 L45,10 C44.4477153,10 44,9.55228475 44,9 C44,8.44771525 44.4477153,8 45,8 L53,8 C53.5522847,8 54,8.44771525 54,9 C54,9.55228475 53.5522847,10 53,10 Z" id="Shape" fill="#2C3E50"/><path d="M46,20 L52,20 L52,24 C52,24.5522847 51.5522847,25 51,25 L47,25 C46.4477153,25 46,24.5522847 46,24 L46,20 Z" id="Shape" fill="#67B9CC"/><path d="M53,21 L45,21 C44.4477153,21 44,20.5522847 44,20 C44,19.4477153 44.4477153,19 45,19 L53,19 C53.5522847,19 54,19.4477153 54,20 C54,20.5522847 53.5522847,21 53,21 Z" id="Shape" fill="#2C3E50"/><path d="M46,31 L52,31 L52,35 C52,35.5522847 51.5522847,36 51,36 L47,36 C46.4477153,36 46,35.5522847 46,35 L46,31 Z" id="Shape" fill="#67B9CC"/><path d="M53,32 L45,32 C44.4477153,32 44,31.5522847 44,31 C44,30.4477153 44.4477153,30 45,30 L53,30 C53.5522847,30 54,30.4477153 54,31 C54,31.5522847 53.5522847,32 53,32 Z" id="Shape" fill="#2C3E50"/><path d="M46,42 L52,42 L52,46 C52,46.5522847 51.5522847,47 51,47 L47,47 C46.4477153,47 46,46.5522847 46,46 L46,42 Z" id="Shape" fill="#67B9CC"/><path d="M53,43 L45,43 C44.4477153,43 44,42.5522847 44,42 C44,41.4477153 44.4477153,41 45,41 L53,41 C53.5522847,41 54,41.4477153 54,42 C54,42.5522847 53.5522847,43 53,43 Z" id="Shape" fill="#2C3E50"/><path d="M10,43 L6,43 C5.44771525,43 5,42.5522847 5,42 C5,41.4477153 5.44771525,41 6,41 L10,41 C10.5522847,41 11,41.4477153 11,42 C11,42.5522847 10.5522847,43 10,43 Z" id="Shape" fill="#3F5C6C"/><path d="M26,43 L14,43 C13.4477153,43 13,42.5522847 13,42 C13,41.4477153 13.4477153,41 14,41 L26,41 C26.5522847,41 27,41.4477153 27,42 C27,42.5522847 26.5522847,43 26,43 Z" id="Shape" fill="#3F5C6C"/><path d="M58,2 L40,2 C39.4477153,2 39,1.55228475 39,1 C39,0.44771525 39.4477153,1.01453063e-16 40,0 L58,0 C58.5522847,3.38176876e-17 59,0.44771525 59,1 C59,1.55228475 58.5522847,2 58,2 Z" id="Shape" fill="#2C3E50"/></g></g></svg>
