<?xml version="1.0" encoding="UTF-8"?>
<svg xmlns="http://www.w3.org/2000/svg" xmlns:xlink="http://www.w3.org/1999/xlink" width="512" height="512" viewBox="0 0 58 58" version="1.1"><!-- Generator: Sketch 50.2 (55047) - http://www.bohemiancoding.com/sketch --><title>006 - Factory </title><desc>Created with Sketch.</desc><defs/><g id="Page-1" stroke="none" stroke-width="1" fill="none" fill-rule="evenodd"><g id="006---Factory-" fill-rule="nonzero"><path d="M43.118,-1.11022302e-16 L48.882,-1.11022302e-16 C49.4994544,4.10782519e-15 50,0.50054565 50,1.118 L50,5 L42,5 L42,1.118 C42,0.821487964 42.1177889,0.53712029 42.3274546,0.327454619 C42.5371203,0.117788948 42.821488,-2.55351296e-15 43.118,-1.11022302e-16 Z" id="Shape" fill="#C03A2B"/><path d="M42,4 L50,4 C50.5522847,4 51,4.44771525 51,5 L51,24 L41,24 L41,5 C41,4.44771525 41.4477153,4 42,4 Z" id="Shape" fill="#CC6F56"/><polygon id="Shape" fill="#C03A2B" points="39 28.741 39 24 53 24 53 33"/><path d="M55,25 L37,25 C36.4477153,25 36,24.5522847 36,24 C36,23.4477153 36.4477153,23 37,23 L55,23 C55.5522847,23 56,23.4477153 56,24 C56,24.5522847 55.5522847,25 55,25 Z" id="Shape" fill="#802D40"/><path d="M56,56 L2,56 L2,33.774 C1.99999412,33.3183815 2.30796713,32.9203603 2.749,32.806 L28.749,26.065 C28.9129385,26.0223528 29.0850615,26.0223528 29.249,26.065 L55.249,32.806 C55.6900329,32.9203603 55.9980059,33.3183815 55.998,33.774 L56,56 Z" id="Shape" fill="#95A5A5"/><path d="M52,9 L49,9 C48.4477153,9 48,8.55228475 48,8 C48,7.44771525 48.4477153,7 49,7 L52,7 C52.5522847,7 53,7.44771525 53,8 C53,8.55228475 52.5522847,9 52,9 Z" id="Shape" fill="#802D40"/><path d="M52,13 L49,13 C48.4477153,13 48,12.5522847 48,12 C48,11.4477153 48.4477153,11 49,11 L52,11 C52.5522847,11 53,11.4477153 53,12 C53,12.5522847 52.5522847,13 52,13 Z" id="Shape" fill="#802D40"/><path d="M52,17 L49,17 C48.4477153,17 48,16.5522847 48,16 C48,15.4477153 48.4477153,15 49,15 L52,15 C52.5522847,15 53,15.4477153 53,16 C53,16.5522847 52.5522847,17 52,17 Z" id="Shape" fill="#802D40"/><path d="M52,21 L49,21 C48.4477153,21 48,20.5522847 48,20 C48,19.4477153 48.4477153,19 49,19 L52,19 C52.5522847,19 53,19.4477153 53,20 C53,20.5522847 52.5522847,21 52,21 Z" id="Shape" fill="#802D40"/><rect id="Rectangle-path" fill="#2FA8CC" x="24" y="46" width="5" height="8"/><rect id="Rectangle-path" fill="#67B9CC" x="29" y="46" width="5" height="8"/><path d="M35,47 L23,47 C22.4477153,47 22,46.5522847 22,46 C22,45.4477153 22.4477153,45 23,45 L35,45 C35.5522847,45 36,45.4477153 36,46 C36,46.5522847 35.5522847,47 35,47 Z" id="Shape" fill="#2C3E50"/><path d="M21,34 L16,34 C15.4477153,34 15,33.5522847 15,33 C15,32.4477153 15.4477153,32 16,32 L21,32 C21.5522847,32 22,32.4477153 22,33 C22,33.5522847 21.5522847,34 21,34 Z" id="Shape" fill="#7F8C8D"/><path d="M41,34 L25,34 C24.4477153,34 24,33.5522847 24,33 C24,32.4477153 24.4477153,32 25,32 L41,32 C41.5522847,32 42,32.4477153 42,33 C42,33.5522847 41.5522847,34 41,34 Z" id="Shape" fill="#7F8C8D"/><path d="M12,37 L12,42 L9,42 C8.44771525,42 8,41.5522847 8,41 L8,37 L12,37 Z" id="Shape" fill="#2FA8CC"/><path d="M16,37 L16,41 C16,41.5522847 15.5522847,42 15,42 L12,42 L12,37 L16,37 Z" id="Shape" fill="#67B9CC"/><path d="M17,38 L7,38 C6.44771525,38 6,37.5522847 6,37 C6,36.4477153 6.44771525,36 7,36 L17,36 C17.5522847,36 18,36.4477153 18,37 C18,37.5522847 17.5522847,38 17,38 Z" id="Shape" fill="#2C3E50"/><rect id="Rectangle-path" fill="#7F5B53" x="0" y="54" width="58" height="4" rx="1"/><path d="M12,46 L12,51 L9,51 C8.44771525,51 8,50.5522847 8,50 L8,46 L12,46 Z" id="Shape" fill="#2FA8CC"/><path d="M16,46 L16,50 C16,50.5522847 15.5522847,51 15,51 L12,51 L12,46 L16,46 Z" id="Shape" fill="#67B9CC"/><path d="M17,47 L7,47 C6.44771525,47 6,46.5522847 6,46 C6,45.4477153 6.44771525,45 7,45 L17,45 C17.5522847,45 18,45.4477153 18,46 C18,46.5522847 17.5522847,47 17,47 Z" id="Shape" fill="#2C3E50"/><path d="M29,37 L29,42 L26,42 C25.4477153,42 25,41.5522847 25,41 L25,37 L29,37 Z" id="Shape" fill="#2FA8CC"/><path d="M33,37 L33,41 C33,41.5522847 32.5522847,42 32,42 L29,42 L29,37 L33,37 Z" id="Shape" fill="#67B9CC"/><path d="M34,38 L24,38 C23.4477153,38 23,37.5522847 23,37 C23,36.4477153 23.4477153,36 24,36 L34,36 C34.5522847,36 35,36.4477153 35,37 C35,37.5522847 34.5522847,38 34,38 Z" id="Shape" fill="#2C3E50"/><path d="M46,37 L46,42 L43,42 C42.4477153,42 42,41.5522847 42,41 L42,37 L46,37 Z" id="Shape" fill="#2FA8CC"/><path d="M50,37 L50,41 C50,41.5522847 49.5522847,42 49,42 L46,42 L46,37 L50,37 Z" id="Shape" fill="#67B9CC"/><path d="M51,38 L41,38 C40.4477153,38 40,37.5522847 40,37 C40,36.4477153 40.4477153,36 41,36 L51,36 C51.5522847,36 52,36.4477153 52,37 C52,37.5522847 51.5522847,38 51,38 Z" id="Shape" fill="#2C3E50"/><path d="M46,46 L46,51 L43,51 C42.4477153,51 42,50.5522847 42,50 L42,46 L46,46 Z" id="Shape" fill="#2FA8CC"/><path d="M50,46 L50,50 C50,50.5522847 49.5522847,51 49,51 L46,51 L46,46 L50,46 Z" id="Shape" fill="#67B9CC"/><path d="M51,47 L41,47 C40.4477153,47 40,46.5522847 40,46 C40,45.4477153 40.4477153,45 41,45 L51,45 C51.5522847,45 52,45.4477153 52,46 C52,46.5522847 51.5522847,47 51,47 Z" id="Shape" fill="#2C3E50"/></g></g></svg>
