<?xml version="1.0" encoding="UTF-8"?>
<svg xmlns="http://www.w3.org/2000/svg" xmlns:xlink="http://www.w3.org/1999/xlink" width="512" height="512" viewBox="0 0 58 58" version="1.1"><!-- Generator: Sketch 50.2 (55047) - http://www.bohemiancoding.com/sketch --><title>004 - Wind Farm </title><desc>Created with Sketch.</desc><defs/><g id="Page-1" stroke="none" stroke-width="1" fill="none" fill-rule="evenodd"><g id="004---Wind-Farm-" transform="translate(0.000000, -1.000000)" fill-rule="nonzero"><path d="M51,44 L50,44 C49.4477153,44 49,43.5522847 49,43 C49,42.4477153 49.4477153,42 50,42 L51,42 C51.5522847,42 52,42.4477153 52,43 C52,43.5522847 51.5522847,44 51,44 Z" id="Shape" fill="#802F34"/><path d="M51,48 L50,48 C49.4477153,48 49,47.5522847 49,47 C49,46.4477153 49.4477153,46 50,46 L51,46 C51.5522847,46 52,46.4477153 52,47 C52,47.5522847 51.5522847,48 51,48 Z" id="Shape" fill="#802F34"/><path d="M51,52 L50,52 C49.4477153,52 49,51.5522847 49,51 C49,50.4477153 49.4477153,50 50,50 L51,50 C51.5522847,50 52,50.4477153 52,51 C52,51.5522847 51.5522847,52 51,52 Z" id="Shape" fill="#802F34"/><path d="M8,44 L7,44 C6.44771525,44 6,43.5522847 6,43 C6,42.4477153 6.44771525,42 7,42 L8,42 C8.55228475,42 9,42.4477153 9,43 C9,43.5522847 8.55228475,44 8,44 Z" id="Shape" fill="#802F34"/><path d="M8,48 L7,48 C6.44771525,48 6,47.5522847 6,47 C6,46.4477153 6.44771525,46 7,46 L8,46 C8.55228475,46 9,46.4477153 9,47 C9,47.5522847 8.55228475,48 8,48 Z" id="Shape" fill="#802F34"/><path d="M8,52 L7,52 C6.44771525,52 6,51.5522847 6,51 C6,50.4477153 6.44771525,50 7,50 L8,50 C8.55228475,50 9,50.4477153 9,51 C9,51.5522847 8.55228475,52 8,52 Z" id="Shape" fill="#802F34"/><path d="M27,26 L25,26 C24.4477153,26 24,25.5522847 24,25 C24,24.4477153 24.4477153,24 25,24 L27,24 C27.5522847,24 28,24.4477153 28,25 C28,25.5522847 27.5522847,26 27,26 Z" id="Shape" fill="#802F34"/><path d="M27,32 L25,32 C24.4477153,32 24,31.5522847 24,31 C24,30.4477153 24.4477153,30 25,30 L27,30 C27.5522847,30 28,30.4477153 28,31 C28,31.5522847 27.5522847,32 27,32 Z" id="Shape" fill="#802F34"/><path d="M27,38 L25,38 C24.4477153,38 24,37.5522847 24,37 C24,36.4477153 24.4477153,36 25,36 L27,36 C27.5522847,36 28,36.4477153 28,37 C28,37.5522847 27.5522847,38 27,38 Z" id="Shape" fill="#802F34"/><path d="M27,44 L25,44 C24.4477153,44 24,43.5522847 24,43 C24,42.4477153 24.4477153,42 25,42 L27,42 C27.5522847,42 28,42.4477153 28,43 C28,43.5522847 27.5522847,44 27,44 Z" id="Shape" fill="#802F34"/><path d="M30,48 L25,48 C24.4477153,48 24,48.4477153 24,49 C24,49.5522847 24.4477153,50 25,50 L30,50 C30.5522847,50 31,49.5522847 31,49 C31,48.4477153 30.5522847,48 30,48 Z" id="Shape" fill="#802F34"/><path d="M31,28.444 L31,56 L27,56 L27,8.5 C26.9927563,7.38591946 27.8859944,6.47481652 29,6.46 C29.5324686,6.45780589 30.0423838,6.67479108 30.41,7.06 C30.7912766,7.44181663 31.0037618,7.96042459 31,8.5 L31,28.444 Z" id="Shape" fill="#E64C3C"/><circle id="Oval" fill="#3D324C" cx="29" cy="17" r="3"/><path d="M21.41,15.59 C21.0395388,15.2101411 20.5305905,14.9971769 20,15 L4,14.9999723 C4,14.9999723 5,19 13,19 L20,19 C21.1032019,18.9967052 21.9967052,18.1032019 22,17 C22.0028231,16.4694095 21.7898589,15.9604612 21.41,15.59 Z" id="Shape" fill="#804169"/><path d="M17,19 L13,19 C5,19 4,15 4,15 L13,15 L17,19 Z" id="Shape" fill="#7D6599"/><path d="M36.71,31.16 L35.25,27.44 L34.15,24.65 C33.7981306,23.7595004 32.8644752,23.2433153 31.9232122,23.4188876 C30.9819492,23.59446 30.2971703,24.4125292 30.29,25.37 C30.2870106,25.6235207 30.3346053,25.8750925 30.43,26.11 L32.99,32.62 L36.28,41 C36.28,41 39.63,38.61 36.71,31.16 Z" id="Shape" fill="#804169"/><path d="M36.28,41 L32.99,32.62 L35.25,27.44 L36.71,31.16 C39.63,38.61 36.28,41 36.28,41 Z" id="Shape" fill="#7D6599"/><path d="M39.36,4.65 L36.43,7.37 L34.23,9.41 C33.7066059,9.89766752 33.4831373,10.6275183 33.6437727,11.3246247 C33.8044081,12.0217311 34.3247432,12.5801859 35.0087728,12.7896247 C35.6928023,12.9990635 36.4366059,12.8276676 36.96,12.34 L42.08,7.58 L42.09,7.58 L48.68,1.45 C48.68,1.45 45.23,-0.8 39.36,4.65 Z" id="Shape" fill="#804169"/><path d="M48.68,1.45 L42.09,7.58 L42.08,7.58 L36.43,7.37 L39.36,4.65 C45.23,-0.8 48.68,1.45 48.68,1.45 Z" id="Shape" fill="#7D6599"/><path d="M6,34.268 C5.64238627,34.2683484 5.31180678,34.0777028 5.133,33.768 L2.133,28.568 C1.95151562,28.2584296 1.94981669,27.8753505 2.12854814,27.5641826 C2.30727959,27.2530146 2.63903661,27.061469 2.9978817,27.0622579 C3.35672679,27.0630468 3.68763842,27.2560492 3.865,27.568 L6.865,32.768 C7.04354148,33.0772425 7.04363929,33.4582222 6.86525662,33.7675563 C6.68687394,34.0768904 6.3570824,34.267634 6,34.268 Z" id="Shape" fill="#955BA5"/><path d="M15,36 L9,36 C8.44771525,36 8,35.5522847 8,35 C8,34.4477153 8.44771525,34 9,34 L15,34 C15.5522847,34 16,34.4477153 16,35 C16,35.5522847 15.5522847,36 15,36 Z" id="Shape" fill="#955BA5"/><path d="M3,42.928 C2.6429176,42.927634 2.31312606,42.7368904 2.13474338,42.4275563 C1.95636071,42.1182222 1.95645852,41.7372425 2.135,41.428 L5.135,36.228 C5.41300577,35.7537864 6.02164704,35.5928714 6.4976943,35.8677255 C6.97374157,36.1425795 7.13869029,36.75014 6.867,37.228 L3.867,42.428 C3.68819322,42.7377028 3.35761373,42.9283484 3,42.928 Z" id="Shape" fill="#955BA5"/><circle id="Oval" fill="#3D324C" cx="7" cy="35" r="2"/><path d="M7,56 C6.44771525,56 6,55.5522847 6,55 L6,41 C6,40.4477153 6.44771525,40 7,40 C7.55228475,40 8,40.4477153 8,41 L8,55 C8,55.5522847 7.55228475,56 7,56 Z" id="Shape" fill="#E64C3C"/><path d="M7,29 C6.44771525,29 6,28.5522847 6,28 L6,27 C6,26.4477153 6.44771525,26 7,26 C7.55228475,26 8,26.4477153 8,27 L8,28 C8,28.5522847 7.55228475,29 7,29 Z" id="Shape" fill="#E64C3C"/><path d="M52,34.268 C51.6429176,34.267634 51.3131261,34.0768904 51.1347434,33.7675563 C50.9563607,33.4582222 50.9564585,33.0772425 51.135,32.768 L54.135,27.568 C54.4130058,27.0937864 55.021647,26.9328714 55.4976943,27.2077255 C55.9737416,27.4825795 56.1386903,28.09014 55.867,28.568 L52.867,33.768 C52.6881932,34.0777028 52.3576137,34.2683484 52,34.268 Z" id="Shape" fill="#955BA5"/><path d="M49,36 L43,36 C42.4477153,36 42,35.5522847 42,35 C42,34.4477153 42.4477153,34 43,34 L49,34 C49.5522847,34 50,34.4477153 50,35 C50,35.5522847 49.5522847,36 49,36 Z" id="Shape" fill="#955BA5"/><path d="M55,42.928 C54.6423863,42.9283484 54.3118068,42.7377028 54.133,42.428 L51.133,37.228 C50.9515156,36.9184296 50.9498167,36.5353505 51.1285481,36.2241826 C51.3072796,35.9130146 51.6390366,35.721469 51.9978817,35.7222579 C52.3567268,35.7230468 52.6876384,35.9160492 52.865,36.228 L55.865,41.428 C56.0435415,41.7372425 56.0436393,42.1182222 55.8652566,42.4275563 C55.6868739,42.7368904 55.3570824,42.927634 55,42.928 Z" id="Shape" fill="#955BA5"/><circle id="Oval" fill="#3D324C" cx="51" cy="35" r="2"/><path d="M51,56 C50.4477153,56 50,55.5522847 50,55 L50,41 C50,40.4477153 50.4477153,40 51,40 C51.5522847,40 52,40.4477153 52,41 L52,55 C52,55.5522847 51.5522847,56 51,56 Z" id="Shape" fill="#E64C3C"/><path d="M51,29 C50.4477153,29 50,28.5522847 50,28 L50,27 C50,26.4477153 50.4477153,26 51,26 C51.5522847,26 52,26.4477153 52,27 L52,28 C52,28.5522847 51.5522847,29 51,29 Z" id="Shape" fill="#E64C3C"/><path d="M58,55 L0,55 L0,58 C0,58.5522847 0.44771525,59 1,59 L57,59 C57.5522847,59 58,58.5522847 58,58 L58,55 Z" id="Shape" fill="#4C8056"/></g></g></svg>
