<?xml version="1.0" encoding="UTF-8"?>
<svg xmlns="http://www.w3.org/2000/svg" xmlns:xlink="http://www.w3.org/1999/xlink" width="512" height="512" viewBox="0 0 58 59" version="1.1"><!-- Generator: Sketch 50.2 (55047) - http://www.bohemiancoding.com/sketch --><title>001 - Silos </title><desc>Created with Sketch.</desc><defs/><g id="Page-1" stroke="none" stroke-width="1" fill="none" fill-rule="evenodd"><g id="001---Silos-" fill-rule="nonzero"><path d="M35,52 L23,52 C22.4477153,52 22,51.5522847 22,51 C22,50.4477153 22.4477153,50 23,50 L35,50 C35.5522847,50 36,50.4477153 36,51 C36,51.5522847 35.5522847,52 35,52 Z" id="Shape" fill="#5E5F62"/><path d="M29,52 C28.4477153,52 28,51.5522847 28,51 L28,8 C28,7.44771525 28.4477153,7 29,7 C29.5522847,7 30,7.44771525 30,8 L30,51 C30,51.5522847 29.5522847,52 29,52 Z" id="Shape" fill="#5E5F62"/><path d="M17,9 C16.4477153,9 16,8.55228475 16,8 L16,1 C16,0.44771525 16.4477153,1.01453063e-16 17,0 C17.5522847,-1.01453063e-16 18,0.44771525 18,1 L18,8 C18,8.55228475 17.5522847,9 17,9 Z" id="Shape" fill="#95A5A5"/><path d="M23,9 C22.4477153,9 22,8.55228475 22,8 L22,1 C22,0.44771525 22.4477153,1.01453063e-16 23,0 C23.5522847,-1.01453063e-16 24,0.44771525 24,1 L24,8 C24,8.55228475 23.5522847,9 23,9 Z" id="Shape" fill="#95A5A5"/><path d="M35,9 C34.4477153,9 34,8.55228475 34,8 L34,1 C34,0.44771525 34.4477153,1.01453063e-16 35,0 C35.5522847,-1.01453063e-16 36,0.44771525 36,1 L36,8 C36,8.55228475 35.5522847,9 35,9 Z" id="Shape" fill="#95A5A5"/><path d="M41,9 C40.4477153,9 40,8.55228475 40,8 L40,1 C40,0.44771525 40.4477153,1.01453063e-16 41,0 C41.5522847,-1.01453063e-16 42,0.44771525 42,1 L42,8 C42,8.55228475 41.5522847,9 41,9 Z" id="Shape" fill="#95A5A5"/><path d="M29,9 C28.4477153,9 28,8.55228475 28,8 L28,1 C28,0.44771525 28.4477153,1.01453063e-16 29,0 C29.5522847,-1.01453063e-16 30,0.44771525 30,1 L30,8 C30,8.55228475 29.5522847,9 29,9 Z" id="Shape" fill="#95A5A5"/><path d="M47,9 C46.4477153,9 46,8.55228475 46,8 L46,2 L12,2 L12,8 C12,8.55228475 11.5522847,9 11,9 C10.4477153,9 10,8.55228475 10,8 L10,1 C10,0.44771525 10.4477153,1.01453063e-16 11,0 L47,0 C47.5522847,3.38176876e-17 48,0.44771525 48,1 L48,8 C48,8.55228475 47.5522847,9 47,9 Z" id="Shape" fill="#A5A5A4"/><path d="M28.889,9 L11.111,9 C10.5286682,9.02894692 10.0322839,8.58215632 10,8 C10.0322839,7.41784368 10.5286682,6.97105308 11.111,7 L28.889,7 C29.4713318,6.97105308 29.9677161,7.41784368 30,8 C29.9677161,8.58215632 29.4713318,9.02894692 28.889,9 Z" id="Shape" fill="#A5A5A4"/><path d="M46.889,9 L29.111,9 C28.5286682,9.02894692 28.0322839,8.58215632 28,8 C28.0322839,7.41784368 28.5286682,6.97105308 29.111,7 L46.889,7 C47.4713318,6.97105308 47.9677161,7.41784368 48,8 C47.9677161,8.58215632 47.4713318,9.02894692 46.889,9 Z" id="Shape" fill="#A5A5A4"/><path d="M10.118,8 L13.882,8 C14.4994544,8 15,8.50054565 15,9.118 L15,13 L9,13 L9,9.118 C9,8.50054565 9.50054565,8 10.118,8 Z" id="Shape" fill="#3B97D3"/><path d="M44.118,8 L47.882,8 C48.4994544,8 49,8.50054565 49,9.118 L49,13 L43,13 L43,9.118 C43,8.50054565 43.5005456,8 44.118,8 Z" id="Shape" fill="#3B97D3"/><polyline id="Shape" fill="#2C3E50" points="57 47 57 56 35 56 35 47"/><polyline id="Shape" fill="#2C3E50" points="23 47 23 56 1 56 1 47"/><path d="M23,37 L23,44 C23.5522847,44 24,44.4477153 24,45 L24,47 C24,47.5522847 23.5522847,48 23,48 L1,48 C0.44771525,48 0,47.5522847 0,47 L0,45 C-1.11022302e-16,44.4477153 0.44771525,44 1,44 L1,37 L23,37 Z" id="Shape" fill="#285680"/><path d="M57,37 L57,44 C57.5522847,44 58,44.4477153 58,45 L58,47 C58,47.5522847 57.5522847,48 57,48 L35,48 C34.4477153,48 34,47.5522847 34,47 L34,45 C34,44.4477153 34.4477153,44 35,44 L35,37 L57,37 Z" id="Shape" fill="#285680"/><path d="M9.191,12 L14.809,12 C15.3900893,12 15.9473788,12.2308368 16.358271,12.641729 C16.7691632,13.0526212 17,13.6099107 17,14.191 L17,18 L7,18 L7,14.191 C7,12.9809441 7.98094411,12 9.191,12 Z" id="Shape" fill="#2980BA"/><path d="M43.191,12 L48.809,12 C50.0190559,12 51,12.9809441 51,14.191 L51,18 L41,18 L41,14.191 C41,12.9809441 41.9809441,12 43.191,12 Z" id="Shape" fill="#2980BA"/><path d="M58,55 L0,55 L0,58 C0,58.5522847 0.44771525,59 1,59 L57,59 C57.5522847,59 58,58.5522847 58,58 L58,55 Z" id="Shape" fill="#7F5B53"/><path d="M23,28 L23,35 C23.5522847,35 24,35.4477153 24,36 L24,38 C24,38.5522847 23.5522847,39 23,39 L1,39 C0.44771525,39 0,38.5522847 0,38 L0,36 C-1.11022302e-16,35.4477153 0.44771525,35 1,35 L1,28 L23,28 Z" id="Shape" fill="#2980BA"/><path d="M7,36 L6,36 C5.44771525,36 5,35.5522847 5,35 C5,34.4477153 5.44771525,34 6,34 L7,34 C7.55228475,34 8,34.4477153 8,35 C8,35.5522847 7.55228475,36 7,36 Z" id="Shape" fill="#285680"/><path d="M13,36 L11,36 C10.4477153,36 10,35.5522847 10,35 C10,34.4477153 10.4477153,34 11,34 L13,34 C13.5522847,34 14,34.4477153 14,35 C14,35.5522847 13.5522847,36 13,36 Z" id="Shape" fill="#285680"/><path d="M18,36 L17,36 C16.4477153,36 16,35.5522847 16,35 C16,34.4477153 16.4477153,34 17,34 L18,34 C18.5522847,34 19,34.4477153 19,35 C19,35.5522847 18.5522847,36 18,36 Z" id="Shape" fill="#285680"/><path d="M7,45 L6,45 C5.44771525,45 5,44.5522847 5,44 C5,43.4477153 5.44771525,43 6,43 L7,43 C7.55228475,43 8,43.4477153 8,44 C8,44.5522847 7.55228475,45 7,45 Z" id="Shape" fill="#2980BA"/><path d="M13,45 L11,45 C10.4477153,45 10,44.5522847 10,44 C10,43.4477153 10.4477153,43 11,43 L13,43 C13.5522847,43 14,43.4477153 14,44 C14,44.5522847 13.5522847,45 13,45 Z" id="Shape" fill="#2980BA"/><path d="M18,45 L17,45 C16.4477153,45 16,44.5522847 16,44 C16,43.4477153 16.4477153,43 17,43 L18,43 C18.5522847,43 19,43.4477153 19,44 C19,44.5522847 18.5522847,45 18,45 Z" id="Shape" fill="#2980BA"/><path d="M57,28 L57,35 C57.5522847,35 58,35.4477153 58,36 L58,38 C58,38.5522847 57.5522847,39 57,39 L35,39 C34.4477153,39 34,38.5522847 34,38 L34,36 C34,35.4477153 34.4477153,35 35,35 L35,28 L57,28 Z" id="Shape" fill="#2980BA"/><path d="M41,36 L40,36 C39.4477153,36 39,35.5522847 39,35 C39,34.4477153 39.4477153,34 40,34 L41,34 C41.5522847,34 42,34.4477153 42,35 C42,35.5522847 41.5522847,36 41,36 Z" id="Shape" fill="#285680"/><path d="M47,36 L45,36 C44.4477153,36 44,35.5522847 44,35 C44,34.4477153 44.4477153,34 45,34 L47,34 C47.5522847,34 48,34.4477153 48,35 C48,35.5522847 47.5522847,36 47,36 Z" id="Shape" fill="#285680"/><path d="M52,36 L51,36 C50.4477153,36 50,35.5522847 50,35 C50,34.4477153 50.4477153,34 51,34 L52,34 C52.5522847,34 53,34.4477153 53,35 C53,35.5522847 52.5522847,36 52,36 Z" id="Shape" fill="#285680"/><path d="M41,45 L40,45 C39.4477153,45 39,44.5522847 39,44 C39,43.4477153 39.4477153,43 40,43 L41,43 C41.5522847,43 42,43.4477153 42,44 C42,44.5522847 41.5522847,45 41,45 Z" id="Shape" fill="#2980BA"/><path d="M47,45 L45,45 C44.4477153,45 44,44.5522847 44,44 C44,43.4477153 44.4477153,43 45,43 L47,43 C47.5522847,43 48,43.4477153 48,44 C48,44.5522847 47.5522847,45 47,45 Z" id="Shape" fill="#2980BA"/><path d="M52,45 L51,45 C50.4477153,45 50,44.5522847 50,44 C50,43.4477153 50.4477153,43 51,43 L52,43 C52.5522847,43 53,43.4477153 53,44 C53,44.5522847 52.5522847,45 52,45 Z" id="Shape" fill="#2980BA"/><path d="M17,17 L21.632,18.544 C22.4490855,18.8161439 23.0002074,19.5807852 23,20.442 L23,26 C23.5522847,26 24,26.4477153 24,27 L24,29 C24,29.5522847 23.5522847,30 23,30 L1,30 C0.44771525,30 0,29.5522847 0,29 L0,27 C-1.11022302e-16,26.4477153 0.44771525,26 1,26 L1,20.442 C0.998930703,19.5800492 1.55021537,18.814376 2.368,18.542 L7,17 L17,17 Z" id="Shape" fill="#285680"/><path d="M7,27 L6,27 C5.44771525,27 5,26.5522847 5,26 C5,25.4477153 5.44771525,25 6,25 L7,25 C7.55228475,25 8,25.4477153 8,26 C8,26.5522847 7.55228475,27 7,27 Z" id="Shape" fill="#2980BA"/><path d="M13,27 L11,27 C10.4477153,27 10,26.5522847 10,26 C10,25.4477153 10.4477153,25 11,25 L13,25 C13.5522847,25 14,25.4477153 14,26 C14,26.5522847 13.5522847,27 13,27 Z" id="Shape" fill="#2980BA"/><path d="M18,27 L17,27 C16.4477153,27 16,26.5522847 16,26 C16,25.4477153 16.4477153,25 17,25 L18,25 C18.5522847,25 19,25.4477153 19,26 C19,26.5522847 18.5522847,27 18,27 Z" id="Shape" fill="#2980BA"/><path d="M51,17 L55.632,18.544 C56.4490855,18.8161439 57.0002074,19.5807852 57,20.442 L57,26 C57.5522847,26 58,26.4477153 58,27 L58,29 C58,29.5522847 57.5522847,30 57,30 L35,30 C34.4477153,30 34,29.5522847 34,29 L34,27 C34,26.4477153 34.4477153,26 35,26 L35,20.442 C34.9989307,19.5800492 35.5502154,18.814376 36.368,18.542 L41,17 L51,17 Z" id="Shape" fill="#285680"/><path d="M41,27 L40,27 C39.4477153,27 39,26.5522847 39,26 C39,25.4477153 39.4477153,25 40,25 L41,25 C41.5522847,25 42,25.4477153 42,26 C42,26.5522847 41.5522847,27 41,27 Z" id="Shape" fill="#2980BA"/><path d="M47,27 L45,27 C44.4477153,27 44,26.5522847 44,26 C44,25.4477153 44.4477153,25 45,25 L47,25 C47.5522847,25 48,25.4477153 48,26 C48,26.5522847 47.5522847,27 47,27 Z" id="Shape" fill="#2980BA"/><path d="M52,27 L51,27 C50.4477153,27 50,26.5522847 50,26 C50,25.4477153 50.4477153,25 51,25 L52,25 C52.5522847,25 53,25.4477153 53,26 C53,26.5522847 52.5522847,27 52,27 Z" id="Shape" fill="#2980BA"/></g></g></svg>
