<?xml version="1.0" encoding="iso-8859-1"?>
<!-- Generator: Adobe Illustrator 19.0.0, SVG Export Plug-In . SVG Version: 6.00 Build 0)  -->
<svg version="1.1" id="Capa_1" xmlns="http://www.w3.org/2000/svg" xmlns:xlink="http://www.w3.org/1999/xlink" x="0px" y="0px"
	 viewBox="0 0 512 512" style="enable-background:new 0 0 512 512;" xml:space="preserve">
<path style="fill:#CDD2E1;" d="M449.5,90h-0.6l-37.5,30H316c-23.4,0-45.6-11.4-59.7-30H226c-41.4,0-75-33.6-75-75
	c0-8.4,6.6-15,15-15h120c23.4,0,45.6,11.4,59.7,30H376c7.5,0,14.7,1.2,21.6,3.3c0.13,0.04,0.27,0.08,0.4,0.12
	C424.2,41.32,444.13,63.14,449.5,90z"/>
<path style="fill:#BEC3D2;" d="M449.5,90h-0.6l-37.5,30H398V33.42C424.2,41.32,444.13,63.14,449.5,90z"/>
<path style="fill:#E61E14;" d="M475.9,278.8L448.9,90H346c-7.5,0-13.8,5.4-15,12.9l-18.9,134.5c0,3.9,1.5,7.8,4.5,10.5l78.9,78.6
	c0.6,0.6,1.2,1.2,2.1,1.5c0.13,0.11,0.26,0.22,0.4,0.33c2.33,1.87,5.16,2.67,8,2.67c1.8,0,3.9-0.3,5.7-1.2c5.7-2.4,9.3-7.8,9.3-13.8
	v-53.7l29.4,29.1c4.5,4.8,11.4,5.7,17.1,3C473.5,291.4,476.8,285.1,475.9,278.8z"/>
<path style="fill:#B80000;" d="M467.5,294.4c-5.7,2.7-12.6,1.8-17.1-3L421,262.3V316c0,6-3.6,11.4-9.3,13.8
	c-1.8,0.9-3.9,1.2-5.7,1.2c-2.84,0-5.67-0.8-8-2.67V90h50.9l27,188.8C476.8,285.1,473.5,291.4,467.5,294.4z"/>
<path style="fill:#9196AA;" d="M512,316v181c0,8.28-6.72,15-15,15H180l-30-26.7V316c0-8.28,6.72-15,15-15h31c8.28,0,15-6.72,15-15
	v-60c0-6,3.6-11.4,9.3-13.8c5.7-2.4,12-1.2,16.2,3.3l64.5,64.2V226c0-6,3.6-11.4,9.3-13.8c5.7-2.4,12-1.2,16.2,3.3l11.1,11.1
	c0.6,0.6,1.2,1.2,1.8,1.8L391,280v-54c0-5.1,2.4-9.6,6.6-12c0.13-0.13,0.26-0.26,0.4-0.37c0.76-0.7,1.53-1.17,2.3-1.43
	c5.7-2.4,12-1.2,16.2,3.3l91,90C510.5,308.2,512,312.1,512,316z"/>
<path style="fill:#7E8596;" d="M512,316v181c0,8.28-6.72,15-15,15h-99V213.63c0.76-0.7,1.53-1.17,2.3-1.43c5.7-2.4,12-1.2,16.2,3.3
	l91,90C510.5,308.2,512,312.1,512,316z"/>
<path style="fill:#555A66;" d="M180,301l-28.2,30H39.901L0,301c0-49.501,40.499-90,90-90S180,251.499,180,301z"/>
<path style="fill:#3C3A41;" d="M180,301l-28.2,30H90V211C139.501,211,180,251.499,180,301z"/>
<path style="fill:#E1E4FB;" d="M180,301v211H15c-8.401,0-15-6.601-15-15v-46l16.8-15.601L0,421v-30l18.6-18.001L0,361v-60H180z"/>
<rect x="90" y="301" style="fill:#CDD2E1;" width="90" height="211"/>
<g>
	<path style="fill:#7E8596;" d="M90,376c0,8.291-6.709,15-15,15H0v-30h75C83.291,361,90,367.709,90,376z"/>
	<path style="fill:#7E8596;" d="M90,436c0,8.291-6.709,15-15,15H0v-30h75C83.291,421,90,427.709,90,436z"/>
</g>
<rect x="256" y="376" style="fill:#1DE8F1;" width="180" height="60"/>
<rect x="398" y="376" style="fill:#1BD9DE;" width="38" height="60"/>
<path style="fill:#555A66;" d="M436,361H256c-8.4,0-15,6.6-15,15v60c0,8.4,6.6,15,15,15h180c8.4,0,15-6.6,15-15v-60
	C451,367.6,444.4,361,436,361z M301,421h-30v-30h30V421z M361,421h-30v-30h30V421z M421,421h-30v-30h30V421z"/>
<path style="fill:#3C3A41;" d="M451,376v60c0,8.4-6.6,15-15,15h-38v-30h23v-30h-23v-30h38C444.4,361,451,367.6,451,376z"/>
<g>
</g>
<g>
</g>
<g>
</g>
<g>
</g>
<g>
</g>
<g>
</g>
<g>
</g>
<g>
</g>
<g>
</g>
<g>
</g>
<g>
</g>
<g>
</g>
<g>
</g>
<g>
</g>
<g>
</g>
</svg>
