<?xml version="1.0" encoding="iso-8859-1"?>
<!-- Generator: Adobe Illustrator 19.0.0, SVG Export Plug-In . SVG Version: 6.00 Build 0)  -->
<svg version="1.1" id="Capa_1" xmlns="http://www.w3.org/2000/svg" xmlns:xlink="http://www.w3.org/1999/xlink" x="0px" y="0px"
	 viewBox="0 0 512 512" style="enable-background:new 0 0 512 512;" xml:space="preserve">
<g>
	<path style="fill:#3C3A41;" d="M398.469,452h-48.633c-8.291,0-15-6.709-15-15s6.709-15,15-15h48.633c24.814,0,45-20.186,45-45V257
		c0-8.291,6.709-15,15-15s15,6.709,15,15v120C473.469,418.353,439.822,452,398.469,452z"/>
	<path style="fill:#3C3A41;" d="M458.469,150c-8.291,0-15-6.709-15-15V75c0-8.291,6.709-15,15-15s15,6.709,15,15v60
		C473.469,143.291,466.76,150,458.469,150z"/>
</g>
<path style="fill:#FEDB41;" d="M362.469,93.3C374.47,45.899,338.469,0,289.87,0H83.47c-48.9,0-84.6,45.899-72.599,93.3
	c26.4,105.601,26.4,219.8,0,325.401c-5.7,22.798-0.901,46.199,13.5,64.499C38.77,501.499,60.369,512,83.469,512h206.4
	c48.6,0,84.6-45.901,72.599-93.3C336.069,313.1,336.069,198.9,362.469,93.3z"/>
<path style="fill:#FCBF29;" d="M362.469,418.7c12.001,47.399-24,93.3-72.599,93.3h-103.2V0h103.2c48.6,0,84.6,45.899,72.599,93.3
	C336.069,198.9,336.069,313.1,362.469,418.7z"/>
<path style="fill:#32D736;" d="M276.669,60h-180c-8.4,0-15,6.6-15,15v120c0,8.4,6.6,15,15,15h180c8.4,0,14.8-6.6,14.8-15V75
	C291.469,66.6,285.069,60,276.669,60z"/>
<path style="fill:#10BB67;" d="M291.469,75v120c0,8.399-6.401,15-14.8,15h-90V60h90C285.068,60,291.469,66.599,291.469,75z"/>
<path style="fill:#555A66;" d="M246.669,317c0,32.999-27.001,60-60,60s-60-27.001-60-60c0-33.001,27.001-60,60-60
	S246.669,283.999,246.669,317z"/>
<g>
	<circle style="fill:#707789;" cx="126.65" cy="437" r="15"/>
	<path style="fill:#707789;" d="M201.669,437c0,8.399-6.601,15-15,15c-8.401,0-15-6.601-15-15c0-8.401,6.599-15,15-15
		C195.068,422,201.669,428.599,201.669,437z"/>
</g>
<g>
	<circle style="fill:#555A66;" cx="246.65" cy="437" r="15"/>
	<path style="fill:#555A66;" d="M231.969,141.6l-34.2,68.4h-33.6l22.5-45l18.3-36.6c3.9-7.5,12.9-10.5,20.1-6.9
		C232.569,125.4,235.569,134.4,231.969,141.6z"/>
</g>
<path style="fill:#3C3A41;" d="M225.069,121.5c-7.2-3.6-16.2-0.6-20.1,6.9l-18.3,36.6v45h11.1l34.2-68.4
	C235.569,134.4,232.569,125.4,225.069,121.5z"/>
<path style="fill:#707789;" d="M186.669,242c-41.4,0-75,33.6-75,75s33.6,75,75,75s75-33.6,75-75S228.07,242,186.669,242z
	 M141.669,317c0-24.901,20.099-45,45-45c6.899,0,13.5,1.8,19.2,4.499l-19.2,19.2L146.17,336.2
	C143.469,330.5,141.669,323.899,141.669,317z M186.669,362c-6.899,0-13.5-1.8-19.2-4.501l59.7-59.7
	c2.701,5.7,4.501,12.299,4.501,19.2C231.669,341.899,211.57,362,186.669,362z"/>
<path style="fill:#555A66;" d="M201.669,437c0,8.399-6.601,15-15,15v-30C195.068,422,201.669,428.599,201.669,437z"/>
<path style="fill:#3C3A41;" d="M246.669,317c0,32.999-27.001,60-60,60V257C219.669,257,246.669,283.999,246.669,317z"/>
<path style="fill:#555A66;" d="M261.669,317c0,41.4-33.6,75-75,75v-30c24.901,0,45-20.101,45-45c0-6.901-1.8-13.5-4.501-19.2
	l-40.499,40.499V295.7l19.2-19.2c-5.7-2.699-12.301-4.499-19.2-4.499v-30C228.07,242,261.669,275.6,261.669,317z"/>
<path style="fill:#FCBF29;" d="M458.469,272c-24.814,0-45-21.186-45-46v-91c0-8.291,6.709-15,15-15h60c8.291,0,15,6.709,15,15v91
	C503.469,250.814,483.284,272,458.469,272z"/>
<g>
</g>
<g>
</g>
<g>
</g>
<g>
</g>
<g>
</g>
<g>
</g>
<g>
</g>
<g>
</g>
<g>
</g>
<g>
</g>
<g>
</g>
<g>
</g>
<g>
</g>
<g>
</g>
<g>
</g>
</svg>
