<?xml version="1.0" encoding="iso-8859-1"?>
<!-- Generator: Adobe Illustrator 19.0.0, SVG Export Plug-In . SVG Version: 6.00 Build 0)  -->
<svg version="1.1" id="Capa_1" xmlns="http://www.w3.org/2000/svg" xmlns:xlink="http://www.w3.org/1999/xlink" x="0px" y="0px"
	 viewBox="0 0 512 512" style="enable-background:new 0 0 512 512;" xml:space="preserve">
<path style="fill:#555A66;" d="M256,0C115.3,0,0,115.3,0,256s115.3,256,256,256s256-115.3,256-256S396.7,0,256,0z"/>
<path style="fill:#3C3A41;" d="M512,256c0,140.7-115.3,256-256,256V0C396.7,0,512,115.3,512,256z"/>
<path style="fill:#FE8821;" d="M256,211c-24.901,0-45,20.099-45,45c0,24.899,20.099,45,45,45s45-20.101,45-45
	C301,231.099,280.901,211,256,211z"/>
<path style="fill:#FD003A;" d="M266.605,245.395c-5.859-5.859-5.859-15.352,0-21.211l24.8-24.8c5.859-5.859,15.352-5.859,21.211,0
	s5.859,15.352,0,21.211l-24.8,24.8C281.957,251.254,272.465,251.254,266.605,245.395z"/>
<path style="fill:#FEDB41;" d="M451,256c0,51.899-20.099,100.499-56.7,137.399c-0.3,0.3-0.3,0.3-0.3,0.601
	c-2.999,3.001-6.899,4.2-10.8,4.2s-7.8-1.199-10.499-4.2c0,0,0,0,0-0.3l-42.302-42.3c-5.999-5.7-5.999-15.3,0-21c5.7-6,15.3-6,21,0
	l30.902,30.6c21.299-25.8,34.199-56.7,37.2-90H376c-8.401,0-15-6.601-15-15c0-8.401,6.599-15,15-15h44.099
	c-2.999-34.2-16.5-65.4-37.5-90.601l-31.199,31.2c-5.7,6-15.3,6-21,0c-5.999-5.7-5.999-15.298,0-20.999l31.201-31.201
	c-25.201-21-56.4-34.499-90.601-37.5V136c0,8.399-6.599,15-15,15s-15-6.601-15-15V91.899c-34.2,3.001-65.4,16.5-90.601,37.5
	L181.6,160.6c5.999,5.7,5.999,15.298,0,20.999c-5.7,6-15.3,6-21,0L129.401,150.4c-21,25.201-34.501,56.4-37.5,90.601H136
	c8.401,0,15,6.599,15,15c0,8.399-6.599,15-15,15H92.5c3.001,33.3,15.901,64.2,37.2,90l30.901-30.601c5.7-6,15.3-6,21,0
	c5.999,5.7,5.999,15.3,0,21L139.3,393.699c0,0.3,0,0.3,0,0.3c-5.7,5.7-15.3,5.7-21.299,0c0-0.3,0-0.3-0.3-0.601
	C81.099,356.499,61,307.899,61,256c0-107.701,87.9-195,195-195c53.699,0,102.599,21.899,137.999,56.999c0,0.3,0,0.601,0.3,0.601
	C429.401,153.999,451,202.599,451,256z"/>
<path style="fill:#CDD2E1;" d="M316,406c0,8.399-6.599,15-15,15h-90c-8.401,0-15-6.601-15-15c0-8.401,6.599-15,15-15h90
	C309.401,391,316,397.599,316,406z"/>
<path style="fill:#E5741A;" d="M256,301v-90c24.901,0,45,20.099,45,45C301,280.899,280.901,301,256,301z"/>
<path style="fill:#BEC3D2;" d="M316,406c0,8.399-6.599,15-15,15h-45v-30h45C309.401,391,316,397.599,316,406z"/>
<path style="fill:#FCBF29;" d="M451,256c0,51.899-20.099,100.499-56.7,137.399c-0.3,0.3-0.3,0.3-0.3,0.601
	c-2.999,3.001-6.899,4.2-10.8,4.2s-7.8-1.199-10.499-4.2c0,0,0,0,0-0.3l-42.302-42.3c-5.999-5.7-5.999-15.3,0-21c5.7-6,15.3-6,21,0
	l30.902,30.6c21.299-25.8,34.199-56.7,37.2-90H376c-8.401,0-15-6.601-15-15c0-8.401,6.599-15,15-15h44.099
	c-2.999-34.2-16.5-65.4-37.5-90.601l-31.199,31.2c-5.7,6-15.3,6-21,0c-5.999-5.7-5.999-15.298,0-20.999l31.201-31.201
	c-25.201-21-56.4-34.499-90.601-37.5V136c0,8.399-6.599,15-15,15V61c53.699,0,102.599,21.899,137.999,56.999
	c0,0.3,0,0.601,0.3,0.601C429.401,153.999,451,202.599,451,256z"/>
<g>
</g>
<g>
</g>
<g>
</g>
<g>
</g>
<g>
</g>
<g>
</g>
<g>
</g>
<g>
</g>
<g>
</g>
<g>
</g>
<g>
</g>
<g>
</g>
<g>
</g>
<g>
</g>
<g>
</g>
</svg>
