<?xml version="1.0" encoding="iso-8859-1"?>
<!-- Generator: Adobe Illustrator 19.0.0, SVG Export Plug-In . SVG Version: 6.00 Build 0)  -->
<svg version="1.1" id="Capa_1" xmlns="http://www.w3.org/2000/svg" xmlns:xlink="http://www.w3.org/1999/xlink" x="0px" y="0px"
	 viewBox="0 0 512 512" style="enable-background:new 0 0 512 512;" xml:space="preserve">
<path style="fill:#1BD9DE;" d="M512,75v422c0,8.399-6.599,15-15,15H75c-41.4,0-75-33.6-75-75v-75.901L120,299.9V75
	c0-8.401,6.599-15,15-15h362C505.401,60,512,66.599,512,75z"/>
<path style="fill:#15B7BE;" d="M512,75v422c0,8.399-6.599,15-15,15H316V60h181C505.401,60,512,66.599,512,75z"/>
<path style="fill:#555A66;" d="M135,0H75C33.6,0,0,33.6,0,75v362c0-41.4,33.6-75,75-75h75V15C150,6.599,143.401,0,135,0z"/>
<path style="fill:#E1E4FB;" d="M451,437c0,8.399-6.599,15-15,15H196c-8.401,0-15-6.601-15-15c0-8.401,6.599-15,15-15h240
	C444.401,422,451,428.599,451,437z"/>
<path style="fill:#BEC3D2;" d="M451,437c0,8.399-6.599,15-15,15H316v-30h120C444.401,422,451,428.599,451,437z"/>
<path style="fill:#E1E4FB;" d="M442.301,278L420.7,265.399c0.3-5.7,0.3-12.1,0-17.8L442.301,235c7.2-4.2,9.899-13.2,5.7-20.4
	l-30-52.2c-4.2-7.2-13.5-9.6-20.7-5.4L375.4,169.9c-4.799-3.301-9.3-6-14.399-8.401V136c0-8.401-6.599-15-15-15h-60
	c-8.401,0-15,6.599-15,15v25.499c-5.099,2.401-9.6,5.099-14.399,8.401L234.699,157c-7.2-4.2-16.5-1.8-20.7,5.4l-30,52.2
	c-4.199,7.2-1.5,16.199,5.7,20.4l21.601,12.599c-0.3,5.7-0.3,12.1,0,17.8L189.699,278c-7.2,4.199-9.899,13.2-5.7,20.4l30,52.2
	c4.501,7.2,13.5,9.3,20.7,5.4l21.901-12.9c4.799,3.3,9.3,6,14.399,8.399V377c0,8.399,6.599,15,15,15h60c8.401,0,15-6.601,15-15
	v-25.501c5.099-2.399,9.6-5.099,14.399-8.399l21.901,12.9c7.2,3.9,16.5,1.8,20.7-5.4l30-52.2
	C452.199,291.2,449.5,282.199,442.301,278z M316,302c-24.901,0-45-20.101-45-45c0-24.901,20.099-46,45-46s45,21.099,45,46
	C361,281.899,340.901,302,316,302z"/>
<path style="fill:#BEC3D2;" d="M448.001,298.4l-30,52.2c-4.2,7.2-13.5,9.3-20.7,5.4L375.4,343.1c-4.799,3.3-9.3,6-14.399,8.399V377
	c0,8.399-6.599,15-15,15h-30v-90c24.901,0,45-20.101,45-45c0-24.901-20.099-46-45-46v-90h30c8.401,0,15,6.599,15,15v25.499
	c5.099,2.401,9.6,5.099,14.399,8.401l21.901-12.9c7.2-4.2,16.5-1.8,20.7,5.4l30,52.2c4.199,7.2,1.5,16.199-5.7,20.4L420.7,247.599
	c0.3,5.7,0.3,12.1,0,17.8L442.301,278C449.5,282.199,452.199,291.2,448.001,298.4z"/>
<g>
</g>
<g>
</g>
<g>
</g>
<g>
</g>
<g>
</g>
<g>
</g>
<g>
</g>
<g>
</g>
<g>
</g>
<g>
</g>
<g>
</g>
<g>
</g>
<g>
</g>
<g>
</g>
<g>
</g>
</svg>
