<?xml version="1.0" encoding="iso-8859-1"?>
<!-- Generator: Adobe Illustrator 19.0.0, SVG Export Plug-In . SVG Version: 6.00 Build 0)  -->
<svg version="1.1" id="Capa_1" xmlns="http://www.w3.org/2000/svg" xmlns:xlink="http://www.w3.org/1999/xlink" x="0px" y="0px"
	 viewBox="0 0 512 512" style="enable-background:new 0 0 512 512;" xml:space="preserve">
<path style="fill:#555A66;" d="M256,0C115.3,0,0,114.3,0,255s115.3,257,256,257s256-115.3,256-256S396.7,0,256,0z"/>
<path style="fill:#3C3A41;" d="M512,256c0,140.7-115.3,256-256,256V0C396.7,0,512,115.3,512,256z"/>
<path style="fill:#FEDB41;" d="M482,256c0,124.2-101.8,226-226,226S30,379.2,30,255S131.8,30,256,30S482,131.8,482,256z"/>
<path style="fill:#FCBF29;" d="M482,256c0,124.2-101.8,226-226,226V30C380.2,30,482,131.8,482,256z"/>
<g>
	<path style="fill:#555A66;" d="M363.999,400.6L316.3,324.399c-2.1-3.3-5.4-5.7-9.3-6.599c-3.9-0.901-7.8-0.3-11.4,1.8
		c-12.001,7.5-25.8,11.4-39.6,11.4s-27.599-3.9-39.6-11.4c-3.6-2.1-7.5-2.701-11.4-1.8c-3.9,0.899-7.2,3.3-9.3,6.599L148.001,400.6
		c-4.501,7.2-2.401,16.199,4.799,20.7C183.701,440.799,219.401,451,256,451s72.299-10.201,103.2-29.7
		C366.4,416.8,368.5,407.8,363.999,400.6z"/>
	<path style="fill:#555A66;" d="M181,256c0-25.957,13.184-49.731,35.273-63.604c7.017-4.395,9.141-13.638,4.746-20.654
		l-47.681-76.304c-2.109-3.369-5.479-5.771-9.36-6.665c-3.809-0.879-7.939-0.22-11.323,1.919C95.263,126.684,61,188.485,61,256
		c0,8.291,6.709,15,15,15h90C174.291,271,181,264.291,181,256z"/>
</g>
<path style="fill:#3C3A41;" d="M359.345,90.692c-3.384-2.153-7.544-2.827-11.323-1.919c-3.882,0.894-7.251,3.296-9.36,6.665
	l-47.681,76.304c-4.395,7.017-2.271,16.26,4.746,20.654C317.816,206.269,331,230.043,331,256c0,8.291,6.709,15,15,15h90
	c8.291,0,15-6.709,15-15C451,188.485,416.737,126.684,359.345,90.692z"/>
<path style="fill:#555A66;" d="M256,211c-24.901,0-45,20.099-45,45c0,24.899,20.099,45,45,45s45-20.101,45-45
	C301,231.099,280.901,211,256,211z"/>
<g>
	<path style="fill:#3C3A41;" d="M301,256c0,24.899-20.099,45-45,45v-90C280.901,211,301,231.099,301,256z"/>
	<path style="fill:#3C3A41;" d="M359.2,421.3C328.299,440.799,292.599,451,256,451V331c13.801,0,27.599-3.9,39.6-11.4
		c3.6-2.1,7.5-2.701,11.4-1.8c3.9,0.899,7.2,3.3,9.3,6.599l47.699,76.201C368.5,407.8,366.4,416.8,359.2,421.3z"/>
</g>
<g>
</g>
<g>
</g>
<g>
</g>
<g>
</g>
<g>
</g>
<g>
</g>
<g>
</g>
<g>
</g>
<g>
</g>
<g>
</g>
<g>
</g>
<g>
</g>
<g>
</g>
<g>
</g>
<g>
</g>
</svg>
