<?xml version="1.0" encoding="iso-8859-1"?>
<!-- Generator: Adobe Illustrator 19.0.0, SVG Export Plug-In . SVG Version: 6.00 Build 0)  -->
<svg version="1.1" id="Capa_1" xmlns="http://www.w3.org/2000/svg" xmlns:xlink="http://www.w3.org/1999/xlink" x="0px" y="0px"
	 viewBox="0 0 512 512" style="enable-background:new 0 0 512 512;" xml:space="preserve">
<path style="fill:#555A66;" d="M316,0H136c-24.901,0-45,20.099-45,45v30c0,8.399,6.599,15,15,15h240c8.401,0,15-6.601,15-15V45
	C361,20.099,340.901,0,316,0z"/>
<path style="fill:#3C3A41;" d="M361,45v30c0,8.399-6.599,15-15,15H226V0h90C340.901,0,361,20.099,361,45z"/>
<path style="fill:#707789;" d="M76,512H15c-8.291,0-15-6.709-15-15V346c0-24.814,20.186-45,45-45h31c8.291,0,15,6.709,15,15v181
	C91,505.291,84.291,512,76,512z M30,482h31V331H45c-8.276,0-15,6.724-15,15V482z"/>
<path style="fill:#1DE8F1;" d="M346,60H106c-24.901,0-45,20.099-45,45v407h315c8.401,0,15-6.601,15-15V105
	C391,80.099,370.901,60,346,60z"/>
<path style="fill:#1BD9DE;" d="M391,105v392c0,8.399-6.599,15-15,15H226V60h120C370.901,60,391,80.099,391,105z"/>
<path style="fill:#3C3A41;" d="M301,60v60h-30V60h-30v226c0,8.399,6.599,15,15,15s15-6.601,15-15v-75h30v75c0,8.399,6.599,15,15,15
	s15-6.601,15-15V60H301z M301,181h-30v-31h30V181z"/>
<path style="fill:#707789;" d="M376,241H226c-24.901,0-45,20.099-45,45v30c0,8.399,6.599,15,15,15h210c8.401,0,15-6.601,15-15v-30
	C421,261.099,400.901,241,376,241z"/>
<path style="fill:#555A66;" d="M421,286v30c0,8.399-6.599,15-15,15H301v-90h75C400.901,241,421,261.099,421,286z"/>
<path style="fill:#CDD2E1;" d="M406,301H196c-24.901,0-45,20.099-45,45v166h300V346C451,321.099,430.901,301,406,301z"/>
<path style="fill:#555A66;" d="M497,512h-61c-8.291,0-15-6.709-15-15V376c0-8.291,6.709-15,15-15h31c24.814,0,45,21.186,45,46v90
	C512,505.291,505.291,512,497,512z M451,482h31v-75c0-8.276-6.724-16-15-16h-16V482z"/>
<path style="fill:#BEC3D2;" d="M451,346v166H301V301h105C430.901,301,451,321.099,451,346z"/>
<path style="fill:#555A66;" d="M301,301v60h-30v-60h-30v211h30v-60h30v60h30V301H301z M301,422h-30v-31h30V422z"/>
<rect x="301" y="301" style="fill:#3C3A41;" width="30" height="211"/>
<g>
</g>
<g>
</g>
<g>
</g>
<g>
</g>
<g>
</g>
<g>
</g>
<g>
</g>
<g>
</g>
<g>
</g>
<g>
</g>
<g>
</g>
<g>
</g>
<g>
</g>
<g>
</g>
<g>
</g>
</svg>
