<?xml version="1.0" encoding="iso-8859-1"?>
<!-- Generator: Adobe Illustrator 19.0.0, SVG Export Plug-In . SVG Version: 6.00 Build 0)  -->
<svg version="1.1" id="Capa_1" xmlns="http://www.w3.org/2000/svg" xmlns:xlink="http://www.w3.org/1999/xlink" x="0px" y="0px"
	 viewBox="0 0 512 512" style="enable-background:new 0 0 512 512;" xml:space="preserve">
<path style="fill:#E61E14;" d="M358.001,85l-90,120c-0.3,0.3-0.601,0.3-0.601,0.601c-2.999,3.6-7.2,5.4-11.4,5.4
	s-8.401-1.8-11.4-5.4c0-0.3-0.3-0.3-0.601-0.601l-90-120c-5.099-6.601-3.6-15.901,3.001-21c6.599-5.099,15.899-3.6,21,3.001L241,151
	V76c0-8.401,6.599-15,15-15s15,6.599,15,15v75l62.999-84c5.101-6.601,14.401-7.8,21-3.001C361.601,69.099,363.1,78.399,358.001,85z"
	/>
<path style="fill:#B80000;" d="M267.4,205.6c-2.999,3.6-7.2,5.4-11.4,5.4V61c8.401,0,15,6.599,15,15v75l62.999-84
	c5.101-6.601,14.401-7.8,21-3.001c6.601,5.099,8.101,14.399,3.001,21l-90,120C267.7,205.3,267.4,205.3,267.4,205.6z"/>
<path style="fill:#7E8596;" d="M316,181H196c-24.901,0-45,20.099-45,45v60c0,8.399,6.599,15,15,15h180c8.401,0,15-6.601,15-15v-60
	C361,201.099,340.901,181,316,181z"/>
<path style="fill:#707789;" d="M361,226v60c0,8.399-6.599,15-15,15h-90V181h60C340.901,181,361,201.099,361,226z"/>
<path style="fill:#9196AA;" d="M437,271H75c-8.401,0-15,6.599-15,15v150c0,8.399,6.599,15,15,15h362c8.401,0,15-6.601,15-15V286
	C452,277.599,445.401,271,437,271z"/>
<path style="fill:#707789;" d="M90,316v-60c0-8.286-6.716-15-15-15H15c-8.284,0-15,6.714-15,15v60l22.5,54.999L0,406v60
	c0,8.284,6.716,15,15,15h60c8.284,0,15-6.716,15-15v-60l-18.126-36.251L90,316z"/>
<path style="fill:#FF5842;" d="M391,31H121c-16.5,0-30,13.5-30,30s13.5,30,30,30h270c16.5,0,30-13.5,30-30S407.5,31,391,31z"/>
<g>
	<path style="fill:#7E8596;" d="M452,286v150c0,8.399-6.599,15-15,15H256V271h181C445.401,271,452,277.599,452,286z"/>
	<rect y="316" style="fill:#7E8596;" width="90" height="90"/>
</g>
<path style="fill:#555A66;" d="M512,316v-60c0-8.286-6.716-15-15-15h-60c-8.284,0-15,6.714-15,15v60l23.751,53.749L422,406v60
	c0,8.284,6.716,15,15,15h60c8.284,0,15-6.716,15-15v-60l-21.249-43.751L512,316z"/>
<rect x="422" y="316" style="fill:#707789;" width="90" height="90"/>
<path style="fill:#FD3018;" d="M421,61c0,16.5-13.5,30-30,30H256V31h135C407.5,31,421,44.5,421,61z"/>
<g>
</g>
<g>
</g>
<g>
</g>
<g>
</g>
<g>
</g>
<g>
</g>
<g>
</g>
<g>
</g>
<g>
</g>
<g>
</g>
<g>
</g>
<g>
</g>
<g>
</g>
<g>
</g>
<g>
</g>
</svg>
