<?xml version="1.0" encoding="iso-8859-1"?>
<!-- Generator: Adobe Illustrator 19.0.0, SVG Export Plug-In . SVG Version: 6.00 Build 0)  -->
<svg version="1.1" id="Capa_1" xmlns="http://www.w3.org/2000/svg" xmlns:xlink="http://www.w3.org/1999/xlink" x="0px" y="0px"
	 viewBox="0 0 512 512" style="enable-background:new 0 0 512 512;" xml:space="preserve">
<path style="fill:#555A66;" d="M481,105l-50.7,16H61.601L31,105c0-41.4,33.6-75,75-75h53.699l16.8-16.8
	C185.2,4.799,196.3,0,208.299,0h95.402c11.999,0,23.099,4.799,31.8,13.2l16.8,16.8H406C447.4,30,481,63.6,481,105z"/>
<path style="fill:#32D736;" d="M481,105v32c0,20.099-13.2,36.899-31.199,42.9l-25.802,283.8L406,512H133.299
	c-23.399,0-42.599-17.701-44.7-40.8l-26.4-291.3C44.2,173.899,31,157.099,31,137v-32H481z"/>
<path style="fill:#3C3A41;" d="M481,105l-50.7,16H256V0h47.701c11.999,0,23.099,4.799,31.8,13.2l16.8,16.8H406
	C447.4,30,481,63.6,481,105z"/>
<path style="fill:#10BB67;" d="M481,105v32c0,20.099-13.2,36.899-31.199,42.9l-25.802,283.8L406,512H256V105H481z"/>
<path style="fill:#555A66;" d="M406,512c-33.091,0-60-26.909-60-60s26.909-60,60-60s60,26.909,60,60S439.091,512,406,512z"/>
<path style="fill:#C5C9F7;" d="M406,482c-16.538,0-30-13.462-30-30s13.462-30,30-30s30,13.462,30,30S422.538,482,406,482z"/>
<path style="fill:#3C3A41;" d="M361,328.455c0-9.814-2.314-19.644-6.709-28.418l-8.994-18.003
	c-3.691-7.412-12.729-10.4-20.127-6.709c-7.412,3.706-10.415,12.715-6.709,20.127l8.994,18.003c2.314,4.629,3.545,9.829,3.545,15
	c0,11.153-5.825,20.568-14.22,26.669c3.959-6.004,3.387-14.05-2.054-19.111c-6.05-5.596-15.527-5.288-21.196,0.776l-27.891,30
	c-6.094,6.571-4.674,18.021,2.944,22.866l39.375,25.005c2.49,1.597,5.273,2.344,8.027,2.344c4.966,0,9.814-2.461,12.671-6.958
	c4.453-6.987,2.373-16.26-4.614-20.698l-3.102-1.97C344.363,378.009,361,355.185,361,328.455z"/>
<g>
	<path style="fill:#555A66;" d="M337.899,203.899l-7.2,40.499c-1.5,7.202-7.5,12.301-14.7,12.301h-1.5l-42.001-3.6
		c-8.099-0.601-14.399-7.8-13.5-16.201C259.6,228.8,267.1,222.499,275.2,223.4l6.299,0.3C275.2,216.499,265.901,212,256,212
		c-12.9,0-24.3,7.2-30,18.6l-4.799,9.6c-3.9,7.5-12.601,10.499-20.101,6.899c-7.5-3.9-10.499-12.9-6.899-20.4l5.099-9.6
		C210.099,195.5,231.7,182,256,182c20.4,0,38.699,9.899,50.7,26.1l1.5-9.6c1.5-8.101,9.3-13.5,17.401-12.001
		C333.701,187.7,339.101,195.5,337.899,203.899z"/>
	<path style="fill:#555A66;" d="M226,362h-11.455C196.044,362,181,346.956,181,328.455c0-3.809,0.879-7.557,2.155-11.158
		l2.181,7.599c1.89,6.577,7.881,10.854,14.414,10.854c1.362,0,2.754-0.19,4.146-0.586c7.954-2.285,12.554-10.591,10.269-18.56
		l-12.993-45.249c-2.49-8.893-13.425-13.459-21.606-9.023l-41.396,22.617c-7.266,3.984-9.946,13.096-5.977,20.361
		c3.984,7.266,13.081,9.961,20.361,5.977l1.351-0.738c-1.721,5.839-2.904,11.825-2.904,17.906C151,363.494,179.506,392,214.545,392
		H226c8.291,0,15-6.709,15-15S234.291,362,226,362z"/>
</g>
<path style="fill:#3C3A41;" d="M337.899,203.899l-7.2,40.499c-1.5,7.202-7.5,12.301-14.7,12.301h-1.5l-42.001-3.6
	c-8.099-0.601-14.399-7.8-13.5-16.201C259.6,228.8,267.1,222.499,275.2,223.4l6.299,0.3C275.2,216.499,265.901,212,256,212v-30
	c20.4,0,38.699,9.899,50.7,26.1l1.5-9.6c1.5-8.101,9.3-13.5,17.401-12.001C333.701,187.7,339.101,195.5,337.899,203.899z"/>
<g>
</g>
<g>
</g>
<g>
</g>
<g>
</g>
<g>
</g>
<g>
</g>
<g>
</g>
<g>
</g>
<g>
</g>
<g>
</g>
<g>
</g>
<g>
</g>
<g>
</g>
<g>
</g>
<g>
</g>
</svg>
