<?xml version="1.0" encoding="iso-8859-1"?>
<!-- Generator: Adobe Illustrator 19.0.0, SVG Export Plug-In . SVG Version: 6.00 Build 0)  -->
<svg version="1.1" id="Capa_1" xmlns="http://www.w3.org/2000/svg" xmlns:xlink="http://www.w3.org/1999/xlink" x="0px" y="0px"
	 viewBox="0 0 512 512" style="enable-background:new 0 0 512 512;" xml:space="preserve">
<g>
	<path style="fill:#7E8596;" d="M497,60h-60c-8.291,0-15-6.709-15-15s6.709-15,15-15h60c8.291,0,15,6.709,15,15S505.291,60,497,60z"
		/>
	<path style="fill:#7E8596;" d="M497,120h-60c-8.291,0-15-6.709-15-15s6.709-15,15-15h60c8.291,0,15,6.709,15,15
		S505.291,120,497,120z"/>
</g>
<path style="fill:#555A66;" d="M407,315H135l12.9-51.901C158.101,222.9,193.801,195,235.201,195h71.598
	c41.4,0,77.1,27.9,87.301,68.099L407,315z"/>
<path style="fill:#3C3A41;" d="M407,315H271V195h35.799c41.4,0,77.1,27.9,87.301,68.099L407,315z"/>
<path style="fill:#FD3018;" d="M421.399,311.4l-12.9-51.901c-11.7-46.8-53.399-79.499-101.7-79.499h-71.598
	c-48.301,0-90,32.699-101.7,79.499L123.6,299.4l-2.999,12.001c-1.201,4.499-0.3,9.3,2.699,12.9c2.701,3.6,7.2,5.7,11.7,5.7h272
	c4.501,0,9-2.1,11.7-5.7C421.7,320.7,422.601,315.899,421.399,311.4z M256,300H154.2l8.399-33.3C171,233.399,200.7,210,235.201,210
	H256V300z M286,300v-90h20.799c34.501,0,64.2,23.399,72.601,56.7l8.4,33.3H286z"/>
<path style="fill:#B80000;" d="M421.399,311.4l-12.9-51.901c-11.7-46.8-53.399-79.499-101.7-79.499H271v150h136
	c4.501,0,9-2.1,11.7-5.7C421.7,320.7,422.601,315.899,421.399,311.4z M286,300v-90h20.799c34.501,0,64.2,23.399,72.601,56.7
	l8.4,33.3H286z"/>
<path style="fill:#555A66;" d="M362,75c0,8.401-6.599,15-15,15H135C77.1,90,30,137.1,30,195c0,54,41.1,98.699,93.6,104.399
	c3.9,0.3,7.5,0.601,11.4,0.601c8.401,0,15,6.599,15,15c0,8.399-6.599,15-15,15C60.601,330,0,269.399,0,195
	C0,120.599,60.601,60,135,60h212C355.401,60,362,66.599,362,75z"/>
<path style="fill:#3C3A41;" d="M347,90h-76V60h76c8.401,0,15,6.599,15,15S355.401,90,347,90z"/>
<path style="fill:#FF5842;" d="M422,300H135c-41.4,0-75,35.6-75,77v30c0,24.899,20.099,45,45,45h347c32.999,0,60-27.001,60-60
	C512,342.499,471.501,300,422,300z"/>
<path style="fill:#707789;" d="M347,330c-8.291,0-15-6.709-15-15v-30c0-8.291,6.709-15,15-15s15,6.709,15,15v30
	C362,323.291,355.291,330,347,330z"/>
<g>
	<path style="fill:#FD3018;" d="M512,392c0,32.999-27.001,60-60,60H271V300h151C471.501,300,512,342.499,512,392z"/>
	<path style="fill:#FD3018;" d="M437,150h-30c-41.353,0-75-33.647-75-75s33.647-75,75-75h30c8.291,0,15,6.709,15,15v120
		C452,143.291,445.291,150,437,150z"/>
</g>
<path style="fill:#2B292C;" d="M392,512c-33.091,0-60-26.909-60-60s26.909-60,60-60s60,26.909,60,60S425.091,512,392,512z"/>
<path style="fill:#BEC3D2;" d="M392,482c-16.538,0-30-13.462-30-30s13.462-30,30-30s30,13.462,30,30S408.538,482,392,482z"/>
<path style="fill:#3C3A41;" d="M180,512c-33.091,0-60-26.909-60-60s26.909-60,60-60s60,26.909,60,60S213.091,512,180,512z"/>
<path style="fill:#CDD2E1;" d="M180,482c-16.538,0-30-13.462-30-30s13.462-30,30-30s30,13.462,30,30S196.538,482,180,482z"/>
<path style="fill:#994C0F;" d="M302,377c0,8.399-7.599,15-16,15h-30c-8.401,0-16-6.601-16-15c0-8.401,7.599-15,16-15h30
	C294.401,362,302,368.599,302,377z"/>
<path style="fill:#713708;" d="M302,377c0,8.399-7.599,15-16,15h-15v-30h15C294.401,362,302,368.599,302,377z"/>
<g>
</g>
<g>
</g>
<g>
</g>
<g>
</g>
<g>
</g>
<g>
</g>
<g>
</g>
<g>
</g>
<g>
</g>
<g>
</g>
<g>
</g>
<g>
</g>
<g>
</g>
<g>
</g>
<g>
</g>
</svg>
