<?xml version="1.0" encoding="iso-8859-1"?>
<!-- Generator: Adobe Illustrator 19.0.0, SVG Export Plug-In . SVG Version: 6.00 Build 0)  -->
<svg version="1.1" id="Capa_1" xmlns="http://www.w3.org/2000/svg" xmlns:xlink="http://www.w3.org/1999/xlink" x="0px" y="0px"
	 viewBox="0 0 511.999 511.999" style="enable-background:new 0 0 511.999 511.999;" xml:space="preserve">
<path style="fill:#707789;" d="M511.769,133.574v119.892c0,27.274-23.08,47.358-42.562,59.646H42.791
	C23.31,300.824,0.23,280.74,0.23,253.466V133.574l29.973-9.292l-6.893,54.251c24.877,23.08,84.524,41.963,137.575,51.553h190.23
	c54.251-9.89,112.997-28.773,137.575-51.553l-9.292-67.439L511.769,133.574z"/>
<g>
	<path style="fill:#555A66;" d="M511.769,133.574v119.892c0,27.274-23.08,47.358-42.562,59.646H255.999v-83.026h95.114
		c54.251-9.89,112.997-28.773,137.575-51.553l-9.292-67.439L511.769,133.574z"/>
	<path style="fill:#555A66;" d="M511.769,133.574c0,15.587-8.094,31.171-23.08,44.96c-40.163-36.866-139.175-59.946-232.689-59.946
		S63.473,141.667,23.31,178.533c-14.987-13.789-23.08-29.373-23.08-44.96c0-57.848,123.59-104.906,255.77-104.906
		S511.769,75.727,511.769,133.574z"/>
</g>
<path style="fill:#3C3A41;" d="M511.769,133.574c0,15.587-8.094,31.171-23.08,44.96c-40.163-36.866-139.175-59.946-232.689-59.946
	V28.668C388.18,28.668,511.769,75.727,511.769,133.574z"/>
<path style="fill:#32D736;" d="M380.788,248.072c-6.295-28.175-23.179-53.651-45.358-71.635
	c-22.48-18.284-50.056-27.875-79.43-27.875c-59.946,0-111.6,41.063-124.788,99.811l-10.79,50.054
	c-1.2,6.295,1.198,12.588,6.593,15.887c7.493,5.094,15.587,11.688,23.08,18.881c25.476,25.778,36.566,53.653,34.47,67.739
	c-1.5,9.292,5.395,17.385,14.687,17.385h113.496c4.497,0,8.693-1.798,11.39-5.094c2.699-3.597,4.196-7.793,3.297-12.29
	c-2.096-14.086,8.993-41.961,34.47-67.739c7.493-7.194,15.587-13.787,23.08-18.881c5.395-3.298,7.793-9.591,6.593-15.887
	L380.788,248.072z"/>
<path style="fill:#10BB67;" d="M380.788,248.072l10.79,50.355c1.2,6.295-1.198,12.588-6.593,15.887
	c-7.493,5.094-15.587,11.688-23.08,18.881c-25.476,25.778-36.566,53.653-34.47,67.739c0.9,4.497-0.598,8.693-3.297,12.29
	c-2.697,3.297-6.893,5.094-11.39,5.094h-56.749V148.56c29.373,0,56.95,9.591,79.43,27.875
	C357.609,194.42,374.492,219.897,380.788,248.072z"/>
<path style="fill:#555A66;" d="M171.185,312.11c-8.986-9.001-18.367-16.714-27.734-22.845
	c-35.564-23.812-70.381-27.309-88.777-8.928l-42.56,42.56l25.661,18.808c1.814-0.518,3.902-0.785,6.083-0.85
	c13.333,0.029,37.979,9.206,63.576,35.008c26.383,26.383,36.401,53.108,34.574,66.817l18.391,28.502l42.574-42.574
	c6.045-6.059,9.674-13.596,11.094-23.036C218.193,378.978,201.377,342.302,171.185,312.11z"/>
<path style="fill:#3C3A41;" d="M404.61,375.817c25.553-25.758,50.199-34.935,63.532-34.964c2.886,0.046,5.002,0.368,6.714,0.942
	l25.029-18.9l-42.56-42.56c-18.381-18.411-53.272-14.87-88.646,8.84c-9.498,6.22-18.879,13.932-27.866,22.933
	c-30.222,30.222-47.053,66.942-42.881,93.461c1.42,9.44,5.049,16.977,11.108,23.05l42.56,42.56l18.398-28.449
	C368.142,429.038,378.156,402.27,404.61,375.817z"/>
<path style="fill:#555A66;" d="M351.601,471.181c-24.148-24.163-10.494-74.259,31.773-116.511
	c30.848-31.115,86.744-61.541,116.511-31.773c29.817,29.817-1.057,85.795-31.773,116.511c-18.543,18.543-39.91,32.461-60.166,39.179
	C388.241,485.122,366.222,485.801,351.601,471.181z"/>
<path style="fill:#707789;" d="M43.887,439.407c-30.716-30.716-61.591-86.694-31.773-116.511
	c29.741-29.741,85.749,0.744,116.555,31.817c42.223,42.208,55.878,92.305,31.729,116.467l0,0
	C130.537,501.041,74.704,470.225,43.887,439.407z M149.802,460.584h0.293H149.802z"/>
<path style="fill:#555A66;" d="M184.459,264.062c-5.854-5.854-5.854-15.338,0-21.192l30.972-29.973
	c5.854-5.854,15.338-5.854,21.192,0c5.854,5.854,5.854,15.338,0,21.192l-30.972,29.973
	C199.796,269.916,190.312,269.916,184.459,264.062z"/>
<path style="fill:#3C3A41;" d="M306.349,264.062l-30.972-29.973c-5.854-5.854-5.854-15.338,0-21.192
	c5.854-5.854,15.338-5.854,21.192,0l30.972,29.973c5.854,5.854,5.854,15.338,0,21.192
	C321.686,269.916,312.203,269.916,306.349,264.062z"/>
<path style="fill:#555A66;" d="M301.958,313.412c0,8.393-6.593,14.987-14.987,14.987h-61.944c-8.393,0-14.987-6.593-14.987-14.987
	s6.593-14.987,14.987-14.987h61.944C295.365,298.425,301.958,305.019,301.958,313.412z"/>
<path style="fill:#3C3A41;" d="M301.958,313.412c0,8.393-6.593,14.987-14.987,14.987h-30.972v-29.973h30.972
	C295.365,298.425,301.958,305.019,301.958,313.412z"/>
<g>
</g>
<g>
</g>
<g>
</g>
<g>
</g>
<g>
</g>
<g>
</g>
<g>
</g>
<g>
</g>
<g>
</g>
<g>
</g>
<g>
</g>
<g>
</g>
<g>
</g>
<g>
</g>
<g>
</g>
</svg>
