<?xml version="1.0" encoding="iso-8859-1"?>
<!-- Generator: Adobe Illustrator 19.0.0, SVG Export Plug-In . SVG Version: 6.00 Build 0)  -->
<svg version="1.1" id="Capa_1" xmlns="http://www.w3.org/2000/svg" xmlns:xlink="http://www.w3.org/1999/xlink" x="0px" y="0px"
	 viewBox="0 0 512 512" style="enable-background:new 0 0 512 512;" xml:space="preserve">
<path style="fill:#9196AA;" d="M407,300c-8.291,0-15-6.709-15-15v-60c0-8.291,6.709-15,15-15s15,6.709,15,15v60
	C422,293.291,415.291,300,407,300z"/>
<path style="fill:#7E8596;" d="M467,300c-8.291,0-15-6.709-15-15v-60c0-8.291,6.709-15,15-15s15,6.709,15,15v60
	C482,293.291,475.291,300,467,300z"/>
<path style="fill:#2B292C;" d="M255,180h-90c-8.291,0-15,6.709-15,15v27.651L180,210h58.491
	c-5.977,29.341-29.15,52.515-58.491,58.491l-30-21.174V285c0,8.291,6.709,15,15,15c57.891,0,105-47.109,105-105
	C270,186.709,263.291,180,255,180z"/>
<path style="fill:#3C3A41;" d="M452,377v90c0,24.901-20.099,45-45,45H135c-11.7,0-22.2-4.501-30-11.7c-9.3-8.099-15-20.099-15-33.3
	v-30c0-8.401,6.599-15,15-15s15,6.599,15,15v30c0,8.401,6.599,15,15,15h272c8.401,0,15-6.599,15-15v-90c0-8.401,6.599-15,15-15
	S452,368.599,452,377z"/>
<path style="fill:#555A66;" d="M180,195v182c0,8.401-6.599,15-15,15H57.9L30,362V195c0-8.401,6.599-15,15-15h120
	C173.401,180,180,186.599,180,195z"/>
<path style="fill:#3C3A41;" d="M165,392h-60V180h60c8.401,0,15,6.599,15,15v182C180,385.401,173.401,392,165,392z"/>
<path style="fill:#2B292C;" d="M452,377v90c0,24.901-20.099,45-45,45H135c-11.7,0-22.2-4.501-30-11.7V422c8.401,0,15,6.599,15,15v30
	c0,8.401,6.599,15,15,15h272c8.401,0,15-6.599,15-15v-90c0-8.401,6.599-15,15-15S452,368.599,452,377z"/>
<path style="fill:#3C3A41;" d="M512,75c0,8.401-6.599,15-15,15h-62c-8.401,0-15-6.599-15-15s6.599-15,15-15h62
	C505.401,60,512,66.599,512,75z"/>
<path style="fill:#555A66;" d="M405,30h-30c-8.401,0-15,6.599-15,15v60c0,8.401,6.599,15,15,15h30c24.901,0,45-20.099,45-45
	S429.901,30,405,30z"/>
<path style="fill:#2B292C;" d="M512,75c0,8.401-6.599,15-15,15h-62c-8.401,0-15-6.599-15-15H512z"/>
<path style="fill:#3C3A41;" d="M450,75c0,24.901-20.099,45-45,45h-30c-8.401,0-15-6.599-15-15V75H450z"/>
<polygon style="fill:#CDD2E1;" points="378.6,30 378.6,120 321.599,149.7 300,117.001 300,20.7 321.599,1.8 321.899,1.8 "/>
<polygon style="fill:#BEC3D2;" points="300,75 378.6,75 378.6,120 321.599,149.7 300,117.001 "/>
<path style="fill:#FF5842;" d="M321.599,1.8v147.599l-56.1,56.1C262.8,208.5,258.9,210,255,210H45c-24.901,0-45-20.099-45-45V45
	C0,20.099,20.099,0,45,0h270C317.401,0,319.799,0.601,321.599,1.8z"/>
<path style="fill:#E61E14;" d="M0,75h321.599v74.399l-56.1,56.1C262.8,208.5,258.9,210,255,210H45c-24.901,0-45-20.099-45-45V75z"/>
<path style="fill:#707789;" d="M240,75c0,8.401-6.599,15-15,15h-30c-8.401,0-15-6.599-15-15s6.599-15,15-15h30
	C233.401,60,240,66.599,240,75z"/>
<g>
	<path style="fill:#555A66;" d="M180,75h60c0,8.401-6.599,15-15,15h-30C186.599,90,180,83.401,180,75z"/>
	<path style="fill:#555A66;" d="M225,150h-30c-8.291,0-15-6.709-15-15s6.709-15,15-15h30c8.291,0,15,6.709,15,15
		S233.291,150,225,150z"/>
</g>
<path style="fill:#FF5842;" d="M165,362H30v45c0,24.901,20.099,45,45,45h90c24.901,0,45-20.099,45-45S189.901,362,165,362z"/>
<g>
	<path style="fill:#FD3018;" d="M210,407c0,24.901-20.099,45-45,45h-60v-90h60C189.901,362,210,382.099,210,407z"/>
	<path style="fill:#FD3018;" d="M467,392h-60c-24.814,0-45-20.186-45-45v-62c0-8.291,6.709-15,15-15h120c8.291,0,15,6.709,15,15v62
		C512,371.814,491.814,392,467,392z"/>
</g>
<g>
</g>
<g>
</g>
<g>
</g>
<g>
</g>
<g>
</g>
<g>
</g>
<g>
</g>
<g>
</g>
<g>
</g>
<g>
</g>
<g>
</g>
<g>
</g>
<g>
</g>
<g>
</g>
<g>
</g>
</svg>
