<?xml version="1.0" encoding="iso-8859-1"?>
<!-- Generator: Adobe Illustrator 19.0.0, SVG Export Plug-In . SVG Version: 6.00 Build 0)  -->
<svg version="1.1" id="Capa_1" xmlns="http://www.w3.org/2000/svg" xmlns:xlink="http://www.w3.org/1999/xlink" x="0px" y="0px"
	 viewBox="0 0 512 512" style="enable-background:new 0 0 512 512;" xml:space="preserve">
<path style="fill:#3C3A41;" d="M467,151h-30c-8.291,0-15,6.709-15,15v60c0,8.291,6.709,15,15,15h30c24.814,0,45-20.186,45-45
	S491.814,151,467,151z"/>
<path style="fill:#555A66;" d="M75,151H45c-24.814,0-45,20.186-45,45s20.186,45,45,45h30c8.291,0,15-6.709,15-15v-60
	C90,157.709,83.291,151,75,151z"/>
<path style="fill:#707789;" d="M376,0H136C94.6,0,61,33.6,61,75v242c0,107.399,87.599,195,195,195s195-87.601,195-195V75
	C451,33.6,417.4,0,376,0z"/>
<path style="fill:#555A66;" d="M451,75v242c0,107.399-87.599,195-195,195V0h120C417.4,0,451,33.6,451,75z"/>
<path style="fill:#1DE8F1;" d="M346,121H166c-24.901,0-45,20.099-45,45v91c0,24.899,20.099,45,45,45h45c3.9,0,7.8-1.5,10.499-4.501
	L247.301,272H264.7l25.801,25.499C293.2,300.5,297.1,302,301,302h45c24.901,0,45-20.101,45-45v-91C391,141.099,370.901,121,346,121z
	"/>
<path style="fill:#1BD9DE;" d="M391,166v91c0,24.899-20.099,45-45,45h-45c-3.9,0-7.8-1.5-10.499-4.501L264.699,272H256V121h90
	C370.901,121,391,141.099,391,166z"/>
<g>
	<circle style="fill:#555A66;" cx="196" cy="75" r="15"/>
	<path style="fill:#555A66;" d="M271,75c0,8.399-6.599,15-15,15s-15-6.601-15-15c0-8.401,6.599-15,15-15S271,66.599,271,75z"/>
</g>
<g>
	<circle style="fill:#3C3A41;" cx="316" cy="75" r="15"/>
	<path style="fill:#3C3A41;" d="M256,90V60c8.401,0,15,6.599,15,15C271,83.399,264.401,90,256,90z"/>
</g>
<g>
	<path style="fill:#555A66;" d="M196,422c-8.291,0-15-6.709-15-15v-30c0-8.291,6.709-15,15-15s15,6.709,15,15v30
		C211,415.291,204.291,422,196,422z"/>
	<path style="fill:#555A66;" d="M271,377v30c0,8.399-6.599,15-15,15s-15-6.601-15-15v-30c0-8.401,6.599-15,15-15
		S271,368.599,271,377z"/>
</g>
<g>
	<path style="fill:#3C3A41;" d="M316,422c-8.291,0-15-6.709-15-15v-30c0-8.291,6.709-15,15-15s15,6.709,15,15v30
		C331,415.291,324.291,422,316,422z"/>
	<path style="fill:#3C3A41;" d="M271,377v30c0,8.399-6.599,15-15,15v-60C264.401,362,271,368.599,271,377z"/>
</g>
<g>
</g>
<g>
</g>
<g>
</g>
<g>
</g>
<g>
</g>
<g>
</g>
<g>
</g>
<g>
</g>
<g>
</g>
<g>
</g>
<g>
</g>
<g>
</g>
<g>
</g>
<g>
</g>
<g>
</g>
</svg>
