<?xml version="1.0" encoding="iso-8859-1"?>
<!-- Generator: Adobe Illustrator 19.0.0, SVG Export Plug-In . SVG Version: 6.00 Build 0)  -->
<svg version="1.1" id="Capa_1" xmlns="http://www.w3.org/2000/svg" xmlns:xlink="http://www.w3.org/1999/xlink" x="0px" y="0px"
	 viewBox="0 0 512 512" style="enable-background:new 0 0 512 512;" xml:space="preserve">
<path style="fill:#FF5842;" d="M350.2,150.399l-11.7,34.2l-82.5,25.8l-99.901,31.199L136.6,221.499
	c16.5-45.899,3.901-11.499,65.1-183.4C209.801,15.3,231.7,0,256,0s46.199,15.3,54.3,38.099
	C345.099,135.599,337.301,114.399,350.2,150.399z"/>
<path style="fill:#FD3018;" d="M338.5,184.6L256,210.4V0c24.3,0,46.199,15.3,54.3,38.099c34.799,97.5,27.001,76.3,39.901,112.301
	L338.5,184.6z"/>
<path style="fill:#E1E4FB;" d="M372.4,213.1l-3.3,29.7L256,279.699L127.899,321.7L108.1,301c15.899-44.101,9.901-27.301,28.5-79.501
	l119.4-39.6l94.2-31.5C364.6,191.499,359.801,177.999,372.4,213.1z"/>
<g>
	<path style="fill:#CDD2E1;" d="M369.101,242.8L256,279.699v-97.8l94.2-31.5c14.399,41.1,9.6,27.599,22.2,62.701L369.101,242.8z"/>
	<path style="fill:#CDD2E1;" d="M394.6,275.499l-8.699,31.201L256,348.699L114.101,394.6l-34.2-14.101
		C95.799,336.4,89.801,353.2,108.1,301L256,251.8l116.4-38.7C387.1,254.2,382.301,241,394.6,275.499z"/>
</g>
<path style="fill:#BEC3D2;" d="M394.6,275.499l-8.699,31.201L256,348.699V251.8l116.4-38.7C387.1,254.2,382.301,241,394.6,275.499z"
	/>
<polygon style="fill:#FF5842;" points="463.599,469.399 256,471.2 47.199,473 79.9,380.499 256,321.7 394.6,275.499 "/>
<path style="fill:#E61E14;" d="M496.599,512H15.401C5.8,512-2,502.7,0.999,493.4C8.8,469.399,34.3,452,61,452h390
	c26.7,0,52.2,17.399,60.001,41.4C514,502.7,506.2,512,496.599,512z"/>
<polygon style="fill:#FD3018;" points="463.599,469.399 256,471.2 256,321.7 394.6,275.499 "/>
<path style="fill:#B80000;" d="M496.599,512H256v-60h195c26.7,0,52.2,17.399,60.001,41.4C514,502.7,506.2,512,496.599,512z"/>
<g>
</g>
<g>
</g>
<g>
</g>
<g>
</g>
<g>
</g>
<g>
</g>
<g>
</g>
<g>
</g>
<g>
</g>
<g>
</g>
<g>
</g>
<g>
</g>
<g>
</g>
<g>
</g>
<g>
</g>
</svg>
