<?xml version="1.0" encoding="iso-8859-1"?>
<!-- Generator: Adobe Illustrator 19.0.0, SVG Export Plug-In . SVG Version: 6.00 Build 0)  -->
<svg version="1.1" id="Capa_1" xmlns="http://www.w3.org/2000/svg" xmlns:xlink="http://www.w3.org/1999/xlink" x="0px" y="0px"
	 viewBox="0 0 512 512" style="enable-background:new 0 0 512 512;" xml:space="preserve">
<path style="fill:#555A66;" d="M331.032,437c0,41.4-33.6,75-75,75s-75-33.6-75-75c0-36.301,25.8-66.601,60-73.5V316
	c0-8.401,6.599-15,15-15c8.401,0,15,6.599,15,15v61c0,8.399-6.599,15-15,15c-24.901,0-45,20.099-45,45c0,24.899,20.099,45,45,45
	s45-20.101,45-45c0-8.401,6.599-15,15-15S331.032,428.599,331.032,437z"/>
<g>
	<path style="fill:#3C3A41;" d="M256.032,392v-91c8.401,0,15,6.599,15,15v61C271.032,385.399,264.433,392,256.032,392z"/>
	<path style="fill:#3C3A41;" d="M331.032,437c0,41.4-33.6,75-75,75v-30c24.901,0,45-20.101,45-45c0-8.401,6.599-15,15-15
		S331.032,428.599,331.032,437z"/>
</g>
<path style="fill:#707789;" d="M387.733,211H124.031l-12.299,14.399L98.532,241c2.401,5.4,42.9,64.799,46.199,69.899
	c8.401,12.601,22.5,20.101,37.5,20.101h147.601c15,0,29.099-7.5,37.798-20.101l42.301-63.6c1.199-2.098,2.401-3.9,3.3-6.299
	L387.733,211z"/>
<path style="fill:#555A66;" d="M286.032,91c8.401,0,15-6.601,15-15V15c0-8.401-6.599-15-15-15h-60c-8.401,0-15,6.599-15,15v61
	c0,8.399,6.599,15,15,15H286.032z"/>
<path style="fill:#3C3A41;" d="M286.032,0h-30v91h30c8.401,0,15-6.601,15-15V15C301.032,6.599,294.433,0,286.032,0z"/>
<path style="fill:#707789;" d="M380.233,121h-0.3l-25.499,30H156.432l-24.6-30l12.9-31.8c6.601-16.8,23.401-28.2,41.7-28.2h139.2
	c18.3,0,35.099,11.4,41.999,28.5L380.233,121z"/>
<g>
	<path style="fill:#555A66;" d="M354.433,151h-98.401V61h69.6c18.3,0,35.099,11.4,41.999,28.5l12.601,31.5h-0.3L354.433,151z"/>
	<path style="fill:#555A66;" d="M413.232,241c-0.899,2.399-2.1,4.2-3.3,6.299l-42.301,63.6C358.932,323.5,344.833,331,329.833,331
		h-73.801V211h131.7L413.232,241z"/>
</g>
<path style="fill:#707789;" d="M391.032,15c0,8.399-6.599,15-15,15h-240c-8.401,0-15-6.601-15-15c0-8.401,6.599-15,15-15h240
	C384.433,0,391.032,6.599,391.032,15z"/>
<path style="fill:#FF873C;" d="M389.637,144.525l-35.821-10.397l-93.594,70.01L261.016,241H413.16
	c5.548-11.538,5.381-24.853,0.811-35.244L389.637,144.525z"/>
<path style="fill:#FEA832;" d="M260.233,151.599L181.032,211l-36,26.999c-2.699,1.8-5.7,3.001-9,3.001h-26.1l-12.9-4.501
	c-3.755-11.249-2.902-22.176,1.199-31.199l33.6-84.3h119.101L260.233,151.599z"/>
<path style="fill:#555A66;" d="M379.932,121h-129l-120,90l-19.2,14.399l-14.7,11.1c0.3,1.5,0.899,3.001,1.5,4.501h162.599l40.201-30
	l88.5-66.301L379.932,121z"/>
<polygon style="fill:#3C3A41;" points="389.833,144.699 301.332,211 261.132,241 256.032,241 256.032,121 379.932,121 "/>
<path style="fill:#555A66;" d="M376.032,30h-120V0h120c8.401,0,15,6.599,15,15C391.032,23.399,384.433,30,376.032,30z"/>
<g>
</g>
<g>
</g>
<g>
</g>
<g>
</g>
<g>
</g>
<g>
</g>
<g>
</g>
<g>
</g>
<g>
</g>
<g>
</g>
<g>
</g>
<g>
</g>
<g>
</g>
<g>
</g>
<g>
</g>
</svg>
