<?xml version="1.0" encoding="iso-8859-1"?>
<!-- Generator: Adobe Illustrator 19.0.0, SVG Export Plug-In . SVG Version: 6.00 Build 0)  -->
<svg version="1.1" id="Capa_1" xmlns="http://www.w3.org/2000/svg" xmlns:xlink="http://www.w3.org/1999/xlink" x="0px" y="0px"
	 viewBox="0 0 512 512" style="enable-background:new 0 0 512 512;" xml:space="preserve">
<path style="fill:#7E8596;" d="M264.381,355.992c-2.701,3.6-6.901,6-11.399,6.301c-11.099,0.599-20.998,5.099-28.498,12.899
	c-8.7,8.398-13.499,19.798-13.499,31.798v79.493l-29.998,25.499H14.999c-8.4,0-14.999-6.601-14.999-14.999V380.591
	c0-16.799,2.701-32.999,7.799-48.596c4.2-12.899,7.199-18.299,12.598-29.998l22.198-15.6h184.586l23.399,15.6
	c6,13.499,7.499,14.699,12.298,29.998c1.501,3.6,2.401,7.499,3.6,11.399C267.68,347.892,266.78,352.392,264.381,355.992z"/>
<path style="fill:#555A66;" d="M240.982,195.004V242l-17.4,20.098H53.695L29.998,242v-46.997c0-8.4,6.599-14.999,14.999-14.999
	h180.987C234.384,180.005,240.982,186.604,240.982,195.004z"/>
<path style="fill:#3C3A41;" d="M223.582,262.098H135.99v-82.093h89.993c8.4,0,14.999,6.599,14.999,14.999v46.997L223.582,262.098z"
	/>
<path style="fill:#707789;" d="M264.381,355.992c-2.701,3.6-6.901,6-11.399,6.301c-11.099,0.599-20.998,5.099-28.498,12.899
	c-8.7,8.398-13.499,19.798-13.499,31.798v79.493l-29.998,25.499h-44.997V286.396h91.192l23.399,15.6
	c6,13.499,7.499,14.699,12.298,29.998c1.501,3.6,2.401,7.499,3.6,11.399C267.68,347.892,266.78,352.392,264.381,355.992z"/>
<path style="fill:#FF873C;" d="M250.581,301.996H20.398c3.9-9.599,6.601-19.8,8.1-29.998c1.8-12,1.5-18,1.5-29.998h210.984
	c0,11.998-0.3,17.998,1.5,29.998C243.981,282.196,246.682,292.397,250.581,301.996z"/>
<path style="fill:#FE8821;" d="M250.581,301.996H135.99v-59.996h104.992c0,11.998-0.3,17.998,1.5,29.998
	C243.981,282.196,246.682,292.397,250.581,301.996z"/>
<path style="fill:#CDD2E1;" d="M441.667,69.013c-7.799-14.699-20.698-26.098-35.697-32.699c-9.299-4.199-19.5-6.299-29.998-6.299
	h-30.298c-14.098-18.599-36.296-29.998-59.696-29.998H165.988c-8.4,0-14.999,6.599-14.999,14.999
	c0,41.397,33.598,74.994,74.994,74.994h30.298c14.098,18.599,36.296,29.998,59.696,29.998h119.991c8.4,0,14.999-6.601,14.999-14.999
	C450.966,91.812,447.667,79.512,441.667,69.013z"/>
<path style="fill:#BEC3D2;" d="M450.966,105.011c0,8.398-6.598,14.999-14.999,14.999H405.97V36.315
	c14.999,6.601,27.898,18,35.697,32.699C447.667,79.512,450.966,91.812,450.966,105.011z"/>
<path style="fill:#555A66;" d="M485.564,150.007l-30.097,27.597h-83.995l-44.097-27.597l3.6-46.198
	c0.601-7.797,7.199-13.798,14.999-13.798h120.991c7.799,0,14.398,6,14.999,13.798L485.564,150.007z"/>
<path style="fill:#3C3A41;" d="M485.564,150.007l-30.097,27.597H405.97V90.012h60.995c7.799,0,14.398,6,14.999,13.798
	L485.564,150.007z"/>
<path style="fill:#7E8596;" d="M485.564,150.007H327.376c-2.999,38.696-0.601,7.098-14.999,196.985
	c-0.601,7.499,4.799,14.398,12,15.898c21.297,4.2,36.596,22.798,36.596,44.098v81.893l29.998,23.099h105.992
	c4.2,0,8.1-1.8,11.099-4.801c2.701-2.999,4.2-7.199,3.9-11.399C484.665,139.707,488.863,189.604,485.564,150.007z"/>
<path style="fill:#CDD2E1;" d="M135.99,90.312c-13.499-18.3-36.397-30.298-60.995-30.298H14.999C6.599,60.014,0,66.613,0,75.013
	c0,41.397,33.598,74.994,74.994,74.994h60.995c8.4,0,14.999-6.601,14.999-14.999C150.989,118.21,145.589,102.61,135.99,90.312z"/>
<path style="fill:#707789;" d="M511.962,495.781c0.3,4.2-1.199,8.4-3.9,11.399c-2.999,3.001-6.898,4.801-11.099,4.801H405.97
	V150.007h79.594C488.863,189.604,484.665,139.707,511.962,495.781z"/>
<path style="fill:#BEC3D2;" d="M135.99,150.007V90.312c9.599,12.298,14.999,27.898,14.999,44.697
	C150.989,143.407,144.39,150.007,135.99,150.007z"/>
<polygon style="fill:#9196AA;" points="390.971,421.987 390.971,511.98 180.987,511.98 180.987,421.987 220.284,391.989 
	351.073,391.989 "/>
<path style="fill:#555A66;" d="M390.671,403.987c-1.199-34.496-26.098-63.895-59.696-70.194c-4.501-1.201-9.299-1.8-14.999-1.8
	h-59.996c-1.8,0-4.501,0-4.799,0.3c-18.601,1.199-35.697,8.999-47.997,21.597c-14.399,14.1-22.198,32.699-22.198,53.097v14.999
	h209.984v-14.999C390.971,406.087,390.971,404.888,390.671,403.987z"/>
<polygon style="fill:#7E8596;" points="390.971,421.987 390.971,511.98 285.979,511.98 285.979,391.989 351.073,391.989 "/>
<path style="fill:#3C3A41;" d="M390.971,406.988v14.999H285.979v-89.993h29.998c5.7,0,10.498,0.599,14.999,1.8
	c33.598,6.299,58.496,35.697,59.696,70.194C390.971,404.888,390.971,406.087,390.971,406.988z"/>
<path style="fill:#707789;" d="M300.978,466.984v44.997H270.98v-44.997c0-8.4,6.599-14.999,14.999-14.999
	S300.978,458.583,300.978,466.984z"/>
<path style="fill:#555A66;" d="M300.978,466.984v44.997h-14.999v-59.996C294.379,451.985,300.978,458.583,300.978,466.984z"/>
<g>
</g>
<g>
</g>
<g>
</g>
<g>
</g>
<g>
</g>
<g>
</g>
<g>
</g>
<g>
</g>
<g>
</g>
<g>
</g>
<g>
</g>
<g>
</g>
<g>
</g>
<g>
</g>
<g>
</g>
</svg>
