<?xml version="1.0" encoding="iso-8859-1"?>
<!-- Generator: Adobe Illustrator 19.0.0, SVG Export Plug-In . SVG Version: 6.00 Build 0)  -->
<svg version="1.1" id="Capa_1" xmlns="http://www.w3.org/2000/svg" xmlns:xlink="http://www.w3.org/1999/xlink" x="0px" y="0px"
	 viewBox="0 0 512 512" style="enable-background:new 0 0 512 512;" xml:space="preserve">
<path style="fill:#BEC3D2;" d="M452,120c-33.084,0-60-26.916-60-60s26.916-60,60-60s60,26.916,60,60S485.084,120,452,120z"/>
<path style="fill:#707789;" d="M60,120C26.916,120,0,93.084,0,60S26.916,0,60,0h392c-33.084,0-60,26.916-60,60s26.916,60,60,60H60z"
	/>
<path style="fill:#555A66;" d="M452,0H256v120h196c-33.084,0-60-26.916-60-60S418.916,0,452,0z"/>
<path style="fill:#9196AA;" d="M452,240c-33.084,0-60-26.916-60-60s26.916-60,60-60s60,26.916,60,60S485.084,240,452,240z"/>
<path style="fill:#555A66;" d="M60,240c-33.084,0-60-26.916-60-60s26.916-60,60-60h392c-33.084,0-60,26.916-60,60s26.916,60,60,60
	H60z"/>
<path style="fill:#3C3A41;" d="M452,120H256v120h196c-33.084,0-60-26.916-60-60S418.916,120,452,120z"/>
<circle style="fill:#555A66;" cx="452" cy="60" r="15"/>
<circle style="fill:#3C3A41;" cx="452" cy="180" r="15"/>
<path style="fill:#CDD2E1;" d="M377,120H137c-41.355,0-75,33.645-75,75v212c0,8.284,6.716,15,15,15h75v15c0,41.355,33.645,75,75,75
	c2.687,0,5.339-0.149,7.953-0.426c2.313,0.271,4.661,0.426,7.047,0.426c33.137,0,60-26.863,60-60V195
	C302,153.579,335.579,120,377,120z"/>
<path style="fill:#9196AA;" d="M182,452v-15v-30.213c0-8.167-6.62-14.787-14.787-14.787H14.787C6.62,392,0,398.62,0,406.787v30.426
	C0,478.517,33.483,512,74.787,512H242C208.863,512,182,485.137,182,452z"/>
<path style="fill:#BEC3D2;" d="M256,510.341c26.381-6.309,46-30.026,46-58.341V195c0-41.421,33.579-75,75-75H256V510.341z"/>
<g>
</g>
<g>
</g>
<g>
</g>
<g>
</g>
<g>
</g>
<g>
</g>
<g>
</g>
<g>
</g>
<g>
</g>
<g>
</g>
<g>
</g>
<g>
</g>
<g>
</g>
<g>
</g>
<g>
</g>
</svg>
