<?xml version="1.0" encoding="iso-8859-1"?>
<!-- Generator: Adobe Illustrator 19.0.0, SVG Export Plug-In . SVG Version: 6.00 Build 0)  -->
<svg version="1.1" id="Capa_1" xmlns="http://www.w3.org/2000/svg" xmlns:xlink="http://www.w3.org/1999/xlink" x="0px" y="0px"
	 viewBox="0 0 512 512" style="enable-background:new 0 0 512 512;" xml:space="preserve">
<path style="fill:#FEDB41;" d="M421,165c0,42.599-16.5,83.399-46.8,114.6c-6,5.7-9.901,12.599-11.7,20.4l-33,30H200.799L149.2,300
	c-1.8-7.5-5.7-15-11.4-21c-37.8-38.699-53.699-91.5-43.801-144.6C105.7,69.3,156.7,16.8,220.901,3.6C232.599,1.199,244.3,0,256,0
	c38.101,0,74.399,12.599,104.099,36.899C398.8,68.399,421,115.199,421,165z"/>
<path style="fill:#FCBF29;" d="M421,165c0,42.599-16.5,83.399-46.8,114.6c-6,5.7-9.901,12.599-11.7,20.4l-33,30H256V0
	c38.101,0,74.399,12.599,104.099,36.899C398.8,68.399,421,115.199,421,165z"/>
<path style="fill:#555A66;" d="M286,422h-60c-8.401,0-15,6.599-15,15v30c0,24.899,20.099,45,45,45s45-20.101,45-45v-30
	C301,428.599,294.401,422,286,422z"/>
<path style="fill:#FEA832;" d="M316,120c-24.901,0-45,20.099-45,45v15h-30v-15c0-24.901-20.099-45-45-45s-45,20.099-45,45
	c0,24.899,20.099,45,45,45h15v105c0,8.399,6.599,15,15,15h60c8.401,0,15-6.601,15-15V210h15c24.901,0,45-20.101,45-45
	C361,140.099,340.901,120,316,120z M211,180h-15c-8.401,0-15-6.601-15-15c0-8.401,6.599-15,15-15s15,6.599,15,15V180z M271,300h-30
	v-90h30V300z M316,180h-15v-15c0-8.401,6.599-15,15-15s15,6.599,15,15C331,173.399,324.401,180,316,180z"/>
<path style="fill:#3C3A41;" d="M301,437v30c0,24.899-20.099,45-45,45v-90h30C294.401,422,301,428.599,301,437z"/>
<path style="fill:#FF873C;" d="M316,120c-24.901,0-45,20.099-45,45v15h-15v30h15v90h-15v30h30c8.401,0,15-6.601,15-15V210h15
	c24.901,0,45-20.101,45-45C361,140.099,340.901,120,316,120z M316,180h-15v-15c0-8.401,6.599-15,15-15s15,6.599,15,15
	C331,173.399,324.401,180,316,180z"/>
<path style="fill:#7E8596;" d="M359.5,392c-6.901,34.2-37.2,60-73.5,60h-60c-36,0-65.099-24.901-72.9-60l26.7-30h136.8L359.5,392z"
	/>
<path style="fill:#707789;" d="M316.601,362l42.9,30c-6.901,34.2-37.2,60-73.5,60h-30v-90H316.601z"/>
<path style="fill:#9196AA;" d="M362.5,300H149.2c1.199,3.6,1.8,7.2,1.8,10.8c0,15-1.5,67.099,2.1,81.2h206.4
	c2.401-12.301,1.5-68.301,1.5-80.9C361,307.2,361.601,303.6,362.5,300z"/>
<path style="fill:#7E8596;" d="M361,311.1c0,12.599,0.901,68.599-1.5,80.9H256v-92h106.5C361.601,303.6,361,307.2,361,311.1z"/>
<g>
	<path style="fill:#FF873C;" d="M497,180h-30c-8.291,0-15-6.709-15-15s6.709-15,15-15h30c8.291,0,15,6.709,15,15
		S505.291,180,497,180z"/>
	<path style="fill:#FF873C;" d="M425.395,115.605c-5.859-5.859-5.859-15.352,0-21.211l30-30c5.859-5.859,15.352-5.859,21.211,0
		s5.859,15.352,0,21.211l-30,30C440.746,121.465,431.254,121.465,425.395,115.605z"/>
	<path style="fill:#FF873C;" d="M455.395,265.605l-30-30c-5.859-5.859-5.859-15.352,0-21.211s15.352-5.859,21.211,0l30,30
		c5.859,5.859,5.859,15.352,0,21.211C470.746,271.465,461.254,271.465,455.395,265.605z"/>
</g>
<g>
	<path style="fill:#FEA832;" d="M45,180H15c-8.291,0-15-6.709-15-15s6.709-15,15-15h30c8.291,0,15,6.709,15,15S53.291,180,45,180z"
		/>
	<path style="fill:#FEA832;" d="M65.395,115.605l-30-30c-5.859-5.859-5.859-15.352,0-21.211s15.352-5.859,21.211,0l30,30
		c5.859,5.859,5.859,15.352,0,21.211C80.746,121.465,71.254,121.465,65.395,115.605z"/>
	<path style="fill:#FEA832;" d="M35.395,265.605c-5.859-5.859-5.859-15.352,0-21.211l30-30c5.859-5.859,15.352-5.859,21.211,0
		s5.859,15.352,0,21.211l-30,30C50.746,271.465,41.254,271.465,35.395,265.605z"/>
</g>
<g>
</g>
<g>
</g>
<g>
</g>
<g>
</g>
<g>
</g>
<g>
</g>
<g>
</g>
<g>
</g>
<g>
</g>
<g>
</g>
<g>
</g>
<g>
</g>
<g>
</g>
<g>
</g>
<g>
</g>
</svg>
