<?xml version="1.0" encoding="iso-8859-1"?>
<!-- Generator: Adobe Illustrator 19.0.0, SVG Export Plug-In . SVG Version: 6.00 Build 0)  -->
<svg version="1.1" id="Capa_1" xmlns="http://www.w3.org/2000/svg" xmlns:xlink="http://www.w3.org/1999/xlink" x="0px" y="0px"
	 viewBox="0 0 512.002 512.002" style="enable-background:new 0 0 512.002 512.002;" xml:space="preserve">
<path style="fill:#7E8596;" d="M259.52,411.582c-9.97-37.123-29.698-71.277-56.427-98.853l-1.91-1.91
	c-28.002-28.426-62.578-48.154-100.763-58.336c-4.879-1.486-10.607,0-14.425,3.818l-20.576,20.576
	C37.63,304.666,17.688,339.456,7.507,377.64c-10.183,37.759-9.971,77.852,0.423,115.825c0.637,2.758,1.908,4.879,3.818,6.788
	s4.031,3.181,6.788,3.818c37.972,10.394,78.066,10.607,115.825,0.423c38.184-10.181,72.973-30.122,100.763-57.912l20.576-20.576
	C259.52,422.188,261.007,416.46,259.52,411.582z"/>
<path style="fill:#707789;" d="M255.702,426.006l-20.576,20.576c-27.789,27.789-62.579,47.731-100.763,57.912
	c-37.759,10.183-77.852,9.971-115.825-0.423c-2.758-0.637-4.879-1.908-6.788-3.818l189.434-189.434l1.91,1.91
	c26.729,27.576,46.457,61.73,56.427,98.853C261.007,416.46,259.52,422.188,255.702,426.006z"/>
<g>
	<path style="fill:#555A66;" d="M354.759,199.135l-164.605,165.14c-14.425,14.425-32.882,23.971-53.034,28.002
		c-4.666,0.849-9.757-0.425-13.363-4.031c-3.606-3.606-4.88-8.697-4.031-13.363c4.031-20.153,13.577-38.609,28.002-53.034
		l164.213-164.605L354.759,199.135z"/>
	<path style="fill:#555A66;" d="M471.432,125.424l-84.853-84.853c-5.94-5.94-15.273-5.94-21.213,0l-64.032,63.64
		c-2.758,2.758-4.455,6.576-4.242,10.607v42.426c-0.214,4.031,1.877,7.849,4.634,10.607l42.426,41.891
		c2.758,2.758,6.576,4.455,10.607,4.242h42.426c4.031,0.214,7.849-1.484,10.607-4.242l63.64-63.104
		C477.372,140.697,477.372,131.364,471.432,125.424z M391.034,184.073H360.91l-33.908-32.981v-30.124l48.971-48.578l63.64,63.64
		L391.034,184.073z"/>
</g>
<g>
	<path style="fill:#3C3A41;" d="M471.432,146.637l-63.64,63.104c-2.758,2.758-6.576,4.455-10.607,4.242h-42.426
		c-4.031,0.214-7.849-1.484-10.607-4.242l-21.213-20.678l21.213-21.213l16.758,16.223h30.124l48.578-48.042l-31.82-31.82
		l21.213-21.213l42.426,42.426C477.372,131.364,477.372,140.697,471.432,146.637z"/>
	<path style="fill:#3C3A41;" d="M333.546,178.457l21.213,20.678l-164.605,165.14c-14.425,14.425-32.882,23.971-53.034,28.002
		c-4.666,0.849-9.757-0.425-13.363-4.031L333.546,178.457z"/>
</g>
<path style="fill:#FE8821;" d="M503.252,157.244c-11.667,11.667-30.759,11.667-42.426,0L354.759,51.178
	c-11.667-11.667-11.667-30.759,0-42.426s30.759-11.667,42.426,0l106.067,106.065C514.919,126.484,514.919,145.577,503.252,157.244z"
	/>
<path style="fill:#E5741A;" d="M503.252,157.244c-11.667,11.667-30.759,11.667-42.426,0l-53.034-53.033l42.426-42.426l53.033,53.033
	C514.919,126.484,514.919,145.577,503.252,157.244z"/>
<g>
</g>
<g>
</g>
<g>
</g>
<g>
</g>
<g>
</g>
<g>
</g>
<g>
</g>
<g>
</g>
<g>
</g>
<g>
</g>
<g>
</g>
<g>
</g>
<g>
</g>
<g>
</g>
<g>
</g>
</svg>
