<?xml version="1.0" encoding="iso-8859-1"?>
<!-- Generator: Adobe Illustrator 19.0.0, SVG Export Plug-In . SVG Version: 6.00 Build 0)  -->
<svg version="1.1" id="Capa_1" xmlns="http://www.w3.org/2000/svg" xmlns:xlink="http://www.w3.org/1999/xlink" x="0px" y="0px"
	 viewBox="0 0 512 512" style="enable-background:new 0 0 512 512;" xml:space="preserve">
<path style="fill:#555A66;" d="M26.195,153.288C4.569,131.661-3.911,100.709,2.025,71.451c1.059-4.453,4.24-8.057,8.48-9.329
	c4.665-1.272,9.118-0.212,12.509,3.179L42.944,85.23c2.968,2.968,6.572,4.453,10.812,4.453h21.201
	c4.03,0.212,7.634-1.696,10.39-4.453s4.665-6.36,4.452-10.388V53.64c0-4.24-1.483-7.845-4.452-10.813L62.449,19.929
	c-5.513-5.513-2.968-14.84,4.453-16.749C74.535,1.061,82.379,0,90.011,0c28.41,0.001,54.276,12.722,71.662,35.619
	c18.869,24.805,21.626,58.517,11.236,87.986l-1.695,5.088l212.499,212.499c44.522-15.689,77.81-6.995,102.615,17.81
	c18.87,18.87,29.962,53.851,23.39,85.018c-1.907,8.268-11.872,11.024-17.808,5.088l-22.543-22.262
	c-2.756-2.757-6.573-4.452-10.602-4.241h-18.233c-4.876,0.212-9.329,2.121-12.508,5.3c-3.393,3.393-5.1,7.845-5.313,12.72
	l0.211,18.022c-0.211,4.029,1.285,7.845,4.042,10.601l17.808,17.808c7.845,7.845,3.604,21.415-7.209,23.322
	c-35.194,6.361-67.207-7.845-86.713-33.709c-17.174-22.686-23.533-54.065-9.541-93.077L128.811,171.097l-9.118,3.18
	c-9.752,3.393-19.928,5.088-30.104,5.088C65.418,179.365,42.944,170.036,26.195,153.288z"/>
<path style="fill:#3C3A41;" d="M428.024,427.907L85.348,85.23c2.756-2.756,4.665-6.36,4.452-10.388V53.64
	c0-4.24-1.483-7.845-4.452-10.813L62.449,19.929c-5.513-5.513-2.968-14.84,4.453-16.749C74.535,1.061,82.379,0,90.011,0
	c28.41,0.001,54.276,12.722,71.662,35.619c18.869,24.805,21.626,58.517,11.236,87.986l-1.695,5.088l212.499,212.499
	c44.522-15.689,77.81-6.995,102.615,17.81c18.87,18.87,29.962,53.851,23.39,85.018c-1.907,8.268-11.872,11.024-17.808,5.088
	l-22.543-22.262c-2.756-2.757-6.573-4.452-10.602-4.241h-18.233C435.657,422.819,431.204,424.728,428.024,427.907z"/>
<path style="fill:#707789;" d="M480.209,4.551l27.137,27.654c4.665,4.665,5.725,11.662,2.968,17.386l-33.287,66.784
	c-2.544,5.088-7.845,8.268-13.78,8.267h-33.075L252.445,302.372l-24.594-17.808l-24.805-17.597L387.77,82.241l0.001-33.075
	c0.211-5.724,3.392-11.024,8.479-13.568l66.784-33.803C468.759-0.961,475.757,0.099,480.209,4.551z"/>
<path style="fill:#555A66;" d="M493.778,18.637l13.57,13.57c4.665,4.665,5.725,11.662,2.968,17.386l-33.287,66.784
	c-2.544,5.088-7.845,8.268-13.78,8.267h-33.076L252.445,302.372l-24.594-17.808L493.778,18.637z"/>
<path style="fill:#FE8821;" d="M145.377,263.998L37.674,344.564c-45.161,34.135-49.825,100.284-9.967,140.142
	c40.071,40.071,106.22,35.408,140.143-9.966l80.777-107.492c4.453-6.148,3.816-14.417-1.484-19.717l-82.262-82.262
	C159.582,259.97,151.313,259.334,145.377,263.998z"/>
<g>
	<path style="fill:#FEA832;" d="M154.704,357.709c5.937,5.937,5.937,15.265,0,21.201l-63.605,63.605
		c-5.724,5.724-15.265,5.937-21.201,0c-5.724-5.724-5.724-15.478,0-21.201l63.605-63.605
		C139.44,351.772,148.981,351.986,154.704,357.709z"/>
	<path style="fill:#FEA832;" d="M280.251,359.267c-5.697,5.697-13.193,8.995-21.289,8.995c-7.796,0-15.592-3.298-21.287-8.995
		l-84.553-84.553c-11.694-11.694-11.694-30.884,0-42.577c5.397-5.697,12.893-8.696,20.987-8.696c8.097,0,15.592,2.999,21.289,8.696
		l42.576,42.577l42.278,42.276C291.945,328.683,291.945,347.573,280.251,359.267z"/>
</g>
<path style="fill:#E5741A;" d="M27.707,484.706L206.013,306.4l41.131,41.131c5.3,5.3,5.937,13.57,1.484,19.717L167.851,474.74
	C133.927,520.114,67.778,524.778,27.707,484.706z"/>
<g>
	<path style="fill:#FF873C;" d="M69.898,442.515l84.806-84.806c5.937,5.937,5.937,15.265,0,21.201l-63.605,63.605
		C85.376,448.239,75.835,448.452,69.898,442.515z"/>
	<path style="fill:#FF873C;" d="M280.251,359.267c-5.697,5.697-13.193,8.995-21.289,8.995c-7.796,0-15.592-3.298-21.287-8.995
		l-42.278-42.278l42.576-42.276l42.278,42.276C291.945,328.683,291.945,347.573,280.251,359.267z"/>
</g>
<g>
</g>
<g>
</g>
<g>
</g>
<g>
</g>
<g>
</g>
<g>
</g>
<g>
</g>
<g>
</g>
<g>
</g>
<g>
</g>
<g>
</g>
<g>
</g>
<g>
</g>
<g>
</g>
<g>
</g>
</svg>
