<?xml version="1.0" encoding="iso-8859-1"?>
<!-- Generator: Adobe Illustrator 19.0.0, SVG Export Plug-In . SVG Version: 6.00 Build 0)  -->
<svg version="1.1" id="Capa_1" xmlns="http://www.w3.org/2000/svg" xmlns:xlink="http://www.w3.org/1999/xlink" x="0px" y="0px"
	 viewBox="0 0 512 512" style="enable-background:new 0 0 512 512;" xml:space="preserve">
<path style="fill:#9196AA;" d="M481.984,15.214v104.972l-37.49,19.794H49.897l-19.794-19.794V15.214
	c0-8.399,6.597-14.996,14.996-14.996h59.984c8.399,0,14.996,6.597,14.996,14.996v44.988h271.928V15.214
	c0-8.399,6.597-14.996,14.996-14.996h59.984C475.387,0.218,481.984,6.815,481.984,15.214z"/>
<path style="fill:#7E8596;" d="M444.494,139.98h-188.45V60.202h135.964V15.214c0-8.399,6.597-14.996,14.996-14.996h59.984
	c8.399,0,14.996,6.597,14.996,14.996v104.972L444.494,139.98z"/>
<path style="fill:#707789;" d="M30.103,120.186v302.819c0.3,0,0.3,0.3,0.601,0.3c17.994,11.697,39.59,15.897,59.684,11.998
	c10.797-1.8,20.994-5.699,30.292-11.998c17.694-11.996,38.99-16.195,59.083-12.296c10.797,1.799,21.994,5.698,31.292,11.996
	c0.3,0,0.3,0.3,0.601,0.3c13.197,8.998,28.791,13.496,44.387,13.496c15.597,0.3,31.492-4.199,44.988-13.197c0.3,0,0.3-0.3,0.601-0.3
	c9.298-5.998,20.194-10.196,30.692-11.996c20.695-4.199,42.288-0.3,60.284,11.996c8.998,5.998,18.595,9.898,28.791,11.697
	c20.695,4.199,42.59,0.601,60.585-11.397v-303.42H30.103V120.186z"/>
<path style="fill:#555A66;" d="M481.984,120.186v303.42c-17.994,11.998-39.891,15.597-60.585,11.397
	c-10.196-1.799-19.794-5.698-28.791-11.697c-17.996-12.296-39.59-16.195-60.284-11.996c-10.498,1.799-21.394,5.997-30.692,11.996
	c-0.3,0-0.3,0.3-0.601,0.3c-13.496,8.998-29.391,13.496-44.988,13.197V120.186L481.984,120.186L481.984,120.186z"/>
<g>
	<path style="fill:#1DE8F1;" d="M135.075,180.17c-24.894,0-44.988,20.094-44.988,44.988v206.246c0,1.199,0.3,2.698,0.3,3.899
		c10.797-1.8,20.994-5.699,30.292-11.998c17.694-11.996,38.99-16.195,59.083-12.296c0.3-0.601,0.3-0.901,0.3-1.501v-184.35
		C180.064,200.264,159.97,180.17,135.075,180.17z"/>
	<path style="fill:#1DE8F1;" d="M256.044,180.17c-24.894,0-44.988,20.094-44.988,44.988v197.847c0.3,0,0.3,0.3,0.601,0.3
		c13.197,8.998,28.791,13.496,44.387,13.496c15.597,0.3,31.492-4.199,44.988-13.197V225.158
		C301.032,200.264,280.938,180.17,256.044,180.17z"/>
</g>
<g>
	<path style="fill:#1BD9DE;" d="M377.012,180.17c-24.894,0-44.988,20.094-44.988,44.988v184.35c0,0.601,0,1.201,0.3,1.802
		c20.695-4.199,42.288-0.3,60.284,11.996c8.998,5.998,18.595,9.898,28.791,11.697c0.3-1.5,0.601-2.7,0.601-4.199V225.159
		C422,200.264,401.906,180.17,377.012,180.17z"/>
	<path style="fill:#1BD9DE;" d="M301.032,423.605c-13.496,8.998-29.391,13.496-44.988,13.197V180.169
		c24.894,0,44.988,20.094,44.988,44.988V423.605z"/>
	<path style="fill:#1BD9DE;" d="M502.678,489.589c-3.899,1.5-7.798,3.599-11.697,5.998c-16.195,10.797-34.79,16.195-53.385,16.195
		c-18.296,0-36.891-5.399-53.087-16.195c-22.494-14.698-51.986-14.698-74.48,0c-16.496,10.797-35.09,16.195-53.986,16.195
		c-17.994,0-36.589-5.399-52.486-16.195c-22.494-14.698-51.986-14.698-74.48,0c-32.392,21.593-74.079,21.593-106.472,0
		c-4.199-2.7-8.399-4.8-12.897-6.599c-7.798-2.998-11.697-11.697-8.697-19.496c2.998-7.498,11.696-11.395,19.494-8.397
		c6.599,2.4,12.897,5.699,18.595,9.597c22.494,14.696,50.987,14.696,73.481,0c32.392-21.595,75.079-21.595,107.472,0
		c11.097,7.198,23.695,11.097,35.991,11.097c13.197,0,26.093-3.599,37.49-11.097c32.392-21.595,75.079-21.595,107.472,0
		c22.494,14.696,50.987,14.696,73.481,0c5.399-3.599,11.097-6.599,16.796-8.998c7.498-3,16.496,0.599,19.496,8.097
		C514.076,477.591,510.477,486.29,502.678,489.589z"/>
	<path style="fill:#1BD9DE;" d="M502.678,429.605c-3.899,1.5-7.798,3.599-11.697,5.998c-16.195,10.797-34.79,16.195-53.385,16.195
		c-18.296,0-36.891-5.399-53.087-16.195c-22.494-14.698-51.986-14.698-74.48,0c-16.496,10.797-35.09,16.195-53.986,16.195
		c-17.994,0-36.589-5.399-52.486-16.195c-22.494-14.698-51.986-14.698-74.48,0c-32.392,21.593-74.079,21.593-106.472,0
		c-4.199-2.7-8.399-4.8-12.897-6.599c-7.798-2.998-11.697-11.697-8.697-19.496c2.998-7.498,11.696-11.395,19.494-8.397
		c6.599,2.4,12.897,5.699,18.595,9.597c22.494,14.696,50.987,14.696,73.481,0c32.392-21.595,75.079-21.595,107.472,0
		c11.097,7.198,23.695,11.097,35.991,11.097c13.197,0,26.093-3.599,37.49-11.097c32.392-21.595,75.079-21.595,107.472,0
		c22.494,14.696,50.987,14.696,73.481,0c5.399-3.599,11.097-6.599,16.796-8.998c7.498-3,16.496,0.599,19.496,8.097
		C514.076,417.607,510.477,426.305,502.678,429.605z"/>
</g>
<g>
	<path style="fill:#15B7BE;" d="M502.678,489.589c-3.899,1.5-7.798,3.599-11.697,5.998c-16.195,10.797-34.79,16.195-53.385,16.195
		c-18.296,0-36.891-5.399-53.087-16.195c-22.494-14.698-51.986-14.698-74.48,0c-16.496,10.797-35.09,16.195-53.986,16.195V481.79
		c13.197,0,26.093-3.599,37.49-11.097c32.392-21.595,75.079-21.595,107.472,0c22.494,14.696,50.987,14.696,73.481,0
		c5.399-3.599,11.097-6.599,16.796-8.998c7.498-3,16.496,0.599,19.496,8.097C514.076,477.591,510.477,486.29,502.678,489.589z"/>
	<path style="fill:#15B7BE;" d="M502.678,429.605c-3.899,1.5-7.798,3.599-11.697,5.998c-16.195,10.797-34.79,16.195-53.385,16.195
		c-18.296,0-36.891-5.399-53.087-16.195c-22.494-14.698-51.986-14.698-74.48,0c-16.496,10.797-35.09,16.195-53.986,16.195v-29.992
		c13.197,0,26.093-3.599,37.49-11.097c32.392-21.595,75.079-21.595,107.472,0c22.494,14.696,50.987,14.696,73.481,0
		c5.399-3.599,11.097-6.599,16.796-8.998c7.498-3,16.496,0.599,19.496,8.097C514.076,417.607,510.477,426.305,502.678,429.605z"/>
</g>
<g>
</g>
<g>
</g>
<g>
</g>
<g>
</g>
<g>
</g>
<g>
</g>
<g>
</g>
<g>
</g>
<g>
</g>
<g>
</g>
<g>
</g>
<g>
</g>
<g>
</g>
<g>
</g>
<g>
</g>
</svg>
