<?xml version="1.0" encoding="iso-8859-1"?>
<!-- Generator: Adobe Illustrator 19.0.0, SVG Export Plug-In . SVG Version: 6.00 Build 0)  -->
<svg version="1.1" id="Capa_1" xmlns="http://www.w3.org/2000/svg" xmlns:xlink="http://www.w3.org/1999/xlink" x="0px" y="0px"
	 viewBox="0 0 512 512" style="enable-background:new 0 0 512 512;" xml:space="preserve">
<path style="fill:#555A66;" d="M181.063,95.966v59.984c0,8.397-6.597,14.996-14.996,14.996s-14.996-6.599-14.996-14.996V95.966
	c0-8.399,6.597-14.996,14.996-14.996S181.063,87.567,181.063,95.966z"/>
<path style="fill:#3C3A41;" d="M166.067,170.946V80.97c8.399,0,14.996,6.597,14.996,14.996v59.984
	C181.063,164.347,174.466,170.946,166.067,170.946z"/>
<path style="fill:#FE8821;" d="M226.051,140.954H106.083c-8.399,0-14.996,6.597-14.996,14.996v59.984
	c0,8.397,6.597,14.996,14.996,14.996h119.968c8.399,0,14.996-6.599,14.996-14.996V155.95
	C241.047,147.551,234.45,140.954,226.051,140.954z"/>
<path style="fill:#FEDB41;" d="M271.04,215.934v44.988l-22.494,24.892H84.19l-23.095-24.892v-44.988
	c0-8.399,6.597-14.996,14.996-14.996h179.953C264.442,200.938,271.04,207.535,271.04,215.934z"/>
<path style="fill:#E5741A;" d="M241.047,155.95v59.984c0,8.397-6.597,14.996-14.996,14.996h-59.984v-89.976h59.984
	C234.45,140.954,241.047,147.551,241.047,155.95z"/>
<path style="fill:#FCBF29;" d="M248.546,285.814h-82.478v-84.877h89.976c8.399,0,14.996,6.597,14.996,14.996v44.988L248.546,285.814
	z"/>
<path style="fill:#FD3018;" d="M376.012,80.97c-16.534,0-29.992-13.458-29.992-29.992c0-4.511,0.967-8.831,2.885-12.829
	L368.43,4.793c1.577-2.692,4.462-4.348,7.583-4.348c3.12,0,6.006,1.655,7.583,4.347l19.524,33.342
	c1.846,3.895,2.885,8.143,2.885,12.844C406.004,67.511,392.546,80.97,376.012,80.97z"/>
<path style="fill:#555A66;" d="M166.067,390.888H76.091c-8.399,0-14.996,6.597-14.996,14.996v88.877
	c20.695,4.199,42.588,0.3,60.585-11.697c13.495-8.998,28.791-13.797,44.387-13.797c5.098,0,9.898,0.601,14.996,1.501v-64.883
	C181.063,397.485,174.466,390.888,166.067,390.888z"/>
<path style="fill:#3C3A41;" d="M435.996,390.888H346.02c-8.399,0-14.996,6.597-14.996,14.996v63.382c0,0.601,0,1.201,0.3,1.802
	c20.695-4.199,42.288-0.3,60.284,11.996c17.994,11.697,39.29,15.897,59.383,11.998v-89.176
	C450.992,397.485,444.395,390.888,435.996,390.888z"/>
<path style="fill:#FE8821;" d="M432.998,140.954H319.627c-2.998,38.389-1.199,14.095-9.898,119.968H61.095v74.98
	c0,8.397,6.597,14.996,14.996,14.996h359.905c4.199,0,8.099-1.8,11.097-4.8c2.7-3.299,4.199-7.498,3.899-11.696
	C433.296,146.051,436.597,179.643,432.998,140.954z"/>
<path style="fill:#707789;" d="M511.976,275.918v129.966c0,8.397-6.597,14.996-14.996,14.996H15.107
	c-8.399,0-14.996-6.599-14.996-14.996V275.918c0-8.399,6.597-14.996,14.996-14.996s14.996,6.597,14.996,14.996v44.988h451.881
	v-44.988c0-8.399,6.597-14.996,14.996-14.996C505.379,260.922,511.976,267.519,511.976,275.918z"/>
<path style="fill:#FCBF29;" d="M428.498,94.466c-0.901-7.498-7.198-13.496-14.996-13.496h-74.98
	c-7.798,0-14.395,5.998-14.996,13.795l-3.899,46.189l27.644,23.118h61.859l23.869-23.118L428.498,94.466z"/>
<path style="fill:#E5741A;" d="M450.992,334.403c0.3,4.198-1.199,8.397-3.899,11.696c-2.998,3-6.897,4.8-11.097,4.8H166.067v-89.976
	h143.661c8.699-105.873,6.899-81.579,9.898-119.968h113.371C436.597,179.643,433.296,146.051,450.992,334.403z"/>
<path style="fill:#3C3A41;" d="M181.063,405.884v64.883c-5.098-0.901-9.898-1.501-14.996-1.501v-78.378
	C174.466,390.888,181.063,397.485,181.063,405.884z"/>
<path style="fill:#1BD9DE;" d="M502.678,489.362c-3.899,1.5-7.798,3.599-11.697,5.998c-16.195,10.797-35.79,16.195-54.385,16.195
	c-18.296,0-36.891-5.399-53.087-16.195c-22.494-14.698-50.987-14.698-73.481,0c-32.392,21.593-74.079,21.593-106.472,0
	c-11.397-7.498-24.294-11.099-37.49-11.099c-12.296,0-24.894,3.601-35.991,11.099c-32.392,21.593-75.079,21.593-107.472,0
	c-4.199-2.7-8.399-4.8-12.897-6.599c-7.798-2.998-11.697-11.697-8.697-19.496c2.998-7.498,11.696-11.395,19.494-8.397
	c6.599,2.4,12.897,5.698,18.595,9.597c22.494,14.696,51.986,14.696,74.48,0c15.897-10.797,34.492-16.197,52.486-16.197
	c18.895,0,37.49,5.401,53.986,16.197c22.494,14.696,50.987,14.696,73.481,0c32.392-21.595,74.079-21.595,106.472,0
	c22.494,14.696,51.986,14.696,74.48,0c5.399-3.599,11.097-6.599,16.796-8.998c7.498-3,16.496,0.599,19.496,8.097
	C514.076,477.364,510.477,486.063,502.678,489.362z"/>
<path style="fill:#15B7BE;" d="M502.678,489.362c-3.899,1.5-7.798,3.599-11.697,5.998c-16.195,10.797-35.79,16.195-54.385,16.195
	c-18.296,0-36.891-5.399-53.087-16.195c-22.494-14.698-50.987-14.698-73.481,0c-32.392,21.593-74.079,21.593-106.472,0
	c-11.397-7.498-24.294-11.099-37.49-11.099v-29.992c18.895,0,37.49,5.401,53.986,16.197c22.494,14.696,50.987,14.696,73.481,0
	c32.392-21.595,74.079-21.595,106.472,0c22.494,14.696,51.986,14.696,74.48,0c5.399-3.599,11.097-6.599,16.796-8.998
	c7.498-3,16.496,0.599,19.496,8.097C514.076,477.364,510.477,486.063,502.678,489.362z"/>
<path style="fill:#555A66;" d="M496.98,420.88H166.067v-99.974h315.917v-44.988c0-8.399,6.597-14.996,14.996-14.996
	c8.399,0,14.996,6.597,14.996,14.996v129.966C511.976,414.281,505.379,420.88,496.98,420.88z"/>
<g>
</g>
<g>
</g>
<g>
</g>
<g>
</g>
<g>
</g>
<g>
</g>
<g>
</g>
<g>
</g>
<g>
</g>
<g>
</g>
<g>
</g>
<g>
</g>
<g>
</g>
<g>
</g>
<g>
</g>
</svg>
