<?xml version="1.0" encoding="iso-8859-1"?>
<!-- Generator: Adobe Illustrator 19.0.0, SVG Export Plug-In . SVG Version: 6.00 Build 0)  -->
<svg version="1.1" id="Capa_1" xmlns="http://www.w3.org/2000/svg" xmlns:xlink="http://www.w3.org/1999/xlink" x="0px" y="0px"
	 viewBox="0 0 512 512" style="enable-background:new 0 0 512 512;" xml:space="preserve">
<path style="fill:#555A66;" d="M443.599,347.5L295,273.701l146.8-48.602c6-1.8,10.201-7.5,10.201-14.099s-4.2-12.299-10.201-14.099
	L295,148.299L443.599,74.5c6.301-3.3,9.6-10.201,8.101-16.8C449.9,50.799,443.9,46,437,46H75c-6.899,0-12.9,4.799-14.7,11.7
	c-1.5,6.599,1.8,13.5,8.101,16.8L217,148.299L70.2,196.901c-6,1.8-10.2,7.5-10.2,14.099s4.2,12.299,10.201,14.099L217,273.701
	L68.401,347.5c-6.301,3.3-9.6,10.201-8.101,16.8c1.8,6.901,7.8,11.7,14.7,11.7h362c6.899,0,12.9-4.799,14.7-11.7
	C453.199,357.7,449.9,350.799,443.599,347.5z M138.6,346l97.301-48.3l-3.6-50.4l-109.9-36.3l109.9-36.301l3.6-50.4L138.6,76h234.8
	l-97.301,48.3l3.6,50.4l109.9,36.3l-109.9,36.301l-3.6,50.4L373.4,346H138.6z"/>
<path style="fill:#3C3A41;" d="M451.7,364.3c-1.8,6.901-7.8,11.7-14.7,11.7H256v-30h117.4l-97.301-48.3l3.6-50.4l109.9-36.3
	l-109.9-36.301l-3.6-50.4L373.4,76H256V46h181c6.899,0,12.9,4.799,14.7,11.7c1.5,6.599-1.8,13.5-8.101,16.8L295,148.299
	l146.8,48.602c6,1.8,10.201,7.5,10.201,14.099s-4.2,12.299-10.201,14.099L295,273.701L443.599,347.5
	C449.9,350.799,453.199,357.7,451.7,364.3z"/>
<g>
	<path style="fill:#FF5842;" d="M467,16H45c-16.5,0-30,13.5-30,30s13.5,30,30,30h422c16.5,0,30-13.5,30-30S483.5,16,467,16z"/>
	<path style="fill:#FF5842;" d="M467,346H45c-24.901,0-45,20.099-45,45v30c0,24.901,20.099,45,45,45h422c24.901,0,45-20.099,45-45
		v-30C512,366.099,491.901,346,467,346z"/>
</g>
<g>
	<path style="fill:#707789;" d="M256,106c-24.901,0-45,20.099-45,45s20.099,45,45,45s45-20.099,45-45S280.901,106,256,106z"/>
	<path style="fill:#707789;" d="M256,226c-24.901,0-45,20.099-45,45s20.099,45,45,45s45-20.099,45-45S280.901,226,256,226z"/>
</g>
<g>
	<path style="fill:#555A66;" d="M256,316v-90c24.901,0,45,20.099,45,45S280.901,316,256,316z"/>
	<path style="fill:#555A66;" d="M256,196v-90c24.901,0,45,20.099,45,45S280.901,196,256,196z"/>
</g>
<g>
	<path style="fill:#FD3018;" d="M467,76H256V16h211c16.5,0,30,13.5,30,30S483.5,76,467,76z"/>
	<path style="fill:#FD3018;" d="M512,391v30c0,24.901-20.099,45-45,45H256V346h211C491.901,346,512,366.099,512,391z"/>
</g>
<path style="fill:#707789;" d="M105,496c-24.814,0-45-20.186-45-45s20.186-45,45-45s45,20.186,45,45S129.814,496,105,496z"/>
<path style="fill:#CDD2E1;" d="M105,466c-8.276,0-15-6.724-15-15s6.724-15,15-15s15,6.724,15,15S113.276,466,105,466z"/>
<path style="fill:#555A66;" d="M407,496c-24.814,0-45-20.186-45-45s20.186-45,45-45s45,20.186,45,45S431.814,496,407,496z"/>
<path style="fill:#BEC3D2;" d="M407,466c-8.276,0-15-6.724-15-15s6.724-15,15-15s15,6.724,15,15S415.276,466,407,466z"/>
<g>
</g>
<g>
</g>
<g>
</g>
<g>
</g>
<g>
</g>
<g>
</g>
<g>
</g>
<g>
</g>
<g>
</g>
<g>
</g>
<g>
</g>
<g>
</g>
<g>
</g>
<g>
</g>
<g>
</g>
</svg>
