<?xml version="1.0" encoding="iso-8859-1"?>
<!-- Generator: Adobe Illustrator 19.0.0, SVG Export Plug-In . SVG Version: 6.00 Build 0)  -->
<svg version="1.1" id="Capa_1" xmlns="http://www.w3.org/2000/svg" xmlns:xlink="http://www.w3.org/1999/xlink" x="0px" y="0px"
	 viewBox="0 0 512 512" style="enable-background:new 0 0 512 512;" xml:space="preserve">
<path style="fill:#555A66;" d="M165,90h-60c-8.291,0-15-6.709-15-15V45c0-24.814,20.186-45,45-45s45,20.186,45,45v30
	C180,83.291,173.291,90,165,90z"/>
<path style="fill:#3C3A41;" d="M407,90h-60c-8.291,0-15-6.709-15-15V45c0-24.814,20.186-45,45-45s45,20.186,45,45v30
	C422,83.291,415.291,90,407,90z"/>
<path style="fill:#FEA832;" d="M195,150H75c-8.291,0-15-6.709-15-15v-30c0-24.814,20.186-45,45-45h60c24.814,0,45,20.186,45,45v30
	C210,143.291,203.291,150,195,150z"/>
<path style="fill:#FEDB41;" d="M482,210v227c0,8.401-6.599,15-15,15H45c-8.401,0-15-6.599-15-15V210l48.9-30h360.2L482,210z"/>
<path style="fill:#FCBF29;" d="M482,210v227c0,8.401-6.599,15-15,15H256V180h183.1L482,210z"/>
<path style="fill:#555A66;" d="M437,120H75c-24.901,0-45,20.099-45,45v45h452v-45C482,140.099,461.901,120,437,120z"/>
<path style="fill:#FF873C;" d="M437,150H317c-8.291,0-15-6.709-15-15v-30c0-24.814,20.186-45,45-45h60c24.814,0,45,20.186,45,45v30
	C452,143.291,445.291,150,437,150z"/>
<path style="fill:#555A66;" d="M180,316c0-8.291-6.709-15-15-15h-15v-15c0-8.291-6.709-15-15-15s-15,6.709-15,15v15h-15
	c-8.291,0-15,6.709-15,15s6.709,15,15,15h15v15c0,8.291,6.709,15,15,15s15-6.709,15-15v-15h15C173.291,331,180,324.291,180,316z"/>
<path style="fill:#3C3A41;" d="M407,331h-60c-8.291,0-15-6.709-15-15s6.709-15,15-15h60c8.291,0,15,6.709,15,15S415.291,331,407,331
	z"/>
<path style="fill:#555A66;" d="M299.5,322.599l-30,60c-2.7,5.402-8.1,8.401-13.5,8.401c-2.1,0-4.501-0.601-6.599-1.5
	c-7.5-3.9-10.501-12.9-6.901-20.099L261.7,331H226c-5.099,0-9.901-2.701-12.9-7.2c-2.701-4.2-2.701-9.901-0.601-14.399l30-60
	C245.2,243.999,250.6,241,256,241c2.401,0,4.501,0.601,6.599,1.5c7.5,3.9,10.501,12.9,6.901,20.099L250.3,301H286
	c5.099,0,9.901,2.701,12.9,7.2C301.601,312.4,301.601,318.1,299.5,322.599z"/>
<g>
	<path style="fill:#3C3A41;" d="M269.5,262.599L256,289.6V241c2.401,0,4.501,0.601,6.599,1.5
		C270.099,246.4,273.1,255.399,269.5,262.599z"/>
	<path style="fill:#3C3A41;" d="M299.5,322.599l-30,60c-2.7,5.402-8.1,8.401-13.5,8.401v-48.6l5.7-11.4H256v-30h30
		c5.099,0,9.901,2.701,12.9,7.2C301.601,312.4,301.601,318.1,299.5,322.599z"/>
	<path style="fill:#3C3A41;" d="M482,210H256v-90h181c24.901,0,45,20.099,45,45V210z"/>
</g>
<path style="fill:#555A66;" d="M467,422H45c-24.901,0-45,20.099-45,45v30c0,8.401,6.599,15,15,15h482c8.401,0,15-6.599,15-15v-30
	C512,442.099,491.901,422,467,422z"/>
<path style="fill:#3C3A41;" d="M512,467v30c0,8.401-6.599,15-15,15H256v-90h211C491.901,422,512,442.099,512,467z"/>
<g>
</g>
<g>
</g>
<g>
</g>
<g>
</g>
<g>
</g>
<g>
</g>
<g>
</g>
<g>
</g>
<g>
</g>
<g>
</g>
<g>
</g>
<g>
</g>
<g>
</g>
<g>
</g>
<g>
</g>
</svg>
