<?xml version="1.0" encoding="iso-8859-1"?>
<!-- Generator: Adobe Illustrator 19.0.0, SVG Export Plug-In . SVG Version: 6.00 Build 0)  -->
<svg version="1.1" id="Capa_1" xmlns="http://www.w3.org/2000/svg" xmlns:xlink="http://www.w3.org/1999/xlink" x="0px" y="0px"
	 viewBox="0 0 512 512" style="enable-background:new 0 0 512 512;" xml:space="preserve">
<path style="fill:#555A66;" d="M256,0c-57.9,0-105,48.1-105,106v300c0,57.9,47.1,106,105,106s105-48.1,105-106V106
	C361,48.1,313.9,0,256,0z M331,406c0,41.4-33.6,76-75,76s-75-34.6-75-76V106c0-41.4,33.6-76,75-76s75,34.6,75,76V406z"/>
<path style="fill:#7E8596;" d="M438.401,240.099L256,134.799l-77.401-44.7C128.5,61,63.999,78.399,35.2,128.5
	C6.099,178.599,23.5,243.1,73.599,271.899L256,377.199l77.401,44.7C383.5,451,448.001,433.599,476.8,383.5
	C505.901,333.399,488.5,268.9,438.401,240.099z M451,368.5c-20.7,35.7-66.899,47.999-102.599,27.599L256,342.7L88.599,246.099
	C52.899,225.399,40.3,179.5,61,143.5c20.7-35.7,66.599-48.3,102.599-27.601L256,169.3l167.401,96.599
	C459.101,286.599,471.7,332.5,451,368.5z"/>
<path style="fill:#9196AA;" d="M476.8,128.5C448.001,78.399,383.5,61,333.401,90.099L256,134.799l-182.401,105.3
	C23.5,268.9,6.099,333.399,35.2,383.5c28.799,50.099,92.999,67.5,143.399,38.399l77.401-44.7l182.401-105.3
	C488.5,243.1,505.901,178.599,476.8,128.5z M423.401,246.099L256,342.7l-92.401,53.399C127.899,416.499,81.7,404.2,61,368.5
	c-20.7-36-8.101-81.901,27.599-102.601L256,169.3l92.401-53.401C384.401,95.2,430.3,107.8,451,143.5
	C471.7,179.5,459.101,225.399,423.401,246.099z"/>
<path style="fill:#FEDB41;" d="M256,211c-24.901,0-45,20.099-45,45c0,24.899,20.099,45,45,45s45-20.101,45-45
	C301,231.099,280.901,211,256,211z"/>
<path style="fill:#FCBF29;" d="M256,301v-90c24.901,0,45,20.099,45,45C301,280.899,280.901,301,256,301z"/>
<path style="fill:#3C3A41;" d="M361,106v300c0,57.9-47.1,106-105,106v-30c41.4,0,75-34.6,75-76V106c0-41.4-33.6-76-75-76V0
	C313.9,0,361,48.1,361,106z"/>
<path style="fill:#707789;" d="M476.8,383.5c-28.799,50.099-93.3,67.5-143.399,38.399L256,377.199V342.7l92.401,53.399
	c35.7,20.4,81.899,8.101,102.599-27.599c20.7-36,8.101-81.901-27.599-102.601L256,169.3v-34.501l182.401,105.3
	C488.5,268.9,505.901,333.399,476.8,383.5z"/>
<path style="fill:#7E8596;" d="M438.401,271.899L256,377.199V342.7l167.401-96.601c35.7-20.7,48.3-66.599,27.599-102.599
	c-20.7-35.7-66.599-48.3-102.599-27.601L256,169.3v-34.501l77.401-44.7C383.5,61,448.001,78.399,476.8,128.5
	C505.901,178.599,488.5,243.1,438.401,271.899z"/>
<g>
</g>
<g>
</g>
<g>
</g>
<g>
</g>
<g>
</g>
<g>
</g>
<g>
</g>
<g>
</g>
<g>
</g>
<g>
</g>
<g>
</g>
<g>
</g>
<g>
</g>
<g>
</g>
<g>
</g>
</svg>
