<?xml version="1.0" encoding="iso-8859-1"?>
<!-- Generator: Adobe Illustrator 19.0.0, SVG Export Plug-In . SVG Version: 6.00 Build 0)  -->
<svg version="1.1" id="Capa_1" xmlns="http://www.w3.org/2000/svg" xmlns:xlink="http://www.w3.org/1999/xlink" x="0px" y="0px"
	 viewBox="0 0 512 512" style="enable-background:new 0 0 512 512;" xml:space="preserve">
<path style="fill:#555A66;" d="M345.099,432.199l-30-92C313.299,334.2,307.599,330,301,330h-90c-6.599,0-12.299,4.2-14.099,10.199
	l-30,92c-1.802,4.501-0.901,9.6,1.8,13.5c2.999,3.9,7.5,6.301,12.299,6.301h150c4.799,0,9.3-2.401,12.299-6.301
	C346,441.799,346.901,436.7,345.099,432.199z"/>
<path style="fill:#3C3A41;" d="M345.099,432.199c1.802,4.501,0.901,9.6-1.8,13.5c-2.999,3.9-7.5,6.301-12.299,6.301h-75V330h45
	c6.599,0,12.299,4.2,14.099,10.199L345.099,432.199z"/>
<path style="fill:#1BD9DE;" d="M497,285H15L69.901,38.399C72.9,24.899,85.201,15,99,15h314c13.799,0,26.1,9.899,29.099,23.399
	L497,285z"/>
<path style="fill:#707789;" d="M512,285v30c0,24.899-20.099,45-45,45H45c-24.901,0-45-20.101-45-45v-30l38.401-15H472.4L512,285z"/>
<path d="M305.501,210H256v-30h49.501c8.399,0,15,6.599,15,15C320.501,203.399,313.9,210,305.501,210z"/>
<path style="fill:#707789;" d="M361,422H151c-24.901,0-45,20.099-45,45v30c0,8.399,6.599,15,15,15h270c8.401,0,15-6.601,15-15v-30
	C406,442.099,385.901,422,361,422z"/>
<path style="fill:#555A66;" d="M512,285v30c0,24.899-20.099,45-45,45H256v-90h216.4L512,285z"/>
<path style="fill:#15B7BE;" d="M497,285H256V15h157c13.799,0,26.1,9.899,29.099,23.399L497,285z"/>
<path style="fill:#CDD2E1;" d="M511.7,281.7L456.799,35.1C452.3,14.7,433.7,0,413,0H99C78.3,0,59.7,14.7,55.201,35.1L0.3,281.7
	c-0.901,4.499,0.3,9,2.999,12.6C6,297.9,10.499,300,15,300h482c4.501,0,9-2.1,11.7-5.7C511.399,290.7,512.601,286.199,511.7,281.7z
	 M413,30c6.899,0,12.9,4.799,14.399,11.7l10.8,48.3h-98.798L332.8,30H413z M302.5,30l6.601,60h-81.183
	C224,78.952,215.886,69.88,205.497,64.704L209.5,30H302.5z M84.6,41.7C86.1,34.799,92.1,30,99,30h80.2l-3.428,31.07
	c-15.218,3.366-27.561,14.452-32.695,28.93H73.801L84.6,41.7z M152.5,270H33.6l13.5-60h112L152.5,270z M53.699,180l13.5-60h75.877
	c4.035,11.377,12.519,20.66,23.356,25.75L162.7,180H53.699z M359.5,270l-5.4-46.8c-0.901-8.401-8.401-14.101-16.501-13.2
	c-8.099,0.899-14.099,8.099-13.198,16.5L329.2,270H182.8l6.601-60h116.1c8.399,0,15-6.601,15-15c0-8.401-6.601-15-15-15H192.7
	l3.452-31.285c14.79-3.605,26.736-14.533,31.765-28.715H312.7l5.099,46.8c0.901,7.8,7.2,13.2,15,13.2h1.5
	c8.401-0.901,14.101-8.401,13.2-16.5L342.7,120h102.1l13.5,60h-92.8c-8.401,0-15,6.599-15,15c0,8.399,6.599,15,15,15h99.4l13.5,60
	H359.5z"/>
<path style="fill:#1DE8F1;" d="M185.497,120c-8.271,0-15-6.729-15-15s6.729-15,15-15s15,6.729,15,15S193.768,120,185.497,120z"/>
<path style="fill:#BEC3D2;" d="M511.7,281.7L456.799,35.1C452.3,14.7,433.7,0,413,0H256v30h46.5l6.601,60H256v30h56.7l3.732,34.25
	c-10.836,5.09-19.321,14.373-23.356,25.75H256v30h37.077c5.134,14.478,17.477,25.563,32.695,28.93L329.2,270H256v30h241
	c4.501,0,9-2.1,11.7-5.7C511.399,290.7,512.601,286.199,511.7,281.7z M458.301,180h-80.383
	c-5.029-14.182-16.975-25.109-31.765-28.715L342.7,120h102.1L458.301,180z M413,30c6.899,0,12.9,4.799,14.399,11.7l10.8,48.3
	h-98.798L332.8,30H413z M359.5,270l-4.004-34.704c10.389-5.177,18.503-14.249,22.421-25.296H464.9l13.5,60H359.5z"/>
<path style="fill:#1BD9DE;" d="M335.497,210c-8.271,0-15-6.729-15-15s6.729-15,15-15s15,6.729,15,15S343.768,210,335.497,210z"/>
<path style="fill:#555A66;" d="M406,467v30c0,8.399-6.599,15-15,15H256v-90h105C385.901,422,406,442.099,406,467z"/>
<g>
</g>
<g>
</g>
<g>
</g>
<g>
</g>
<g>
</g>
<g>
</g>
<g>
</g>
<g>
</g>
<g>
</g>
<g>
</g>
<g>
</g>
<g>
</g>
<g>
</g>
<g>
</g>
<g>
</g>
</svg>
