<?xml version="1.0" encoding="iso-8859-1"?>
<!-- Generator: Adobe Illustrator 19.0.0, SVG Export Plug-In . SVG Version: 6.00 Build 0)  -->
<svg version="1.1" id="Capa_1" xmlns="http://www.w3.org/2000/svg" xmlns:xlink="http://www.w3.org/1999/xlink" x="0px" y="0px"
	 viewBox="0 0 512 512" style="enable-background:new 0 0 512 512;" xml:space="preserve">
<path style="fill:#555A66;" d="M504.8,333.1L360.099,247L344.2,121H421v15c0,8.399,6.599,15,15,15s15-6.601,15-15v-31
	c0-3.6-1.8-8.401-5.7-11.4c0-0.3,0-0.601-0.3-0.601l-120-90c-0.3,0-0.599,0-0.599-0.3C322,1.199,318.999,0,316,0H196
	c-2.999,0-6,1.199-8.401,2.699c0,0.3-0.298,0.3-0.599,0.3l-120,90c-0.3,0-0.3,0.3-0.3,0.601c-3.9,2.999-5.7,7.8-5.7,11.4v31
	c0,8.399,6.599,15,15,15s15-6.601,15-15v-15h76.8l-15.899,126L7.2,333.1c-3.6,2.399-6.9,7.2-7.2,12.6V376c0,8.399,6.599,15,15,15
	s15-6.601,15-15v-15h31v15c0,8.399,6.599,15,15,15s15-6.601,15-15v-15.2h46.8c-0.899,6.899-16.8,131.699-16.199,138H390.4
	c0.901-6.601-15.3-131.201-16.199-137.8H421v15c0,8.399,6.599,15,15,15s15-6.601,15-15v-15h31v15c0,8.399,6.599,15,15,15
	s15-6.601,15-15v-30.3C511.7,340,508.7,335.499,504.8,333.1z M141.4,331H70.3l77.1-46.201L141.4,331z M391,90h-50.4l-5.4-41.7
	L391,90z M325.901,216.7L278.2,172.299L316,137.2L325.901,216.7z M223.299,121h66L256.3,151.599l-1.5-1.5L223.299,121z M256,192.7
	l51.899,48.3H204.101l50.7-47.1L256,192.7z M209.2,30h93.6l7.5,60H201.7L209.2,30z M196,136.599l38.101,35.7L186.099,217
	L196,136.599z M332.8,271l7.5,60H171.7l7.5-60H332.8z M319.6,361l-64.799,41.1l-0.3,0.3L188.2,361H319.6z M121,90l55.8-41.7
	L171.4,90H121z M165.399,382l61.201,38.399L154.9,467.3L165.399,382z M187.301,482l67.5-44.2l69,44.2H187.301z M282.7,420.099
	l63.6-40.499l10.8,87.999L282.7,420.099z M370.6,331l-6-46.201L441.7,331H370.6z"/>
<path style="fill:#3C3A41;" d="M504.8,333.1L360.099,247L344.2,121H421v15c0,8.399,6.599,15,15,15s15-6.601,15-15v-31
	c0-3.6-1.8-8.401-5.7-11.4c0-0.3,0-0.601-0.3-0.601l-120-90c-0.3,0-0.599,0-0.599-0.3C322,1.199,318.999,0,316,0h-61.199v30H302.8
	l7.5,60h-55.499v31H289.3l-33,30.599l-1.5-1.5V193.9l1.2-1.2l51.899,48.3H254.8v30h78l7.5,60h-85.499v30H319.6l-64.799,41.1v35.7
	l69,44.2h-69v16.8H390.4c0.901-6.601-15.3-131.201-16.199-137.8H421v15c0,8.399,6.599,15,15,15s15-6.601,15-15v-15h31v15
	c0,8.399,6.599,15,15,15s15-6.601,15-15v-30.3C511.7,340,508.7,335.499,504.8,333.1z M278.2,172.299L316,137.2l9.901,79.501
	L278.2,172.299z M335.2,48.3L391,90h-50.4L335.2,48.3z M282.7,420.099l63.6-40.499l10.8,87.999L282.7,420.099z M370.6,331l-6-46.201
	L441.7,331H370.6z"/>
<path style="fill:#10BB67;" d="M512,497c0,8.399-6.599,15-15,15H15c-8.401,0-15-6.601-15-15c0-8.401,6.599-15,15-15h482
	C505.401,482,512,488.599,512,497z"/>
<path style="fill:#0CA656;" d="M512,497c0,8.399-6.599,15-15,15H254.801v-30H497C505.401,482,512,488.599,512,497z"/>
<g>
</g>
<g>
</g>
<g>
</g>
<g>
</g>
<g>
</g>
<g>
</g>
<g>
</g>
<g>
</g>
<g>
</g>
<g>
</g>
<g>
</g>
<g>
</g>
<g>
</g>
<g>
</g>
<g>
</g>
</svg>
