<?xml version="1.0" encoding="iso-8859-1"?>
<!-- Generator: Adobe Illustrator 19.0.0, SVG Export Plug-In . SVG Version: 6.00 Build 0)  -->
<svg version="1.1" id="Capa_1" xmlns="http://www.w3.org/2000/svg" xmlns:xlink="http://www.w3.org/1999/xlink" x="0px" y="0px"
	 viewBox="0 0 512 512" style="enable-background:new 0 0 512 512;" xml:space="preserve">
<path style="fill:#E5741A;" d="M481,90c-41.353,0-75,33.647-75,75v30c0,24.814,20.186,45,45,45h45V105C496,96.709,489.291,90,481,90
	z M466,210h-15c-8.276,0-15-6.724-15-15v-30c0-19.556,12.539-36.24,30-42.437V210z"/>
<path style="fill:#555A66;" d="M496,105.002c0-3.978-1.58-7.794-4.393-10.607l-60.001-60.001c-5.859-5.859-15.352-5.859-21.211,0
	s-5.859,15.352,0,21.211L466,111.211V422c0,16.538-13.462,30-30,30s-30-13.462-30-30v-62c0-33.137-26.863-60-60-60h-25.005
	c-8.291,0-15,6.709-15,15s6.709,15,15,15H346c16.569,0,30,13.431,30,30v58.645c0,29.898,20.365,57.667,49.866,62.52
	C463.416,487.342,496,458.413,496,422V105.002z"/>
<path style="fill:#FE8821;" d="M346,196.8c0.901-8.701-6-16.8-15-16.8H61c-9,0-15.901,8.099-15,16.8l30,242
	c1.199,7.5,7.5,13.2,15,13.2h210c7.5,0,13.801-5.7,15-13.2L346,196.8z"/>
<path style="fill:#E5741A;" d="M346,196.8l-30,242c-1.199,7.5-7.5,13.2-15,13.2H196V180h135C340,180,346.901,188.099,346,196.8z"/>
<path style="fill:#555A66;" d="M236.8,310.8c-0.3-0.3-0.599-0.601-0.599-0.901c0,0,0,0,0-0.298L208.9,262.5
	c-2.699-5.101-7.8-7.5-12.9-7.2c-5.099,0-9.6,2.098-12.299,6.599c-0.3,0.3-0.601,0.3-0.601,0.601l-27.301,47.1
	c0,0.298,0,0.298,0,0.298c0,0.3-0.298,0.601-0.298,0.901C152.5,316.8,151,323.099,151,330c0,24.899,20.099,45,45,45s45-20.101,45-45
	C241,323.099,239.5,316.8,236.8,310.8z"/>
<path style="fill:#3C3A41;" d="M196,375V255.3c5.099-0.3,10.201,2.098,12.9,7.2l27.301,47.1c0,0.298,0,0.298,0,0.298
	c0,0.3,0.298,0.601,0.599,0.901c2.701,6,4.2,12.299,4.2,19.2C241,354.899,220.901,375,196,375z"/>
<path style="fill:#FEA832;" d="M346,467c0-24.901-20.099-45-45-45H91c-24.901,0-45,20.099-45,45v30c0,8.399,6.599,15,15,15h270
	c8.401,0,15-6.601,15-15V467z"/>
<path style="fill:#FF873C;" d="M346,467v30c0,8.399-6.599,15-15,15H196v-90h105C325.901,422,346,442.099,346,467z"/>
<path style="fill:#CDD2E1;" d="M331,0H61C36.099,0,16,20.099,16,45v120c0,24.899,20.099,45,45,45h270c24.901,0,45-20.101,45-45V45
	C376,20.099,355.901,0,331,0z"/>
<path style="fill:#555A66;" d="M301,60H91c-8.401,0-15,6.599-15,15v60c0,8.399,6.599,15,15,15h210c8.401,0,15-6.601,15-15V75
	C316,66.599,309.401,60,301,60z"/>
<path style="fill:#BEC3D2;" d="M376,45v120c0,24.899-20.099,45-45,45H196V0h135C355.901,0,376,20.099,376,45z"/>
<path style="fill:#3C3A41;" d="M301,150H196V60h105c8.401,0,15,6.599,15,15v60C316,143.399,309.401,150,301,150z"/>
<g>
</g>
<g>
</g>
<g>
</g>
<g>
</g>
<g>
</g>
<g>
</g>
<g>
</g>
<g>
</g>
<g>
</g>
<g>
</g>
<g>
</g>
<g>
</g>
<g>
</g>
<g>
</g>
<g>
</g>
</svg>
