<?xml version="1.0" encoding="iso-8859-1"?>
<!-- Generator: Adobe Illustrator 19.0.0, SVG Export Plug-In . SVG Version: 6.00 Build 0)  -->
<svg version="1.1" id="Capa_1" xmlns="http://www.w3.org/2000/svg" xmlns:xlink="http://www.w3.org/1999/xlink" x="0px" y="0px"
	 viewBox="0 0 512 512" style="enable-background:new 0 0 512 512;" xml:space="preserve">
<path style="fill:#AFB4C8;" d="M453.701,228.401l14.399-5.7c7.8-3.001,11.7-11.7,8.699-19.2c-9.899-25.8-32.1-42.9-57.599-47.1
	l17.1-17.1c6-5.7,6-15.3,0-21.299c-16.5-16.201-38.401-23.701-60-21.601l6.299-14.099c3.001-7.5,0-16.201-7.798-19.801
	C349.9,51.4,322,55.3,301,70V46c0-8.401-6.599-15-15-15c-10.499,0-20.7,2.1-30,6.301C245.2,42.1,235.6,49.3,228.401,58.299
	L222.7,43.9c-3.001-7.8-11.7-11.7-19.2-8.699c-25.8,9.899-42.9,32.1-47.1,57.599l-17.1-17.1c-5.7-6-15.3-6-21.299,0
	C101.8,92.2,94.3,114.101,96.4,135.7l-14.099-6.299c-7.5-3.001-16.201,0-19.801,7.798C51.4,162.1,55.3,190,70,211H46
	c-8.401,0-15,6.599-15,15c0,29.7,17.401,55.8,44.399,67.5H479.2C485.2,282.7,478.299,248.2,453.701,228.401z"/>
<path style="fill:#9196AA;" d="M479.2,293.5H256V37.301C265.3,33.1,275.501,31,286,31c8.401,0,15,6.599,15,15v24
	c21-14.7,48.9-18.6,73.801-7.5c7.798,3.6,10.8,12.301,7.798,19.801L376.3,96.4c21.599-2.1,43.5,5.4,60,21.601
	c6,5.999,6,15.599,0,21.299l-17.1,17.1c25.499,4.2,47.701,21.301,57.599,47.1c3.001,7.5-0.899,16.199-8.699,19.2l-14.399,5.7
	C478.299,248.2,485.2,282.7,479.2,293.5z"/>
<path style="fill:#707789;" d="M361,256c0,18.6-5.7,36-7.2,37.5H158.2c-1.5-1.5-7.2-18.9-7.2-37.5c0-57.9,47.1-105,105-105
	S361,198.1,361,256z"/>
<g>
	<path style="fill:#555A66;" d="M301,256c0,15.901-8.101,29.7-20.4,37.5h-49.2c-12.299-7.8-20.4-21.599-20.4-37.5
		c0-24.901,20.099-45,45-45S301,231.099,301,256z"/>
	<path style="fill:#555A66;" d="M361,256c0,18.6-5.7,36-7.2,37.5H256V151C313.9,151,361,198.1,361,256z"/>
</g>
<path style="fill:#3C3A41;" d="M301,256c0,15.901-8.101,29.7-20.4,37.5H256V211C280.901,211,301,231.099,301,256z"/>
<path style="fill:#FEA832;" d="M512,391l-16.8,14.099L512,421v45c0,8.401-6.599,15-15,15H15c-8.401,0-15-6.599-15-15V361l18.6-13.2
	L0,331v-45c0-8.401,6.599-15,15-15h482c8.401,0,15,6.599,15,15V391z"/>
<path style="fill:#FF873C;" d="M512,391l-16.8,14.099L512,421v45c0,8.401-6.599,15-15,15H256V271h241c8.401,0,15,6.599,15,15V391z"
	/>
<path style="fill:#E5741A;" d="M512,391v30H376c-8.401,0-15-6.599-15-15s6.599-15,15-15H512z"/>
<path style="fill:#FE8821;" d="M151,346c0,8.401-6.599,15-15,15H0v-30h136C144.401,331,151,337.599,151,346z"/>
<g>
</g>
<g>
</g>
<g>
</g>
<g>
</g>
<g>
</g>
<g>
</g>
<g>
</g>
<g>
</g>
<g>
</g>
<g>
</g>
<g>
</g>
<g>
</g>
<g>
</g>
<g>
</g>
<g>
</g>
</svg>
