<?xml version="1.0" encoding="iso-8859-1"?>
<!-- Generator: Adobe Illustrator 19.0.0, SVG Export Plug-In . SVG Version: 6.00 Build 0)  -->
<svg version="1.1" id="Capa_1" xmlns="http://www.w3.org/2000/svg" xmlns:xlink="http://www.w3.org/1999/xlink" x="0px" y="0px"
	 viewBox="0 0 512 512" style="enable-background:new 0 0 512 512;" xml:space="preserve">
<path style="fill:#9196AA;" d="M256,0c-31.199,0-45,53.8-45,106s13.801,105,45,105s45-52.8,45-105S287.199,0,256,0z"/>
<path style="fill:#7E8596;" d="M423.505,338.471c-22.324,0-51.05-8.511-77.769-20.977c-47.358-22.09-89.282-56.982-76.143-85.151
	c4.482-9.609,16.436-20.303,48.164-16.655c19.365,2.227,42.803,9.419,66.021,20.244c47.373,22.09,89.282,56.982,76.143,85.166
	C454.193,333.373,440.761,338.471,423.505,338.471z"/>
<path style="fill:#9196AA;" d="M88.495,338.471c-17.256,0-30.688-5.098-36.416-17.373c-13.14-28.184,28.77-63.076,76.143-85.166
	c23.218-10.825,46.655-18.018,66.021-20.244c31.86-3.589,43.682,7.046,48.164,16.67c13.14,28.154-28.784,63.047-76.143,85.137
	C139.545,329.96,110.819,338.471,88.495,338.471z M216.332,246.493h0.292H216.332z"/>
<path style="fill:#7E8596;" d="M256,211V0c31.199,0,45,53.8,45,106S287.199,211,256,211z"/>
<path style="fill:#9196AA;" d="M342.4,475.101l-86.4-0.3l-86.4-0.601l63.6-223.6c2.401-7.8,10.8-12.301,18.6-10.201
	c1.5,0.601,3.001,1.201,4.2,1.8c1.199-0.599,2.701-1.199,4.2-1.8c7.8-2.1,16.199,2.401,18.6,10.201L342.4,475.101z"/>
<path style="fill:#7E8596;" d="M342.4,475.101l-86.4-0.3V242.199c1.199-0.599,2.701-1.199,4.2-1.8c7.8-2.1,16.199,2.401,18.6,10.201
	L342.4,475.101z"/>
<path style="fill:#CDD2E1;" d="M373.599,512H138.401c-9.6,0-17.401-9.3-14.401-18.6c7.8-24,30.3-41.4,57.001-41.4h150
	c26.7,0,49.2,17.401,57.001,41.4C391,502.7,383.2,512,373.599,512z"/>
<path style="fill:#BEC3D2;" d="M373.599,512H256v-60h75c26.7,0,49.2,17.401,57.001,41.4C391,502.7,383.2,512,373.599,512z"/>
<path style="fill:#CDD2E1;" d="M256,181c-24.901,0-45,20.099-45,45s20.099,45,45,45s45-20.099,45-45S280.901,181,256,181z"/>
<path style="fill:#BEC3D2;" d="M256,271v-90c24.901,0,45,20.099,45,45S280.901,271,256,271z"/>
<g>
</g>
<g>
</g>
<g>
</g>
<g>
</g>
<g>
</g>
<g>
</g>
<g>
</g>
<g>
</g>
<g>
</g>
<g>
</g>
<g>
</g>
<g>
</g>
<g>
</g>
<g>
</g>
<g>
</g>
</svg>
