<?xml version="1.0" encoding="iso-8859-1"?>
<!-- Generator: Adobe Illustrator 19.0.0, SVG Export Plug-In . SVG Version: 6.00 Build 0)  -->
<svg version="1.1" id="Capa_1" xmlns="http://www.w3.org/2000/svg" xmlns:xlink="http://www.w3.org/1999/xlink" x="0px" y="0px"
	 viewBox="0 0 512 512" style="enable-background:new 0 0 512 512;" xml:space="preserve">
<path style="fill:#3C3A41;" d="M436,150H316c-8.291,0-15-6.709-15-15v-30c0-24.814,20.186-45,45-45h60c24.814,0,45,20.186,45,45v30
	C451,143.291,444.291,150,436,150z"/>
<path style="fill:#FF5842;" d="M436,120H279.401c-6.901,0-12.902-4.801-14.401-11.4l-9-35.4l-9.901-39
	C241.3,14.099,223.299,0,202.599,0H76C51.099,0,31,20.099,31,45v422c0,24.899,20.099,45,45,45h360c24.901,0,45-20.101,45-45V165
	C481,140.099,460.901,120,436,120z M175,120h-54c-8.401,0-15-6.601-15-15V75c0-8.401,6.599-15,15-15h46.5
	c6.901,0,12.9,4.799,14.401,11.4c2.098,8.399,5.099,20.099,7.5,30C191.8,110.7,184.6,120,175,120z"/>
<path style="fill:#FD3018;" d="M481,165v302c0,24.899-20.099,45-45,45H256V73.2l9,35.4c1.5,6.599,7.5,11.4,14.401,11.4H436
	C460.901,120,481,140.099,481,165z"/>
<path style="fill:#E61E14;" d="M386.499,426.499c6,5.7,6,15.3,0,21C383.8,450.5,379.9,452,376,452s-7.8-1.5-10.499-4.501
	L339.699,422H172.301L146.5,447.499C143.8,450.5,139.9,452,136,452s-7.8-1.5-10.499-4.501c-6-5.7-6-15.3,0-21l25.499-25.8v-169.4
	l-25.499-25.8c-6-5.7-6-15.3,0-21c5.7-5.999,15.298-5.999,20.999,0L172.301,210H339.7l25.801-25.501
	c5.7-5.999,15.298-5.999,20.999,0c6,5.7,6,15.3,0,21l-25.5,25.8V400.7L386.499,426.499z"/>
<path style="fill:#B80000;" d="M386.499,426.499c6,5.7,6,15.3,0,21C383.8,450.5,379.9,452,376,452s-7.8-1.5-10.499-4.501
	L339.699,422H256V210h83.699l25.801-25.501c5.7-5.999,15.298-5.999,20.999,0c6,5.7,6,15.3,0,21L361,231.299V400.7L386.499,426.499z"
	/>
<g>
</g>
<g>
</g>
<g>
</g>
<g>
</g>
<g>
</g>
<g>
</g>
<g>
</g>
<g>
</g>
<g>
</g>
<g>
</g>
<g>
</g>
<g>
</g>
<g>
</g>
<g>
</g>
<g>
</g>
</svg>
