<?xml version="1.0" encoding="iso-8859-1"?>
<!-- Generator: Adobe Illustrator 19.0.0, SVG Export Plug-In . SVG Version: 6.00 Build 0)  -->
<svg version="1.1" id="Capa_1" xmlns="http://www.w3.org/2000/svg" xmlns:xlink="http://www.w3.org/1999/xlink" x="0px" y="0px"
	 viewBox="0 0 512 512" style="enable-background:new 0 0 512 512;" xml:space="preserve">
<path style="fill:#555A66;" d="M294.901,288.999l-26.1,15.3L193.5,203.8l-18.001,17.699c-5.7,6-15.298,6-20.999,0
	c-6-5.7-6-15.3,0-21l60-60c5.7-5.999,15.298-5.999,20.999,0c6,5.7,6,15.3,0,21l-20.7,21L294.901,288.999z"/>
<path style="fill:#3C3A41;" d="M346,406h-61c-8.291,0-15-6.709-15-15s6.709-15,15-15h61c8.291,0,15,6.709,15,15S354.291,406,346,406
	z"/>
<rect x="376" y="271" style="fill:#FEDB41;" width="121" height="120"/>
<path style="fill:#FEA832;" d="M497,256c-151.962,0,26.771,0-121,0c-8.401,0-15,6.599-15,15l-15.938,15.938l-0.938,112.811
	l15.625,19.376h124.125L497,406c12.93,0,15-9.929,15-21.301v-107.4C512,265.927,509.93,256,497,256z M412.299,376L437,352.299
	L460.701,376H412.299z M482,354.699L458.301,331L482,307.301V354.699z M460.699,286L437,309.699L412.301,286H460.699z M391,307.301
	L414.699,331L391,354.699V307.301z"/>
<path style="fill:#FE8821;" d="M195,46h-90c-24.901,0-45,20.099-45,45v150c0,8.399,6.599,15,15,15h15V91c0-8.401,6.599-15,15-15h90
	c41.4,0,75,33.6,75,75v152.699l24.901-14.7L300,286V151C300,93.1,252.9,46,195,46z"/>
<path style="fill:#E5741A;" d="M300,151v135l-5.099,2.999L270,303.699V151c0-41.4-33.6-75-75-75h-45V46h45
	C252.9,46,300,93.1,300,151z"/>
<path style="fill:#FEA832;" d="M183.6,286c-5.7,0-10.8-3.3-13.5-8.401l-13.5-26.7c-1.8-3.6-3.898-6.899-6.599-9.899
	c-8.401-9.3-20.7-15-33.6-15H45c-24.901,0-45,20.099-45,45v120c0,6.899,4.501,12.599,11.1,14.399l111.899,30
	c1.501,0.3,2.701,0.601,3.9,0.601h123.6c2.1,0,4.2-0.3,6-1.201l34.501-15c5.4-2.399,9-7.798,9-13.799V286H183.6z"/>
<path style="fill:#FF873C;" d="M300,286v120c0,6-3.6,11.4-9,13.799l-34.501,15c-1.8,0.901-3.9,1.201-6,1.201H150V241
	c2.701,2.999,4.799,6.299,6.599,9.899l13.5,26.7C172.8,282.7,177.9,286,183.6,286H300z"/>
<path style="fill:#555A66;" d="M75,466c-41.353,0-75-33.647-75-75s33.647-75,75-75s75,33.647,75,75S116.353,466,75,466z"/>
<path style="fill:#CDD2E1;" d="M75,436c-24.814,0-45-20.186-45-45s20.186-45,45-45s45,20.186,45,45S99.814,436,75,436z"/>
<path style="fill:#555A66;" d="M75,406c-8.271,0-15-6.729-15-15s6.729-15,15-15s15,6.729,15,15S83.271,406,75,406z"/>
<path style="fill:#2B292C;" d="M240,466c-33.091,0-60-26.909-60-60s26.909-60,60-60s60,26.909,60,60S273.091,466,240,466z"/>
<path style="fill:#BEC3D2;" d="M240,436c-16.538,0-30-13.462-30-30s13.462-30,30-30s30,13.462,30,30S256.538,436,240,436z"/>
<path style="fill:#555A66;" d="M512,421c0,8.291-6.709,15-15,15H376c-24.814,0-45-20.186-45-45V181c0-8.291,6.709-15,15-15
	s15,6.709,15,15v210c0,8.276,6.724,15,15,15h121C505.291,406,512,412.709,512,421z"/>
<g>
</g>
<g>
</g>
<g>
</g>
<g>
</g>
<g>
</g>
<g>
</g>
<g>
</g>
<g>
</g>
<g>
</g>
<g>
</g>
<g>
</g>
<g>
</g>
<g>
</g>
<g>
</g>
<g>
</g>
</svg>
