<?xml version="1.0" encoding="iso-8859-1"?>
<!-- Generator: Adobe Illustrator 19.0.0, SVG Export Plug-In . SVG Version: 6.00 Build 0)  -->
<svg version="1.1" id="Capa_1" xmlns="http://www.w3.org/2000/svg" xmlns:xlink="http://www.w3.org/1999/xlink" x="0px" y="0px"
	 viewBox="0 0 512 512" style="enable-background:new 0 0 512 512;" xml:space="preserve">
<path style="fill:#32D736;" d="M421,75v422c0,0.899-0.3,1.8-0.601,2.699H91.601C91.3,498.8,91,497.899,91,497V75
	c0-2.1,0.3-3.9,1.199-5.7H419.8C420.7,71.1,421,72.9,421,75z"/>
<g>
	<path style="fill:#10BB67;" d="M421,75v422c0,0.899-0.3,1.8-0.601,2.699H256V69.3h163.801C420.7,71.1,421,72.9,421,75z"/>
	<path style="fill:#10BB67;" d="M451,135c0,8.399-6.599,15-15,15H76c-8.401,0-15-6.601-15-15c0-8.401,6.599-15,15-15h360
		C444.401,120,451,126.599,451,135z"/>
	<path style="fill:#10BB67;" d="M451,75c0,8.401-6.599,15-15,15H76c-8.401,0-15-6.599-15-15s6.599-15,15-15h360
		C444.401,60,451,66.599,451,75z"/>
	<path style="fill:#10BB67;" d="M451,497c0,8.399-6.599,15-15,15H76c-8.401,0-15-6.601-15-15c0-8.401,6.599-15,15-15h360
		C444.401,482,451,488.599,451,497z"/>
	<path style="fill:#10BB67;" d="M451,437c0,8.399-6.599,15-15,15H76c-8.401,0-15-6.601-15-15c0-8.401,6.599-15,15-15h360
		C444.401,422,451,428.599,451,437z"/>
</g>
<g>
	<path style="fill:#555A66;" d="M307.599,269.399c0-0.3-0.298-0.3-0.599-0.601c0-0.298,0-0.298,0-0.599l-39-52.2
		c-0.3-0.601-1.201-0.901-1.501-1.501C263.5,211.8,259.9,210,256,210c-3.6,0-7.5,1.5-10.499,4.499C244.9,215.1,244.3,215.4,244,216
		l-39,52.2c0,0.3,0,0.3,0,0.599c-0.3,0.3-0.599,0.601-0.899,0.901C199,278.7,196,289.201,196,300c0,32.999,27.001,60,60,60
		s60-27.001,60-60C316,289.2,313.001,278.699,307.599,269.399z"/>
	<path style="fill:#555A66;" d="M406,90h-90c-8.291,0-15-6.709-15-15V45c0-24.814,20.186-45,45-45h30c24.814,0,45,20.186,45,45v30
		C421,83.291,414.291,90,406,90z"/>
</g>
<path style="fill:#3C3A41;" d="M256,360V210c3.9,0,7.5,1.8,10.499,4.499c0.3,0.601,1.201,0.901,1.501,1.501l39,52.2
	c0,0.3,0,0.3,0,0.599c0.3,0.3,0.599,0.3,0.599,0.601c5.402,9.299,8.401,19.8,8.401,30.6C316,332.999,288.999,360,256,360z"/>
<g>
	<path style="fill:#0CA656;" d="M451,497c0,8.399-6.599,15-15,15H256v-30h180C444.401,482,451,488.599,451,497z"/>
	<path style="fill:#0CA656;" d="M451,437c0,8.399-6.599,15-15,15H256v-30h180C444.401,422,451,428.599,451,437z"/>
	<path style="fill:#0CA656;" d="M451,135c0,8.399-6.599,15-15,15H256v-30h180C444.401,120,451,126.599,451,135z"/>
	<path style="fill:#0CA656;" d="M436,90H256V60h180c8.401,0,15,6.599,15,15S444.401,90,436,90z"/>
</g>
<g>
</g>
<g>
</g>
<g>
</g>
<g>
</g>
<g>
</g>
<g>
</g>
<g>
</g>
<g>
</g>
<g>
</g>
<g>
</g>
<g>
</g>
<g>
</g>
<g>
</g>
<g>
</g>
<g>
</g>
</svg>
