<?xml version="1.0" encoding="iso-8859-1"?>
<!-- Generator: Adobe Illustrator 19.0.0, SVG Export Plug-In . SVG Version: 6.00 Build 0)  -->
<svg version="1.1" id="Capa_1" xmlns="http://www.w3.org/2000/svg" xmlns:xlink="http://www.w3.org/1999/xlink" x="0px" y="0px"
	 viewBox="0 0 512 512" style="enable-background:new 0 0 512 512;" xml:space="preserve">
<path style="fill:#FEDB41;" d="M450.62,406.207H61.38V74.854c0-8.268,6.703-14.971,14.971-14.971h359.298
	c8.268,0,14.971,6.703,14.971,14.971V406.207z"/>
<path style="fill:#FCBF29;" d="M435.649,59.883H256v346.324h194.62V74.854C450.62,66.586,443.917,59.883,435.649,59.883z"/>
<path style="fill:#FF873C;" d="M300.913,211.587c-2.904,0-5.801-0.844-8.305-2.514L256,184.667l-36.608,24.405
	c-5.32,3.547-12.399,3.369-17.589-0.709c-3.695-2.903-5.686-7.473-5.686-12.172V74.854c0-8.268,6.703-14.971,14.971-14.971h89.825
	c8.268,0,14.971,6.703,14.971,14.971v121.3c0,5.266-2.531,10.323-6.987,13.127C306.445,210.823,303.676,211.587,300.913,211.587z"/>
<path style="fill:#E5741A;" d="M292.608,209.073c2.505,1.671,5.4,2.514,8.305,2.514c2.763,0,5.532-0.764,7.982-2.305
	c4.456-2.805,6.987-7.862,6.987-13.127v-121.3c0-8.268-6.703-14.971-14.971-14.971H256v124.784L292.608,209.073z"/>
<path style="fill:#555A66;" d="M469.583,89.825H50.402c-8.268,0-14.971-6.703-14.971-14.971V14.971C35.431,6.703,42.134,0,50.402,0
	h419.181c8.268,0,14.971,6.703,14.971,14.971v59.883C484.554,83.122,477.851,89.825,469.583,89.825z"/>
<path style="fill:#3C3A41;" d="M469.583,0H256v89.825h213.583c8.268,0,14.971-6.703,14.971-14.971V14.971
	C484.554,6.703,477.851,0,469.583,0z"/>
<path style="fill:#555A66;" d="M436.647,362.292H75.353c-41.319,0-74.854,33.535-74.854,74.854S34.034,512,75.353,512h361.294
	c41.319,0,74.854-33.535,74.854-74.854S477.966,362.292,436.647,362.292z"/>
<path style="fill:#3C3A41;" d="M511.501,437.146c0,41.319-33.535,74.854-74.854,74.854H256V362.292h180.647
	C477.966,362.292,511.501,395.827,511.501,437.146z"/>
<rect x="75.353" y="392.234" style="fill:#707789;" width="361.294" height="89.825"/>
<rect x="256" y="392.234" style="fill:#555A66;" width="180.647" height="89.825"/>
<path style="fill:#CDD2E1;" d="M75.353,392.234c-24.766,0-44.912,20.147-44.912,44.912s20.147,44.912,44.912,44.912
	s44.912-20.147,44.912-44.912S100.118,392.234,75.353,392.234z"/>
<path style="fill:#BEC3D2;" d="M436.647,392.234c-24.766,0-44.912,20.147-44.912,44.912s20.147,44.912,44.912,44.912
	s44.912-20.147,44.912-44.912S461.413,392.234,436.647,392.234z"/>
<circle style="fill:#555A66;" cx="75.353" cy="437.146" r="14.971"/>
<path style="fill:#CDD2E1;" d="M256,392.234c-24.766,0-44.912,20.147-44.912,44.912s20.147,44.912,44.912,44.912
	s44.912-20.147,44.912-44.912S280.766,392.234,256,392.234z"/>
<path style="fill:#BEC3D2;" d="M300.912,437.146c0-24.766-20.147-44.912-44.912-44.912v89.825
	C280.766,482.058,300.912,461.912,300.912,437.146z"/>
<circle style="fill:#555A66;" cx="256" cy="437.146" r="14.971"/>
<g>
	<path style="fill:#3C3A41;" d="M270.971,437.146c0-8.268-6.703-14.971-14.971-14.971v29.942
		C264.268,452.117,270.971,445.414,270.971,437.146z"/>
	<circle style="fill:#3C3A41;" cx="436.647" cy="437.146" r="14.971"/>
</g>
<g>
</g>
<g>
</g>
<g>
</g>
<g>
</g>
<g>
</g>
<g>
</g>
<g>
</g>
<g>
</g>
<g>
</g>
<g>
</g>
<g>
</g>
<g>
</g>
<g>
</g>
<g>
</g>
<g>
</g>
</svg>
