<?xml version="1.0" encoding="iso-8859-1"?>
<!-- Generator: Adobe Illustrator 19.0.0, SVG Export Plug-In . SVG Version: 6.00 Build 0)  -->
<svg version="1.1" id="Capa_1" xmlns="http://www.w3.org/2000/svg" xmlns:xlink="http://www.w3.org/1999/xlink" x="0px" y="0px"
	 viewBox="0 0 512 512" style="enable-background:new 0 0 512 512;" xml:space="preserve">
<path style="fill:#FEA832;" d="M512,196c0,66.301-53.699,120-120,120l-30,30H150l-30-30C53.699,316,0,262.301,0,196
	S53.699,76,120,76h272C458.301,76,512,129.699,512,196z"/>
<path style="fill:#713708;" d="M302.756,27.25C302.432,28.479,302,29.669,302,31v60c0,8.291,6.709,15,15,15h60
	c8.291,0,15-6.709,15-15V31c0-1.331-0.432-2.521-0.756-3.75H302.756z"/>
<path style="fill:#FF873C;" d="M512,196c0,66.301-53.699,120-120,120l-30,30H256V76h136C458.301,76,512,129.699,512,196z"/>
<path style="fill:#994C0F;" d="M180,76v60h-30V76h-30v285c0,5.7,3.3,10.8,8.401,13.5l60,30c2.098,0.899,4.199,1.5,6.599,1.5
	c2.701,0,5.4-0.601,7.8-2.1c4.499-2.999,7.2-7.8,7.2-12.9V76H180z M150,166h30v30h-30V166z M150,226h30v30h-30V226z M180,366.7
	l-30-15V286h30V366.7z"/>
<path style="fill:#555A66;" d="M467,316H45c-24.901,0-45,20.099-45,45v30c0,24.901,20.099,45,45,45h422c24.901,0,45-20.099,45-45
	v-30C512,336.099,491.901,316,467,316z"/>
<g>
	<path style="fill:#3C3A41;" d="M512,361v30c0,24.901-20.099,45-45,45H256V316h211C491.901,316,512,336.099,512,361z"/>
	<path style="fill:#3C3A41;" d="M120,496c-33.091,0-60-26.909-60-60s26.909-60,60-60s60,26.909,60,60S153.091,496,120,496z"/>
</g>
<path style="fill:#CDD2E1;" d="M120,466c-16.538,0-30-13.462-30-30s13.462-30,30-30s30,13.462,30,30S136.538,466,120,466z"/>
<path style="fill:#2B292C;" d="M392,496c-33.091,0-60-26.909-60-60s26.909-60,60-60s60,26.909,60,60S425.091,496,392,496z"/>
<path style="fill:#BEC3D2;" d="M392,466c-16.538,0-30-13.462-30-30s13.462-30,30-30s30,13.462,30,30S408.538,466,392,466z"/>
<path style="fill:#FF873C;" d="M407,46H287c-8.291,0-15-6.709-15-15s6.709-15,15-15h120c8.291,0,15,6.709,15,15S415.291,46,407,46z"
	/>
<g>
</g>
<g>
</g>
<g>
</g>
<g>
</g>
<g>
</g>
<g>
</g>
<g>
</g>
<g>
</g>
<g>
</g>
<g>
</g>
<g>
</g>
<g>
</g>
<g>
</g>
<g>
</g>
<g>
</g>
</svg>
